<svg width="391" height="166" viewBox="0 0 391 166" fill="none" xmlns="http://www.w3.org/2000/svg">
<ellipse cx="195.5" cy="83" rx="83" ry="195.5" transform="rotate(-90 195.5 83)" fill="#424FD3"/>
<g clip-path="url(#clip0)">
<path d="M133.94 65.9906L132.721 71.1895L137.583 72.0218L138.802 66.8393L133.94 65.9906Z" fill="white"/>
<path d="M149.19 41.8341L146.096 55.0087L158.843 57.2293L161.938 44.0384L149.19 41.8341Z" fill="white"/>
<path d="M135.332 60.4427L142.274 30.8315L173.264 36.2149L165.759 68.2319L165.141 68.1231L134.769 62.8485L135.332 60.4427ZM162.235 62.6193L167.489 40.1927L145.783 36.4266L140.528 58.8532L162.235 62.6193Z" fill="white"/>
<path d="M159.796 71.3761L158.578 76.5586L153.57 75.6834L152.348 80.9149L157.372 81.7913L158.593 76.5761L163.439 77.4073L164.657 72.2248L159.796 71.3761Z" fill="white"/>
<path d="M125.469 112.529L124.25 117.728L135.518 119.681L136.736 114.498L125.469 112.529Z" fill="white"/>
<path d="M191.585 39.4489L189.125 49.9108L194.149 50.7873L196.608 40.3253L191.585 39.4489Z" fill="white"/>
<path d="M209.269 52.2548L206.174 65.4457L218.922 67.6499L222.016 54.4754L209.269 52.2548Z" fill="white"/>
<path d="M195.41 70.8797L202.37 41.2533L233.344 46.6356L225.839 78.6526L225.221 78.5438L194.848 73.2691L195.41 70.8797ZM222.313 73.0563L227.584 50.6308L205.878 46.8648L200.623 69.2914L222.313 73.0563Z" fill="white"/>
<path d="M180.317 37.4958L177.873 47.9589L176.655 53.1414L187.923 55.0945L185.508 65.3954L171.639 62.9815L170.42 68.1804L184.29 70.578L183.379 74.42L169.526 72.0235L168.308 77.2061L165.913 87.4428L161.035 86.593L159.841 91.6787L158.669 96.6676L156.228 107.098L151.626 106.3L152.827 101.133L154.046 95.9341L156.178 86.8606L151.155 85.9841L152.348 80.9148L146.105 79.8218L148.775 68.472L143.735 67.5944L141.082 78.9454L139.862 84.1442L151.13 86.0973L149.021 95.074L135.185 92.6624L136.384 87.5277L131.506 86.6779L130.287 91.8768L135.148 92.7254L133.95 97.8601L147.803 100.257L146.586 105.423L132.765 103.029L133.981 97.8788L129.104 97.029L127.884 102.228L132.73 103.059L131.514 108.209L137.953 109.332L136.737 114.482L141.76 115.375L142.978 110.192L150.147 111.448L159.952 113.151L158.802 118.06L158.311 120.142L153.84 119.354L152.615 124.634L143.136 122.987L141.917 128.186L151.397 129.817L152.047 129.944L154.844 130.419L156.421 130.693L173.722 133.692L174.94 128.509L162.111 126.283L163.78 119.13L172.901 120.719L174.096 115.634L178.827 116.457L180.046 111.258L175.07 110.401L176.286 105.251L181.148 106.1L182.367 100.901L177.489 100.051L176.272 105.218L171.427 104.37L170.212 109.52L161.252 107.974L163.646 97.7377L172.767 99.3273L173.962 94.2416L178.694 95.0648L183.54 95.896L184.738 90.7613L185.957 85.5624L181.08 84.7126L179.88 89.8636L170.938 88.3029L173.331 78.0825L187.185 80.479L185.969 85.6289L190.489 86.4208L189.273 91.5707L194.118 92.4182L192.919 97.5529L197.782 98.3852L199 93.2027L194.155 92.3552L195.35 87.2694L198.895 87.8784L200.472 88.1528L207.756 89.417L205.316 99.8474L210.341 100.708L212.78 90.2934L217.723 91.1478L216.524 96.2989L221.402 97.1487L222.605 91.9486L217.775 91.1186L218.972 86.0002L223.817 86.8477L225.036 81.6488L220.159 80.799L218.959 85.9501L201.691 82.9539L202.932 77.6908L197.908 76.8144L196.668 82.0774L187.204 80.4475L188.381 75.3769L189.314 71.4544L190.533 66.2555L192.972 55.8578L187.948 54.9813L189.141 49.9119L182.898 48.819L185.341 38.3722L180.317 37.4958Z" fill="white"/>
<path d="M195.186 114.565L192.092 127.739L204.855 129.961L207.949 116.787L195.186 114.565Z" fill="white"/>
<path d="M180.824 133.089L187.766 103.478L218.74 108.86L211.235 140.877L210.617 140.768L180.245 135.494L180.824 133.089ZM207.727 135.266L212.982 112.839L191.275 109.073L186.021 131.499L207.727 135.266Z" fill="white"/>
</g>
<defs>
<clipPath id="clip0">
<rect width="103.869" height="104.951" fill="white" transform="matrix(-0.997564 -0.0697565 -0.0697565 0.997564 234 37.2456)"/>
</clipPath>
</defs>
</svg>
