<svg width="391" height="632" viewBox="0 0 391 632" fill="none" xmlns="http://www.w3.org/2000/svg">
<ellipse cx="195.5" cy="316.5" rx="315.5" ry="195.5" transform="rotate(-90 195.5 316.5)" fill="#424FD3"/>
<g clip-path="url(#clip0)">
<path d="M95.2493 35.9905L94.03 41.1894L98.8924 42.0217L100.111 36.8391L95.2493 35.9905Z" fill="white"/>
<path d="M110.499 11.834L107.405 25.0085L120.152 27.2291L123.247 14.0383L110.499 11.834Z" fill="white"/>
<path d="M96.6409 30.4426L103.583 0.831336L134.573 6.21482L127.068 38.2318L126.45 38.123L96.0777 32.8483L96.6409 30.4426ZM123.544 32.6192L128.798 10.1926L107.092 6.4265L101.837 28.8531L123.544 32.6192Z" fill="white"/>
<path d="M121.105 41.3759L119.887 46.5584L114.879 45.6831L113.658 50.9146L118.681 51.7911L119.902 46.5759L124.748 47.4071L125.966 42.2245L121.105 41.3759Z" fill="white"/>
<path d="M86.7783 82.5287L85.559 87.7275L96.8271 89.6806L98.0452 84.4981L86.7783 82.5287Z" fill="white"/>
<path d="M152.894 9.44875L150.434 19.9107L155.458 20.7871L157.918 10.3252L152.894 9.44875Z" fill="white"/>
<path d="M170.578 22.2546L167.483 35.4455L180.231 37.6498L183.325 24.4752L170.578 22.2546Z" fill="white"/>
<path d="M156.719 40.8797L163.679 11.2533L194.653 16.6356L187.148 48.6526L186.53 48.5438L156.157 43.2691L156.719 40.8797ZM183.622 43.0563L188.893 20.6308L167.187 16.8648L161.932 39.2914L183.622 43.0563Z" fill="white"/>
<path d="M141.626 7.49578L139.183 17.9589L137.964 23.1414L149.232 25.0945L146.817 35.3954L132.948 32.9815L131.729 38.1804L145.599 40.578L144.688 44.42L130.835 42.0235L129.617 47.2061L127.222 57.4428L122.345 56.593L121.15 61.6787L119.978 66.6676L117.537 77.0981L112.936 76.3004L114.136 71.133L115.355 65.9341L117.488 56.8606L112.464 55.9841L113.657 50.9148L107.414 49.8218L110.084 38.472L105.044 37.5944L102.391 48.9454L101.171 54.1442L112.439 56.0973L110.33 65.074L96.4943 62.6624L97.6927 57.5277L92.8151 56.6779L91.5958 61.8768L96.457 62.7254L95.2587 67.8601L109.112 70.2566L107.895 75.4228L94.0744 73.0286L95.2903 67.8788L90.4127 67.029L89.1934 72.2278L94.0394 73.059L92.8235 78.2089L99.2619 79.332L98.046 84.4818L103.069 85.3746L104.287 80.1921L111.457 81.4483L121.261 83.1513L120.111 88.0597L119.62 90.1423L115.15 89.3538L113.925 94.6343L104.445 92.9868L103.226 98.1857L112.706 99.8168L113.356 99.9443L116.153 100.419L117.73 100.693L135.031 103.692L136.249 98.5092L123.42 96.2829L125.089 89.1298L134.21 90.7194L135.405 85.6337L140.136 86.4569L141.355 81.258L136.38 80.4013L137.595 75.2514L142.457 76.1001L143.676 70.9012L138.798 70.0514L137.581 75.2176L132.736 74.3701L131.521 79.52L122.561 77.9745L124.955 67.7377L134.076 69.3273L135.271 64.2416L140.003 65.0648L144.849 65.896L146.047 60.7613L147.266 55.5624L142.389 54.7126L141.189 59.8636L132.247 58.3029L134.64 48.0825L148.494 50.479L147.278 55.6289L151.798 56.4208L150.582 61.5707L155.427 62.4182L154.229 67.5529L159.091 68.3852L160.309 63.2027L155.464 62.3552L156.659 57.2694L160.204 57.8784L161.781 58.1528L169.066 59.417L166.625 69.8474L171.65 70.7075L174.089 60.2934L179.033 61.1478L177.833 66.2989L182.711 67.1487L183.914 61.9486L179.084 61.1186L180.281 56.0002L185.126 56.8477L186.345 51.6488L181.468 50.799L180.268 55.9501L163.001 52.9539L164.241 47.6908L159.217 46.8144L157.977 52.0774L148.513 50.4475L149.69 45.3769L150.623 41.4544L151.842 36.2555L154.281 25.8578L149.257 24.9813L150.451 19.9119L144.208 18.819L146.65 8.37221L141.626 7.49578Z" fill="white"/>
<path d="M156.495 84.5649L153.401 97.7394L166.165 99.9612L169.258 86.7866L156.495 84.5649Z" fill="white"/>
<path d="M142.133 103.089L149.075 73.4776L180.049 78.86L172.544 110.877L171.926 110.768L141.554 105.494L142.133 103.089ZM169.036 105.266L174.291 82.8389L152.584 79.0728L147.33 101.499L169.036 105.266Z" fill="white"/>
</g>
<g clip-path="url(#clip1)">
<path d="M146.277 512.887L145.601 515.769L148.297 516.23L148.972 513.357L146.277 512.887Z" fill="white"/>
<path d="M154.73 499.495L153.016 506.799L160.082 508.03L161.798 500.717L154.73 499.495Z" fill="white"/>
<path d="M147.048 509.811L150.896 493.396L168.076 496.38L163.916 514.129L163.573 514.069L146.736 511.145L147.048 509.811ZM161.962 511.018L164.875 498.585L152.842 496.498L149.929 508.93L161.962 511.018Z" fill="white"/>
<path d="M160.61 515.872L159.935 518.745L157.159 518.26L156.482 521.16L159.267 521.646L159.943 518.755L162.63 519.216L163.305 516.343L160.61 515.872Z" fill="white"/>
<path d="M141.581 538.686L140.905 541.568L147.151 542.651L147.826 539.778L141.581 538.686Z" fill="white"/>
<path d="M178.233 498.173L176.869 503.973L179.654 504.459L181.018 498.659L178.233 498.173Z" fill="white"/>
<path d="M188.036 505.272L186.321 512.585L193.388 513.807L195.103 506.503L188.036 505.272Z" fill="white"/>
<path d="M180.354 515.597L184.212 499.173L201.382 502.157L197.222 519.906L196.879 519.846L180.042 516.922L180.354 515.597ZM195.267 516.804L198.189 504.372L186.156 502.284L183.243 514.717L195.267 516.804Z" fill="white"/>
<path d="M171.986 497.09L170.632 502.891L169.956 505.764L176.203 506.846L174.864 512.557L167.175 511.219L166.499 514.101L174.188 515.43L173.684 517.56L166.004 516.231L165.329 519.104L164.001 524.779L161.297 524.308L160.635 527.127L159.985 529.893L158.632 535.675L156.081 535.233L156.747 532.368L157.423 529.486L158.605 524.456L155.82 523.97L156.481 521.16L153.021 520.554L154.501 514.262L151.706 513.776L150.235 520.068L149.56 522.95L155.806 524.033L154.637 529.01L146.967 527.673L147.631 524.826L144.927 524.355L144.251 527.237L146.946 527.708L146.282 530.554L153.962 531.883L153.287 534.746L145.625 533.419L146.299 530.564L143.595 530.093L142.919 532.975L145.606 533.436L144.932 536.291L148.501 536.914L147.827 539.768L150.611 540.263L151.287 537.39L155.261 538.087L160.696 539.031L160.059 541.752L159.787 542.906L157.309 542.469L156.629 545.397L151.375 544.483L150.699 547.365L155.954 548.27L156.314 548.34L157.865 548.603L158.739 548.755L168.33 550.418L169.005 547.545L161.893 546.311L162.818 542.345L167.875 543.226L168.537 540.407L171.16 540.863L171.836 537.981L169.078 537.506L169.752 534.651L172.447 535.122L173.123 532.24L170.419 531.769L169.744 534.633L167.058 534.163L166.384 537.018L161.417 536.161L162.745 530.486L167.801 531.367L168.463 528.548L171.086 529.004L173.773 529.465L174.437 526.619L175.113 523.737L172.409 523.266L171.744 526.121L166.787 525.256L168.114 519.59L175.794 520.919L175.119 523.773L177.625 524.213L176.951 527.067L179.637 527.537L178.972 530.384L181.668 530.845L182.343 527.972L179.657 527.502L180.32 524.683L182.285 525.021L183.159 525.173L187.197 525.873L185.844 531.656L188.63 532.133L189.983 526.359L192.723 526.833L192.058 529.689L194.762 530.16L195.429 527.277L192.751 526.817L193.415 523.979L196.101 524.449L196.777 521.567L194.073 521.096L193.408 523.952L183.835 522.291L184.523 519.373L181.738 518.887L181.05 521.805L175.804 520.901L176.457 518.09L176.974 515.916L177.649 513.034L179.001 507.27L176.216 506.784L176.878 503.973L173.417 503.368L174.771 497.576L171.986 497.09Z" fill="white"/>
<path d="M180.229 539.815L178.514 547.118L185.59 548.35L187.305 541.046L180.229 539.815Z" fill="white"/>
<path d="M172.268 550.084L176.116 533.668L193.287 536.652L189.126 554.401L188.784 554.341L171.946 551.417L172.268 550.084ZM187.181 551.29L190.094 538.858L178.061 536.77L175.148 549.203L187.181 551.29Z" fill="white"/>
</g>
<defs>
<clipPath id="clip0">
<rect width="103.869" height="104.951" fill="white" transform="matrix(-0.997564 -0.0697565 -0.0697565 0.997564 195.309 7.24548)"/>
</clipPath>
<clipPath id="clip1">
<rect width="57.5808" height="58.1806" fill="white" transform="matrix(-0.997564 -0.0697565 -0.0697565 0.997564 201.746 496.952)"/>
</clipPath>
</defs>
</svg>
