<svg width="188" height="238" viewBox="0 0 188 238" fill="none" xmlns="http://www.w3.org/2000/svg">
<ellipse cx="30.5" cy="119" rx="119" ry="157.5" transform="rotate(-90 30.5 119)" fill="#424FD3"/>
<path d="M5.84007 230.086L164.75 179.16C167.618 178.293 168.63 174.309 167.618 169.632L137.422 46.6466C136.241 41.9697 132.867 38.6786 129.83 39.025L-36.8396 58.5988C-41.3943 59.1184 -44.0934 64.1418 -42.5752 69.8581L-4.45027 222.291C-3.26941 228.007 1.45403 231.472 5.84007 230.086Z" fill="white"/>
<path d="M164.581 178.813C167.28 177.947 168.461 173.789 167.449 169.632L136.746 46.6461C135.734 42.4888 132.529 39.1977 129.83 39.5441L-35.9964 59.1179C-40.2138 59.6376 -42.5755 64.3145 -41.2259 69.5111L-3.26974 221.944C-1.9202 227.141 2.29715 230.432 6.34581 229.046L164.581 178.813Z" fill="white"/>
<g opacity="0.3">
<g opacity="0.3">
<path opacity="0.3" d="M11.913 213.977L35.8675 206.702C40.0849 205.489 42.4466 199.773 40.9284 194.057L30.4693 151.964C29.1198 146.248 24.3963 142.437 20.0103 143.303L-4.45035 148.846C-9.17378 149.886 -11.7042 155.602 -10.186 161.665L0.947857 205.662C2.29741 211.552 7.35823 215.363 11.913 213.977ZM20.5164 144.862C24.2276 143.996 28.1076 147.287 29.2885 152.137L39.7475 194.23C40.9284 199.08 39.0727 203.93 35.3615 204.969L11.4069 212.245C7.52692 213.457 3.30957 210.166 2.12871 205.143L-8.83641 161.145C-10.0173 156.121 -7.99293 151.271 -3.94427 150.405L20.5164 144.862Z" fill="#F5F5F5"/>
</g>
<g opacity="0.3">
<g opacity="0.3">
<path opacity="0.3" d="M17.6489 184.183C25.7462 181.931 30.4696 173.097 28.4453 164.436V164.262L28.2766 163.57L27.7705 163.743L-1.58226 171.018L-1.41357 171.884C0.61076 181.065 9.21416 186.435 17.6489 184.183ZM27.2644 165.475C28.7827 173.097 24.3966 180.545 17.1428 182.451C9.72024 184.356 2.12901 179.852 -0.232702 172.231L27.2644 165.475Z" fill="#F5F5F5"/>
</g>
<g opacity="0.3">
<path opacity="0.3" d="M19.5044 191.804C27.6017 189.553 32.3252 180.719 30.1321 171.884V171.711L29.9634 171.018L29.4574 171.192L0.27326 178.813L0.441952 179.679C2.46628 188.687 11.2384 194.23 19.5044 191.804ZM29.12 173.097C30.6382 180.719 26.2522 188.167 18.9983 190.246C11.5758 192.324 3.98454 187.82 1.79151 180.199L29.12 173.097Z" fill="#F5F5F5"/>
</g>
<g opacity="0.3">
<path opacity="0.3" d="M11.913 208.087C20.179 205.662 24.059 192.324 20.5164 178.466C16.9738 164.609 7.52696 154.735 -0.907751 156.814L-1.58253 156.987L-1.41384 157.853L11.2382 208.434L11.913 208.087ZM0.10441 158.373C7.69565 156.987 16.1304 165.995 19.3355 178.813C22.5407 191.458 19.3355 203.583 12.0817 206.355L0.10441 158.373Z" fill="#F5F5F5"/>
</g>
<g opacity="0.3">
<path opacity="0.3" d="M33.1685 201.851L33.8433 201.678L33.6746 200.812L21.3599 151.617L20.6851 151.791C12.5878 153.696 8.70782 166.688 12.0817 180.718C15.6243 194.749 25.2399 204.276 33.1685 201.851ZM20.6851 153.523L32.325 200.465C25.0712 202.024 16.6365 193.363 13.4313 180.545C10.2261 167.554 13.4313 155.601 20.6851 153.523Z" fill="#F5F5F5"/>
</g>
</g>
</g>
<g opacity="0.72">
<g opacity="0.72">
<path opacity="0.3" d="M133.879 108.139C135.903 107.62 137.084 105.021 136.409 102.25L131.348 82.1566C130.674 79.3851 128.312 77.3064 126.288 77.6529L109.587 80.4244C107.394 80.7708 106.213 83.5423 106.888 86.3138L112.117 107.1C112.792 110.045 115.154 111.95 117.347 111.604L133.879 108.139Z" fill="url(#paint0_linear)"/>
<path opacity="0.72" d="M107.224 86.3134L112.454 107.1C113.129 109.698 115.153 111.43 117.009 111.084L133.709 107.619C135.565 107.273 136.409 104.848 135.902 102.423L130.842 82.1562C130.167 79.7311 128.311 77.8257 126.456 78.1721L109.755 80.9436C107.731 81.2901 106.718 83.7151 107.224 86.3134Z" fill="#F2F2F2"/>
</g>
</g>
<path d="M109.755 81.1183L126.287 78.3468C128.142 78.0003 129.998 79.7325 130.673 82.1576L135.565 102.078C136.24 104.503 135.228 106.755 133.372 107.274L117.009 110.739C115.153 111.085 113.129 109.353 112.454 106.928L112.285 106.062L109.249 93.5901L107.393 86.3149C106.887 83.8898 107.899 81.4647 109.755 81.1183Z" fill="url(#paint1_linear)"/>
<path d="M109.755 81.1183L126.287 78.3468C128.142 78.0003 129.998 79.7325 130.673 82.1576L135.565 102.078C136.24 104.503 135.228 106.755 133.372 107.274L117.009 110.739C115.153 111.085 113.129 109.353 112.454 106.928L112.285 106.062L109.249 93.5901L107.393 86.3149C106.887 83.8898 107.899 81.4647 109.755 81.1183Z" fill="url(#paint2_linear)"/>
<path d="M109.755 81.1183L126.287 78.3468C128.142 78.0003 129.998 79.7325 130.673 82.1576L135.565 102.078C136.24 104.503 135.228 106.755 133.372 107.274L117.009 110.739C115.153 111.085 113.129 109.353 112.454 106.928L112.285 106.062L109.249 93.5901L107.393 86.3149C106.887 83.8898 107.899 81.4647 109.755 81.1183Z" fill="#EA5616"/>
<g opacity="0.2">
<path opacity="0.2" d="M117.01 92.3767L119.877 103.982C119.877 104.156 120.046 104.156 120.046 104.156L127.975 102.597C128.143 102.597 128.143 102.423 128.143 102.25L122.408 79.0388H122.914L124.095 83.5425C124.095 83.7157 124.263 83.7157 124.263 83.7157L130.842 82.33L131.011 83.0229L124.432 84.2354C124.263 84.2354 124.263 84.4086 124.263 84.4086L125.613 90.1249C125.613 90.2981 125.782 90.2981 125.782 90.2981L132.529 89.2588L132.698 89.9516L126.119 91.1642C125.95 91.1642 125.95 91.3374 125.95 91.5106L127.131 96.3608C127.131 96.534 127.3 96.534 127.3 96.534L133.879 95.3214L134.216 95.6679L127.637 96.8804C127.469 96.8804 127.469 97.0536 127.469 97.2269L128.649 102.077C128.649 102.25 128.818 102.25 128.818 102.25L135.397 100.864L135.566 101.557L124.432 103.809C124.263 103.809 124.263 103.982 124.263 104.156L125.444 109.006L124.938 109.179L123.757 104.329C123.757 104.156 123.589 104.156 123.589 104.156L120.046 104.849L112.117 106.407H111.949L108.744 93.7625C108.744 93.5893 108.744 93.5893 108.912 93.416L116.841 92.0303C116.841 92.0303 117.01 92.2035 117.01 92.3767ZM109.418 94.4553L110.599 99.3055C110.599 99.4787 110.768 99.4787 110.768 99.4787L117.684 98.093C117.853 98.093 117.853 97.9197 117.853 97.7465L116.672 92.8964C116.672 92.7232 116.503 92.7232 116.503 92.7232L109.587 93.9357C109.418 94.1089 109.418 94.2821 109.418 94.4553ZM119.371 103.982L118.19 99.1323C118.19 98.9591 118.022 98.9591 118.022 98.9591L111.105 100.345C110.937 100.345 110.937 100.518 110.937 100.691L112.286 105.368C112.286 105.541 112.455 105.541 112.455 105.541L119.203 104.156C119.371 104.156 119.371 104.156 119.371 103.982Z" fill="black"/>
<path opacity="0.2" d="M107.225 86.4873L114.479 85.2747C114.648 85.2747 114.648 85.1015 114.648 84.9283L113.467 80.4246H113.973L115.323 85.6212C115.323 85.7944 115.323 85.7944 115.154 85.9676L107.394 87.3534L107.225 86.4873Z" fill="black"/>
</g>
<path d="M117.009 92.3767L119.877 103.982C119.877 104.156 120.045 104.156 120.045 104.156L127.974 102.597C128.143 102.597 128.143 102.423 128.143 102.25L122.407 79.0388H122.913L124.094 83.5425C124.094 83.7157 124.263 83.7157 124.263 83.7157L130.842 82.5032V83.1961L124.263 84.4086C124.094 84.4086 124.094 84.5818 124.094 84.5818L125.444 90.2981C125.444 90.4713 125.612 90.4713 125.612 90.4713L132.529 89.2587V89.9516L125.95 91.1642C125.781 91.1642 125.781 91.3374 125.781 91.5106L126.962 96.3607C126.962 96.5339 127.13 96.5339 127.13 96.5339L133.71 95.3214L133.878 96.0143L127.299 97.2268C127.13 97.2268 127.13 97.4 127.13 97.5733L128.311 102.423C128.311 102.597 128.48 102.597 128.48 102.597L135.059 101.211L135.228 101.904L124.094 104.156C123.925 104.156 123.925 104.329 123.925 104.502L125.106 109.352L124.6 109.525L123.419 104.675C123.419 104.502 123.25 104.502 123.25 104.502L119.708 105.195L111.779 106.754H111.611L108.405 94.1089C108.405 93.9357 108.405 93.9357 108.574 93.7624L116.503 92.3767C116.84 92.2035 116.84 92.2035 117.009 92.3767ZM109.418 94.4553L110.598 99.4787C110.598 99.6519 110.767 99.6519 110.767 99.6519L117.684 98.2661C117.852 98.2661 117.852 98.0929 117.852 97.9197L116.671 93.0696C116.671 92.8963 116.503 92.8963 116.503 92.8963L109.586 94.1089C109.418 94.2821 109.418 94.2821 109.418 94.4553ZM119.371 103.982L118.19 99.1322C118.19 98.959 118.021 98.959 118.021 98.959L111.105 100.345C110.936 100.345 110.936 100.518 110.936 100.691L112.117 105.541C112.117 105.715 112.285 105.715 112.285 105.715L119.033 104.329C119.371 104.329 119.371 104.156 119.371 103.982Z" fill="url(#paint3_linear)"/>
<path d="M107.225 86.6605L114.479 85.448C114.648 85.448 114.648 85.2747 114.648 85.1015L113.467 80.5978L113.973 80.4246L115.323 85.6212C115.323 85.7944 115.323 85.7944 115.154 85.9676L107.394 87.3534L107.225 86.6605Z" fill="url(#paint4_linear)"/>
<path d="M135.396 102.598L130.504 82.6775C129.829 80.2524 127.973 78.5202 126.118 78.8667L109.586 81.6382C108.742 81.8114 108.067 82.331 107.561 83.1971C107.899 82.1578 108.742 81.4649 109.754 81.2917L126.286 78.5202C128.142 78.1738 129.998 79.906 130.672 82.331L135.564 102.251C135.902 103.637 135.733 104.85 135.227 105.716C135.733 104.85 135.733 103.637 135.396 102.598Z" fill="url(#paint5_linear)"/>
<g opacity="0.3">
<path opacity="0.3" d="M113.804 84.2354L113.13 81.8103C113.13 81.6371 112.792 81.4639 112.624 81.4639L109.756 81.9835C108.406 82.1567 107.563 83.5425 107.563 85.2747C107.563 85.6211 107.731 85.7943 108.069 85.7943L113.467 84.9283C113.804 84.755 113.973 84.4086 113.804 84.2354Z" fill="#EA5616"/>
<path opacity="0.3" d="M129.662 81.9834C129.83 81.9834 129.999 81.637 129.83 81.2905C129.155 79.7315 127.806 78.8654 126.456 79.0386L123.757 79.5583C123.589 79.5583 123.42 79.7315 123.589 80.0779L124.263 82.5031C124.263 82.6763 124.432 82.8496 124.769 82.8496L129.662 81.9834Z" fill="#EA5616"/>
<path opacity="0.3" d="M118.697 103.29L117.853 100.172C117.853 99.9984 117.516 99.8252 117.347 99.8252L111.949 100.864C111.78 100.864 111.611 101.211 111.78 101.384L112.624 104.502C112.624 104.675 112.961 104.848 113.13 104.848L118.528 103.809C118.528 103.636 118.697 103.463 118.697 103.29Z" fill="#EA5616"/>
<path opacity="0.3" d="M117.178 97.2266L116.335 94.1085C116.335 93.9353 115.997 93.7621 115.829 93.7621L110.43 94.8014C110.262 94.8014 110.093 95.1479 110.262 95.3211L111.105 98.4391C111.105 98.6124 111.443 98.7856 111.611 98.7856L116.841 97.7462C117.01 97.7462 117.178 97.3998 117.178 97.2266Z" fill="#EA5616"/>
<path opacity="0.3" d="M127.469 101.384L122.239 80.2511C122.239 80.0779 122.07 79.9047 121.733 79.9047L115.154 81.1172C114.985 81.1172 114.816 81.2904 114.985 81.6369L115.997 85.6209C115.997 85.9673 115.997 86.3138 115.829 86.487C115.829 86.6602 115.66 86.6602 115.491 86.8334L108.912 88.0459C108.743 88.0459 108.575 88.2192 108.743 88.5656L109.756 92.5496C109.756 92.7229 110.093 92.8961 110.262 92.8961L116.672 91.6835C117.178 91.5103 117.853 92.03 118.022 92.8961L120.215 102.943C120.215 103.116 120.552 103.289 120.721 103.289L127.3 101.903C127.3 101.903 127.469 101.73 127.469 101.384Z" fill="#EA5616"/>
<path opacity="0.3" d="M131.686 88.2193L130.674 84.2355C130.674 84.0623 130.505 83.889 130.168 83.889L125.107 84.7551C124.938 84.7551 124.77 84.9283 124.938 85.2747L125.95 89.2586C125.95 89.4318 126.119 89.605 126.457 89.605L131.517 88.739C131.686 88.739 131.686 88.3925 131.686 88.2193Z" fill="#EA5616"/>
<path opacity="0.3" d="M134.554 99.9983L133.879 96.8803C133.879 96.707 133.71 96.5338 133.541 96.5338L128.481 97.5732C128.312 97.5732 128.143 97.7464 128.312 98.0928L128.818 101.211C128.818 101.384 128.987 101.557 129.324 101.557L134.385 100.518C134.554 100.518 134.722 100.172 134.554 99.9983Z" fill="#EA5616"/>
<path opacity="0.3" d="M133.373 106.581C134.723 106.234 135.566 104.675 135.397 102.943C135.397 102.597 135.229 102.423 134.891 102.423L125.276 104.329C125.107 104.329 124.938 104.675 125.107 104.848L125.782 107.793C125.782 107.966 125.95 108.14 126.288 108.14L133.373 106.581Z" fill="#EA5616"/>
<path opacity="0.3" d="M124.264 108.139L123.589 105.368C123.589 105.195 123.252 105.022 123.083 105.022L113.467 106.927C113.299 106.927 113.13 107.273 113.299 107.447C113.973 109.179 115.492 110.391 117.01 110.045L124.095 108.486C124.264 108.486 124.264 108.313 124.264 108.139Z" fill="#EA5616"/>
<path opacity="0.3" d="M133.204 94.109L132.529 90.991C132.529 90.8178 132.361 90.6445 132.023 90.6445L126.962 91.6839C126.794 91.6839 126.625 91.8571 126.794 92.2036L127.468 95.1484C127.468 95.3216 127.637 95.4948 127.975 95.4948L133.035 94.4555C133.204 94.6287 133.204 94.2823 133.204 94.109Z" fill="#EA5616"/>
</g>
<path opacity="0.2" d="M166.943 171.191L136.241 48.0324C135.229 43.8752 132.023 40.584 129.324 40.9304L-36.8394 60.8507C-41.0567 61.5435 167.955 175.522 166.943 171.191Z" fill="#F1F2F2"/>
<defs>
<linearGradient id="paint0_linear" x1="133.543" y1="91.0929" x2="109.47" y2="97.0999" gradientUnits="userSpaceOnUse">
<stop stop-color="#B5B5B5"/>
<stop offset="1" stop-color="#C2C2C2"/>
</linearGradient>
<linearGradient id="paint1_linear" x1="129.903" y1="79.814" x2="112.362" y2="108.667" gradientUnits="userSpaceOnUse">
<stop stop-color="#F6D472"/>
<stop offset="1" stop-color="#FEB032"/>
</linearGradient>
<linearGradient id="paint2_linear" x1="129.903" y1="79.814" x2="112.362" y2="108.667" gradientUnits="userSpaceOnUse">
<stop stop-color="#E2BC6C"/>
<stop offset="0.4636" stop-color="#C78E34"/>
<stop offset="1" stop-color="#C2862B"/>
</linearGradient>
<linearGradient id="paint3_linear" x1="133.049" y1="91.692" x2="109.636" y2="97.5342" gradientUnits="userSpaceOnUse">
<stop stop-color="#F6D472"/>
<stop offset="1" stop-color="#FEB032"/>
</linearGradient>
<linearGradient id="paint4_linear" x1="114.636" y1="83.1647" x2="106.804" y2="85.1188" gradientUnits="userSpaceOnUse">
<stop stop-color="#F6D472"/>
<stop offset="1" stop-color="#FEB032"/>
</linearGradient>
<linearGradient id="paint5_linear" x1="129.899" y1="79.8117" x2="119.895" y2="96.2661" gradientUnits="userSpaceOnUse">
<stop stop-color="#F6D472"/>
<stop offset="1" stop-color="#FEB032"/>
</linearGradient>
</defs>
</svg>
