<svg width="105" height="101" viewBox="0 0 105 101" fill="none" xmlns="http://www.w3.org/2000/svg">
<ellipse cx="83.5" cy="44.5" rx="44.5" ry="83.5" transform="rotate(-90 83.5 44.5)" fill="#424FD3"/>
<g clip-path="url(#clip0)">
<path d="M75.147 100.24L10.308 79.9364C9.1379 79.5911 8.72491 78.0028 9.1379 76.1382L21.4587 27.1068C21.9405 25.2422 23.3171 23.9301 24.5561 24.0683L92.5613 31.8718C94.4197 32.079 95.521 34.0817 94.9015 36.3606L79.3457 97.1319C78.8639 99.4109 76.9366 100.792 75.147 100.24Z" fill="white"/>
<path d="M10.3767 79.799C9.27542 79.4537 8.79361 77.7963 9.20659 76.1389L21.7339 27.1076C22.1469 25.4502 23.4546 24.138 24.5559 24.2762L92.217 32.0798C93.9378 32.2869 94.9014 34.1515 94.3507 36.2232L78.8637 96.9946C78.3131 99.0663 76.5923 100.378 74.9404 99.8259L10.3767 79.799Z" fill="white"/>
<g opacity="0.3">
<g opacity="0.3">
<path opacity="0.3" d="M72.6688 93.8179L62.8948 90.9175C61.174 90.4341 60.2104 88.1551 60.8299 85.8762L65.0974 69.0951C65.6481 66.8161 67.5753 65.2968 69.3649 65.6421L79.3454 67.852C81.2727 68.2663 82.3052 70.5453 81.6857 72.9623L77.1429 90.5031C76.5922 92.8511 74.5273 94.3704 72.6688 93.8179ZM69.1584 66.2637C67.6442 65.9184 66.061 67.2305 65.5792 69.1641L61.3117 85.9453C60.8299 87.8789 61.587 89.8125 63.1013 90.2269L72.8753 93.1273C74.4584 93.6107 76.1792 92.2986 76.661 90.2959L81.1351 72.7551C81.6169 70.7524 80.7909 68.8188 79.139 68.4735L69.1584 66.2637Z" fill="#F5F5F5"/>
</g>
<g opacity="0.3">
<g opacity="0.3">
<path opacity="0.3" d="M70.3284 81.9399C67.0245 81.0421 65.0972 77.5201 65.9232 74.0672V73.9982L65.992 73.7219L66.1985 73.791L78.1751 76.6914L78.1063 77.0367C77.2803 80.6968 73.7699 82.8376 70.3284 81.9399ZM66.405 74.4816C65.7855 77.5201 67.5751 80.4896 70.5349 81.2493C73.5635 82.0089 76.6609 80.2134 77.6245 77.1748L66.405 74.4816Z" fill="#F5F5F5"/>
</g>
<g opacity="0.3">
<path opacity="0.3" d="M69.5714 84.9784C66.2675 84.0806 64.3402 80.5587 65.235 77.0367V76.9676L65.3039 76.6914L65.5104 76.7605L77.4182 79.799L77.3493 80.1443C76.5234 83.7354 72.9441 85.9452 69.5714 84.9784ZM65.648 77.5201C65.0286 80.5587 66.8182 83.5282 69.7779 84.3569C72.8065 85.1856 75.9039 83.3901 76.7987 80.3515L65.648 77.5201Z" fill="#F5F5F5"/>
</g>
<g opacity="0.3">
<path opacity="0.3" d="M72.6688 91.4699C69.2961 90.5031 67.713 85.1856 69.1584 79.661C70.6039 74.1363 74.4584 70.2 77.9 71.0287L78.1753 71.0977L78.1065 71.443L72.9441 91.608L72.6688 91.4699ZM77.487 71.6502C74.3896 71.0977 70.948 74.6888 69.6402 79.7991C68.3324 84.8403 69.6402 89.6744 72.6 90.7793L77.487 71.6502Z" fill="#F5F5F5"/>
</g>
<g opacity="0.3">
<path opacity="0.3" d="M63.996 88.9838L63.7207 88.9148L63.7895 88.5695L68.8142 68.9569L69.0895 69.026C72.3934 69.7856 73.9766 74.965 72.5999 80.5587C71.1545 86.1524 67.2311 89.9506 63.996 88.9838ZM69.0895 69.7165L64.3402 88.4313C67.2999 89.0529 70.7415 85.6 72.0493 80.4896C73.3571 75.3103 72.0493 70.5452 69.0895 69.7165Z" fill="#F5F5F5"/>
</g>
</g>
</g>
<g opacity="0.72">
<g opacity="0.72">
<path opacity="0.3" d="M22.9039 51.6233C22.078 51.4161 21.5962 50.3802 21.8715 49.2753L23.9364 41.2646C24.2117 40.1596 25.1754 39.3309 26.0013 39.469L32.8156 40.574C33.7104 40.7121 34.1923 41.817 33.9169 42.922L31.7832 51.209C31.5078 52.3829 30.5442 53.1426 29.6494 53.0045L22.9039 51.6233Z" fill="url(#paint0_linear)"/>
<path opacity="0.72" d="M33.7794 42.9219L31.6456 51.2089C31.3703 52.2448 30.5443 52.9354 29.7872 52.7973L22.9729 51.4161C22.2157 51.278 21.8716 50.3112 22.0781 49.3443L24.143 41.2645C24.4183 40.2977 25.1755 39.5381 25.9326 39.6762L32.7469 40.7811C33.5729 40.9192 33.9859 41.886 33.7794 42.9219Z" fill="#F2F2F2"/>
</g>
</g>
<path d="M32.7469 40.8502L26.0014 39.7453C25.2443 39.6071 24.4871 40.2977 24.2118 41.2645L22.2157 49.2062C21.9404 50.1731 22.3534 51.0708 23.1105 51.278L29.7871 52.6592C30.5443 52.7973 31.3703 52.1067 31.6456 51.1399L31.7144 50.7946L32.9534 45.8224L33.7105 42.9219C33.917 41.9551 33.504 40.9883 32.7469 40.8502Z" fill="url(#paint1_linear)"/>
<path d="M32.7469 40.8502L26.0014 39.7453C25.2443 39.6071 24.4871 40.2977 24.2118 41.2645L22.2157 49.2062C21.9404 50.1731 22.3534 51.0708 23.1105 51.278L29.7871 52.6592C30.5443 52.7973 31.3703 52.1067 31.6456 51.1399L31.7144 50.7946L32.9534 45.8224L33.7105 42.9219C33.917 41.9551 33.504 40.9883 32.7469 40.8502Z" fill="url(#paint2_linear)"/>
<path d="M32.7469 40.8502L26.0014 39.7453C25.2443 39.6071 24.4871 40.2977 24.2118 41.2645L22.2157 49.2062C21.9404 50.1731 22.3534 51.0708 23.1105 51.278L29.7871 52.6592C30.5443 52.7973 31.3703 52.1067 31.6456 51.1399L31.7144 50.7946L32.9534 45.8224L33.7105 42.9219C33.917 41.9551 33.504 40.9883 32.7469 40.8502Z" fill="#EA5616"/>
<g opacity="0.2">
<path opacity="0.2" d="M29.7872 45.339L28.6171 49.9659C28.6171 50.035 28.5483 50.035 28.5483 50.035L25.3132 49.4135C25.2444 49.4135 25.2444 49.3444 25.2444 49.2754L27.5847 40.0215H27.3782L26.8963 41.8171C26.8963 41.8861 26.8275 41.8861 26.8275 41.8861L24.1431 41.3337L24.0743 41.6099L26.7587 42.0933C26.8275 42.0933 26.8275 42.1624 26.8275 42.1624L26.2769 44.4413C26.2769 44.5103 26.208 44.5103 26.208 44.5103L23.4548 44.096L23.3859 44.3722L26.0704 44.8556C26.1392 44.8556 26.1392 44.9247 26.1392 44.9937L25.6574 46.9274C25.6574 46.9964 25.5885 46.9964 25.5885 46.9964L22.9041 46.513L22.7665 46.6511L25.4509 47.1345C25.5197 47.1345 25.5197 47.2036 25.5197 47.2727L25.0379 49.2063C25.0379 49.2754 24.9691 49.2754 24.9691 49.2754L22.2847 48.7229L22.2158 48.9991L26.7587 49.8969C26.8275 49.8969 26.8275 49.9659 26.8275 50.035L26.3457 51.9686L26.5522 52.0377L27.034 50.1041C27.034 50.035 27.1028 50.035 27.1028 50.035L28.5483 50.3112L31.7834 50.9328H31.8522L33.16 45.8915C33.16 45.8224 33.16 45.8224 33.0911 45.7534L29.8561 45.2009C29.8561 45.2009 29.7872 45.27 29.7872 45.339ZM32.8847 46.1677L32.4028 48.1014C32.4028 48.1704 32.334 48.1704 32.334 48.1704L29.5119 47.618C29.4431 47.618 29.4431 47.5489 29.4431 47.4798L29.9249 45.5462C29.9249 45.4771 29.9937 45.4771 29.9937 45.4771L32.8158 45.9606C32.8846 46.0296 32.8847 46.0987 32.8847 46.1677ZM28.8236 49.9659L29.3054 48.0323C29.3054 47.9632 29.3743 47.9632 29.3743 47.9632L32.1963 48.5157C32.2652 48.5157 32.2652 48.5848 32.2652 48.6538L31.7145 50.5184C31.7145 50.5875 31.6457 50.5875 31.6457 50.5875L28.8924 50.035C28.8236 50.035 28.8236 50.035 28.8236 49.9659Z" fill="black"/>
<path opacity="0.2" d="M33.7795 42.9911L30.8197 42.5077C30.7509 42.5077 30.7509 42.4386 30.7509 42.3696L31.2327 40.574H31.0262L30.4756 42.6458C30.4756 42.7148 30.4756 42.7148 30.5444 42.7839L33.7107 43.3364L33.7795 42.9911Z" fill="black"/>
</g>
<path d="M29.7873 45.339L28.6172 49.9659C28.6172 50.035 28.5483 50.035 28.5483 50.035L25.3133 49.4135C25.2444 49.4135 25.2444 49.3444 25.2444 49.2754L27.5847 40.0215H27.3782L26.8964 41.8171C26.8964 41.8861 26.8275 41.8861 26.8275 41.8861L24.1431 41.4027V41.6789L26.8275 42.1624C26.8964 42.1624 26.8964 42.2314 26.8964 42.2314L26.3457 44.5103C26.3457 44.5794 26.2769 44.5794 26.2769 44.5794L23.4548 44.096V44.3722L26.1392 44.8556C26.2081 44.8556 26.2081 44.9247 26.2081 44.9937L25.7262 46.9274C25.7262 46.9964 25.6574 46.9964 25.6574 46.9964L22.973 46.513L22.9042 46.7893L25.5886 47.2727C25.6574 47.2727 25.6574 47.3417 25.6574 47.4108L25.1756 49.3444C25.1756 49.4135 25.1068 49.4135 25.1068 49.4135L22.4223 48.861L22.3535 49.1372L26.8964 50.035C26.9652 50.035 26.9652 50.1041 26.9652 50.1731L26.4834 52.1067L26.6899 52.1758L27.1717 50.2422C27.1717 50.1731 27.2405 50.1731 27.2405 50.1731L28.686 50.4493L31.921 51.0709H31.9899L33.2977 46.0296C33.2977 45.9606 33.2977 45.9606 33.2288 45.8915L29.9938 45.339C29.8561 45.27 29.8561 45.27 29.7873 45.339ZM32.8847 46.1677L32.4029 48.1704C32.4029 48.2395 32.334 48.2395 32.334 48.2395L29.512 47.687C29.4431 47.687 29.4431 47.618 29.4431 47.5489L29.9249 45.6153C29.9249 45.5462 29.9938 45.5462 29.9938 45.5462L32.8159 46.0296C32.8847 46.0987 32.8847 46.0987 32.8847 46.1677ZM28.8236 49.9659L29.3055 48.0323C29.3055 47.9632 29.3743 47.9632 29.3743 47.9632L32.1964 48.5157C32.2652 48.5157 32.2652 48.5848 32.2652 48.6538L31.7834 50.5875C31.7834 50.6565 31.7146 50.6565 31.7146 50.6565L28.9613 50.1041C28.8236 50.1041 28.8236 50.035 28.8236 49.9659Z" fill="url(#paint3_linear)"/>
<path d="M33.7795 43.0601L30.8197 42.5767C30.7509 42.5767 30.7509 42.5077 30.7509 42.4386L31.2327 40.6431L31.0262 40.574L30.4756 42.6458C30.4756 42.7148 30.4756 42.7148 30.5444 42.7839L33.7107 43.3364L33.7795 43.0601Z" fill="url(#paint4_linear)"/>
<path d="M22.2845 49.4134L24.2806 41.4717C24.5559 40.5049 25.3131 39.8143 26.0702 39.9524L32.8157 41.0573C33.1598 41.1264 33.4351 41.3336 33.6416 41.6789C33.504 41.2645 33.1598 40.9883 32.7468 40.9192L26.0014 39.8143C25.2442 39.6762 24.4871 40.3668 24.2118 41.3336L22.2157 49.2753C22.078 49.8277 22.1468 50.3112 22.3533 50.6564C22.1468 50.3112 22.1468 49.8277 22.2845 49.4134Z" fill="url(#paint5_linear)"/>
<g opacity="0.3">
<path opacity="0.3" d="M31.0946 42.0933L31.37 41.1265C31.37 41.0574 31.5076 40.9883 31.5764 40.9883L32.7466 41.1955C33.2972 41.2646 33.6414 41.817 33.6414 42.5076C33.6414 42.6457 33.5725 42.7148 33.4349 42.7148L31.2323 42.3695C31.0946 42.3005 31.0258 42.1623 31.0946 42.0933Z" fill="#EA5616"/>
<path opacity="0.3" d="M24.6247 41.1955C24.5559 41.1955 24.487 41.0574 24.5559 40.9193C24.8312 40.2978 25.3818 39.9525 25.9325 40.0215L27.0338 40.2287C27.1026 40.2287 27.1714 40.2978 27.1026 40.4359L26.8273 41.4027C26.8273 41.4718 26.7585 41.5408 26.6208 41.5408L24.6247 41.1955Z" fill="#EA5616"/>
<path opacity="0.3" d="M29.0986 49.6897L29.4428 48.4466C29.4428 48.3776 29.5805 48.3085 29.6493 48.3085L31.8519 48.7229C31.9207 48.7229 31.9895 48.861 31.9207 48.9301L31.5766 50.1731C31.5766 50.2422 31.4389 50.3112 31.3701 50.3112L29.1675 49.8969C29.1675 49.8278 29.0986 49.7588 29.0986 49.6897Z" fill="#EA5616"/>
<path opacity="0.3" d="M29.718 47.2726L30.0622 46.0296C30.0622 45.9605 30.1998 45.8915 30.2687 45.8915L32.4713 46.3058C32.5401 46.3058 32.6089 46.4439 32.5401 46.513L32.1959 47.7561C32.1959 47.8251 32.0583 47.8942 31.9895 47.8942L29.8557 47.4798C29.7868 47.4798 29.718 47.3417 29.718 47.2726Z" fill="#EA5616"/>
<path opacity="0.3" d="M25.5195 48.93L27.6533 40.5049C27.6533 40.4359 27.7221 40.3668 27.8598 40.3668L30.5442 40.8502C30.613 40.8502 30.6819 40.9193 30.613 41.0574L30.2001 42.6457C30.2001 42.7839 30.2001 42.922 30.2689 42.991C30.2689 43.0601 30.3377 43.0601 30.4065 43.1292L33.091 43.6126C33.1598 43.6126 33.2286 43.6816 33.1598 43.8197L32.7468 45.4081C32.7468 45.4771 32.6091 45.5462 32.5403 45.5462L29.9247 45.0628C29.7182 44.9937 29.4429 45.2009 29.3741 45.5462L28.4793 49.5516C28.4793 49.6206 28.3416 49.6897 28.2728 49.6897L25.5884 49.1372C25.5884 49.1372 25.5195 49.0682 25.5195 48.93Z" fill="#EA5616"/>
<path opacity="0.3" d="M23.7986 43.6817L24.2116 42.0933C24.2116 42.0243 24.2804 41.9552 24.4181 41.9552L26.483 42.3005C26.5518 42.3005 26.6207 42.3695 26.5518 42.5077L26.1388 44.096C26.1388 44.1651 26.07 44.2341 25.9323 44.2341L23.8674 43.8888C23.7986 43.8888 23.7986 43.7507 23.7986 43.6817Z" fill="#EA5616"/>
<path opacity="0.3" d="M22.6286 48.3776L22.9039 47.1346C22.9039 47.0655 22.9728 46.9965 23.0416 46.9965L25.1065 47.4108C25.1754 47.4108 25.2442 47.4799 25.1754 47.618L24.9689 48.861C24.9689 48.9301 24.9 48.9992 24.7624 48.9992L22.6974 48.5848C22.6286 48.5848 22.5598 48.4467 22.6286 48.3776Z" fill="#EA5616"/>
<path opacity="0.3" d="M23.1103 51.0018C22.5597 50.8637 22.2155 50.2422 22.2844 49.5516C22.2844 49.4135 22.3532 49.3444 22.4909 49.3444L26.4142 50.1041C26.4831 50.1041 26.5519 50.2422 26.4831 50.3112L26.2077 51.4852C26.2077 51.5543 26.1389 51.6233 26.0012 51.6233L23.1103 51.0018Z" fill="#EA5616"/>
<path opacity="0.3" d="M26.8271 51.6233L27.1025 50.5184C27.1025 50.4493 27.2401 50.3802 27.309 50.3802L31.2323 51.1399C31.3012 51.1399 31.37 51.278 31.3012 51.3471C31.0259 52.0376 30.4064 52.5211 29.7869 52.3829L26.896 51.7614C26.8271 51.7614 26.8271 51.6924 26.8271 51.6233Z" fill="#EA5616"/>
<path opacity="0.3" d="M23.1792 46.0296L23.4545 44.7866C23.4545 44.7175 23.5234 44.6484 23.661 44.6484L25.726 45.0628C25.7948 45.0628 25.8636 45.1318 25.7948 45.27L25.5195 46.444C25.5195 46.513 25.4506 46.5821 25.313 46.5821L23.248 46.1677C23.1792 46.2368 23.1792 46.0987 23.1792 46.0296Z" fill="#EA5616"/>
</g>
<path opacity="0.2" d="M9.41312 76.7605L21.9404 27.66C22.3534 26.0026 23.6612 24.6905 24.7625 24.8287L92.5612 32.7704C94.282 33.0466 9.00013 78.4869 9.41312 76.7605Z" fill="#F1F2F2"/>
</g>
<defs>
<linearGradient id="paint0_linear" x1="23.041" y1="44.8273" x2="32.8363" y2="47.3288" gradientUnits="userSpaceOnUse">
<stop stop-color="#B5B5B5"/>
<stop offset="1" stop-color="#C2C2C2"/>
</linearGradient>
<linearGradient id="paint1_linear" x1="24.5258" y1="40.3302" x2="31.4435" y2="51.9755" gradientUnits="userSpaceOnUse">
<stop stop-color="#F6D472"/>
<stop offset="1" stop-color="#FEB032"/>
</linearGradient>
<linearGradient id="paint2_linear" x1="24.5258" y1="40.3302" x2="31.4435" y2="51.9755" gradientUnits="userSpaceOnUse">
<stop stop-color="#E2BC6C"/>
<stop offset="0.4636" stop-color="#C78E34"/>
<stop offset="1" stop-color="#C2862B"/>
</linearGradient>
<linearGradient id="paint3_linear" x1="23.2426" y1="45.0661" x2="32.7692" y2="47.4989" gradientUnits="userSpaceOnUse">
<stop stop-color="#F6D472"/>
<stop offset="1" stop-color="#FEB032"/>
</linearGradient>
<linearGradient id="paint4_linear" x1="30.7559" y1="41.6665" x2="33.9424" y2="42.4802" gradientUnits="userSpaceOnUse">
<stop stop-color="#F6D472"/>
<stop offset="1" stop-color="#FEB032"/>
</linearGradient>
<linearGradient id="paint5_linear" x1="24.5274" y1="40.3292" x2="28.4724" y2="46.9703" gradientUnits="userSpaceOnUse">
<stop stop-color="#F6D472"/>
<stop offset="1" stop-color="#FEB032"/>
</linearGradient>
<clipPath id="clip0">
<rect width="106" height="77" fill="white" transform="translate(9 24)"/>
</clipPath>
</defs>
</svg>
