<svg width="269" height="277" viewBox="0 0 269 277" fill="none" xmlns="http://www.w3.org/2000/svg">
<ellipse cx="228.5" cy="122" rx="122" ry="228.5" transform="rotate(-90 228.5 122)" fill="#424FD3"/>
<g clip-path="url(#clip0)">
<path d="M205.968 274.928L28.5779 219.556C25.3766 218.614 24.2468 214.283 25.3766 209.197L59.0844 75.4754C60.4026 70.3902 64.1688 66.8117 67.5585 67.1884L253.61 88.4709C258.695 89.0359 261.708 94.4978 260.013 100.713L217.455 266.453C216.136 272.668 210.864 276.435 205.968 274.928Z" fill="white"/>
<path d="M28.7663 219.179C25.7533 218.238 24.4351 213.718 25.565 209.197L59.8377 75.4753C60.9676 70.9552 64.5455 67.3767 67.5585 67.7534L252.669 89.0359C257.377 89.6009 260.013 94.6861 258.507 100.336L216.136 266.076C214.63 271.726 209.922 275.305 205.403 273.798L28.7663 219.179Z" fill="white"/>
<g opacity="0.3">
<g opacity="0.3">
<path opacity="0.3" d="M199.188 257.413L172.448 249.502C167.74 248.184 165.104 241.969 166.799 235.753L178.474 189.987C179.981 183.771 185.253 179.628 190.149 180.57L217.455 186.596C222.727 187.727 225.552 193.942 223.857 200.534L211.429 248.372C209.922 254.776 204.273 258.919 199.188 257.413ZM189.584 182.265C185.442 181.323 181.11 184.901 179.792 190.175L168.117 235.942C166.799 241.215 168.87 246.489 173.013 247.619L199.753 255.529C204.084 256.848 208.792 253.269 210.11 247.807L222.351 199.969C223.669 194.507 221.409 189.233 216.89 188.292L189.584 182.265Z" fill="#F5F5F5"/>
</g>
<g opacity="0.3">
<g opacity="0.3">
<path opacity="0.3" d="M192.786 225.018C183.747 222.57 178.474 212.964 180.734 203.547V203.359L180.922 202.605L181.487 202.794L214.253 210.704L214.065 211.646C211.805 221.628 202.201 227.466 192.786 225.018ZM182.052 204.677C180.357 212.964 185.253 221.063 193.351 223.135C201.636 225.206 210.11 220.309 212.747 212.022L182.052 204.677Z" fill="#F5F5F5"/>
</g>
<g opacity="0.3">
<path opacity="0.3" d="M190.714 233.305C181.675 230.856 176.403 221.251 178.851 211.646V211.457L179.039 210.704L179.604 210.892L212.182 219.179L211.994 220.121C209.734 229.915 199.942 235.942 190.714 233.305ZM179.981 212.964C178.286 221.251 183.182 229.35 191.279 231.61C199.565 233.87 208.039 228.973 210.487 220.686L179.981 212.964Z" fill="#F5F5F5"/>
</g>
<g opacity="0.3">
<path opacity="0.3" d="M199.188 251.009C189.961 248.372 185.63 233.87 189.584 218.803C193.539 203.735 204.084 193 213.5 195.26L214.253 195.448L214.065 196.39L199.942 251.386L199.188 251.009ZM212.37 196.955C203.896 195.448 194.481 205.242 190.903 219.179C187.325 232.928 190.903 246.112 199 249.126L212.37 196.955Z" fill="#F5F5F5"/>
</g>
<g opacity="0.3">
<path opacity="0.3" d="M175.461 244.229L174.708 244.04L174.896 243.099L188.643 189.61L189.396 189.798C198.435 191.87 202.766 205.996 199 221.251C195.045 236.507 184.312 246.865 175.461 244.229ZM189.396 191.682L176.403 242.722C184.5 244.417 193.916 235 197.493 221.063C201.071 206.937 197.493 193.942 189.396 191.682Z" fill="#F5F5F5"/>
</g>
</g>
</g>
<g opacity="0.72">
<g opacity="0.72">
<path opacity="0.3" d="M63.0389 142.336C60.7792 141.771 59.461 138.946 60.2142 135.933L65.8636 114.085C66.6168 111.072 69.2532 108.812 71.5129 109.188L90.1558 112.202C92.6039 112.578 93.922 115.592 93.1688 118.605L87.3311 141.206C86.5779 144.408 83.9415 146.48 81.4935 146.103L63.0389 142.336Z" fill="url(#paint0_linear)"/>
<path opacity="0.72" d="M92.7921 118.605L86.9545 141.206C86.2012 144.031 83.9415 145.915 81.87 145.538L63.2272 141.771C61.1558 141.395 60.2142 138.758 60.7791 136.121L66.4285 114.085C67.1817 111.448 69.2532 109.377 71.3246 109.753L89.9675 112.767C92.2272 113.143 93.3571 115.78 92.7921 118.605Z" fill="#F2F2F2"/>
</g>
</g>
<path d="M89.9675 112.955L71.5129 109.942C69.4415 109.565 67.3701 111.448 66.6168 114.085L61.1558 135.744C60.4025 138.381 61.5324 140.83 63.6038 141.395L81.8701 145.161C83.9415 145.538 86.2012 143.655 86.9545 141.018L87.1428 140.076L90.5324 126.516L92.6038 118.605C93.1688 115.969 92.0389 113.332 89.9675 112.955Z" fill="url(#paint1_linear)"/>
<path d="M89.9675 112.955L71.5129 109.942C69.4415 109.565 67.3701 111.448 66.6168 114.085L61.1558 135.744C60.4025 138.381 61.5324 140.83 63.6038 141.395L81.8701 145.161C83.9415 145.538 86.2012 143.655 86.9545 141.018L87.1428 140.076L90.5324 126.516L92.6038 118.605C93.1688 115.969 92.0389 113.332 89.9675 112.955Z" fill="url(#paint2_linear)"/>
<path d="M89.9675 112.955L71.5129 109.942C69.4415 109.565 67.3701 111.448 66.6168 114.085L61.1558 135.744C60.4025 138.381 61.5324 140.83 63.6038 141.395L81.8701 145.161C83.9415 145.538 86.2012 143.655 86.9545 141.018L87.1428 140.076L90.5324 126.516L92.6038 118.605C93.1688 115.969 92.0389 113.332 89.9675 112.955Z" fill="#EA5616"/>
<g opacity="0.2">
<path opacity="0.2" d="M81.87 125.197L78.6687 137.816C78.6687 138.005 78.4804 138.005 78.4804 138.005L69.6298 136.309C69.4415 136.309 69.4415 136.121 69.4415 135.933L75.8441 110.695H75.2791L73.961 115.592C73.961 115.78 73.7726 115.78 73.7726 115.78L66.4285 114.274L66.2402 115.027L73.5843 116.345C73.7726 116.345 73.7726 116.534 73.7726 116.534L72.2661 122.749C72.2661 122.937 72.0778 122.937 72.0778 122.937L64.5454 121.807L64.3571 122.561L71.7012 123.879C71.8895 123.879 71.8895 124.067 71.8895 124.256L70.5713 129.529C70.5713 129.718 70.383 129.718 70.383 129.718L63.0389 128.399L62.6623 128.776L70.0064 130.094C70.1947 130.094 70.1947 130.283 70.1947 130.471L68.8765 135.744C68.8765 135.933 68.6882 135.933 68.6882 135.933L61.3441 134.426L61.1558 135.179L73.5843 137.628C73.7726 137.628 73.7726 137.816 73.7726 138.005L72.4545 143.278L73.0194 143.466L74.3376 138.193C74.3376 138.005 74.5259 138.005 74.5259 138.005L78.4804 138.758L87.3311 140.453H87.5194L91.0973 126.704C91.0973 126.516 91.0973 126.516 90.909 126.327L82.0584 124.821C82.0584 124.821 81.87 125.009 81.87 125.197ZM90.3441 127.457L89.0259 132.731C89.0259 132.919 88.8376 132.919 88.8376 132.919L81.1168 131.413C80.9285 131.413 80.9285 131.224 80.9285 131.036L82.2467 125.762C82.2467 125.574 82.435 125.574 82.435 125.574L90.1558 126.892C90.3441 127.081 90.3441 127.269 90.3441 127.457ZM79.2337 137.816L80.5519 132.543C80.5519 132.354 80.7402 132.354 80.7402 132.354L88.461 133.861C88.6493 133.861 88.6493 134.049 88.6493 134.238L87.1428 139.323C87.1428 139.511 86.9545 139.511 86.9545 139.511L79.422 138.005C79.2337 138.005 79.2337 138.005 79.2337 137.816Z" fill="black"/>
<path opacity="0.2" d="M92.7921 118.794L84.6947 117.475C84.5064 117.475 84.5064 117.287 84.5064 117.099L85.8246 112.202H85.2597L83.7532 117.852C83.7532 118.04 83.7532 118.04 83.9415 118.229L92.6038 119.736L92.7921 118.794Z" fill="black"/>
</g>
<path d="M81.8701 125.197L78.6688 137.816C78.6688 138.005 78.4805 138.005 78.4805 138.005L69.6299 136.309C69.4416 136.309 69.4416 136.121 69.4416 135.933L75.8442 110.695H75.2792L73.961 115.592C73.961 115.78 73.7727 115.78 73.7727 115.78L66.4286 114.462V115.215L73.7727 116.534C73.961 116.534 73.961 116.722 73.961 116.722L72.4546 122.937C72.4546 123.126 72.2662 123.126 72.2662 123.126L64.5455 121.807V122.561L71.8896 123.879C72.0779 123.879 72.0779 124.067 72.0779 124.256L70.7597 129.529C70.7597 129.718 70.5714 129.718 70.5714 129.718L63.2273 128.399L63.039 129.153L70.3831 130.471C70.5714 130.471 70.5714 130.659 70.5714 130.848L69.2533 136.121C69.2533 136.309 69.0649 136.309 69.0649 136.309L61.7208 134.803L61.5325 135.556L73.961 138.005C74.1494 138.005 74.1494 138.193 74.1494 138.381L72.8312 143.655L73.3961 143.843L74.7143 138.57C74.7143 138.381 74.9026 138.381 74.9026 138.381L78.8572 139.135L87.7078 140.83H87.8961L91.474 127.081C91.474 126.892 91.474 126.892 91.2857 126.704L82.4351 125.197C82.0584 125.009 82.0585 125.009 81.8701 125.197ZM90.3442 127.457L89.026 132.919C89.026 133.108 88.8377 133.108 88.8377 133.108L81.1169 131.601C80.9286 131.601 80.9286 131.413 80.9286 131.224L82.2468 125.951C82.2468 125.762 82.4351 125.762 82.4351 125.762L90.1558 127.081C90.3442 127.269 90.3442 127.269 90.3442 127.457ZM79.2338 137.816L80.552 132.543C80.552 132.354 80.7403 132.354 80.7403 132.354L88.461 133.861C88.6494 133.861 88.6494 134.049 88.6494 134.238L87.3312 139.511C87.3312 139.7 87.1429 139.7 87.1429 139.7L79.6104 138.193C79.2338 138.193 79.2338 138.005 79.2338 137.816Z" fill="url(#paint3_linear)"/>
<path d="M92.7921 118.982L84.6947 117.664C84.5064 117.664 84.5064 117.475 84.5064 117.287L85.8246 112.39L85.2597 112.202L83.7532 117.852C83.7532 118.04 83.7532 118.04 83.9415 118.229L92.6038 119.736L92.7921 118.982Z" fill="url(#paint4_linear)"/>
<path d="M61.3442 136.309L66.8053 114.65C67.5585 112.013 69.6299 110.13 71.7014 110.507L90.1559 113.52C91.0975 113.709 91.8507 114.274 92.4156 115.215C92.039 114.085 91.0975 113.332 89.9676 113.144L71.513 110.13C69.4416 109.753 67.3702 111.637 66.6169 114.274L61.1559 135.933C60.7793 137.439 60.9676 138.758 61.5325 139.7C60.9676 138.758 60.9676 137.44 61.3442 136.309Z" fill="url(#paint5_linear)"/>
<g opacity="0.3">
<path opacity="0.3" d="M85.4481 116.345L86.2014 113.709C86.2014 113.52 86.578 113.332 86.7663 113.332L89.9676 113.897C91.4741 114.085 92.4157 115.592 92.4157 117.475C92.4157 117.852 92.2274 118.04 91.8507 118.04L85.8248 117.099C85.4481 116.91 85.2598 116.534 85.4481 116.345Z" fill="#EA5616"/>
<path opacity="0.3" d="M67.7468 113.897C67.5585 113.897 67.3702 113.52 67.5585 113.144C68.3117 111.448 69.8182 110.507 71.3247 110.695L74.3377 111.26C74.526 111.26 74.7143 111.448 74.526 111.825L73.7728 114.462C73.7728 114.65 73.5844 114.839 73.2078 114.839L67.7468 113.897Z" fill="#EA5616"/>
<path opacity="0.3" d="M79.9871 137.063L80.9286 133.673C80.9286 133.484 81.3052 133.296 81.4936 133.296L87.5195 134.426C87.7078 134.426 87.8961 134.803 87.7078 134.991L86.7663 138.381C86.7663 138.57 86.3897 138.758 86.2013 138.758L80.1754 137.628C80.1754 137.439 79.9871 137.251 79.9871 137.063Z" fill="#EA5616"/>
<path opacity="0.3" d="M81.6819 130.471L82.6234 127.081C82.6234 126.892 83.0001 126.704 83.1884 126.704L89.2144 127.834C89.4027 127.834 89.591 128.211 89.4027 128.399L88.4611 131.789C88.4611 131.978 88.0845 132.166 87.8962 132.166L82.0585 131.036C81.8702 131.036 81.6819 130.659 81.6819 130.471Z" fill="#EA5616"/>
<path opacity="0.3" d="M70.1948 134.991L76.0325 112.013C76.0325 111.825 76.2208 111.637 76.5974 111.637L83.9416 112.955C84.1299 112.955 84.3182 113.144 84.1299 113.52L83 117.852C83 118.229 83 118.605 83.1883 118.794C83.1883 118.982 83.3766 118.982 83.565 119.17L90.9091 120.489C91.0974 120.489 91.2857 120.677 91.0974 121.054L89.9676 125.386C89.9676 125.574 89.5909 125.762 89.4026 125.762L82.2468 124.444C81.6818 124.256 80.9286 124.821 80.7403 125.762L78.2922 136.686C78.2922 136.874 77.9156 137.063 77.7273 137.063L70.3831 135.556C70.3831 135.556 70.1948 135.368 70.1948 134.991Z" fill="#EA5616"/>
<path opacity="0.3" d="M65.4871 120.677L66.6169 116.345C66.6169 116.157 66.8052 115.969 67.1819 115.969L72.8312 116.91C73.0195 116.91 73.2078 117.099 73.0195 117.475L71.8897 121.807C71.8897 121.996 71.7013 122.184 71.3247 122.184L65.6754 121.242C65.4871 121.242 65.4871 120.865 65.4871 120.677Z" fill="#EA5616"/>
<path opacity="0.3" d="M62.2858 133.484L63.039 130.094C63.039 129.906 63.2273 129.718 63.4156 129.718L69.065 130.848C69.2533 130.848 69.4416 131.036 69.2533 131.413L68.6884 134.803C68.6884 134.991 68.5001 135.179 68.1234 135.179L62.4741 134.049C62.2858 134.049 62.0975 133.673 62.2858 133.484Z" fill="#EA5616"/>
<path opacity="0.3" d="M63.6039 140.641C62.0974 140.265 61.1559 138.569 61.3442 136.686C61.3442 136.309 61.5325 136.121 61.9091 136.121L72.6429 138.193C72.8312 138.193 73.0195 138.569 72.8312 138.758L72.078 141.96C72.078 142.148 71.8896 142.336 71.513 142.336L63.6039 140.641Z" fill="#EA5616"/>
<path opacity="0.3" d="M73.7727 142.336L74.526 139.323C74.526 139.135 74.9026 138.946 75.0909 138.946L85.8247 141.018C86.013 141.018 86.2013 141.395 86.013 141.583C85.2597 143.466 83.5649 144.785 81.8701 144.408L73.961 142.713C73.7727 142.713 73.7727 142.525 73.7727 142.336Z" fill="#EA5616"/>
<path opacity="0.3" d="M63.7922 127.081L64.5455 123.691C64.5455 123.502 64.7338 123.314 65.1104 123.314L70.7598 124.444C70.9481 124.444 71.1364 124.632 70.9481 125.009L70.1948 128.211C70.1948 128.399 70.0065 128.588 69.6299 128.588L63.9805 127.457C63.7922 127.646 63.7922 127.269 63.7922 127.081Z" fill="#EA5616"/>
</g>
<path opacity="0.2" d="M26.1298 210.892L60.4025 76.9821C61.5324 72.4619 65.1103 68.8835 68.1233 69.2602L253.61 90.9193C258.318 91.6727 25 215.601 26.1298 210.892Z" fill="#F1F2F2"/>
</g>
<defs>
<linearGradient id="paint0_linear" x1="63.4138" y1="123.802" x2="90.2019" y2="130.664" gradientUnits="userSpaceOnUse">
<stop stop-color="#B5B5B5"/>
<stop offset="1" stop-color="#C2C2C2"/>
</linearGradient>
<linearGradient id="paint1_linear" x1="67.4759" y1="111.537" x2="86.3139" y2="143.349" gradientUnits="userSpaceOnUse">
<stop stop-color="#F6D472"/>
<stop offset="1" stop-color="#FEB032"/>
</linearGradient>
<linearGradient id="paint2_linear" x1="67.4759" y1="111.537" x2="86.3139" y2="143.349" gradientUnits="userSpaceOnUse">
<stop stop-color="#E2BC6C"/>
<stop offset="0.4636" stop-color="#C78E34"/>
<stop offset="1" stop-color="#C2862B"/>
</linearGradient>
<linearGradient id="paint3_linear" x1="63.9649" y1="124.453" x2="90.0182" y2="131.127" gradientUnits="userSpaceOnUse">
<stop stop-color="#F6D472"/>
<stop offset="1" stop-color="#FEB032"/>
</linearGradient>
<linearGradient id="paint4_linear" x1="84.52" y1="115.181" x2="93.2345" y2="117.414" gradientUnits="userSpaceOnUse">
<stop stop-color="#F6D472"/>
<stop offset="1" stop-color="#FEB032"/>
</linearGradient>
<linearGradient id="paint5_linear" x1="67.4804" y1="111.534" x2="78.2235" y2="129.676" gradientUnits="userSpaceOnUse">
<stop stop-color="#F6D472"/>
<stop offset="1" stop-color="#FEB032"/>
</linearGradient>
<clipPath id="clip0">
<rect width="290" height="210" fill="white" transform="translate(25 67)"/>
</clipPath>
</defs>
</svg>
