<svg width="180" height="345" viewBox="0 0 180 345" fill="none" xmlns="http://www.w3.org/2000/svg">
<ellipse cx="-21" cy="200.5" rx="144.5" ry="201" transform="rotate(-90 -21 200.5)" fill="#424FD3"/>
<g clip-path="url(#clip0)">
<path d="M102.325 0.0759888L103.088 217.599L91.041 221.55L88.8298 0.60783L102.325 0.0759888Z" fill="#E5E5E5"/>
<path d="M112.085 0.683807L111.78 222.993L103.088 217.599L102.325 0.0759888L112.085 0.683807Z" fill="#F6F6F6"/>
<path d="M98.4369 1.21561L99.6568 227.096L91.041 221.55L88.8298 0.607788L98.4369 1.21561Z" fill="#F4F4F4"/>
<path d="M112.085 0.683777L111.78 222.993L99.6568 227.096L98.4369 1.21562L112.085 0.683777Z" fill="#E2E2E2"/>
<path d="M87.9149 0.607818L102.402 0L112.924 0.683796L98.2844 1.29161L87.9149 0.607818ZM112.085 0.683796L102.325 0.0759773L88.8299 0.607818L98.4369 1.29161L112.085 0.683796Z" fill="#A4A4A4"/>
<path d="M102.325 0.0759888L112.085 0.683807L98.4369 1.21565L88.8298 0.60783L102.325 0.0759888Z" fill="#A4A4A4"/>
<path d="M98.2844 1.29158L99.5044 227.4L90.2786 221.474L87.9149 0.607788L98.2844 1.29158Z" fill="#F4F4F4"/>
<path d="M113 0.683777L112.542 223.069L99.5044 227.4L98.2844 1.2916L113 0.683777Z" fill="#E2E2E2"/>
<path d="M80.1378 81.0678L80.5953 222.917L64.5073 227.4L62.7537 82.6633L80.1378 81.0678Z" fill="#E0E0E0"/>
<path d="M92.7947 83.1952L92.3372 229.072L80.5953 222.917L80.1378 81.0678L92.7947 83.1952Z" fill="#F3F3F3"/>
<path d="M75.1818 84.8667L76.0205 233.858L64.5073 227.4L62.7537 82.6633L75.1818 84.8667Z" fill="#F1F1F1"/>
<path d="M92.7948 83.1951L92.3373 229.072L76.0206 233.858L75.1819 84.8666L92.7948 83.1951Z" fill="#DDDDDD"/>
<path d="M80.1378 81.0678L92.7947 83.1952L75.1818 84.8667L62.7537 82.6633L80.1378 81.0678Z" fill="#A8A8A8"/>
<path d="M74.9531 85.0186L75.8681 234.238L63.5924 227.324L61.8387 82.6633L74.9531 85.0186Z" fill="#F1F1F1"/>
<path d="M93.7097 83.1951L93.176 229.148L75.8681 234.238L74.9531 85.0186L93.7097 83.1951Z" fill="#DDDDDD"/>
<path d="M61.8387 82.6633L80.2904 80.9918L93.7097 83.1952L74.9531 85.0186L61.8387 82.6633ZM92.7948 83.1952L80.1379 81.0678L62.7537 82.6633L75.1056 84.8667L92.7948 83.1952Z" fill="#A8A8A8"/>
<path d="M54.7478 133.036L55.0528 229.755L37.2112 234.238L35.9912 135.392L54.7478 133.036Z" fill="#DDDDDD"/>
<path d="M68.4721 136.151L68.0909 235.909L55.0528 229.755L54.7478 133.036L68.4721 136.151Z" fill="#F2F2F2"/>
<path d="M49.3343 138.659L49.9443 240.62L37.2112 234.238L35.9912 135.392L49.3343 138.659Z" fill="#F0F0F0"/>
<path d="M68.4722 136.151L68.091 235.91L49.9443 240.62L49.3344 138.659L68.4722 136.151Z" fill="#DADADA"/>
<path d="M54.7478 133.036L68.4722 136.151L49.3343 138.659L35.9912 135.392L54.7478 133.036Z" fill="#A9A9A9"/>
<path d="M49.1818 138.811L49.7918 241L36.2962 234.162L35 135.392L49.1818 138.811Z" fill="#F0F0F0"/>
<path d="M69.4634 136.227L69.0822 235.91L49.7919 241L49.1819 138.811L69.4634 136.227Z" fill="#DADADA"/>
<path d="M35 135.392L54.9003 132.96L69.4633 136.227L49.1818 138.886L35 135.392ZM68.4721 136.151L54.7478 133.036L35.915 135.316L49.3343 138.583L68.4721 136.151Z" fill="#A9A9A9"/>
</g>
<defs>
<clipPath id="clip0">
<rect width="78" height="241" fill="white" transform="translate(35)"/>
</clipPath>
</defs>
</svg>
