<svg width="32" height="24" viewBox="0 0 32 24" fill="none" xmlns="http://www.w3.org/2000/svg">
<path fill-rule="evenodd" clip-rule="evenodd" d="M11.6423 24C10.861 24 10.1253 23.6844 9.5724 23.1129L0.85743 14.1306C0.304571 13.5634 0 12.8042 0 11.9981C0 11.192 0.304571 10.4371 0.85743 9.8664C1.41029 9.29658 2.14564 8.98225 2.92734 8.98225C3.70862 8.98225 4.44398 9.29658 4.99725 9.8664L10.6314 15.6746C10.9107 15.9603 11.2761 16.1053 11.6423 16.1053C12.0081 16.1053 12.3744 15.9603 12.6537 15.6746L27.0032 0.884149C27.556 0.313909 28.2914 0 29.0723 0C29.854 0 30.5893 0.313909 31.1426 0.884149C31.6954 1.45396 32 2.21102 32 3.01712C32 3.82279 31.6954 4.57984 31.1426 5.15008L13.7122 23.1129C13.1594 23.6844 12.424 24 11.6423 24Z" fill="#EA5616"/>
</svg>
