<svg width="16" height="12" viewBox="0 0 16 12" fill="none" xmlns="http://www.w3.org/2000/svg">
<path fill-rule="evenodd" clip-rule="evenodd" d="M5.82115 12C5.43051 12 5.06263 11.8422 4.7862 11.5564L0.428715 7.06531C0.152286 6.78168 0 6.40209 0 5.99904C0 5.59599 0.152286 5.21853 0.428715 4.9332C0.705144 4.64829 1.07282 4.49112 1.46367 4.49112C1.85431 4.49112 2.22199 4.64829 2.49862 4.9332L5.31568 7.83729C5.45534 7.98017 5.63804 8.05267 5.82115 8.05267C6.00406 8.05267 6.18718 7.98017 6.32684 7.83729L13.5016 0.442075C13.778 0.156954 14.1457 0 14.5361 0C14.927 0 15.2947 0.156954 15.5713 0.442075C15.8477 0.726982 16 1.10551 16 1.50856C16 1.91139 15.8477 2.28992 15.5713 2.57504L6.85611 11.5564C6.57968 11.8422 6.212 12 5.82115 12Z" fill="#EA5616"/>
</svg>
