<svg width="65" height="64" viewBox="0 0 65 64" fill="none" xmlns="http://www.w3.org/2000/svg">
<path d="M64.6648 31.9999C64.6648 14.325 50.3398 0 32.6649 0C14.9901 0 0.665039 14.325 0.665039 31.9999C0.665039 47.9749 12.365 61.2123 27.6649 63.6123V41.2499H19.5399V31.9999H27.6649V24.9499C27.6649 16.9311 32.44 12.5 39.7524 12.5C43.2524 12.5 46.9149 13.125 46.9149 13.125V20.9999H42.8774C38.9024 20.9999 37.6649 23.4687 37.6649 25.9999V31.9999H46.5398L45.1212 41.2499H37.6649V63.6123C52.9649 61.2123 64.6648 47.9749 64.6648 31.9999Z" fill="#1877F2"/>
<path d="M45.1213 41.2499L46.5399 31.9999H37.665V26C37.665 23.4688 38.9025 21 42.8776 21H46.915V13.125C46.915 13.125 43.2525 12.5 39.7525 12.5C32.4401 12.5 27.6651 16.9312 27.6651 24.95V31.9999H19.54V41.2499H27.6651V63.6124C29.2963 63.8686 30.9651 63.9998 32.6651 63.9998C34.3651 63.9998 36.0338 63.8686 37.665 63.6124V41.2499H45.1213Z" fill="white"/>
</svg>
