<svg width="426" height="448" viewBox="0 0 426 448" fill="none" xmlns="http://www.w3.org/2000/svg">
<ellipse cx="253.5" cy="359.5" rx="88.5" ry="253.5" transform="rotate(-90 253.5 359.5)" fill="#424FD3"/>
<g clip-path="url(#clip0)">
<path d="M407 65.9902V135.954L363.894 111.097L292.545 69.964V0L407 65.9902Z" fill="#323241"/>
<path d="M298.007 16.5715V59.7336C301.056 61.4669 303.512 65.7366 303.512 69.2454L396.033 122.596C396.033 119.129 398.489 117.692 401.538 119.425V76.2206C398.531 74.4874 396.033 70.2177 396.033 66.7089L303.512 13.401C303.512 16.9097 301.056 18.3048 298.007 16.5715Z" fill="#CED7E2"/>
<path d="M362.275 89.1321C369.028 85.1667 368.918 72.4731 362.03 60.7801C355.141 49.0872 344.082 42.8228 337.329 46.7883C330.576 50.7538 330.686 63.4474 337.575 75.1403C344.463 86.8332 355.522 93.0976 362.275 89.1321Z" fill="#323241"/>
<path d="M316.554 52.2088L322.482 55.633C323.879 56.4363 325.023 55.5908 325.023 53.7307C325.023 51.8706 323.879 49.6724 322.482 48.8691L316.554 45.4449C315.157 44.6417 314.013 45.4872 314.013 47.3473C313.971 49.2073 315.114 51.4056 316.554 52.2088Z" fill="#323241"/>
<path d="M377.106 87.1274L383.034 90.5516C384.431 91.3549 385.574 90.5094 385.574 88.6493C385.574 86.7892 384.431 84.591 383.034 83.7878L377.106 80.3635C375.708 79.5603 374.565 80.4058 374.565 82.2659C374.565 84.126 375.708 86.3242 377.106 87.1274Z" fill="#323241"/>
<path opacity="0.5" d="M363.894 76.9816V111.097L292.545 69.9641V19.0235L298.007 22.194L349.243 51.6593C357.331 56.3094 363.894 67.639 363.894 76.9816Z" fill="#CED7E2"/>
<path d="M400.013 286.62L321.212 241.175C317.359 238.935 314.225 232.974 314.225 227.859V132.953C314.225 127.795 317.359 125.47 321.212 127.669L400.056 173.113C403.909 175.354 407.042 181.315 407.042 186.43V281.336C407 286.451 403.867 288.818 400.013 286.62Z" fill="#CED7E2"/>
<path d="M398.616 287.381L319.772 241.936C315.919 239.696 312.785 233.735 312.785 228.62V133.714C312.785 128.556 315.919 126.231 319.772 128.429L398.616 173.874C402.469 176.115 405.602 182.076 405.602 187.191V282.097C405.602 287.254 402.469 289.579 398.616 287.381Z" fill="white"/>
<path d="M391.968 212.302L367.451 198.182C366.731 197.759 366.139 196.66 366.139 195.688C366.139 194.716 366.731 194.293 367.451 194.673L391.926 208.793C392.646 209.216 393.239 210.315 393.239 211.287C393.239 212.259 392.688 212.724 391.968 212.302Z" fill="#CED7E2"/>
<path d="M392.053 201.775L371.855 190.108C371.177 189.727 370.627 188.67 370.627 187.783C370.627 186.895 371.177 186.472 371.855 186.853L392.053 198.52C392.73 198.901 393.281 199.958 393.281 200.845C393.238 201.775 392.73 202.198 392.053 201.775Z" fill="#CED7E2"/>
<path d="M392.688 220.503L333.026 186.134C332.899 186.049 332.771 185.88 332.771 185.711C332.771 185.542 332.899 185.5 333.026 185.584L392.688 219.953C392.815 220.038 392.942 220.207 392.942 220.376C392.9 220.545 392.815 220.588 392.688 220.503Z" fill="#CED7E2"/>
<path d="M391.968 241.64L372.447 230.395C371.728 229.972 371.135 228.873 371.135 227.901C371.135 226.929 371.728 226.506 372.447 226.886L391.968 238.131C392.688 238.554 393.28 239.653 393.28 240.626C393.238 241.598 392.688 242.021 391.968 241.64Z" fill="#CED7E2"/>
<path d="M392.053 231.114L356.06 210.399C355.383 210.019 354.833 208.962 354.833 208.074C354.833 207.187 355.383 206.764 356.06 207.144L392.053 227.859C392.73 228.239 393.281 229.296 393.281 230.184C393.238 231.072 392.73 231.494 392.053 231.114Z" fill="#CED7E2"/>
<path d="M392.688 249.841L333.026 215.472C332.899 215.388 332.771 215.219 332.771 215.05C332.771 214.881 332.899 214.838 333.026 214.923L392.688 249.292C392.815 249.376 392.942 249.545 392.942 249.715C392.9 249.841 392.815 249.884 392.688 249.841Z" fill="#CED7E2"/>
<path d="M391.968 270.936L361.226 253.223C360.506 252.801 359.914 251.701 359.914 250.729C359.914 249.757 360.506 249.334 361.226 249.715L391.925 267.427C392.645 267.85 393.238 268.949 393.238 269.922C393.238 270.894 392.688 271.359 391.968 270.936Z" fill="#CED7E2"/>
<path d="M392.053 260.41L379.434 253.139C378.757 252.758 378.207 251.701 378.207 250.814C378.207 249.926 378.757 249.503 379.434 249.884L392.053 257.155C392.73 257.535 393.281 258.592 393.281 259.48C393.239 260.41 392.73 260.79 392.053 260.41Z" fill="#CED7E2"/>
<path d="M392.561 190.953C392.476 190.911 392.392 190.826 392.307 190.7L384.77 177.679C384.643 177.425 384.643 177.172 384.77 177.087C384.897 177.003 385.151 177.129 385.278 177.383L392.815 190.404C392.942 190.657 392.942 190.911 392.815 190.995C392.73 191.038 392.646 191.038 392.561 190.953Z" fill="#CED7E2"/>
<path d="M385.024 186.641C384.939 186.599 384.854 186.514 384.77 186.388C384.643 186.134 384.643 185.88 384.77 185.796L392.307 181.442C392.434 181.357 392.688 181.484 392.815 181.737C392.942 181.991 392.942 182.245 392.815 182.329L385.278 186.683C385.193 186.683 385.108 186.683 385.024 186.641Z" fill="#CED7E2"/>
<path opacity="0.5" d="M363.47 153.625L319.814 128.472C315.961 126.231 312.827 128.599 312.827 133.756V228.662C312.827 233.819 315.961 239.78 319.814 241.978L363.47 267.132V153.625Z" fill="#CED7E2"/>
<path d="M353.816 87.1274V322.68C353.816 332.614 341.452 338.913 333.068 334.855L257.23 283.999C249.185 279.349 242.579 267.935 242.579 258.677L235.804 25.576C235.804 16.2333 249.142 10.019 257.23 14.6692L339.165 61.8051C347.253 66.4553 353.816 77.7848 353.816 87.1274Z" fill="#B6C4D4"/>
<path d="M346.237 91.0589V324.794C346.237 334.686 339.208 338.744 330.612 333.798L249.905 287.423C241.86 282.773 235.296 271.401 235.296 262.143V27.9856C235.296 18.3048 242.156 14.3733 250.54 19.1925L331.628 65.8211C339.631 70.429 346.237 81.8008 346.237 91.0589Z" fill="#323241"/>
<path d="M250.075 286.028C242.495 281.674 236.271 270.894 236.271 262.143V28.1547C236.271 19.7421 242.241 16.2756 249.566 20.503L329.977 66.7512C337.684 71.19 343.993 82.0968 343.993 90.9744V324.16C343.993 332.91 337.768 336.504 330.189 332.107L250.075 286.028Z" fill="#323241"/>
<path d="M340.436 101.162V314.098C340.436 320.186 336.117 322.638 330.866 319.636L252.911 274.783C245.713 270.64 239.827 260.452 239.827 252.166V39.0615C239.827 33.1008 244.062 30.6489 249.227 33.6081L327.309 78.5034C334.55 82.6886 340.436 92.8767 340.436 101.162Z" fill="white"/>
<path opacity="0.5" d="M301.437 58.0849L279.461 45.4026C278.911 45.0644 278.445 44.219 278.445 43.458C278.445 42.6971 278.911 42.3589 279.461 42.6971L301.437 55.3794C301.988 55.7176 302.454 56.5631 302.454 57.324C302.454 58.0849 302.03 58.4231 301.437 58.0849Z" fill="#323241"/>
<path opacity="0.5" d="M313.124 63.7074C313.124 65.0602 312.15 65.6098 310.965 64.9334C309.779 64.257 308.805 62.6083 308.805 61.2132C308.805 59.8605 309.779 59.3109 310.965 59.9873C312.193 60.7059 313.124 62.3546 313.124 63.7074Z" fill="#323241"/>
<path d="M330.358 87.6347L324.387 84.2105C324.175 84.0836 324.048 83.7877 324.048 83.5341V81.6317C324.048 81.3781 324.218 81.2513 324.387 81.3781L330.358 84.8023C330.569 84.9291 330.696 85.2251 330.696 85.4787V87.381C330.696 87.6347 330.569 87.7615 330.358 87.6347Z" fill="#323241"/>
<path d="M330.527 84.2105L324.26 80.5749C323.794 80.3212 323.456 80.5326 323.456 81.0399V83.3227C323.456 83.8723 323.837 84.5064 324.26 84.76L330.527 88.3956C330.993 88.6493 331.374 88.4379 331.374 87.9306V85.6478C331.331 85.1405 330.993 84.5064 330.527 84.2105ZM331.162 87.8038C331.162 88.2265 330.866 88.3956 330.527 88.1843L324.26 84.5487C323.921 84.3373 323.625 83.8723 323.625 83.4495V81.1667C323.625 80.7863 323.921 80.6172 324.26 80.7863L330.527 84.4218C330.866 84.6332 331.162 85.0982 331.162 85.521V87.8038Z" fill="#323241"/>
<path d="M332.644 87.5501C332.644 88.0997 332.263 88.3533 331.797 88.0997V85.986C332.263 86.2819 332.644 86.9583 332.644 87.5501Z" fill="#323241"/>
<path d="M250.074 40.7525C250.074 41.5134 249.524 41.8516 248.846 41.4711C248.169 41.0907 247.618 40.1184 247.618 39.3574C247.618 38.5965 248.169 38.2583 248.846 38.6388C249.524 39.0192 250.074 39.9493 250.074 40.7525Z" fill="#323241"/>
<path d="M253.546 42.7816C253.546 43.5426 252.996 43.8808 252.318 43.5003C251.641 43.1198 251.09 42.1475 251.09 41.3866C251.09 40.6257 251.641 40.2875 252.318 40.6679C252.996 41.0484 253.546 41.9784 253.546 42.7816Z" fill="#323241"/>
<path d="M257.061 44.7686C257.061 45.5295 256.51 45.8677 255.833 45.4872C255.155 45.1067 254.605 44.1344 254.605 43.3735C254.605 42.6126 255.155 42.2744 255.833 42.6548C256.51 43.0353 257.061 44.0076 257.061 44.7686Z" fill="#323241"/>
<path d="M259.348 44.9376C259.898 45.2336 260.321 45.9945 260.321 46.6286C260.321 47.2627 259.898 47.5164 259.348 47.1782C258.797 46.8822 258.374 46.1213 258.374 45.4872C258.331 44.8954 258.797 44.6417 259.348 44.9376ZM259.348 44.684C258.67 44.3035 258.12 44.5994 258.12 45.4026C258.12 46.2059 258.67 47.1359 259.348 47.5164C260.025 47.8968 260.576 47.6009 260.576 46.7977C260.576 46.0368 260.025 45.0645 259.348 44.684Z" fill="#323241"/>
<path d="M276.327 107.842C275.819 105.052 271.161 100.486 272.728 98.1188C283.652 81.9277 304.57 87.677 304.613 100.951C304.613 104.544 308.847 106.616 312.446 106.827C314.944 106.954 317.4 107.757 319.475 109.11C323.625 111.858 326.166 116.846 325.911 121.835C325.742 124.836 324.641 128.007 325.869 130.755C327.055 133.46 330.019 134.813 332.009 136.969C335.566 140.816 335.566 147.157 332.559 151.427C329.595 155.696 324.133 157.895 318.925 157.641C316.765 157.556 314.606 157.049 312.743 155.908C309.821 154.09 308.042 150.962 306.391 147.918C300.251 136.8 293.73 125.808 285.473 116.128C282.89 113.084 276.327 107.842 276.327 107.842Z" fill="#323241"/>
<path d="M305.036 323.018H297.499V333.756H305.036V323.018Z" fill="#FFB294"/>
<path d="M275.026 314.43L267.496 314.112L267.041 324.84L274.571 325.158L275.026 314.43Z" fill="#FFB294"/>
<path d="M264.64 205.496C264.64 205.496 257.908 246.798 262.015 270.091C264.683 285.267 266.503 302.684 266.165 314.352C266.08 316.931 268.112 319.129 270.695 319.256C273.236 319.425 275.48 317.565 275.777 315.028L279.926 280.955C280.307 277.742 280.18 274.445 279.545 271.274C278.656 266.92 278.741 262.439 279.799 258.127L285.092 236.271C285.092 236.271 284.965 272.965 286.066 282.858C287.082 291.947 295.551 304.587 296.356 323.652C296.483 326.442 298.854 328.598 301.648 328.429C304.189 328.26 306.179 326.189 306.264 323.652L307.195 295.709C307.323 292.158 306.73 288.607 305.502 285.267C303.681 280.406 303.342 275.079 304.401 270.006L311.049 242.021C313.462 231.833 313.928 221.264 312.361 210.907L310.879 201.099L264.64 205.496Z" fill="#323241"/>
<path d="M313.336 228.535L313.293 228.662C313.039 229.803 312.616 230.902 312.108 231.959C311.388 233.439 310.922 235.003 310.795 236.609L310.414 240.626C310.372 241.091 310.753 241.471 311.218 241.386C311.43 241.344 311.642 241.217 311.727 241.048L312.785 239.188C312.912 238.977 313.251 239.019 313.293 239.273C313.42 240.456 313.632 242.443 313.632 242.486C313.632 242.528 313.251 244.938 313.124 245.91C313.082 246.121 313.251 246.333 313.505 246.333C314.013 246.333 314.437 246.079 314.691 245.614L314.818 245.403C315.072 244.98 315.453 244.642 315.961 244.515C316.3 244.43 316.596 244.261 316.85 243.965L318.036 242.655C318.12 242.57 318.163 242.486 318.163 242.359L318.205 241.894C318.205 241.767 318.247 241.682 318.332 241.598L319.052 240.921C319.094 240.879 319.137 240.795 319.179 240.71L319.391 240.076C319.433 239.991 319.475 239.949 319.518 239.865L319.645 239.738C320.322 239.146 320.746 238.3 320.83 237.413C320.873 237.159 320.915 236.905 321 236.652C321.042 236.525 321.127 236.314 321.169 236.144C321.381 235.553 321.423 234.876 321.296 234.242L320.534 230.395C320.449 229.846 320.365 229.296 320.322 228.746V228.704C320.195 226.675 320.238 224.604 320.534 222.574C320.619 221.771 320.703 221.179 320.703 221.179L314.267 220.841L314.182 222.236C314.098 224.392 313.801 226.464 313.336 228.535Z" fill="#FFB294"/>
<path d="M211.287 180.976L211.16 181.019C210.102 181.526 208.958 181.906 207.815 182.16C206.206 182.498 204.682 183.132 203.327 184.062L199.981 186.261C199.6 186.514 199.558 187.064 199.897 187.402C200.066 187.571 200.278 187.614 200.532 187.614L202.649 187.275C202.903 187.233 203.073 187.571 202.903 187.74C202.099 188.586 200.659 190.023 200.659 190.065C200.617 190.108 198.542 191.334 197.653 191.841C197.441 191.968 197.399 192.221 197.568 192.391C197.907 192.771 198.415 192.982 198.881 192.898L199.092 192.856C199.6 192.771 200.109 192.898 200.49 193.194C200.786 193.405 201.125 193.532 201.464 193.574L203.242 193.701C203.327 193.701 203.454 193.701 203.538 193.616L203.919 193.321C204.004 193.236 204.131 193.236 204.258 193.236L205.232 193.405C205.317 193.405 205.401 193.405 205.486 193.363L206.121 193.109C206.206 193.067 206.291 193.067 206.375 193.067L206.587 193.109C207.476 193.278 208.408 193.109 209.17 192.602C209.382 192.475 209.636 192.348 209.848 192.264C209.975 192.221 210.186 192.137 210.356 192.095C210.949 191.883 211.499 191.503 211.88 190.995L214.378 187.952C214.717 187.529 215.098 187.106 215.522 186.768L215.564 186.726C217.046 185.331 218.697 184.062 220.433 183.006C221.111 182.583 221.661 182.245 221.661 182.245L217.723 176.876L216.623 177.679C214.971 178.99 213.15 180.089 211.287 180.976Z" fill="#FFB294"/>
<path d="M325.064 195.942L321.635 223.547C321.338 225.999 319.39 227.774 317.231 227.647C314.987 227.478 313.251 225.322 313.335 222.744L314.055 198.351C314.267 191.545 313.251 184.739 311.133 178.355L309.228 172.648C305.586 180.131 302.876 192.01 313.208 203.213C313.208 203.213 300.293 228.239 263.454 205.242C263.454 205.242 273.575 179.497 272.685 166.688C272.685 166.688 263.751 162.545 268.747 148.933L253.038 163.433C250.794 165.504 248.38 167.364 245.797 168.971L243.722 170.281L221.28 184.401C220.306 184.993 219.205 185.162 218.231 184.95C216.876 184.654 215.733 183.682 215.183 182.16C214.463 180.173 215.098 177.806 216.749 176.495L218.231 175.312L239.488 157.979C240.97 156.753 242.41 155.443 243.722 154.048C244.4 153.371 245.035 152.653 245.67 151.976L270.272 123.526C270.272 123.526 273.49 119.298 278.74 119.214L298.092 118.41C298.092 118.41 297.118 124.371 300.42 127.33C302.03 128.81 305.798 131.473 309.27 134.137C312.742 136.8 315.961 139.505 316.384 140.9L324.133 176.284C325.573 182.667 325.911 189.389 325.064 195.942Z" fill="#EA5616"/>
<path d="M298.727 114.521C298.854 114.437 298.938 114.352 299.023 114.268C299.277 114.056 299.489 113.845 299.658 113.591C299.997 113.211 300.251 112.746 300.463 112.281C300.844 111.393 301.14 110.336 300.759 109.406C299.828 107.081 297.16 108.476 295.678 111.351C295.255 112.112 294.238 112.323 293.603 111.731C289.581 108.011 277.936 98.1188 275.522 104.714C274.887 106.405 276.115 109.026 276.031 111.139C275.819 116.508 275.734 122.3 279.587 125.386C280.773 126.358 283.06 126.865 285.262 126.104L285.05 130.078C285.05 130.078 283.144 131.727 283.102 132.657C282.975 135.151 289.665 134.432 299.362 125.851C299.362 125.851 299.235 125.513 299.193 125.47C299.066 125.132 298.938 124.752 298.811 124.371C298.43 123.103 298.176 121.75 298.092 120.44C297.922 118.58 298.092 116.762 298.388 114.902C298.388 114.817 298.388 114.775 298.43 114.733C298.515 114.69 298.6 114.606 298.727 114.521Z" fill="#FFB294"/>
<path d="M256.807 335.278C258.839 336.631 262.65 337.857 267.139 333.08C273.829 325.935 275.269 330.797 276.497 327.161C277.598 323.864 275.269 320.735 274.888 320.228C274.718 320.44 274.464 320.609 274.168 320.778C272.432 321.792 269.637 321.792 267.901 320.778C267.689 320.651 267.52 320.524 267.393 320.397L256.511 332.53C255.748 333.375 255.875 334.644 256.807 335.278Z" fill="#323241"/>
<path d="M286.955 344.324C288.988 345.677 292.799 346.903 297.287 342.126C303.978 334.982 305.417 339.843 306.645 336.208C307.746 332.91 305.417 329.782 305.036 329.275C304.867 329.486 304.613 329.655 304.316 329.824C302.58 330.839 299.786 330.839 298.05 329.824C297.838 329.698 297.668 329.613 297.541 329.444L286.744 341.577C285.939 342.422 286.024 343.69 286.955 344.324Z" fill="#323241"/>
<path d="M75.9995 256.098L76.677 260.325L76.2112 264.299C75.9572 266.244 76.1689 268.188 76.7617 270.048C77.0158 270.767 77.4815 271.401 78.1167 271.866L82.9015 275.037C83.3673 275.375 84.0448 275.121 84.1718 274.572C84.5529 273.092 85.1457 270.683 85.1034 270.64C85.0611 270.598 85.5268 268.653 85.8656 267.301C86.035 266.54 86.035 265.694 85.8656 264.933L85.0611 261.72C84.807 260.621 84.2142 259.649 83.452 258.846C82.5628 257.958 82.0123 256.817 81.8006 255.591L81.3348 252.505L75.9995 256.098Z" fill="#FFB294"/>
<path d="M98.7801 378.102L104.412 376.622C105.682 376.115 107.037 375.903 108.392 376.03C110.128 376.157 111.526 376.58 112.076 378.228C112.415 379.243 112.33 385.753 102.379 388.501C100.77 389.008 99.3729 389.981 98.3567 391.376C96.6206 393.743 93.7836 395.011 90.8618 394.673C88.9987 394.462 87.5167 393.025 87.2203 391.207L87.0933 390.319L87.432 376.284L89.5492 378.989L98.7801 378.102Z" fill="white"/>
<path d="M111.906 289.706C111.906 289.706 109.493 316.423 108.265 322.384C107.164 327.795 100.008 358.529 98.3565 376.791C98.1024 379.75 95.6041 381.991 92.5977 381.991C89.549 381.991 87.0507 379.624 86.8813 376.58L85.5687 343.986C85.3993 341.323 85.6957 338.617 86.3732 336.039L88.9562 326.358C89.7607 323.314 90.0148 320.144 89.6337 317.015C88.2363 305.009 84.8488 273.726 85.8228 266.075C87.1354 256.521 111.906 289.706 111.906 289.706Z" fill="#323241"/>
<path d="M132.994 387.106L139.388 391.503C141.166 392.729 143.156 393.574 145.273 394.039L152.726 395.603C153.742 395.815 154.377 396.829 154.123 397.844C153.785 399.07 152.895 400.042 151.752 400.465L145.273 402.832C142.606 403.804 139.684 404.016 136.889 403.382L133.206 402.578C132.189 402.367 131.088 402.283 130.03 402.367L126.812 402.663C124.356 402.917 121.984 401.606 120.926 399.323C120.841 399.112 120.799 398.985 120.799 398.943C120.926 398.732 123.932 387.022 123.932 387.022L132.994 387.106Z" fill="white"/>
<path d="M129.86 275.037C129.86 275.037 141.505 299.514 144.723 319.89C145.358 324.033 145.274 328.218 144.469 332.361C142.055 344.874 136.635 369.435 134.645 385.753C134.307 388.459 132.232 390.573 129.522 390.911C126.05 391.376 122.958 388.797 122.789 385.288L121.688 348.89C121.561 346.311 121.9 343.733 122.704 341.281L123.932 337.603C125.626 332.445 125.287 326.781 122.916 321.877L113.685 302.727C112.034 299.302 109.747 296.259 106.953 293.722C103.523 290.594 98.8649 285.648 97.5099 280.575C97.4676 280.448 97.4252 280.279 97.3829 280.152C95.4351 271.613 129.86 275.037 129.86 275.037Z" fill="#323241"/>
<path d="M192.317 220.461L191.724 221.983L191.343 224.012L189.056 227.943C188.802 228.366 188.464 228.704 188.04 228.958L186.346 229.93L180.207 231.663L177.37 225.999L179.487 224.984C180.461 224.519 181.181 223.758 181.562 222.743L183.001 219.023C183.382 218.009 184.06 217.079 184.949 216.402L185.754 215.768C186.092 215.515 186.601 215.472 186.939 215.726C187.193 215.895 187.363 216.233 187.363 216.529C187.363 216.656 187.32 216.783 187.278 216.91L187.109 217.29C186.897 217.797 186.855 218.389 186.982 218.939L187.193 219.996L188.252 219.531C189.014 219.192 189.649 218.601 189.988 217.84L192.232 216.571L192.402 217.375C192.74 218.432 192.698 219.488 192.317 220.461Z" fill="#FFB294"/>
<path d="M126.515 162.714C126.515 162.714 132.062 173.029 125.33 186.218C123.932 188.924 119.994 186.895 119.147 188.501C118.301 190.15 117.665 195.434 117.665 195.434L103.099 192.898L103.48 190.53L105.428 179.032L117.792 163.094L126.515 162.714Z" fill="#FFB294"/>
<path d="M102.422 189.431L100.389 191.968C100.389 191.968 81.5884 184.612 76.3378 200.127C72.6539 210.949 71.2142 222.743 70.6638 228.873C70.4097 231.452 70.4944 234.073 70.8755 236.652L72.9927 254.872C73.2891 257.62 75.9567 259.48 78.6667 258.846C80.8263 258.338 82.3083 256.436 82.2659 254.196L81.9695 241.471C81.8849 237.497 82.4353 233.481 83.6633 229.676L86.3733 221.095C86.3733 221.095 94.5033 236.652 89.2103 250.687C83.875 264.722 84.5948 269.372 84.5948 269.372C84.5948 269.372 95.9853 285.774 114.066 284.718C132.147 283.618 132.359 276.094 132.359 276.094C132.359 276.094 132.486 242.105 134.814 233.946C136.889 235.426 145.485 240.583 151.117 243.881C154.208 245.698 158.019 245.825 161.237 244.219L181.138 234.115C183.34 232.974 184.357 230.353 183.425 228.028C182.451 225.618 179.741 224.434 177.285 225.322L162.846 230.691C160.94 231.452 158.781 231.029 157.299 229.634L140.87 214.119C139.853 213.189 138.795 212.302 137.694 211.498L120.164 199.831L119.401 195.815C119.232 194.885 118.343 194.251 117.411 194.377C114.32 194.758 107.672 194.885 103.777 189.474C103.48 189.009 102.76 188.966 102.422 189.431Z" fill="#424FD3"/>
<path d="M101.702 161.615C109.493 151.469 126.134 155.105 129.098 159.628C131.3 163.01 126.854 166.138 126.854 166.138C126.642 171.592 126.515 173.578 124.737 177.256C124.229 178.313 122.789 178.651 121.942 177.848C121.646 177.594 121.307 177.383 120.884 177.341C119.613 177.214 118.682 178.482 118.004 179.581C116.395 182.202 114.447 184.697 111.737 186.176C109.027 187.656 106.402 188.417 103.904 186.641C102.21 185.5 98.0603 166.349 101.702 161.615Z" fill="#323241"/>
<g clip-path="url(#clip1)">
<path d="M219.804 185.115L214.221 188.284V186.055L219.804 182.886V185.115Z" fill="#FFBB1E"/>
<path d="M194.183 143.495L188.634 146.664V144.4L194.183 141.266V143.495Z" fill="#FFBB1E"/>
<path d="M219.814 185.105C226.913 181.066 226.916 167.974 219.821 155.864C212.727 143.754 201.22 137.211 194.121 141.25C187.022 145.29 187.019 158.382 194.114 170.492C201.208 182.602 212.715 189.145 219.814 185.105Z" fill="#FFBB1E"/>
<path d="M214.515 188.129C221.614 184.089 221.618 170.997 214.523 158.887C207.428 146.777 195.922 140.234 188.823 144.274C181.724 148.313 181.721 161.405 188.815 173.515C195.91 185.625 207.416 192.168 214.515 188.129Z" fill="#FFD06C"/>
<path d="M201.675 182.294C193.864 177.871 187.539 167.039 187.539 158.158C187.539 149.276 193.9 145.654 201.675 150.112C209.449 154.57 215.811 165.367 215.811 174.248C215.811 183.13 209.485 186.752 201.675 182.294ZM201.675 150.6C194.112 146.316 187.963 149.799 187.963 158.401C187.963 167.004 194.112 177.487 201.675 181.806C209.237 186.09 215.387 182.607 215.387 174.005C215.387 165.402 209.237 154.919 201.675 150.6Z" fill="white"/>
<path opacity="0.5" d="M211.959 146.142C210.404 144.749 208.707 143.53 207.011 142.52C206.905 142.45 206.799 142.415 206.657 142.346C206.587 142.311 206.516 142.276 206.481 142.241C206.269 142.137 206.092 142.032 205.88 141.928C205.774 141.858 205.633 141.823 205.527 141.753C205.35 141.684 205.173 141.579 204.997 141.51C204.855 141.44 204.714 141.405 204.608 141.336C204.431 141.266 204.29 141.196 204.148 141.127C204.007 141.057 203.866 141.022 203.724 140.952C203.583 140.918 203.442 140.848 203.3 140.813C203.123 140.743 202.982 140.709 202.841 140.674C202.699 140.639 202.593 140.604 202.452 140.569C202.275 140.534 202.134 140.5 201.957 140.43C201.851 140.395 201.745 140.36 201.604 140.36C201.427 140.326 201.25 140.291 201.074 140.256C200.968 140.256 200.862 140.221 200.756 140.186C200.579 140.151 200.402 140.151 200.226 140.117C200.12 140.117 200.049 140.082 199.943 140.082C199.766 140.082 199.589 140.047 199.413 140.047C199.342 140.047 199.236 140.047 199.165 140.047C198.989 140.047 198.812 140.047 198.635 140.047C198.565 140.047 198.494 140.047 198.423 140.047C198.247 140.047 198.07 140.082 197.893 140.082C197.822 140.082 197.752 140.082 197.681 140.117C197.504 140.151 197.328 140.186 197.151 140.186C197.08 140.186 197.01 140.221 196.974 140.221C196.798 140.256 196.621 140.291 196.444 140.36C196.232 140.43 196.197 140.43 196.126 140.43C195.949 140.465 195.773 140.534 195.596 140.604C195.561 140.604 195.49 140.639 195.455 140.639C195.278 140.709 195.101 140.778 194.925 140.848C194.889 140.848 194.854 140.883 194.819 140.883C194.607 140.987 194.395 141.092 194.182 141.196C194.076 141.266 194.006 141.301 193.9 141.37L189.093 144.122L188.634 144.4C185.453 146.351 183.51 150.286 183.51 155.894C183.51 157.844 183.757 159.864 184.217 161.919C186.372 171.81 193.37 182.12 201.675 186.856C203.406 187.832 205.067 188.528 206.657 188.911V149.172L211.959 146.142Z" fill="#FFBB1E"/>
<g clip-path="url(#clip2)">
<path d="M206.09 161.771C205.363 160.602 204.427 159.582 203.42 158.96L199.485 156.548C199.321 156.448 199.204 156.523 199.204 156.697L199.181 162.89C199.181 163.089 199.063 163.164 198.9 163.064L198.056 162.542C197.892 162.442 197.775 162.517 197.775 162.716V165.452C197.775 165.651 197.892 165.875 198.056 165.974L198.9 166.497C199.04 166.571 199.157 166.795 199.157 166.994V168.014C199.157 168.213 199.04 168.287 198.876 168.188L198.033 167.666C197.892 167.591 197.752 167.666 197.752 167.84V170.576C197.752 170.775 197.869 170.999 198.033 171.098L198.876 171.62C199.017 171.72 199.157 171.944 199.157 172.143V173.162C199.157 173.361 199.274 173.585 199.438 173.685L201.687 175.053C201.85 175.152 201.968 175.078 201.968 174.879V173.859C201.968 173.66 202.085 173.585 202.249 173.685L203.092 174.207C203.256 174.307 203.373 174.232 203.373 174.033V171.297C203.373 171.098 203.256 170.874 203.092 170.775L202.249 170.252C202.108 170.178 201.968 169.929 201.968 169.755V168.735C201.968 168.536 202.085 168.462 202.249 168.561L203.256 169.183C205.527 170.576 207.495 169.631 207.588 166.944C207.682 165.253 207.073 163.363 206.09 161.771ZM204.801 165.129C204.731 165.974 204.075 166.223 203.326 165.775L202.272 165.129C202.108 165.029 201.991 164.805 201.991 164.606V161.87C201.991 161.671 202.108 161.597 202.272 161.696L203.396 162.393C203.63 162.542 203.865 162.766 204.075 163.014C204.544 163.611 204.848 164.432 204.801 165.129Z" fill="white"/>
</g>
</g>
</g>
<defs>
<clipPath id="clip0">
<rect width="344" height="429" fill="white" transform="translate(63)"/>
</clipPath>
<clipPath id="clip1">
<rect width="41.6306" height="49.2475" fill="white" transform="translate(183.51 140.082)"/>
</clipPath>
<clipPath id="clip2">
<rect width="9.85987" height="18.6046" fill="white" transform="translate(197.752 156.497)"/>
</clipPath>
</defs>
</svg>
