<svg width="358" height="316" viewBox="0 0 358 316" fill="none" xmlns="http://www.w3.org/2000/svg">
<ellipse cx="178.808" cy="253.576" rx="62.4241" ry="178.808" transform="rotate(-90 178.808 253.576)" fill="#424FD3"/>
<g clip-path="url(#clip0)">
<path d="M287.081 46.5467V95.8963L256.676 78.363L206.349 49.3496V0L287.081 46.5467Z" fill="#323241"/>
<path d="M210.202 11.6889V42.1336C212.353 43.3562 214.085 46.3678 214.085 48.8428L279.345 86.4737C279.345 84.0286 281.078 83.0148 283.228 84.2373V53.7628C281.107 52.5403 279.345 49.5286 279.345 47.0536L214.085 9.45251C214.085 11.9275 212.353 12.9115 210.202 11.6889Z" fill="#CED7E2"/>
<path d="M255.534 62.87C260.297 60.073 260.22 51.1194 255.361 42.8717C250.502 34.624 242.701 30.2054 237.938 33.0025C233.174 35.7996 233.252 44.7531 238.111 53.0008C242.97 61.2485 250.77 65.6671 255.534 62.87Z" fill="#323241"/>
<path d="M223.284 36.8259L227.466 39.2412C228.451 39.8077 229.258 39.2114 229.258 37.8993C229.258 36.5873 228.451 35.0368 227.466 34.4702L223.284 32.0549C222.298 31.4884 221.492 32.0847 221.492 33.3968C221.462 34.7088 222.269 36.2593 223.284 36.8259Z" fill="#323241"/>
<path d="M265.994 61.456L270.176 63.8713C271.161 64.4378 271.968 63.8415 271.968 62.5295C271.968 61.2174 271.161 59.6669 270.176 59.1003L265.994 56.685C265.009 56.1185 264.202 56.7149 264.202 58.0269C264.202 59.3389 265.009 60.8894 265.994 61.456Z" fill="#323241"/>
<path opacity="0.5" d="M256.676 54.2995V78.363L206.349 49.3496V13.4183L210.202 15.6547L246.342 36.4382C252.046 39.7183 256.676 47.7096 256.676 54.2995Z" fill="#CED7E2"/>
<path d="M282.153 202.169L226.569 170.115C223.851 168.534 221.641 164.33 221.641 160.722V93.7792C221.641 90.1413 223.851 88.5013 226.569 90.0519L282.182 122.107C284.9 123.687 287.111 127.892 287.111 131.5V198.442C287.081 202.05 284.87 203.72 282.153 202.169Z" fill="#CED7E2"/>
<path d="M281.167 202.706L225.554 170.651C222.836 169.071 220.626 164.867 220.626 161.258V94.3159C220.626 90.6781 222.836 89.0381 225.554 90.5886L281.167 122.644C283.885 124.224 286.095 128.428 286.095 132.036V198.979C286.095 202.617 283.885 204.257 281.167 202.706Z" fill="white"/>
<path d="M276.478 149.749L259.185 139.789C258.677 139.491 258.259 138.716 258.259 138.03C258.259 137.344 258.677 137.046 259.185 137.314L276.448 147.274C276.956 147.572 277.374 148.347 277.374 149.033C277.374 149.719 276.986 150.047 276.478 149.749Z" fill="#CED7E2"/>
<path d="M276.538 142.324L262.291 134.094C261.813 133.826 261.425 133.08 261.425 132.454C261.425 131.828 261.813 131.53 262.291 131.798L276.538 140.028C277.016 140.296 277.404 141.042 277.404 141.668C277.374 142.324 277.016 142.622 276.538 142.324Z" fill="#CED7E2"/>
<path d="M276.986 155.533L234.903 131.291C234.813 131.231 234.724 131.112 234.724 130.993C234.724 130.873 234.813 130.844 234.903 130.903L276.986 155.146C277.076 155.205 277.165 155.325 277.165 155.444C277.135 155.563 277.076 155.593 276.986 155.533Z" fill="#CED7E2"/>
<path d="M276.478 170.443L262.71 162.511C262.202 162.213 261.784 161.437 261.784 160.752C261.784 160.066 262.202 159.768 262.71 160.036L276.478 167.968C276.986 168.266 277.404 169.041 277.404 169.727C277.374 170.413 276.986 170.711 276.478 170.443Z" fill="#CED7E2"/>
<path d="M276.538 163.018L251.151 148.407C250.673 148.138 250.285 147.393 250.285 146.767C250.285 146.141 250.673 145.842 251.151 146.111L276.538 160.722C277.016 160.99 277.404 161.736 277.404 162.362C277.374 162.988 277.016 163.286 276.538 163.018Z" fill="#CED7E2"/>
<path d="M276.986 176.227L234.903 151.985C234.813 151.925 234.724 151.806 234.724 151.687C234.724 151.568 234.813 151.538 234.903 151.597L276.986 175.84C277.076 175.899 277.165 176.019 277.165 176.138C277.135 176.227 277.076 176.257 276.986 176.227Z" fill="#CED7E2"/>
<path d="M276.478 191.107L254.795 178.613C254.287 178.315 253.869 177.539 253.869 176.854C253.869 176.168 254.287 175.87 254.795 176.138L276.448 188.632C276.956 188.93 277.374 189.705 277.374 190.391C277.374 191.077 276.986 191.405 276.478 191.107Z" fill="#CED7E2"/>
<path d="M276.538 183.682L267.638 178.553C267.16 178.285 266.771 177.539 266.771 176.913C266.771 176.287 267.16 175.989 267.638 176.257L276.538 181.386C277.016 181.654 277.404 182.4 277.404 183.026C277.374 183.682 277.016 183.95 276.538 183.682Z" fill="#CED7E2"/>
<path d="M276.896 134.69C276.836 134.66 276.776 134.601 276.717 134.511L271.4 125.327C271.311 125.148 271.311 124.969 271.4 124.91C271.49 124.85 271.669 124.94 271.759 125.118L277.075 134.303C277.165 134.481 277.165 134.66 277.075 134.72C277.015 134.75 276.956 134.75 276.896 134.69Z" fill="#CED7E2"/>
<path d="M271.579 131.649C271.52 131.619 271.46 131.559 271.4 131.47C271.311 131.291 271.311 131.112 271.4 131.052L276.717 127.981C276.806 127.921 276.985 128.011 277.075 128.19C277.165 128.369 277.165 128.548 277.075 128.607L271.759 131.678C271.699 131.678 271.639 131.678 271.579 131.649Z" fill="#CED7E2"/>
<path opacity="0.5" d="M256.377 108.36L225.584 90.6184C222.866 89.0381 220.656 90.7079 220.656 94.3458V161.288C220.656 164.926 222.866 169.131 225.584 170.681L256.377 188.423V108.36Z" fill="#CED7E2"/>
<path d="M249.567 61.4559V227.605C249.567 234.612 240.846 239.055 234.932 236.192L181.44 200.321C175.765 197.041 171.105 188.99 171.105 182.459L166.327 18.0402C166.327 11.4503 175.735 7.06697 181.44 10.347L239.233 43.5946C244.938 46.8747 249.567 54.866 249.567 61.4559Z" fill="#B6C4D4"/>
<path d="M244.221 64.2291V229.096C244.221 236.073 239.263 238.936 233.2 235.447L176.273 202.736C170.598 199.456 165.968 191.435 165.968 184.905V19.7399C165.968 12.9114 170.807 10.1383 176.721 13.5376L233.917 46.4274C239.562 49.6776 244.221 57.6988 244.221 64.2291Z" fill="#323241"/>
<path d="M176.392 201.752C171.046 198.681 166.655 191.077 166.655 184.905V19.8591C166.655 13.9252 170.867 11.4801 176.034 14.462L232.752 47.0834C238.188 50.2143 242.638 57.9075 242.638 64.1694V228.648C242.638 234.821 238.247 237.355 232.901 234.254L176.392 201.752Z" fill="#323241"/>
<path d="M240.129 71.3557V221.551C240.129 225.845 237.083 227.575 233.379 225.458L178.393 193.82C173.316 190.898 169.164 183.712 169.164 177.867V27.5523C169.164 23.3479 172.151 21.6184 175.795 23.7057L230.87 55.3729C235.977 58.325 240.129 65.5112 240.129 71.3557Z" fill="white"/>
<path opacity="0.5" d="M212.621 40.9706L197.12 32.025C196.732 31.7865 196.403 31.1901 196.403 30.6534C196.403 30.1166 196.732 29.8781 197.12 30.1166L212.621 39.0622C213.01 39.3007 213.338 39.8971 213.338 40.4338C213.338 40.9706 213.04 41.2091 212.621 40.9706Z" fill="#323241"/>
<path opacity="0.5" d="M220.865 44.9364C220.865 45.8906 220.178 46.2783 219.342 45.8012C218.505 45.3241 217.818 44.1611 217.818 43.1771C217.818 42.2229 218.505 41.8353 219.342 42.3124C220.208 42.8193 220.865 43.9822 220.865 44.9364Z" fill="#323241"/>
<path d="M233.02 61.8138L228.809 59.3985C228.659 59.309 228.57 59.1003 228.57 58.9214V57.5795C228.57 57.4006 228.689 57.3112 228.809 57.4006L233.02 59.8159C233.169 59.9054 233.259 60.1141 233.259 60.293V61.6349C233.259 61.8138 233.169 61.9032 233.02 61.8138Z" fill="#323241"/>
<path d="M233.14 59.3985L228.719 56.8341C228.391 56.6552 228.152 56.8043 228.152 57.1621V58.7723C228.152 59.16 228.421 59.6072 228.719 59.7861L233.14 62.3505C233.468 62.5294 233.737 62.3803 233.737 62.0225V60.4123C233.707 60.0545 233.468 59.6072 233.14 59.3985ZM233.588 61.9331C233.588 62.2313 233.379 62.3505 233.14 62.2014L228.719 59.637C228.48 59.488 228.271 59.1599 228.271 58.8618V57.2516C228.271 56.9832 228.48 56.8639 228.719 56.9832L233.14 59.5476C233.379 59.6967 233.588 60.0247 233.588 60.3229V61.9331Z" fill="#323241"/>
<path d="M234.633 61.7542C234.633 62.1418 234.364 62.3207 234.036 62.1418V60.6509C234.364 60.8596 234.633 61.3367 234.633 61.7542Z" fill="#323241"/>
<path d="M176.392 28.745C176.392 29.2818 176.004 29.5203 175.526 29.2519C175.048 28.9836 174.66 28.2977 174.66 27.761C174.66 27.2243 175.048 26.9857 175.526 27.2541C176.004 27.5225 176.392 28.1785 176.392 28.745Z" fill="#323241"/>
<path d="M178.841 30.1763C178.841 30.713 178.453 30.9516 177.975 30.6832C177.497 30.4148 177.109 29.729 177.109 29.1923C177.109 28.6556 177.497 28.417 177.975 28.6854C178.453 28.9537 178.841 29.6097 178.841 30.1763Z" fill="#323241"/>
<path d="M181.32 31.5778C181.32 32.1145 180.932 32.3531 180.454 32.0847C179.976 31.8163 179.588 31.1305 179.588 30.5938C179.588 30.057 179.976 29.8185 180.454 30.0869C180.932 30.3552 181.32 31.041 181.32 31.5778Z" fill="#323241"/>
<path d="M182.933 31.6971C183.321 31.9058 183.62 32.4426 183.62 32.8898C183.62 33.3371 183.321 33.516 182.933 33.2775C182.545 33.0687 182.246 32.532 182.246 32.0847C182.216 31.6673 182.545 31.4884 182.933 31.6971ZM182.933 31.5182C182.455 31.2498 182.067 31.4585 182.067 32.0251C182.067 32.5916 182.455 33.2477 182.933 33.516C183.411 33.7844 183.799 33.5757 183.799 33.0091C183.799 32.4724 183.411 31.7865 182.933 31.5182Z" fill="#323241"/>
<path d="M194.909 76.067C194.551 74.099 191.266 70.8786 192.371 69.2088C200.076 57.7883 214.831 61.8436 214.861 71.2066C214.861 73.7412 217.848 75.2023 220.386 75.3514C222.148 75.4408 223.881 76.0074 225.344 76.9616C228.271 78.8998 230.063 82.4184 229.884 85.9369C229.765 88.0541 228.988 90.2904 229.854 92.2286C230.691 94.137 232.781 95.0912 234.185 96.612C236.694 99.3254 236.694 103.798 234.573 106.81C232.483 109.822 228.63 111.372 224.956 111.193C223.433 111.134 221.91 110.776 220.595 109.971C218.534 108.688 217.28 106.482 216.115 104.335C211.784 96.4927 207.185 88.7399 201.361 81.9114C199.539 79.7645 194.909 76.067 194.909 76.067Z" fill="#323241"/>
<path d="M215.16 227.843H209.844V235.417H215.16V227.843Z" fill="#FFB294"/>
<path d="M193.992 221.785L188.68 221.561L188.36 229.128L193.671 229.352L193.992 221.785Z" fill="#FFB294"/>
<path d="M186.666 144.948C186.666 144.948 181.917 174.08 184.815 190.51C186.696 201.215 187.98 213.501 187.742 221.73C187.682 223.549 189.115 225.1 190.937 225.189C192.729 225.309 194.312 223.997 194.521 222.208L197.448 198.174C197.717 195.908 197.628 193.582 197.18 191.345C196.552 188.274 196.612 185.113 197.359 182.072L201.092 166.656C201.092 166.656 201.003 192.538 201.779 199.516C202.496 205.927 208.469 214.842 209.037 228.29C209.127 230.259 210.799 231.779 212.77 231.66C214.562 231.541 215.966 230.08 216.026 228.29L216.683 208.58C216.773 206.076 216.354 203.571 215.488 201.215C214.204 197.786 213.965 194.029 214.712 190.451L219.401 170.711C221.103 163.525 221.432 156.07 220.327 148.765L219.281 141.847L186.666 144.948Z" fill="#323241"/>
<path d="M221.014 161.199L220.984 161.288C220.805 162.093 220.506 162.869 220.148 163.614C219.64 164.658 219.311 165.761 219.222 166.894L218.953 169.727C218.923 170.055 219.192 170.323 219.52 170.264C219.67 170.234 219.819 170.144 219.879 170.025L220.626 168.713C220.715 168.564 220.954 168.594 220.984 168.773C221.074 169.608 221.223 171.009 221.223 171.039C221.223 171.069 220.954 172.768 220.864 173.454C220.835 173.603 220.954 173.752 221.133 173.752C221.492 173.752 221.79 173.574 221.97 173.246L222.059 173.096C222.238 172.798 222.507 172.56 222.866 172.47C223.105 172.411 223.314 172.291 223.493 172.083L224.329 171.158C224.389 171.099 224.419 171.039 224.419 170.949L224.449 170.621C224.449 170.532 224.478 170.472 224.538 170.413L225.046 169.936C225.076 169.906 225.106 169.846 225.135 169.787L225.285 169.339C225.315 169.28 225.345 169.25 225.374 169.19L225.464 169.101C225.942 168.683 226.241 168.087 226.3 167.461C226.33 167.282 226.36 167.103 226.42 166.924C226.45 166.835 226.509 166.685 226.539 166.566C226.689 166.149 226.718 165.672 226.629 165.224L226.091 162.511C226.032 162.123 225.972 161.736 225.942 161.348V161.318C225.852 159.887 225.882 158.426 226.091 156.994C226.151 156.428 226.211 156.01 226.211 156.01L221.671 155.772L221.611 156.756C221.551 158.277 221.342 159.738 221.014 161.199Z" fill="#FFB294"/>
<path d="M149.033 127.653L148.944 127.683C148.197 128.041 147.391 128.309 146.584 128.488C145.449 128.726 144.374 129.174 143.418 129.83L141.059 131.38C140.79 131.559 140.76 131.947 140.999 132.185C141.119 132.305 141.268 132.335 141.447 132.335L142.941 132.096C143.12 132.066 143.239 132.305 143.12 132.424C142.552 133.02 141.537 134.034 141.537 134.064C141.507 134.094 140.043 134.959 139.416 135.316C139.267 135.406 139.237 135.585 139.356 135.704C139.595 135.972 139.954 136.121 140.282 136.062L140.432 136.032C140.79 135.972 141.148 136.062 141.417 136.271C141.626 136.42 141.865 136.509 142.104 136.539L143.359 136.628C143.418 136.628 143.508 136.628 143.568 136.569L143.837 136.36C143.896 136.3 143.986 136.3 144.075 136.3L144.762 136.42C144.822 136.42 144.882 136.42 144.942 136.39L145.39 136.211C145.449 136.181 145.509 136.181 145.569 136.181L145.718 136.211C146.345 136.33 147.003 136.211 147.54 135.853C147.689 135.764 147.869 135.674 148.018 135.615C148.108 135.585 148.257 135.525 148.376 135.495C148.795 135.346 149.183 135.078 149.452 134.72L151.214 132.573C151.453 132.275 151.722 131.977 152.02 131.738L152.05 131.708C153.095 130.724 154.26 129.83 155.485 129.084C155.963 128.786 156.351 128.548 156.351 128.548L153.573 124.761L152.797 125.327C151.632 126.252 150.348 127.027 149.033 127.653Z" fill="#FFB294"/>
<path d="M229.287 138.209L226.868 157.68C226.659 159.41 225.285 160.662 223.762 160.573C222.179 160.453 220.954 158.933 221.014 157.114L221.522 139.908C221.671 135.108 220.954 130.307 219.461 125.804L218.117 121.779C215.548 127.057 213.637 135.436 220.924 143.338C220.924 143.338 211.815 160.99 185.83 144.769C185.83 144.769 192.968 126.609 192.341 117.574C192.341 117.574 186.039 114.652 189.564 105.051L178.483 115.278C176.9 116.739 175.197 118.051 173.375 119.185L171.912 120.109L156.082 130.068C155.395 130.486 154.619 130.605 153.932 130.456C152.976 130.247 152.17 129.561 151.781 128.488C151.273 127.086 151.722 125.417 152.886 124.492L153.932 123.657L168.925 111.432C169.97 110.567 170.986 109.643 171.912 108.659C172.39 108.182 172.838 107.675 173.286 107.197L190.639 87.1296C190.639 87.1296 192.909 84.1478 196.612 84.0882L210.262 83.5216C210.262 83.5216 209.575 87.726 211.904 89.8133C213.039 90.857 215.697 92.7355 218.147 94.6141C220.596 96.4926 222.866 98.401 223.164 99.385L228.63 124.343C229.646 128.846 229.885 133.587 229.287 138.209Z" fill="#EA5616"/>
<path d="M210.71 80.7783C210.799 80.7187 210.859 80.6591 210.919 80.5994C211.098 80.4503 211.247 80.3012 211.367 80.1223C211.606 79.854 211.785 79.526 211.934 79.198C212.203 78.5718 212.412 77.8263 212.143 77.1703C211.486 75.5303 209.605 76.5143 208.559 78.5419C208.261 79.0787 207.544 79.2278 207.096 78.8103C204.258 76.1863 196.045 69.2088 194.343 73.8604C193.895 75.0532 194.761 76.9019 194.701 78.3929C194.552 82.1798 194.492 86.2649 197.21 88.4417C198.046 89.1275 199.659 89.4853 201.212 88.9486L201.063 91.7515C201.063 91.7515 199.719 92.9145 199.689 93.5705C199.599 95.3297 204.318 94.8228 211.158 88.7697C211.158 88.7697 211.068 88.5311 211.038 88.5013C210.949 88.2628 210.859 87.9944 210.77 87.726C210.501 86.8315 210.322 85.8773 210.262 84.9529C210.142 83.6409 210.262 82.3587 210.471 81.0467C210.471 80.9871 210.471 80.9572 210.501 80.9274C210.561 80.8976 210.62 80.838 210.71 80.7783Z" fill="#FFB294"/>
<path d="M181.141 236.491C182.575 237.445 185.263 238.309 188.429 234.94C193.148 229.901 194.163 233.33 195.029 230.765C195.806 228.44 194.163 226.233 193.894 225.875C193.775 226.024 193.596 226.144 193.387 226.263C192.162 226.978 190.191 226.978 188.966 226.263C188.817 226.173 188.698 226.084 188.608 225.994L180.932 234.552C180.394 235.149 180.484 236.043 181.141 236.491Z" fill="#323241"/>
<path d="M202.406 242.872C203.84 243.826 206.528 244.691 209.694 241.321C214.413 236.282 215.429 239.711 216.295 237.147C217.071 234.821 215.429 232.614 215.16 232.256C215.04 232.405 214.861 232.525 214.652 232.644C213.427 233.36 211.456 233.36 210.232 232.644C210.082 232.555 209.963 232.495 209.873 232.376L202.257 240.934C201.69 241.53 201.749 242.424 202.406 242.872Z" fill="#323241"/>
<path d="M53.6069 180.64L54.0848 183.622L53.7563 186.425C53.5771 187.797 53.7264 189.169 54.1445 190.481C54.3238 190.987 54.6523 191.435 55.1003 191.763L58.4753 193.999C58.8039 194.238 59.2817 194.059 59.3713 193.671C59.6401 192.627 60.0583 190.928 60.0284 190.898C59.9986 190.868 60.3271 189.497 60.566 188.542C60.6855 188.006 60.6855 187.409 60.566 186.873L59.9986 184.606C59.8194 183.831 59.4012 183.145 58.8636 182.579C58.2364 181.952 57.8481 181.147 57.6988 180.283L57.3702 178.106L53.6069 180.64Z" fill="#FFB294"/>
<path d="M69.676 266.697L73.6484 265.653C74.5444 265.295 75.5002 265.146 76.4559 265.236C77.6805 265.325 78.6661 265.623 79.0544 266.786C79.2933 267.502 79.2336 272.094 72.2147 274.032C71.0798 274.39 70.0942 275.076 69.3773 276.06C68.1528 277.73 66.1517 278.624 64.0908 278.386C62.7767 278.236 61.7313 277.223 61.5222 275.94L61.4326 275.314L61.6716 265.415L63.1649 267.323L69.676 266.697Z" fill="white"/>
<path d="M78.9347 204.346C78.9347 204.346 77.2323 223.191 76.3661 227.396C75.5896 231.213 70.542 252.891 69.3771 265.772C69.1979 267.86 67.4357 269.44 65.3152 269.44C63.1647 269.44 61.4025 267.77 61.2831 265.623L60.3572 242.633C60.2377 240.755 60.4468 238.846 60.9247 237.027L62.7466 230.199C63.314 228.052 63.4932 225.816 63.2244 223.609C62.2388 215.14 59.8494 193.075 60.5364 187.678C61.4623 180.939 78.9347 204.346 78.9347 204.346Z" fill="#323241"/>
<path d="M93.8088 273.048L98.3188 276.149C99.5733 277.014 100.977 277.61 102.47 277.938L107.727 279.042C108.444 279.191 108.892 279.906 108.713 280.622C108.474 281.487 107.847 282.172 107.04 282.471L102.47 284.14C100.589 284.826 98.5279 284.975 96.5566 284.528L93.9582 283.962C93.2414 283.812 92.4648 283.753 91.7181 283.812L89.4482 284.021C87.7159 284.2 86.0433 283.276 85.2966 281.666C85.2369 281.516 85.207 281.427 85.207 281.397C85.2966 281.248 87.4172 272.988 87.4172 272.988L93.8088 273.048Z" fill="white"/>
<path d="M91.5988 193.999C91.5988 193.999 99.8123 211.264 102.082 225.637C102.53 228.559 102.471 231.511 101.903 234.433C100.201 243.259 96.3776 260.584 94.9738 272.094C94.7348 274.002 93.2713 275.493 91.3598 275.732C88.9107 276.06 86.7304 274.241 86.6109 271.766L85.8344 246.092C85.7448 244.273 85.9837 242.454 86.5512 240.725L87.4173 238.131C88.612 234.493 88.3731 230.497 86.7005 227.038L80.1894 213.53C79.0246 211.115 77.4117 208.968 75.4405 207.179C73.0212 204.972 69.7358 201.484 68.7801 197.905C68.7502 197.816 68.7203 197.697 68.6905 197.607C67.3166 191.584 91.5988 193.999 91.5988 193.999Z" fill="#323241"/>
<path d="M135.653 155.504L135.235 156.577L134.966 158.008L133.353 160.781C133.174 161.08 132.935 161.318 132.636 161.497L131.442 162.183L127.111 163.405L125.11 159.41L126.603 158.694C127.29 158.366 127.798 157.829 128.067 157.114L129.082 154.49C129.351 153.774 129.829 153.118 130.456 152.641L131.024 152.194C131.263 152.015 131.621 151.985 131.86 152.164C132.039 152.283 132.159 152.522 132.159 152.73C132.159 152.82 132.129 152.909 132.099 152.999L131.979 153.267C131.83 153.625 131.8 154.042 131.89 154.43L132.039 155.176L132.786 154.848C133.323 154.609 133.771 154.191 134.01 153.655L135.593 152.76L135.713 153.327C135.952 154.072 135.922 154.818 135.653 155.504Z" fill="#FFB294"/>
<path d="M89.2388 114.771C89.2388 114.771 93.1515 122.047 88.4026 131.351C87.4169 133.259 84.6393 131.828 84.0419 132.961C83.4446 134.124 82.9966 137.851 82.9966 137.851L72.7222 136.062L72.991 134.392L74.3649 126.281L83.0862 115.04L89.2388 114.771Z" fill="#FFB294"/>
<path d="M72.2442 133.617L70.8106 135.406C70.8106 135.406 57.5494 130.217 53.8459 141.161C51.2474 148.794 50.2319 157.114 49.8436 161.437C49.6644 163.256 49.7242 165.105 49.993 166.924L51.4864 179.776C51.6954 181.714 53.5771 183.026 55.4886 182.579C57.0118 182.221 58.0572 180.879 58.0273 179.299L57.8182 170.323C57.7585 167.52 58.1468 164.688 59.0129 162.004L60.9245 155.951C60.9245 155.951 66.659 166.924 62.9256 176.824C59.1623 186.723 59.67 190.003 59.67 190.003C59.67 190.003 67.7044 201.573 80.4577 200.828C93.2111 200.052 93.3605 194.745 93.3605 194.745C93.3605 194.745 93.4501 170.771 95.0928 165.016C96.5563 166.059 102.619 169.697 106.592 172.023C108.772 173.305 111.46 173.395 113.73 172.261L127.768 165.135C129.321 164.33 130.038 162.481 129.381 160.841C128.694 159.141 126.782 158.306 125.05 158.933L114.865 162.72C113.521 163.256 111.998 162.958 110.952 161.974L99.3638 151.031C98.647 150.375 97.9003 149.749 97.1238 149.182L84.7587 140.952L84.221 138.119C84.1016 137.463 83.4744 137.016 82.8173 137.105C80.6369 137.374 75.9478 137.463 73.2 133.647C72.9909 133.319 72.4831 133.289 72.2442 133.617Z" fill="#424FD3"/>
<path d="M71.7369 113.996C77.2325 106.84 88.9704 109.404 91.0611 112.595C92.6142 114.98 89.4781 117.187 89.4781 117.187C89.3288 121.033 89.2392 122.435 87.9847 125.029C87.6263 125.774 86.6108 126.013 86.0135 125.446C85.8044 125.268 85.5655 125.118 85.2668 125.089C84.3708 124.999 83.7137 125.894 83.2358 126.669C82.1008 128.518 80.7269 130.277 78.8154 131.321C76.9039 132.364 75.0521 132.901 73.29 131.649C72.0953 130.844 69.1683 117.336 71.7369 113.996Z" fill="#323241"/>
<g clip-path="url(#clip1)">
<path d="M155.04 130.572L151.101 132.808V131.235L155.04 129V130.572Z" fill="#FFBB1E"/>
<path d="M136.967 101.215L133.054 103.451V101.854L136.967 99.6429V101.215Z" fill="#FFBB1E"/>
<path d="M155.047 130.565C160.054 127.716 160.057 118.482 155.053 109.94C150.048 101.398 141.932 96.7828 136.925 99.632C131.918 102.481 131.915 111.716 136.919 120.258C141.924 128.8 150.04 133.414 155.047 130.565Z" fill="#FFBB1E"/>
<path d="M151.309 132.698C156.317 129.849 156.319 120.614 151.315 112.072C146.311 103.53 138.195 98.9153 133.187 101.764C128.18 104.614 128.177 113.848 133.182 122.39C138.186 130.932 146.302 135.547 151.309 132.698Z" fill="#FFD06C"/>
<path d="M142.252 128.582C136.743 125.462 132.281 117.822 132.281 111.558C132.281 105.293 136.768 102.738 142.252 105.883C147.736 109.027 152.223 116.643 152.223 122.907C152.223 129.172 147.761 131.727 142.252 128.582ZM142.252 106.227C136.918 103.205 132.58 105.662 132.58 111.73C132.58 117.797 136.918 125.192 142.252 128.238C147.587 131.26 151.924 128.803 151.924 122.735C151.924 116.667 147.587 109.273 142.252 106.227Z" fill="white"/>
<path opacity="0.5" d="M149.506 103.082C148.409 102.1 147.213 101.24 146.016 100.527C145.941 100.478 145.867 100.454 145.767 100.404C145.717 100.38 145.667 100.355 145.642 100.331C145.493 100.257 145.368 100.183 145.218 100.11C145.144 100.06 145.044 100.036 144.969 99.9868C144.845 99.9376 144.72 99.8639 144.595 99.8148C144.496 99.7657 144.396 99.7411 144.321 99.692C144.196 99.6428 144.097 99.5937 143.997 99.5446C143.897 99.4954 143.798 99.4709 143.698 99.4217C143.598 99.3972 143.498 99.348 143.399 99.3235C143.274 99.2744 143.174 99.2498 143.075 99.2252C142.975 99.2007 142.9 99.1761 142.801 99.1515C142.676 99.127 142.576 99.1024 142.452 99.0533C142.377 99.0287 142.302 99.0041 142.202 99.0041C142.078 98.9796 141.953 98.955 141.828 98.9304C141.754 98.9304 141.679 98.9059 141.604 98.8813C141.479 98.8567 141.355 98.8567 141.23 98.8322C141.155 98.8322 141.105 98.8076 141.031 98.8076C140.906 98.8076 140.781 98.783 140.657 98.783C140.607 98.783 140.532 98.783 140.482 98.783C140.358 98.783 140.233 98.783 140.108 98.783C140.059 98.783 140.009 98.783 139.959 98.783C139.834 98.783 139.71 98.8076 139.585 98.8076C139.535 98.8076 139.485 98.8076 139.435 98.8322C139.311 98.8567 139.186 98.8813 139.061 98.8813C139.012 98.8813 138.962 98.9059 138.937 98.9059C138.812 98.9304 138.688 98.955 138.563 99.0041C138.413 99.0533 138.388 99.0533 138.339 99.0533C138.214 99.0778 138.089 99.127 137.965 99.1761C137.94 99.1761 137.89 99.2007 137.865 99.2007C137.74 99.2498 137.616 99.2989 137.491 99.348C137.466 99.348 137.441 99.3726 137.416 99.3726C137.267 99.4463 137.117 99.52 136.968 99.5937C136.893 99.6428 136.843 99.6674 136.768 99.7165L133.378 101.657L133.054 101.854C130.81 103.23 129.439 106.006 129.439 109.961C129.439 111.337 129.614 112.761 129.938 114.211C131.459 121.188 136.394 128.459 142.252 131.8C143.474 132.488 144.645 132.98 145.767 133.25V105.219L149.506 103.082Z" fill="#FFBB1E"/>
<g clip-path="url(#clip2)">
<path d="M145.366 114.107C144.854 113.282 144.193 112.563 143.483 112.124L140.708 110.422C140.592 110.352 140.51 110.405 140.51 110.528L140.493 114.896C140.493 115.036 140.41 115.089 140.295 115.019L139.7 114.65C139.584 114.58 139.502 114.633 139.502 114.773V116.703C139.502 116.843 139.584 117.001 139.7 117.071L140.295 117.44C140.394 117.493 140.477 117.65 140.477 117.791V118.51C140.477 118.65 140.394 118.703 140.278 118.633L139.684 118.264C139.584 118.212 139.485 118.264 139.485 118.387V120.317C139.485 120.457 139.568 120.615 139.684 120.686L140.278 121.054C140.377 121.124 140.477 121.282 140.477 121.422V122.142C140.477 122.282 140.559 122.44 140.675 122.51L142.261 123.475C142.376 123.545 142.459 123.493 142.459 123.352V122.633C142.459 122.493 142.541 122.44 142.657 122.51L143.252 122.879C143.367 122.949 143.45 122.896 143.45 122.756V120.826C143.45 120.686 143.367 120.528 143.252 120.457L142.657 120.089C142.558 120.036 142.459 119.861 142.459 119.738V119.019C142.459 118.878 142.541 118.826 142.657 118.896L143.367 119.335C144.97 120.317 146.357 119.65 146.424 117.756C146.49 116.563 146.06 115.229 145.366 114.107ZM144.458 116.475C144.408 117.071 143.946 117.247 143.417 116.931L142.674 116.475C142.558 116.405 142.475 116.247 142.475 116.107V114.177C142.475 114.036 142.558 113.984 142.674 114.054L143.467 114.545C143.632 114.65 143.797 114.808 143.946 114.984C144.276 115.405 144.491 115.984 144.458 116.475Z" fill="white"/>
</g>
</g>
</g>
<defs>
<clipPath id="clip0">
<rect width="242.643" height="302.598" fill="white" transform="translate(44.4375)"/>
</clipPath>
<clipPath id="clip1">
<rect width="29.3644" height="34.7371" fill="white" transform="translate(129.439 98.8076)"/>
</clipPath>
<clipPath id="clip2">
<rect width="6.95473" height="13.1229" fill="white" transform="translate(139.485 110.387)"/>
</clipPath>
</defs>
</svg>
