<svg width="190" height="400" viewBox="0 0 190 400" fill="none" xmlns="http://www.w3.org/2000/svg">
<ellipse cx="17" cy="200" rx="200" ry="157" transform="rotate(-90 17 200)" fill="#424FD3"/>
<path d="M187.08 282.259H190C190 282.332 190 282.478 190 282.55L187.08 282.478C187.08 282.405 187.08 282.332 187.08 282.259Z" fill="white"/>
<path d="M187.08 282.478L190 282.55C190 282.696 190 282.769 190 282.915L187.08 282.696C187.08 282.623 187.08 282.55 187.08 282.478Z" fill="white"/>
<path d="M187.08 282.696L190 282.915C190 283.06 190 283.133 190 283.279L187.08 282.915C187.08 282.842 187.08 282.769 187.08 282.696Z" fill="white"/>
<path d="M187.007 282.915L189.927 283.279C189.927 283.424 189.927 283.497 189.854 283.643L186.934 283.206C187.007 283.06 187.007 282.987 187.007 282.915Z" fill="white"/>
<path d="M187.007 283.133L189.927 283.57C189.927 283.716 189.854 283.789 189.854 283.934L187.007 283.352C187.007 283.279 187.007 283.206 187.007 283.133Z" fill="white"/>
<path d="M186.934 283.425L189.781 284.007C189.781 284.153 189.708 284.226 189.708 284.371L186.861 283.643C186.934 283.57 186.934 283.497 186.934 283.425Z" fill="white"/>
<path d="M186.934 283.643L189.781 284.371C189.781 284.517 189.708 284.663 189.708 284.736L186.934 283.934C186.861 283.789 186.861 283.716 186.934 283.643Z" fill="white"/>
<path d="M186.861 283.862L189.635 284.663C189.562 284.809 189.562 284.954 189.489 285.027L186.715 284.08C186.788 284.08 186.788 284.007 186.861 283.862Z" fill="white"/>
<path d="M186.788 284.153L189.562 285.1C189.489 285.245 189.489 285.391 189.416 285.537L186.715 284.444C186.715 284.299 186.715 284.226 186.788 284.153Z" fill="white"/>
<path d="M186.642 284.444L189.343 285.537C189.27 285.683 189.197 285.828 189.124 285.974L186.496 284.736C186.569 284.59 186.642 284.517 186.642 284.444Z" fill="#FAFAFA"/>
<path d="M186.569 284.736L189.197 285.974C189.124 286.12 189.051 286.265 188.978 286.411L186.423 285.027C186.423 284.881 186.496 284.808 186.569 284.736Z" fill="#F5F5F5"/>
<path d="M186.35 285.027L188.905 286.411C188.832 286.557 188.759 286.702 188.613 286.848L186.131 285.318C186.277 285.173 186.35 285.1 186.35 285.027Z" fill="#F0F0F0"/>
<path d="M186.204 285.318L188.686 286.848C188.613 286.994 188.467 287.139 188.394 287.358L185.985 285.683C186.058 285.537 186.131 285.391 186.204 285.318Z" fill="#EBEBEB"/>
<path d="M185.985 285.61L188.394 287.285C188.248 287.431 188.175 287.649 188.029 287.795L185.766 285.974C185.839 285.828 185.912 285.755 185.985 285.61Z" fill="#E6E6E6"/>
<path d="M185.766 285.974L188.029 287.795C187.883 287.941 187.737 288.159 187.591 288.305L185.474 286.265C185.547 286.192 185.62 286.047 185.766 285.974Z" fill="#E0E0E0"/>
<path d="M185.4 286.265L187.518 288.305C187.372 288.451 187.153 288.669 186.934 288.815L185.035 286.63C185.181 286.557 185.327 286.411 185.4 286.265Z" fill="#DBDBDB"/>
<path d="M185.035 286.629L186.934 288.815C186.715 289.033 186.496 289.179 186.277 289.325L184.597 286.921C184.743 286.921 184.889 286.775 185.035 286.629Z" fill="#D6D6D6"/>
<path d="M184.598 286.994L186.277 289.397C185.985 289.543 185.766 289.762 185.474 289.907L184.013 287.358C184.305 287.212 184.451 287.139 184.598 286.994Z" fill="#D1D1D1"/>
<path d="M184.086 287.358L185.546 289.907C185.254 290.053 184.889 290.199 184.597 290.344L183.502 287.649C183.648 287.576 183.867 287.431 184.086 287.358Z" fill="#CCCCCC"/>
<path d="M183.429 287.649L184.524 290.344C184.159 290.49 183.794 290.636 183.356 290.708L182.626 287.868C182.991 287.795 183.21 287.722 183.429 287.649Z" fill="#C7C7C7"/>
<path d="M182.699 287.868L183.429 290.709C182.991 290.854 182.553 290.927 182.042 290.927L181.75 288.014C182.115 288.014 182.407 287.941 182.699 287.868Z" fill="#C2C2C2"/>
<path d="M181.75 288.013L182.042 290.927C181.75 290.927 181.531 291 181.239 291V288.086C181.458 288.086 181.604 288.086 181.75 288.013Z" fill="#BDBDBD"/>
<path d="M181.239 288.086H33.761V291H181.239V288.086Z" fill="#C6C6C6"/>
<path d="M33.7611 288.086V291C33.4691 291 33.104 291 32.812 290.927L33.104 288.013C33.3231 288.086 33.5421 288.086 33.7611 288.086Z" fill="#BDBDBD"/>
<path d="M33.1039 288.013L32.8119 290.927C32.0088 290.854 31.2057 290.636 30.4756 290.344L31.5707 287.649C32.0818 287.868 32.5928 288.013 33.1039 288.013Z" fill="#B8B8B8"/>
<path d="M31.5708 287.649L30.4756 290.344C27.7743 289.252 25.8031 286.921 25.146 284.08L27.9933 283.425C28.4314 285.391 29.8186 286.921 31.5708 287.649Z" fill="#B3B3B3"/>
<path d="M28.0664 283.497L25.219 284.153C25.073 283.497 25 282.915 25 282.259H27.9204C27.9204 282.696 27.9934 283.06 28.0664 283.497Z" fill="#B8B8B8"/>
<path d="M27.9204 186.036H25V282.186H27.9204V186.036Z" fill="#C3C3C3"/>
<path d="M190 186.036H187.08V282.186H190V186.036Z" fill="#EEEEEE"/>
<path d="M33.761 180.209V177.296H39.9667L42.8871 180.209H33.761Z" fill="#EAEAEA"/>
<path d="M42.8872 180.209L39.9668 177.295V148.378H42.8872V180.209Z" fill="#C3C3C3"/>
<path d="M42.8872 148.378H39.9668C39.9668 146.994 40.0398 145.61 40.1128 144.226L43.0332 144.372C42.9602 145.755 42.8872 147.067 42.8872 148.378Z" fill="#B8B8B8"/>
<path d="M43.0331 144.444L40.1128 144.299C40.4048 139.783 41.0619 135.412 42.23 131.26L45.0774 131.989C43.9823 135.995 43.2522 140.147 43.0331 144.444Z" fill="#BDBDBD"/>
<path d="M45.0043 131.916L42.157 131.187C43.1061 127.691 44.2742 124.267 45.7344 121.062L48.4357 122.228C47.0486 125.36 45.8804 128.565 45.0043 131.916Z" fill="#C2C2C2"/>
<path d="M48.4359 122.228L45.7346 121.063C46.9758 118.222 48.4359 115.454 50.1152 112.832L52.5975 114.361C51.0643 116.911 49.6041 119.533 48.4359 122.228Z" fill="#C7C7C7"/>
<path d="M52.5973 114.361L50.115 112.831C51.5752 110.5 53.1084 108.315 54.8606 106.203L57.1238 108.024C55.5176 110.063 53.9845 112.176 52.5973 114.361Z" fill="#CCCCCC"/>
<path d="M57.1239 108.024L54.8606 106.203C56.3938 104.309 58 102.488 59.7522 100.74L61.7964 102.779C60.1172 104.455 58.584 106.203 57.1239 108.024Z" fill="#D1D1D1"/>
<path d="M61.7964 102.779L59.7522 100.74C61.2854 99.2102 62.8916 97.7534 64.5708 96.3694L66.396 98.6274C64.7898 99.9386 63.2566 101.323 61.7964 102.779Z" fill="#D6D6D6"/>
<path d="M66.396 98.6275L64.5708 96.3694C66.104 95.1311 67.6372 93.9657 69.2434 92.873L70.9226 95.2768C69.3164 96.3694 67.8562 97.462 66.396 98.6275Z" fill="#DBDBDB"/>
<path d="M70.8496 95.2768L69.1704 92.873C70.6306 91.8532 72.0908 90.9063 73.6239 90.0322L75.0841 92.5817C73.697 93.3829 72.2368 94.3298 70.8496 95.2768Z" fill="#E0E0E0"/>
<path d="M75.157 92.5817L73.6968 90.0322C75.0839 89.231 76.4711 88.5026 77.9313 87.7742L79.2455 90.3964C77.7853 91.052 76.4711 91.7804 75.157 92.5817Z" fill="#E6E6E6"/>
<path d="M79.1726 90.3964L77.8584 87.7741C79.1726 87.1186 80.5597 86.5359 81.8739 85.9531L82.969 88.6482C81.7279 89.231 80.4867 89.8137 79.1726 90.3964Z" fill="#EBEBEB"/>
<path d="M83.0419 88.6483L81.9468 85.9532C83.1879 85.4433 84.5021 84.9334 85.7432 84.4963L86.6924 87.2643C85.5242 87.7013 84.2831 88.2112 83.0419 88.6483Z" fill="#F0F0F0"/>
<path d="M86.6925 87.3371L85.7434 84.5692C86.9115 84.205 88.1527 83.7679 89.3208 83.4766L90.1239 86.3174C89.0288 86.6087 87.8607 86.9001 86.6925 87.3371Z" fill="#F5F5F5"/>
<path d="M90.1969 86.2444L89.3938 83.4036C90.5619 83.1123 91.6571 82.8209 92.8252 82.5295L93.4823 85.3703C92.3872 85.6617 91.292 85.9531 90.1969 86.2444Z" fill="#FAFAFA"/>
<path d="M93.4823 85.4434L92.8252 82.6026C93.9203 82.3841 95.0155 82.1655 96.1836 81.947L96.6947 84.7878C95.5995 85.0063 94.5044 85.2249 93.4823 85.4434Z" fill="white"/>
<path d="M96.6947 84.7878L96.1836 81.9471C97.2057 81.8014 98.3009 81.6557 99.323 81.51L99.688 84.4236C98.6659 84.4965 97.6438 84.6422 96.6947 84.7878Z" fill="white"/>
<path d="M99.688 84.3507L99.323 81.4371C100.345 81.2914 101.367 81.2186 102.462 81.1458L102.681 84.0594C101.659 84.1322 100.637 84.2779 99.688 84.3507Z" fill="white"/>
<path d="M102.681 84.0593L102.462 81.1457C103.412 81.0728 104.434 81 105.383 81L105.456 83.9136C104.507 83.9865 103.558 84.0593 102.681 84.0593Z" fill="white"/>
<path d="M105.456 83.9136L105.383 81C106.113 81 106.843 81 107.5 81C107.792 81 108.011 81 108.303 81V83.9136C108.084 83.9136 107.792 83.9136 107.573 83.9136C106.843 83.9136 106.113 83.9136 105.456 83.9136Z" fill="white"/>
<path d="M108.23 83.9136V81C109.179 81 110.128 81.0728 111.004 81.0728L110.858 83.9865C110.055 83.9865 109.106 83.9136 108.23 83.9136Z" fill="white"/>
<path d="M110.931 83.9864L111.077 81.0728C112.027 81.1456 112.903 81.2184 113.852 81.2913L113.56 84.2049C112.684 84.1321 111.808 84.0592 110.931 83.9864Z" fill="white"/>
<path d="M113.56 84.2051L113.852 81.2915C114.728 81.3643 115.604 81.4372 116.48 81.5829L116.115 84.4965C115.239 84.3508 114.363 84.278 113.56 84.2051Z" fill="white"/>
<path d="M116.042 84.4964L116.407 81.5828C117.283 81.7284 118.159 81.8013 119.035 81.947L118.524 84.7878C117.721 84.7149 116.918 84.5692 116.042 84.4964Z" fill="white"/>
<path d="M118.524 84.8606L119.035 82.0198C119.912 82.1655 120.715 82.3111 121.591 82.5297L121.007 85.3705C120.204 85.1519 119.401 85.0062 118.524 84.8606Z" fill="white"/>
<path d="M121.007 85.2976L121.591 82.4568C122.467 82.6025 123.27 82.821 124.073 83.0395L123.343 85.8803C122.613 85.6618 121.81 85.5161 121.007 85.2976Z" fill="white"/>
<path d="M123.416 85.8803L124.146 83.0396C124.949 83.2581 125.825 83.4766 126.628 83.6951L125.752 86.5359C125.022 86.3174 124.219 86.0989 123.416 85.8803Z" fill="white"/>
<path d="M125.752 86.5358L126.555 83.7678C127.358 83.9863 128.234 84.2777 129.038 84.5691L128.088 87.337C127.358 86.9728 126.555 86.7543 125.752 86.5358Z" fill="white"/>
<path d="M128.161 87.2643L129.11 84.4963C129.987 84.7877 130.79 85.0791 131.666 85.4433L130.644 88.1384C129.768 87.847 128.964 87.5557 128.161 87.2643Z" fill="white"/>
<path d="M130.571 88.1385L131.593 85.4434C132.469 85.7347 133.272 86.0989 134.148 86.4631L132.98 89.1582C132.177 88.794 131.374 88.4298 130.571 88.1385Z" fill="white"/>
<path d="M132.98 89.0852L134.148 86.3901C135.024 86.7543 135.973 87.1914 136.849 87.6284L135.608 90.2507C134.732 89.8865 133.856 89.5223 132.98 89.0852Z" fill="white"/>
<path d="M135.535 90.3237L136.777 87.7014C137.726 88.1385 138.602 88.5755 139.478 89.0854L138.091 91.6348C137.288 91.1249 136.412 90.6879 135.535 90.3237Z" fill="white"/>
<path d="M138.164 91.6346L139.551 89.0852C140.5 89.5951 141.449 90.1778 142.398 90.6877L140.865 93.1643C139.989 92.6544 139.04 92.1445 138.164 91.6346Z" fill="white"/>
<path d="M140.865 93.1643L142.398 90.6877C143.493 91.3433 144.588 91.9989 145.611 92.7273L143.931 95.131C142.909 94.4755 141.887 93.8199 140.865 93.1643Z" fill="white"/>
<path d="M143.931 95.131L145.611 92.7273C146.852 93.6014 148.093 94.4755 149.334 95.4224L147.509 97.6805C146.341 96.8064 145.173 95.9323 143.931 95.131Z" fill="white"/>
<path d="M147.509 97.7534L149.334 95.4954C151.159 96.9522 152.911 98.4818 154.591 100.157L152.546 102.27C150.94 100.594 149.261 99.1374 147.509 97.7534Z" fill="white"/>
<path d="M152.546 102.124L154.591 100.011C157.73 102.998 160.504 106.349 162.987 109.918L160.577 111.593C158.241 108.242 155.54 105.037 152.546 102.124Z" fill="white"/>
<path d="M160.577 111.593L162.987 109.918C164.301 111.812 165.542 113.851 166.71 115.891L164.155 117.275C163.06 115.381 161.892 113.487 160.577 111.593Z" fill="white"/>
<path d="M164.155 117.348L166.71 115.964C167.44 117.275 168.097 118.659 168.754 119.97L166.126 121.208C165.542 119.897 164.885 118.659 164.155 117.348Z" fill="white"/>
<path d="M166.126 121.208L168.754 119.97C169.265 121.135 169.776 122.228 170.214 123.393L167.513 124.486C167.075 123.393 166.637 122.301 166.126 121.208Z" fill="white"/>
<path d="M167.513 124.559L170.215 123.466C170.653 124.486 171.018 125.578 171.383 126.671L168.608 127.618C168.316 126.525 167.951 125.506 167.513 124.559Z" fill="white"/>
<path d="M168.681 127.618L171.456 126.671C171.748 127.618 172.113 128.565 172.332 129.512L169.557 130.313C169.265 129.439 168.973 128.492 168.681 127.618Z" fill="white"/>
<path d="M169.558 130.313L172.332 129.512C172.624 130.459 172.843 131.406 173.062 132.353L170.215 133.081C170.069 132.134 169.777 131.26 169.558 130.313Z" fill="white"/>
<path d="M170.288 133.081L173.135 132.353C173.354 133.227 173.573 134.101 173.719 134.975L170.872 135.558C170.653 134.757 170.507 133.882 170.288 133.081Z" fill="white"/>
<path d="M170.872 135.631L173.719 135.048C173.865 135.922 174.084 136.796 174.23 137.743L171.383 138.18C171.164 137.306 171.018 136.432 170.872 135.631Z" fill="white"/>
<path d="M171.31 138.18L174.157 137.743C174.303 138.617 174.449 139.418 174.522 140.292L171.602 140.657C171.529 139.782 171.456 138.981 171.31 138.18Z" fill="white"/>
<path d="M171.675 140.584L174.595 140.219C174.668 141.094 174.814 141.968 174.887 142.842L171.967 143.06C171.821 142.259 171.748 141.458 171.675 140.584Z" fill="white"/>
<path d="M171.894 143.133L174.814 142.915C174.887 143.789 174.96 144.663 174.96 145.537L172.04 145.683C172.04 144.736 171.967 143.934 171.894 143.133Z" fill="white"/>
<path d="M172.04 145.61L174.96 145.464C175.033 146.338 175.033 147.212 175.033 148.086H172.113C172.113 147.285 172.113 146.411 172.04 145.61Z" fill="white"/>
<path d="M172.113 148.159H175.033C175.033 148.232 175.033 148.305 175.033 148.451H172.113C172.113 148.305 172.113 148.232 172.113 148.159Z" fill="white"/>
<path d="M172.113 148.378H175.033V177.295L172.113 180.209V148.378Z" fill="#EEEEEE"/>
<path d="M172.113 180.209L175.033 177.296H181.239V180.209H172.113Z" fill="#EAEAEA"/>
<path d="M181.239 180.209V177.296H181.312L181.239 180.209C181.312 180.209 181.239 180.209 181.239 180.209Z" fill="white"/>
<path d="M181.312 180.209V177.296C181.458 177.296 181.531 177.296 181.677 177.296L181.531 180.209C181.458 180.209 181.385 180.209 181.312 180.209Z" fill="white"/>
<path d="M181.531 180.209L181.677 177.296C181.823 177.296 181.896 177.296 182.042 177.296L181.75 180.209C181.677 180.282 181.604 180.209 181.531 180.209Z" fill="white"/>
<path d="M181.75 180.282L182.042 177.368C182.188 177.368 182.261 177.368 182.407 177.441L182.042 180.355C181.969 180.282 181.896 180.282 181.75 180.282Z" fill="white"/>
<path d="M182.042 180.282L182.407 177.368C182.553 177.368 182.626 177.368 182.772 177.441L182.261 180.282C182.188 180.282 182.115 180.282 182.042 180.282Z" fill="white"/>
<path d="M182.261 180.282L182.772 177.441C182.845 177.441 182.991 177.514 183.064 177.514L182.48 180.355C182.407 180.355 182.334 180.355 182.261 180.282Z" fill="white"/>
<path d="M182.48 180.355L183.064 177.514C183.137 177.514 183.283 177.587 183.356 177.587L182.626 180.428C182.626 180.355 182.553 180.355 182.48 180.355Z" fill="white"/>
<path d="M182.699 180.428L183.429 177.587C183.575 177.587 183.648 177.66 183.794 177.66L182.991 180.428C182.845 180.428 182.772 180.428 182.699 180.428Z" fill="white"/>
<path d="M182.918 180.428L183.721 177.66C183.794 177.66 183.94 177.733 184.013 177.733L183.064 180.501C183.064 180.501 182.991 180.501 182.918 180.428Z" fill="white"/>
<path d="M183.137 180.501L184.086 177.733C184.232 177.806 184.305 177.806 184.451 177.878L183.429 180.573C183.283 180.573 183.21 180.573 183.137 180.501Z" fill="white"/>
<path d="M183.356 180.646L184.378 177.951C184.524 178.024 184.597 178.024 184.67 178.097L183.502 180.792C183.502 180.646 183.429 180.646 183.356 180.646Z" fill="white"/>
<path d="M183.575 180.719L184.743 178.024C184.889 178.097 184.962 178.097 185.108 178.17L183.867 180.792C183.721 180.792 183.648 180.719 183.575 180.719Z" fill="white"/>
<path d="M183.794 180.792L185.036 178.17C185.182 178.243 185.255 178.315 185.401 178.315L184.013 180.865C183.94 180.865 183.867 180.865 183.794 180.792Z" fill="white"/>
<path d="M184.013 180.938L185.401 178.388C185.547 178.461 185.62 178.534 185.766 178.607L184.232 181.083C184.159 181.01 184.086 180.938 184.013 180.938Z" fill="white"/>
<path d="M184.232 181.083L185.766 178.607C185.912 178.68 186.058 178.752 186.204 178.898L184.524 181.302C184.451 181.156 184.378 181.156 184.232 181.083Z" fill="white"/>
<path d="M184.524 181.229L186.204 178.825C186.35 178.971 186.496 179.044 186.715 179.189L184.889 181.447C184.743 181.375 184.67 181.302 184.524 181.229Z" fill="white"/>
<path d="M184.816 181.448L186.642 179.189C186.861 179.408 187.08 179.554 187.299 179.772L185.254 181.885C185.181 181.739 185.035 181.593 184.816 181.448Z" fill="white"/>
<path d="M185.327 181.885L187.372 179.772C187.81 180.136 188.175 180.573 188.467 181.083L186.057 182.759C185.838 182.394 185.546 182.176 185.327 181.885Z" fill="white"/>
<path d="M186.058 182.759L188.467 181.083C188.613 181.302 188.832 181.593 188.978 181.885L186.423 183.269C186.277 183.05 186.131 182.905 186.058 182.759Z" fill="white"/>
<path d="M186.35 183.268L188.905 181.885C188.978 182.03 189.051 182.249 189.197 182.394L186.569 183.633C186.496 183.487 186.423 183.341 186.35 183.268Z" fill="white"/>
<path d="M186.569 183.633L189.197 182.395C189.27 182.54 189.343 182.686 189.416 182.832L186.715 183.924C186.642 183.779 186.569 183.706 186.569 183.633Z" fill="white"/>
<path d="M186.642 183.924L189.343 182.832C189.416 182.977 189.416 183.123 189.489 183.269L186.715 184.216C186.715 184.07 186.715 183.997 186.642 183.924Z" fill="white"/>
<path d="M186.788 184.215L189.562 183.269C189.635 183.414 189.635 183.487 189.708 183.633L186.934 184.434C186.788 184.361 186.788 184.288 186.788 184.215Z" fill="white"/>
<path d="M186.861 184.434L189.635 183.633C189.635 183.778 189.708 183.851 189.708 183.997L186.861 184.725C186.861 184.58 186.861 184.507 186.861 184.434Z" fill="white"/>
<path d="M186.934 184.652L189.781 183.924C189.781 184.07 189.854 184.143 189.854 184.288L187.007 184.871C186.934 184.798 186.934 184.725 186.934 184.652Z" fill="white"/>
<path d="M186.934 184.871L189.781 184.288C189.781 184.434 189.854 184.507 189.854 184.653L187.007 185.09C187.007 185.09 187.007 185.017 186.934 184.871Z" fill="white"/>
<path d="M187.007 185.162L189.854 184.725C189.854 184.871 189.854 184.944 189.927 185.09L187.007 185.454C187.007 185.308 187.007 185.235 187.007 185.162Z" fill="white"/>
<path d="M187.007 185.381L189.927 185.017C189.927 185.163 189.927 185.235 189.927 185.381L187.007 185.6C187.08 185.527 187.08 185.454 187.007 185.381Z" fill="white"/>
<path d="M187.08 185.599L190 185.381C190 185.527 190 185.599 190 185.745L187.08 185.891C187.08 185.745 187.08 185.672 187.08 185.599Z" fill="white"/>
<path d="M187.08 185.818L190 185.672C190 185.818 190 185.891 190 186.037H187.08C187.08 185.964 187.08 185.891 187.08 185.818Z" fill="white"/>
<path d="M27.9204 186.036H25C25 185.891 25 185.672 25 185.527L27.9204 185.672C27.9204 185.818 27.9204 185.964 27.9204 186.036Z" fill="#B8B8B8"/>
<path d="M27.9204 185.672L25 185.527C25 184.944 25.146 184.361 25.292 183.851L28.1394 184.58C27.9934 184.944 27.9204 185.308 27.9204 185.672Z" fill="#BDBDBD"/>
<path d="M28.1393 184.58L25.292 183.851C25.438 183.414 25.584 182.977 25.73 182.54L28.4314 183.706C28.2854 183.997 28.2123 184.288 28.1393 184.58Z" fill="#C2C2C2"/>
<path d="M28.4313 183.706L25.73 182.54C25.876 182.176 26.095 181.812 26.3141 181.448L28.7964 182.977C28.6503 183.196 28.5043 183.414 28.4313 183.706Z" fill="#C7C7C7"/>
<path d="M28.7965 182.977L26.3142 181.448C26.5332 181.156 26.6793 180.865 26.8983 180.573L29.1616 182.395C29.0885 182.613 28.9425 182.759 28.7965 182.977Z" fill="#CCCCCC"/>
<path d="M29.2345 182.394L26.9712 180.573C27.1902 180.355 27.4092 180.063 27.6283 179.845L29.6725 181.885C29.4535 182.103 29.3075 182.249 29.2345 182.394Z" fill="#D1D1D1"/>
<path d="M29.5997 181.957L27.5554 179.918C27.7744 179.699 27.9935 179.554 28.2125 179.335L30.0377 181.593C29.8917 181.666 29.7457 181.812 29.5997 181.957Z" fill="#D6D6D6"/>
<path d="M30.0376 181.593L28.2124 179.335C28.4314 179.19 28.5774 179.044 28.7965 178.898L30.4757 181.302C30.3297 181.375 30.1836 181.448 30.0376 181.593Z" fill="#DBDBDB"/>
<path d="M30.4756 181.229L28.7964 178.825C29.0154 178.68 29.1614 178.607 29.3805 178.461L30.8406 181.011C30.6946 181.083 30.5486 181.156 30.4756 181.229Z" fill="#E0E0E0"/>
<path d="M30.8408 181.01L29.3806 178.461C29.5266 178.388 29.7457 178.243 29.9647 178.17L31.2788 180.792C31.0598 180.865 30.9868 180.938 30.8408 181.01Z" fill="#E6E6E6"/>
<path d="M31.2058 180.792L29.8916 178.17C30.0376 178.097 30.2566 178.024 30.4027 177.951L31.4978 180.646C31.4248 180.719 31.3518 180.792 31.2058 180.792Z" fill="#EBEBEB"/>
<path d="M31.5707 180.646L30.4756 177.951C30.6216 177.878 30.8406 177.806 30.9866 177.733L31.9358 180.501C31.7897 180.573 31.6437 180.646 31.5707 180.646Z" fill="#F0F0F0"/>
<path d="M31.8627 180.501L30.9136 177.733C31.0596 177.66 31.2056 177.66 31.3516 177.587L32.1547 180.428C32.0817 180.501 32.0087 180.501 31.8627 180.501Z" fill="#F5F5F5"/>
<path d="M32.2279 180.428L31.4248 177.587C31.5708 177.514 31.7168 177.514 31.8629 177.441L32.5199 180.282C32.3739 180.355 32.3009 180.428 32.2279 180.428Z" fill="#FAFAFA"/>
<path d="M32.5199 180.355L31.8628 177.514C32.0088 177.514 32.1548 177.441 32.3008 177.441L32.8119 180.282C32.6659 180.355 32.5929 180.355 32.5199 180.355Z" fill="white"/>
<path d="M32.8118 180.282L32.3008 177.441C32.4468 177.441 32.5928 177.368 32.7388 177.368L33.1039 180.282C32.9579 180.282 32.8849 180.282 32.8118 180.282Z" fill="white"/>
<path d="M33.0311 180.282L32.666 177.368C32.812 177.368 32.9581 177.368 33.1041 177.296L33.3231 180.209C33.2501 180.282 33.1771 180.282 33.0311 180.282Z" fill="white"/>
<path d="M33.323 180.209L33.104 177.296C33.25 177.296 33.323 177.296 33.469 177.296L33.5421 180.209C33.469 180.209 33.396 180.209 33.323 180.209Z" fill="white"/>
<path d="M33.542 180.209L33.469 177.296C33.542 177.296 33.688 177.296 33.761 177.296V180.209C33.688 180.209 33.615 180.209 33.542 180.209Z" fill="white"/>
<path d="M164.447 180.209L161.527 177.295V148.378H164.447V180.209Z" fill="#C3C3C3"/>
<path d="M164.447 148.378H161.526C161.526 144.445 161.088 140.584 160.285 136.942L163.132 136.286C164.009 140.22 164.447 144.226 164.447 148.378Z" fill="#B8B8B8"/>
<path d="M163.133 136.286L160.285 136.942C156.489 119.314 144.004 104.892 127.504 98.3362L128.6 95.6411C145.976 102.488 159.117 117.712 163.133 136.286Z" fill="#B3B3B3"/>
<path d="M128.599 95.5684L127.504 98.2635C123.051 96.5153 118.232 95.277 113.268 94.7671L113.56 91.8535C118.816 92.4362 123.854 93.6745 128.599 95.5684Z" fill="#B8B8B8"/>
<path d="M113.633 91.8534L113.34 94.767C111.442 94.5485 109.471 94.4756 107.573 94.4756C105.894 94.4756 104.214 94.5485 102.608 94.6942L102.316 91.7805C104.068 91.6349 105.821 91.562 107.573 91.562C109.544 91.562 111.588 91.6349 113.633 91.8534Z" fill="#BDBDBD"/>
<path d="M102.243 91.7805L102.535 94.6941C99.6149 94.9855 96.7676 95.4226 93.9933 96.151L93.2632 93.3102C96.1835 92.5818 99.1769 92.0719 102.243 91.7805Z" fill="#C2C2C2"/>
<path d="M93.2633 93.3831L93.9934 96.2238C91.5841 96.8066 89.2478 97.6078 86.9845 98.5548L85.8894 95.8596C88.2257 94.8399 90.708 93.9658 93.2633 93.3831Z" fill="#C7C7C7"/>
<path d="M85.8893 95.7869L86.9845 98.482C84.9402 99.2832 83.042 100.23 81.1438 101.323L79.6836 98.7733C81.6548 97.6807 83.7721 96.661 85.8893 95.7869Z" fill="#CCCCCC"/>
<path d="M79.6836 98.7732L81.1438 101.323C79.4646 102.27 77.7854 103.289 76.2522 104.455L74.573 102.051C76.1792 100.886 77.9314 99.793 79.6836 98.7732Z" fill="#D1D1D1"/>
<path d="M74.4999 102.051L76.1791 104.455C74.7919 105.475 73.4048 106.567 72.0906 107.66L70.1924 105.475C71.5796 104.236 73.0397 103.144 74.4999 102.051Z" fill="#D6D6D6"/>
<path d="M70.1924 105.475L72.0907 107.66C70.9225 108.68 69.7544 109.772 68.6592 110.865L66.615 108.825C67.7101 107.66 68.9513 106.494 70.1924 105.475Z" fill="#DBDBDB"/>
<path d="M66.6149 108.825L68.7322 110.865C67.7831 111.885 66.834 112.904 65.8849 113.997L63.6216 112.103C64.5707 111.01 65.5198 109.918 66.6149 108.825Z" fill="#E0E0E0"/>
<path d="M63.6215 112.176L65.8847 114.07C65.0816 115.09 64.2786 116.109 63.4755 117.129L61.0662 115.454C61.8693 114.288 62.7454 113.196 63.6215 112.176Z" fill="#E6E6E6"/>
<path d="M61.1392 115.381L63.5485 117.056C62.8914 118.003 62.2344 119.023 61.5773 120.043L59.095 118.513C59.679 117.493 60.4091 116.401 61.1392 115.381Z" fill="#EBEBEB"/>
<path d="M59.022 118.513L61.5043 120.043C60.9202 120.99 60.4091 121.864 59.8981 122.811L57.3428 121.427C57.8538 120.48 58.4379 119.533 59.022 118.513Z" fill="#F0F0F0"/>
<path d="M57.3427 121.5L59.8981 122.883C59.387 123.758 58.9489 124.705 58.5109 125.579L55.8826 124.34C56.3206 123.393 56.8317 122.446 57.3427 121.5Z" fill="#F5F5F5"/>
<path d="M55.8825 124.34L58.5108 125.579C58.0728 126.453 57.7077 127.327 57.3427 128.201L54.6414 127.108C55.0794 126.161 55.4445 125.214 55.8825 124.34Z" fill="#FAFAFA"/>
<path d="M54.6415 127.108L57.3428 128.201C56.9778 129.002 56.6858 129.876 56.3937 130.678L53.6194 129.731C53.9844 128.857 54.3495 127.982 54.6415 127.108Z" fill="white"/>
<path d="M53.6923 129.731L56.4666 130.678C56.1746 131.479 55.9555 132.28 55.6635 133.081L52.8892 132.28C53.1082 131.406 53.4002 130.605 53.6923 129.731Z" fill="white"/>
<path d="M52.8893 132.28L55.6636 133.081C55.4446 133.883 55.2256 134.684 55.0065 135.485L52.1592 134.757C52.3782 133.955 52.5972 133.081 52.8893 132.28Z" fill="white"/>
<path d="M52.1593 134.757L55.0066 135.485C54.8606 136.213 54.6416 136.942 54.4955 137.743L51.6482 137.16C51.7942 136.359 52.0132 135.558 52.1593 134.757Z" fill="white"/>
<path d="M51.648 137.16L54.4954 137.743C54.3494 138.472 54.2033 139.273 54.0573 140.001L51.137 139.564C51.356 138.763 51.502 137.962 51.648 137.16Z" fill="white"/>
<path d="M51.21 139.491L54.1304 139.928C53.9843 140.657 53.9113 141.385 53.8383 142.113L50.918 141.749C50.991 141.021 51.137 140.292 51.21 139.491Z" fill="white"/>
<path d="M50.918 141.822L53.8384 142.186C53.7653 142.915 53.6923 143.643 53.6193 144.372L50.699 144.153C50.772 143.352 50.845 142.551 50.918 141.822Z" fill="white"/>
<path d="M50.699 144.08L53.6194 144.299C53.5463 145.027 53.5463 145.683 53.4733 146.411L50.553 146.338C50.626 145.61 50.626 144.808 50.699 144.08Z" fill="white"/>
<path d="M50.553 146.338L53.4733 146.411C53.4733 147.067 53.4733 147.722 53.4733 148.378H50.553C50.553 147.722 50.553 146.994 50.553 146.338Z" fill="white"/>
<path d="M50.553 148.378H53.4733V177.295L50.553 180.209V148.378Z" fill="#EEEEEE"/>
<path d="M50.553 180.209L53.4733 177.296H161.526L164.447 180.209H50.553Z" fill="#EAEAEA"/>
<path d="M115.75 236.078L112.83 234.184C112.976 234.112 113.195 234.039 113.341 233.966L116.188 235.86C116.042 236.005 115.896 236.078 115.75 236.078Z" fill="#EBEBEB"/>
<path d="M116.188 235.932L113.341 233.966C113.706 233.82 113.998 233.601 114.29 233.456L116.991 235.423C116.772 235.568 116.48 235.787 116.188 235.932Z" fill="#E6E6E6"/>
<path d="M117.064 235.422L114.363 233.456C114.655 233.237 115.02 233.092 115.312 232.873L117.94 234.84C117.575 234.985 117.356 235.204 117.064 235.422Z" fill="#E0E0E0"/>
<path d="M117.867 234.767L115.239 232.8C115.531 232.582 115.823 232.363 116.115 232.072L118.743 233.966C118.451 234.257 118.159 234.548 117.867 234.767Z" fill="#DBDBDB"/>
<path d="M118.743 234.039L116.115 232.145C116.407 231.853 116.699 231.562 116.991 231.271L119.619 233.092C119.327 233.383 119.035 233.674 118.743 234.039Z" fill="#D6D6D6"/>
<path d="M119.62 233.019L116.991 231.198C117.283 230.834 117.575 230.542 117.867 230.178L120.496 231.853C120.277 232.29 119.912 232.655 119.62 233.019Z" fill="#D1D1D1"/>
<path d="M120.568 231.853L117.94 230.178C118.232 229.814 118.524 229.377 118.816 228.94L121.518 230.397C121.153 230.906 120.861 231.416 120.568 231.853Z" fill="#CCCCCC"/>
<path d="M121.445 230.397L118.743 228.94C119.035 228.43 119.327 227.92 119.547 227.41L122.321 228.576C122.029 229.231 121.737 229.814 121.445 230.397Z" fill="#C7C7C7"/>
<path d="M122.321 228.648L119.546 227.483C119.838 226.9 120.057 226.245 120.203 225.589L123.051 226.318C122.832 227.119 122.613 227.847 122.321 228.648Z" fill="#C2C2C2"/>
<path d="M123.051 226.317L120.204 225.589C120.423 224.788 120.569 223.914 120.642 223.04L123.562 223.185C123.489 224.278 123.27 225.298 123.051 226.317Z" fill="#BDBDBD"/>
<path d="M123.562 223.258L120.641 223.112C120.641 222.821 120.641 222.603 120.641 222.311C120.641 221.364 120.568 220.417 120.349 219.543L123.197 218.888C123.416 219.98 123.562 221.146 123.562 222.311C123.562 222.603 123.562 222.894 123.562 223.258Z" fill="#B8B8B8"/>
<path d="M123.197 218.815L120.35 219.47C119.4 215.173 116.407 211.677 112.392 210.074L113.487 207.379C118.378 209.273 122.029 213.57 123.197 218.815Z" fill="#B3B3B3"/>
<path d="M113.414 207.379L112.319 210.074C111.223 209.637 110.055 209.345 108.887 209.2L109.179 206.286C110.712 206.432 112.1 206.796 113.414 207.379Z" fill="#B8B8B8"/>
<path d="M109.252 206.286L108.96 209.2C108.522 209.127 108.011 209.127 107.573 209.127C107.135 209.127 106.77 209.127 106.332 209.2L106.04 206.286C106.551 206.213 106.989 206.213 107.5 206.213C108.084 206.213 108.668 206.213 109.252 206.286Z" fill="#BDBDBD"/>
<path d="M106.04 206.286L106.332 209.2C105.602 209.273 104.945 209.418 104.287 209.564L103.557 206.723C104.287 206.505 105.164 206.359 106.04 206.286Z" fill="#C2C2C2"/>
<path d="M103.484 206.723L104.215 209.564C103.63 209.71 103.046 209.928 102.535 210.147L101.44 207.452C102.097 207.16 102.754 206.942 103.484 206.723Z" fill="#C7C7C7"/>
<path d="M101.367 207.379L102.462 210.074C101.951 210.293 101.513 210.511 101.075 210.73L99.615 208.18C100.199 207.962 100.783 207.67 101.367 207.379Z" fill="#CCCCCC"/>
<path d="M99.688 208.253L101.148 210.802C100.71 211.021 100.345 211.312 99.98 211.531L98.3008 209.127C98.6658 208.836 99.1769 208.544 99.688 208.253Z" fill="#D1D1D1"/>
<path d="M98.2277 209.2L99.9069 211.604C99.5419 211.822 99.2498 212.114 98.8848 212.405L96.9866 210.22C97.3516 209.783 97.7897 209.491 98.2277 209.2Z" fill="#D6D6D6"/>
<path d="M96.9867 210.147L98.8849 212.332C98.5929 212.55 98.3009 212.842 98.0819 213.133L95.9646 211.094C96.2566 210.729 96.6217 210.438 96.9867 210.147Z" fill="#DBDBDB"/>
<path d="M95.9645 211.094L98.0817 213.133C97.8627 213.352 97.6437 213.643 97.4246 213.935L95.1614 212.041C95.3804 211.676 95.6724 211.385 95.9645 211.094Z" fill="#E0E0E0"/>
<path d="M95.0885 212.041L97.3518 213.934C97.1327 214.153 96.9867 214.444 96.7677 214.663L94.3584 212.987C94.6504 212.623 94.8695 212.332 95.0885 212.041Z" fill="#E6E6E6"/>
<path d="M94.4312 212.915L96.8405 214.59C96.6945 214.809 96.4755 215.1 96.3295 215.319L93.8472 213.789C93.9932 213.498 94.2122 213.206 94.4312 212.915Z" fill="#EBEBEB"/>
<path d="M93.8472 213.862L96.3295 215.391C96.1835 215.61 96.0375 215.828 95.9645 216.047L93.4092 214.663C93.4822 214.371 93.6282 214.08 93.8472 213.862Z" fill="#F0F0F0"/>
<path d="M93.3362 214.663L95.8916 216.047C95.7455 216.265 95.6725 216.484 95.5265 216.702L92.8982 215.464C93.0442 215.173 93.1902 214.954 93.3362 214.663Z" fill="#F5F5F5"/>
<path d="M92.9712 215.464L95.5996 216.702C95.5266 216.921 95.3805 217.139 95.3075 217.358L92.6062 216.265C92.6792 215.974 92.8252 215.755 92.9712 215.464Z" fill="#FAFAFA"/>
<path d="M92.6062 216.265L95.3076 217.358C95.2346 217.577 95.1616 217.795 95.0885 217.941L92.3142 216.994C92.3872 216.775 92.5332 216.484 92.6062 216.265Z" fill="white"/>
<path d="M92.3142 216.994L95.0886 217.941C95.0156 218.159 94.9426 218.305 94.8695 218.524L92.0952 217.722C92.1682 217.504 92.2412 217.212 92.3142 216.994Z" fill="white"/>
<path d="M92.095 217.722L94.8693 218.523C94.7963 218.742 94.7963 218.888 94.7233 219.106L91.876 218.378C91.949 218.159 92.022 217.941 92.095 217.722Z" fill="white"/>
<path d="M91.876 218.378L94.7233 219.106C94.6503 219.252 94.6503 219.471 94.5773 219.616L91.73 219.033C91.803 218.888 91.876 218.596 91.876 218.378Z" fill="white"/>
<path d="M91.73 219.106L94.5774 219.689C94.5774 219.835 94.5043 220.053 94.5043 220.272L91.584 219.835C91.657 219.543 91.73 219.325 91.73 219.106Z" fill="white"/>
<path d="M91.657 219.762L94.5774 220.199C94.5774 220.344 94.5043 220.563 94.5043 220.709L91.584 220.344C91.584 220.199 91.584 219.98 91.657 219.762Z" fill="white"/>
<path d="M91.511 220.417L94.4314 220.781C94.4314 220.927 94.3583 221.146 94.3583 221.291L91.438 221.073C91.511 220.854 91.511 220.636 91.511 220.417Z" fill="white"/>
<path d="M91.5111 221.073L94.4314 221.292C94.4314 221.437 94.4314 221.656 94.4314 221.801L91.5111 221.729C91.438 221.437 91.438 221.292 91.5111 221.073Z" fill="white"/>
<path d="M91.438 221.656L94.3583 221.729C94.3583 221.874 94.3583 222.02 94.3583 222.166C94.3583 222.166 94.3583 222.166 94.3583 222.238H91.438V222.166C91.438 222.02 91.438 221.874 91.438 221.656Z" fill="white"/>
<path d="M91.438 222.311H94.3583C94.3583 222.457 94.3583 222.675 94.3583 222.821L91.438 222.967C91.438 222.748 91.438 222.53 91.438 222.311Z" fill="white"/>
<path d="M91.438 222.967L94.3583 222.821C94.3583 222.967 94.3583 223.185 94.3583 223.331L91.438 223.549C91.438 223.331 91.438 223.112 91.438 222.967Z" fill="white"/>
<path d="M91.511 223.55L94.4313 223.331C94.4313 223.477 94.4313 223.695 94.5043 223.841L91.584 224.205C91.511 223.987 91.511 223.768 91.511 223.55Z" fill="white"/>
<path d="M91.584 224.205L94.5043 223.841C94.5043 223.987 94.5774 224.205 94.5774 224.351L91.657 224.788C91.584 224.642 91.584 224.424 91.584 224.205Z" fill="white"/>
<path d="M91.657 224.861L94.5773 224.424C94.5773 224.569 94.6504 224.788 94.6504 224.933L91.803 225.516C91.73 225.225 91.657 225.006 91.657 224.861Z" fill="white"/>
<path d="M91.73 225.443L94.5773 224.861C94.5773 225.006 94.6503 225.225 94.7233 225.37L91.876 226.099C91.876 225.88 91.803 225.662 91.73 225.443Z" fill="white"/>
<path d="M91.876 226.099L94.7233 225.371C94.7963 225.516 94.7963 225.735 94.8693 225.88L92.022 226.682C92.022 226.536 91.949 226.318 91.876 226.099Z" fill="white"/>
<path d="M92.022 226.754L94.8693 225.953C94.9423 226.172 95.0153 226.317 95.0153 226.536L92.241 227.483C92.168 227.191 92.095 226.973 92.022 226.754Z" fill="white"/>
<path d="M92.241 227.41L95.0153 226.463C95.0883 226.682 95.1613 226.827 95.2343 227.046L92.46 228.066C92.387 227.92 92.314 227.701 92.241 227.41Z" fill="white"/>
<path d="M92.5332 228.138L95.3075 227.119C95.3805 227.337 95.4536 227.556 95.5996 227.701L92.8252 228.867C92.6792 228.648 92.6062 228.357 92.5332 228.138Z" fill="white"/>
<path d="M92.8252 228.867L95.5995 227.701C95.6725 227.92 95.8186 228.138 95.9646 228.357L93.2632 229.668C93.0442 229.45 92.8982 229.158 92.8252 228.867Z" fill="white"/>
<path d="M93.1902 229.668L95.8915 228.357C96.0375 228.648 96.1835 228.94 96.4026 229.158L93.7743 230.615C93.5552 230.324 93.3362 230.032 93.1902 229.668Z" fill="white"/>
<path d="M93.7012 230.688L96.3295 229.231C96.6215 229.668 96.9136 230.105 97.2056 230.469L94.5773 232.145C94.2852 231.708 93.9932 231.198 93.7012 230.688Z" fill="white"/>
<path d="M94.6504 232.145L97.2787 230.469C97.7168 230.979 98.1548 231.416 98.5929 231.853L95.9645 233.747C95.5265 233.237 95.0884 232.727 94.6504 232.145Z" fill="white"/>
<path d="M95.9646 233.747L98.5929 231.853C98.958 232.145 99.323 232.436 99.6881 232.727L97.0597 234.694C96.6217 234.403 96.3296 234.038 95.9646 233.747Z" fill="white"/>
<path d="M96.9866 234.694L99.6149 232.728C99.8339 232.873 100.053 233.019 100.272 233.165L97.5706 235.131C97.4246 234.986 97.2056 234.84 96.9866 234.694Z" fill="white"/>
<path d="M97.5708 235.131L100.272 233.165C100.418 233.31 100.637 233.383 100.783 233.456L98.0089 235.423C97.9358 235.35 97.7898 235.277 97.5708 235.131Z" fill="white"/>
<path d="M98.0818 235.496L100.856 233.529C101.002 233.602 101.148 233.674 101.294 233.747L98.5198 235.714C98.3008 235.641 98.2278 235.568 98.0818 235.496Z" fill="white"/>
<path d="M98.4468 235.714L101.221 233.747C101.367 233.82 101.44 233.893 101.586 233.966L98.7388 235.859C98.6658 235.859 98.5198 235.787 98.4468 235.714Z" fill="white"/>
<path d="M98.7388 235.86L101.586 233.966C101.659 234.039 101.805 234.039 101.878 234.112L98.9578 236.005C98.9578 236.005 98.8848 235.933 98.7388 235.86Z" fill="white"/>
<path d="M99.031 236.005L101.951 234.111C102.024 234.111 102.097 234.184 102.17 234.184L99.25 236.078C99.177 236.078 99.104 236.078 99.031 236.005Z" fill="white"/>
<path d="M99.25 236.078L102.17 234.184V259.314L99.25 262.228V236.078Z" fill="#EEEEEE"/>
<path d="M99.25 262.228L102.17 259.314H112.83L115.75 262.228H99.25Z" fill="#EAEAEA"/>
<path d="M115.75 262.228L112.83 259.314V234.184L115.75 236.078V262.228Z" fill="#C3C3C3"/>
<path d="M181.239 180.209C184.451 180.209 187.08 182.831 187.08 186.036V282.186C187.08 285.391 184.451 288.013 181.239 288.013H33.7611C30.5487 288.013 27.9204 285.391 27.9204 282.186V186.036C27.9204 182.831 30.5487 180.209 33.7611 180.209H42.8872V148.378C42.8872 112.759 71.7987 83.9136 107.5 83.9136C143.201 83.9136 172.113 112.759 172.113 148.378V180.209H181.239ZM164.447 180.209V148.378C164.447 116.983 138.967 91.5619 107.5 91.5619C76.0332 91.5619 50.5532 116.983 50.5532 148.378V180.209H164.447ZM115.75 236.078C119.62 234.33 123.562 228.721 123.562 222.238C123.562 213.424 116.407 206.213 107.5 206.213C98.666 206.213 91.4381 213.424 91.4381 222.238C91.4381 228.794 95.3806 234.403 99.2501 236.078V262.228H115.75V236.078Z" fill="url(#paint0_radial)"/>
<defs>
<radialGradient id="paint0_radial" cx="0" cy="0" r="1" gradientUnits="userSpaceOnUse" gradientTransform="translate(149.844 161.322) scale(172.042 171.646)">
<stop stop-color="white"/>
<stop offset="1" stop-color="#9E9E9E"/>
</radialGradient>
</defs>
</svg>
