<svg width="65" height="64" viewBox="0 0 65 64" fill="none" xmlns="http://www.w3.org/2000/svg">
<path d="M0.666504 31.9999C0.666504 14.3268 14.9933 0 32.6664 0C50.3394 0 64.6663 14.3268 64.6663 31.9999C64.6663 49.6729 50.3394 63.9998 32.6664 63.9998C14.9933 63.9998 0.666504 49.6729 0.666504 31.9999Z" fill="#F68634"/>
<path d="M36.1276 39.2537L40.9099 43.8704C41.8895 44.8141 41.8895 46.3467 40.9099 47.2914C39.9312 48.2361 38.345 48.2361 37.3673 47.2914L32.6655 42.7548L27.9677 47.2914C27.4779 47.7633 26.836 47.9994 26.1942 47.9994C25.5534 47.9994 24.9125 47.7633 24.4227 47.2914C23.444 46.3467 23.444 44.8151 24.4217 43.8704L29.2044 39.2537C27.4631 38.8708 25.7837 38.2048 24.2369 37.268C23.0663 36.5555 22.7146 35.0629 23.4522 33.932C24.1877 32.7995 25.7345 32.4586 26.9072 33.1711C30.4093 35.2976 34.9207 35.2981 38.4248 33.1711C39.5975 32.4586 41.1438 32.7995 41.8808 33.932C42.6184 35.0619 42.2657 36.5555 41.0951 37.268C39.5483 38.2058 37.869 38.8708 36.1276 39.2537Z" fill="white"/>
<path fill-rule="evenodd" clip-rule="evenodd" d="M24.0903 24.2576C24.0903 28.8101 27.9272 32.5132 32.6449 32.5132C37.3636 32.5132 41.1994 28.8101 41.1994 24.2576C41.1994 19.7036 37.3636 15.9995 32.6449 15.9995C27.9272 15.9995 24.0903 19.7036 24.0903 24.2576ZM36.1868 24.2578C36.1868 22.3724 34.598 20.8392 32.6448 20.8392C30.6931 20.8392 29.1028 22.3724 29.1028 24.2578C29.1028 26.1417 30.6931 27.6758 32.6448 27.6758C34.598 27.6758 36.1868 26.1417 36.1868 24.2578Z" fill="white"/>
</svg>
