<svg width="359" height="348" viewBox="0 0 359 348" fill="none" xmlns="http://www.w3.org/2000/svg">
<ellipse cx="179.5" cy="185" rx="141" ry="179.5" transform="rotate(-90 179.5 185)" fill="#424FD3"/>
<path d="M239.572 348H119.926C105.612 348 94 336.398 94 322.097V25.9025C94 11.6015 105.612 0 119.926 0H239.572C253.886 0 265.498 11.6015 265.498 25.9025V322.12C265.498 336.399 253.886 348 239.572 348Z" fill="#E0E0E0"/>
<path d="M239.618 347.755H119.904C105.724 347.755 94.2466 336.288 94.2466 322.121V25.7249C94.2466 11.5577 105.724 0.0900879 119.904 0.0900879H239.618C253.798 0.0900879 265.276 11.5577 265.276 25.7249V322.121C265.276 336.288 253.776 347.755 239.618 347.755Z" fill="#E1E1E1"/>
<path d="M239.64 347.51H119.859C105.835 347.51 94.4692 336.153 94.4692 322.142V25.5683C94.4692 11.5572 105.835 0.201172 119.859 0.201172H239.662C253.686 0.201172 265.052 11.5572 265.052 25.5683V322.165C265.029 336.153 253.663 347.51 239.64 347.51Z" fill="#E2E2E2"/>
<path d="M239.684 347.286H119.814C105.947 347.286 94.6924 336.042 94.6924 322.187V25.3897C94.6924 11.5348 105.947 0.290283 119.814 0.290283H239.684C253.551 0.290283 264.806 11.5348 264.806 25.3897V322.165C264.806 336.042 253.551 347.286 239.684 347.286Z" fill="#E3E3E3"/>
<path d="M239.728 347.041H119.769C106.036 347.041 94.915 335.93 94.915 322.209V25.2335C94.915 11.5125 106.036 0.401855 119.769 0.401855H239.728C253.462 0.401855 264.582 11.5125 264.582 25.2335V322.209C264.582 335.908 253.462 347.041 239.728 347.041Z" fill="#E4E4E4"/>
<path d="M239.773 346.795H119.747C106.17 346.795 95.1611 335.796 95.1611 322.231V25.0549C95.1611 11.4901 106.17 0.490967 119.747 0.490967H239.773C253.35 0.490967 264.359 11.4901 264.359 25.0549V322.209C264.359 335.796 253.35 346.795 239.773 346.795Z" fill="#E5E5E5"/>
<path d="M239.795 346.55H119.702C106.259 346.55 95.3843 335.662 95.3843 322.254V24.8987C95.3843 11.4678 106.282 0.602539 119.702 0.602539H239.795C253.238 0.602539 264.113 11.4901 264.113 24.8987V322.254C264.136 335.662 253.238 346.55 239.795 346.55Z" fill="#E6E6E6"/>
<path d="M239.84 346.305H119.658C106.371 346.305 95.6079 335.551 95.6079 322.276V24.7204C95.6079 11.4456 106.371 0.691895 119.658 0.691895H239.84C253.127 0.691895 263.89 11.4456 263.89 24.7204V322.276C263.89 335.551 253.127 346.305 239.84 346.305Z" fill="#E7E7E7"/>
<path d="M239.886 346.059H119.636C106.506 346.059 95.8315 335.417 95.8315 322.276V24.5418C95.8315 11.4232 106.483 0.758789 119.636 0.758789H239.886C253.016 0.758789 263.69 11.4009 263.69 24.5418V322.276C263.667 335.417 253.016 346.059 239.886 346.059Z" fill="#E8E8E8"/>
<path d="M239.908 345.814H119.569C106.572 345.814 96.0322 335.283 96.0322 322.298V24.3857C96.0322 11.4009 106.572 0.870361 119.569 0.870361H239.908C252.904 0.870361 263.444 11.4009 263.444 24.3857V322.321C263.444 335.306 252.904 345.814 239.908 345.814Z" fill="#E9E9E9"/>
<path d="M239.952 345.568H119.546C106.706 345.568 96.2778 335.172 96.2778 322.321V24.2071C96.2778 11.3785 106.684 0.959473 119.546 0.959473H239.952C252.792 0.959473 263.221 11.3562 263.221 24.2071V322.321C263.221 335.172 252.815 345.568 239.952 345.568Z" fill="#EAEAEA"/>
<path d="M239.997 345.345H119.501C106.795 345.345 96.501 335.06 96.501 322.366V24.0512C96.501 11.3565 106.795 1.07129 119.501 1.07129H239.997C252.703 1.07129 262.997 11.3565 262.997 24.0512V322.366C262.997 335.06 252.703 345.345 239.997 345.345Z" fill="#EBEBEB"/>
<path d="M240.041 345.1H119.479C106.929 345.1 96.7466 334.926 96.7466 322.388V23.8725C96.7466 11.334 106.929 1.1604 119.479 1.1604H240.041C252.591 1.1604 262.774 11.334 262.774 23.8725V322.388C262.774 334.926 252.591 345.1 240.041 345.1Z" fill="#ECECEC"/>
<path d="M240.064 344.854H119.412C106.996 344.854 96.9478 334.815 96.9478 322.41V23.7164C96.9478 11.3117 106.996 1.27197 119.412 1.27197H240.064C252.48 1.27197 262.528 11.3117 262.528 23.7164V322.41C262.528 334.792 252.48 344.854 240.064 344.854Z" fill="#EDEDED"/>
<path d="M240.109 344.609H119.39C107.13 344.609 97.1934 334.681 97.1934 322.432V23.5378C97.1934 11.2893 107.13 1.36108 119.39 1.36108H240.109C252.368 1.36108 262.305 11.2893 262.305 23.5378V322.432C262.305 334.681 252.368 344.609 240.109 344.609Z" fill="#EEEEEE"/>
<path d="M240.153 344.364H119.367C107.264 344.364 97.4385 334.547 97.4385 322.455V23.3816C97.4385 11.2893 107.264 1.47266 119.367 1.47266H240.153C252.256 1.47266 262.081 11.2893 262.081 23.3816V322.455C262.081 334.547 252.256 344.364 240.153 344.364Z" fill="#EFEFEF"/>
<path d="M240.198 344.118H119.323C107.354 344.118 97.6621 334.435 97.6621 322.477V23.2032C97.6621 11.2448 107.354 1.56201 119.323 1.56201H240.198C252.167 1.56201 261.858 11.2448 261.858 23.2032V322.477C261.858 334.435 252.144 344.118 240.198 344.118Z" fill="#F0F0F0"/>
<path d="M240.22 343.873H119.278C107.466 343.873 97.8857 334.302 97.8857 322.499V23.0471C97.8857 11.2448 107.466 1.67358 119.278 1.67358H240.22C252.033 1.67358 261.613 11.2448 261.613 23.0471V322.499C261.635 334.302 252.055 343.873 240.22 343.873Z" fill="#F0F0F0"/>
<path d="M240.264 343.65H119.233C107.554 343.65 98.1084 334.19 98.1084 322.544V22.8687C98.1084 11.2003 107.577 1.76294 119.233 1.76294H240.264C251.943 1.76294 261.389 11.2226 261.389 22.8687V322.522C261.389 334.19 251.943 343.65 240.264 343.65Z" fill="#F1F1F1"/>
<path d="M240.309 343.404H119.189C107.666 343.404 98.332 334.079 98.332 322.566V22.7126C98.332 11.2003 107.666 1.87451 119.189 1.87451H240.287C251.809 1.87451 261.144 11.2003 261.144 22.7126V322.566C261.166 334.056 251.832 343.404 240.309 343.404Z" fill="#F2F2F2"/>
<path d="M240.332 343.159H119.144C107.756 343.159 98.5332 333.945 98.5332 322.566V22.534C98.5332 11.1557 107.756 1.94141 119.144 1.94141H240.332C251.72 1.94141 260.943 11.1557 260.943 22.534V322.566C260.943 333.945 251.72 343.159 240.332 343.159Z" fill="#F3F3F3"/>
<path d="M240.376 342.914H119.121C107.889 342.914 98.7783 333.811 98.7783 322.589V22.3779C98.7783 11.1557 107.889 2.05298 119.121 2.05298H240.376C251.608 2.05298 260.719 11.1557 260.719 22.3779V322.611C260.719 333.811 251.608 342.914 240.376 342.914Z" fill="#F4F4F4"/>
<path d="M240.421 342.668H119.077C108.001 342.668 99.002 333.699 99.002 322.611V22.1993C99.002 11.1332 107.979 2.14209 119.077 2.14209H240.421C251.497 2.14209 260.496 11.1109 260.496 22.1993V322.611C260.496 333.699 251.497 342.668 240.421 342.668Z" fill="#F5F5F5"/>
<path d="M240.466 342.423H119.055C108.113 342.423 99.2476 333.565 99.2476 322.633V22.0209C99.2476 11.0887 108.113 2.23145 119.055 2.23145H240.466C251.408 2.23145 260.273 11.0887 260.273 22.0209V322.633C260.251 333.565 251.385 342.423 240.466 342.423Z" fill="#F6F6F6"/>
<path d="M240.489 342.177H118.988C108.203 342.177 99.4492 333.431 99.4492 322.655V21.8645C99.4492 11.0885 108.203 2.34277 118.988 2.34277H240.489C251.274 2.34277 260.028 11.0885 260.028 21.8645V322.655C260.028 333.454 251.297 342.177 240.489 342.177Z" fill="#F7F7F7"/>
<path d="M240.533 341.932H118.966C108.314 341.932 99.6943 333.32 99.6943 322.678V21.6861C99.6943 11.044 108.314 2.43213 118.966 2.43213H240.533C251.184 2.43213 259.804 11.044 259.804 21.6861V322.678C259.804 333.32 251.184 341.932 240.533 341.932Z" fill="#F8F8F8"/>
<path d="M240.577 341.709H118.943C108.448 341.709 99.9399 333.209 99.9399 322.723V21.5302C99.9399 11.0443 108.448 2.54395 118.943 2.54395H240.577C251.073 2.54395 259.581 11.0443 259.581 21.5302V322.723C259.581 333.209 251.073 341.709 240.577 341.709Z" fill="#F9F9F9"/>
<path d="M240.6 341.463H118.876C108.537 341.463 100.141 333.075 100.141 322.745V21.3516C100.141 11.0218 108.537 2.63306 118.876 2.63306H240.6C250.939 2.63306 259.335 11.0218 259.335 21.3516V322.723C259.357 333.075 250.961 341.463 240.6 341.463Z" fill="#FAFAFA"/>
<path d="M240.644 341.218H118.854C108.649 341.218 100.386 332.963 100.386 322.767V21.1952C100.386 10.9993 108.649 2.74438 118.854 2.74438H240.644C250.849 2.74438 259.111 10.9993 259.111 21.1952V322.767C259.134 332.941 250.849 341.218 240.644 341.218Z" fill="#FBFBFB"/>
<path d="M240.688 340.973H118.809C108.76 340.973 100.609 332.829 100.609 322.79V21.0171C100.609 10.9773 108.76 2.83398 118.809 2.83398H240.688C250.737 2.83398 258.888 10.9773 258.888 21.0171V322.767C258.888 332.829 250.737 340.973 240.688 340.973Z" fill="#FCFCFC"/>
<path d="M240.734 340.727H118.787C108.872 340.727 100.855 332.695 100.855 322.811V20.8604C100.855 10.9546 108.894 2.94507 118.787 2.94507H240.734C250.649 2.94507 258.665 10.9769 258.665 20.8604V322.811C258.665 332.695 250.626 340.727 240.734 340.727Z" fill="#FDFDFD"/>
<path d="M240.756 340.482H118.742C108.983 340.482 101.056 332.584 101.056 322.812V20.6822C101.056 10.9325 108.961 3.01221 118.742 3.01221H240.778C250.537 3.01221 258.464 10.9101 258.464 20.6822V322.834C258.442 332.584 250.537 340.482 240.756 340.482Z" fill="#FEFEFE"/>
<path d="M240.8 340.236H118.697C109.073 340.236 101.279 332.45 101.279 322.834V20.5258C101.279 10.9099 109.073 3.12354 118.697 3.12354H240.8C250.425 3.12354 258.218 10.9099 258.218 20.5258V322.856C258.218 332.45 250.425 340.236 240.8 340.236Z" fill="white"/>
<path d="M242.253 6.11328H117.269C107.421 6.11328 99.4492 14.0781 99.4492 23.9171V322.321C99.4492 332.16 107.421 340.125 117.269 340.125H242.253C252.1 340.125 260.072 332.16 260.072 322.321V23.9171C260.072 14.1005 252.078 6.11328 242.253 6.11328Z" fill="#E6E7E8"/>
<path d="M154.065 113.864C150.666 117.198 150.666 122.845 154.065 126.126L169.764 141.561C172.893 144.626 177.694 144.572 180.769 141.507L214.648 107.195C217.939 103.861 217.885 98.3217 214.594 94.9873C211.465 91.9219 206.61 91.9756 203.535 95.0949L176.993 122.2C176.022 123.168 174.511 123.222 173.486 122.254L164.962 113.864C161.887 110.852 157.14 110.852 154.065 113.864Z" fill="#EA5616"/>
</svg>
