<svg width="373" height="337" viewBox="0 0 373 337" fill="none" xmlns="http://www.w3.org/2000/svg">
<ellipse cx="185.231" cy="168.945" rx="185.231" ry="140.945" fill="#424FD3"/>
<path d="M265.614 14.414L161.989 0.83894C151.246 -0.729065 141.041 6.07994 138.355 16.6049L76.1544 285.4C73.4043 296.29 79.6136 307.438 90.3134 310.81L190.823 335.941C203.435 339.915 216.756 332.332 219.742 319.466L284.414 42.0152C287.443 29.0845 278.742 16.3471 265.614 14.414Z" fill="#BFBFBF"/>
<path d="M76.1333 285.464L138.398 16.5403C141.063 6.0583 151.204 -0.72923 161.904 0.838774L265.571 14.4138C278.656 16.3255 287.315 29.0199 284.307 41.9076L219.614 319.509C216.627 332.311 203.371 339.871 190.823 335.941L90.2493 310.788C79.571 307.416 73.3831 296.311 76.1333 285.464Z" fill="#C0C0C0"/>
<path d="M76.1116 285.528L138.398 16.4759C141.041 6.03685 151.139 -0.707721 161.775 0.817324L265.507 14.4139C278.548 16.3255 287.164 28.977 284.178 41.8002L219.442 319.552C216.477 332.311 203.285 339.829 190.801 335.941L90.1632 310.767C79.5493 307.394 73.383 296.332 76.1116 285.528Z" fill="#C1C1C1"/>
<path d="M76.0902 285.614L138.42 16.3899C141.041 6.01525 151.096 -0.707833 161.689 0.795733L265.464 14.3923C278.463 16.3039 287.035 28.8909 284.07 41.6712L219.313 319.573C216.348 332.268 203.242 339.764 190.823 335.898L90.1202 310.702C79.5064 307.394 73.3615 296.375 76.0902 285.614Z" fill="#C2C2C2"/>
<path d="M76.09 285.679L138.441 16.3255C141.062 5.99387 151.032 -0.686255 161.581 0.795831L265.399 14.3924C278.355 16.2826 286.906 28.8481 283.941 41.5854L219.141 319.638C216.197 332.268 203.155 339.742 190.801 335.919L90.0341 310.724C79.4847 307.394 73.3613 296.397 76.09 285.679Z" fill="#C3C3C3"/>
<path d="M76.0686 285.743L138.463 16.261C141.062 5.97232 150.989 -0.686324 161.474 0.774283L265.356 14.3923C278.248 16.2825 286.777 28.7836 283.834 41.478L218.99 319.681C216.068 332.246 203.091 339.699 190.78 335.919L89.9698 310.702C79.4418 307.373 73.3614 296.44 76.0686 285.743Z" fill="#C4C4C4"/>
<path d="M76.0471 285.829L138.484 16.1967C141.084 5.97247 150.946 -0.664701 161.388 0.774426L265.292 14.3924C278.14 16.2826 286.648 28.7407 283.705 41.3922L218.84 319.745C215.918 332.246 203.027 339.657 190.78 335.941L89.9052 310.702C79.4203 307.373 73.3399 296.461 76.0471 285.829Z" fill="#C5C5C5"/>
<path d="M76.0256 285.894L138.506 16.1108C141.084 5.92953 150.903 -0.664684 161.28 0.731485L265.249 14.3495C278.054 16.2182 286.519 28.6549 283.576 41.2418L218.668 319.745C215.767 332.203 202.941 339.571 190.758 335.876L89.8193 310.616C79.3773 307.352 73.3399 296.504 76.0256 285.894Z" fill="#C6C6C6"/>
<path d="M76.0045 285.979L138.506 16.0464C141.084 5.92951 150.839 -0.643224 161.152 0.731465L265.185 14.371C277.947 16.2397 286.391 28.6119 283.447 41.1774L218.497 319.831C215.618 332.225 202.855 339.571 190.716 335.919L89.7123 310.638C79.3562 307.351 73.3403 296.526 76.0045 285.979Z" fill="#C7C7C7"/>
<path d="M75.9826 286.044L138.527 15.982C141.084 5.90808 150.774 -0.643173 161.044 0.731515L265.12 14.371C277.839 16.2397 286.24 28.569 283.318 41.07L218.346 319.853C215.467 332.182 202.79 339.506 190.715 335.898L89.6689 310.595C79.3343 307.33 73.3184 296.569 75.9826 286.044Z" fill="#C8C8C8"/>
<path d="M75.9612 286.108L138.549 15.9174C141.084 5.88647 150.731 -0.621822 160.958 0.709907L265.077 14.3494C277.753 16.1966 286.111 28.4829 283.211 40.9625L218.196 319.895C215.338 332.16 202.726 339.463 190.716 335.876L89.6046 310.552C79.2915 307.33 73.3185 296.59 75.9612 286.108Z" fill="#C9C9C9"/>
<path d="M75.9613 286.194L138.57 15.853C141.105 5.88651 150.688 -0.62178 160.851 0.70995L265.034 14.3709C277.646 16.2182 286.004 28.4615 283.103 40.8766L218.067 319.96C215.231 332.16 202.683 339.442 190.737 335.898L89.5617 310.552C79.2701 307.309 73.2971 296.633 75.9613 286.194Z" fill="#CACACA"/>
<path d="M75.9399 286.259L138.592 15.767C141.106 5.84349 150.645 -0.621843 160.743 0.666928L264.97 14.3279C277.539 16.1751 285.854 28.3755 282.975 40.7477L217.895 319.981C215.059 332.139 202.597 339.356 190.694 335.876L89.4543 310.53C79.2272 307.308 73.2972 296.655 75.9399 286.259Z" fill="#CBCBCB"/>
<path d="M75.9184 286.323L138.592 15.7027C141.106 5.82211 150.559 -0.600263 160.636 0.667028L264.905 14.328C277.431 16.1538 285.725 28.3112 282.846 40.6404L217.744 320.046C214.93 332.139 202.533 339.335 190.694 335.898L89.3898 310.53C79.2057 307.287 73.2971 296.698 75.9184 286.323Z" fill="#CCCCCC"/>
<path d="M75.8968 286.409L138.613 15.6382C141.105 5.8221 150.516 -0.578796 160.528 0.667016L264.862 14.3495C277.345 16.1752 285.596 28.2897 282.738 40.5759L217.594 320.11C214.779 332.139 202.468 339.313 190.694 335.898L89.3252 310.509C79.1626 307.287 73.2755 296.719 75.8968 286.409Z" fill="#CDCDCD"/>
<path d="M75.8753 286.473L138.635 15.5739C141.105 5.80069 150.473 -0.578721 160.421 0.645611L264.798 14.3281C277.238 16.1538 285.445 28.2038 282.609 40.4471L217.422 320.132C214.629 332.096 202.382 339.249 190.651 335.876L89.2393 310.466C79.1411 307.266 73.2756 296.762 75.8753 286.473Z" fill="#CECECE"/>
<path d="M75.8539 286.538L138.656 15.5094C141.127 5.77919 150.43 -0.557263 160.335 0.645589L264.755 14.328C277.152 16.1538 285.338 28.1608 282.502 40.3397L217.293 320.175C214.522 332.096 202.339 339.206 190.673 335.876L89.1964 310.445C79.0982 307.266 73.2756 296.784 75.8539 286.538Z" fill="#CFCFCF"/>
<path d="M75.8321 286.624L138.677 15.4234C141.127 5.75763 150.387 -0.557344 160.227 0.624029L264.712 14.328C277.044 16.1322 285.209 28.0963 282.394 40.2537L217.143 320.239C214.371 332.096 202.275 339.163 190.672 335.898L89.1317 310.444C79.0764 307.266 73.2538 296.805 75.8321 286.624Z" fill="#D0D0D0"/>
<path d="M75.8325 286.688L138.678 15.359C141.127 5.73617 150.301 -0.557329 160.099 0.602564L264.626 14.3065C276.916 16.1108 285.059 28.0319 282.223 40.1249L216.971 320.261C214.221 332.053 202.189 339.098 190.63 335.855L89.0246 310.38C79.0553 307.244 73.2542 296.848 75.8325 286.688Z" fill="#D1D1D1"/>
<path d="M75.8106 286.774L138.699 15.2946C141.127 5.71474 150.258 -0.535804 160.012 0.602611L264.604 14.328C276.851 16.1323 284.951 28.0105 282.136 40.0605L216.82 320.325C214.092 332.053 202.124 339.077 190.629 335.876L88.9598 310.38C79.012 307.244 73.2323 296.87 75.8106 286.774Z" fill="#D2D2D2"/>
<path d="M75.7893 286.839L138.721 15.2301C141.127 5.71468 150.215 -0.514383 159.905 0.581072L264.54 14.3065C276.744 16.0893 284.801 27.9245 282.008 39.9315L216.649 320.347C213.92 332.01 202.038 339.012 190.608 335.855L88.8955 310.337C78.9907 307.223 73.2326 296.912 75.7893 286.839Z" fill="#D3D3D3"/>
<path d="M75.768 286.903L138.742 15.1656C141.149 5.69311 150.172 -0.514464 159.798 0.580991L264.476 14.3064C276.636 16.0892 284.672 27.8814 281.879 39.8455L216.498 320.411C213.791 332.031 201.974 338.991 190.608 335.876L88.8312 310.358C78.9479 307.222 73.2327 296.934 75.768 286.903Z" fill="#D4D4D4"/>
<path d="M75.7463 286.989L138.763 15.0798C141.148 5.67178 150.108 -0.514323 159.69 0.559653L264.432 14.3065C276.55 16.0893 284.543 27.8172 281.771 39.7383L216.348 320.454C213.662 332.01 201.909 338.948 190.587 335.855L88.745 310.316C78.9261 307.201 73.211 296.977 75.7463 286.989Z" fill="#D5D5D5"/>
<path d="M75.7247 287.053L138.785 15.0152C141.148 5.65015 150.065 -0.492993 159.604 0.538024L264.389 14.2849C276.464 16.0462 284.435 27.7526 281.664 39.6307L216.197 320.497C213.511 331.988 201.845 338.883 190.586 335.855L88.6805 310.294C78.8831 307.201 73.2109 296.998 75.7247 287.053Z" fill="#D6D6D6"/>
<path d="M75.7033 287.118L138.785 14.9509C141.148 5.62877 150 -0.49289 159.475 0.538127L264.303 14.285C276.314 16.0463 284.264 27.7097 281.513 39.5234L216.025 320.54C213.361 331.967 201.759 338.84 190.565 335.855L88.5946 310.273C78.8617 307.18 73.211 297.041 75.7033 287.118Z" fill="#D7D7D7"/>
<path d="M75.7035 287.204L138.807 14.8865C141.17 5.60733 149.958 -0.471373 159.39 0.516684L264.282 14.2851C276.249 16.0464 284.178 27.6453 281.427 39.4376L215.897 320.604C213.254 331.988 201.716 338.819 190.565 335.876L88.5519 310.273C78.8189 307.18 73.1897 297.063 75.7035 287.204Z" fill="#D8D8D8"/>
<path d="M75.6818 287.268L138.828 14.8004C141.17 5.58573 149.914 -0.471495 159.282 0.516563L264.217 14.2849C276.142 16.0248 284.027 27.6022 281.299 39.3301L215.746 320.647C213.103 331.967 201.652 338.776 190.565 335.855L88.4871 310.23C78.7972 307.158 73.1894 297.106 75.6818 287.268Z" fill="#D9D9D9"/>
<path d="M75.6605 287.332L138.849 14.736C141.17 5.5642 149.872 -0.450061 159.175 0.495037L264.153 14.2634C276.035 16.0032 283.877 27.5163 281.17 39.2226L215.574 320.69C212.953 331.945 201.566 338.733 190.544 335.855L88.4014 310.208C78.7544 307.158 73.1681 297.127 75.6605 287.332Z" fill="#DADADA"/>
<path d="M75.6389 287.418L138.871 14.6715C141.191 5.54271 149.807 -0.450074 159.089 0.473545L264.132 14.2634C275.97 16.0032 283.791 27.4733 281.062 39.1152L215.424 320.712C212.824 331.902 201.501 338.668 190.544 335.833L88.3369 310.165C78.7329 307.137 73.1681 297.17 75.6389 287.418Z" fill="#DBDBDB"/>
<path d="M75.6175 287.483L138.871 14.6073C141.17 5.54295 149.743 -0.428356 158.96 0.473783L264.046 14.2636C275.841 15.982 283.619 27.4306 280.912 39.0295L215.274 320.776C212.674 331.903 201.437 338.626 190.522 335.855L88.251 310.165C78.7115 307.137 73.1682 297.192 75.6175 287.483Z" fill="#DCDCDC"/>
<path d="M75.5961 287.569L138.892 14.5427C141.17 5.52129 149.7 -0.407055 158.853 0.473605L263.981 14.2635C275.712 15.9818 283.49 27.366 280.783 38.9219L215.08 320.819C212.502 331.902 201.329 338.583 190.479 335.833L88.1436 310.144C78.6685 307.137 73.1467 297.235 75.5961 287.569Z" fill="#DDDDDD"/>
<path d="M75.5956 287.633L138.914 14.4567C141.191 5.47829 149.656 -0.428574 158.766 0.430607L263.959 14.2419C275.648 15.9603 283.382 27.3015 280.697 38.793L214.951 320.862C212.373 331.881 201.286 338.54 190.5 335.833L88.1217 310.122C78.6466 307.115 73.1462 297.256 75.5956 287.633Z" fill="#DEDEDE"/>
<path d="M75.5746 287.698L138.935 14.3924C141.191 5.47842 149.614 -0.406968 158.659 0.430733L263.895 14.2421C275.541 15.9389 283.232 27.2372 280.568 38.7072L214.801 320.905C212.244 331.86 201.222 338.497 190.479 335.833L88.0362 310.101C78.6041 307.115 73.1467 297.299 75.5746 287.698Z" fill="#DFDFDF"/>
<path d="M75.553 287.784L138.957 14.328C141.191 5.45698 149.549 -0.385448 158.552 0.409294L263.831 14.2206C275.433 15.9175 283.103 27.1728 280.439 38.5784L214.65 320.948C212.115 331.838 201.157 338.454 190.479 335.812L87.9717 310.058C78.5825 307.094 73.1252 297.321 75.553 287.784Z" fill="#DFDFDF"/>
<path d="M75.5315 287.848L138.978 14.2636C141.213 5.4355 149.506 -0.385452 158.466 0.40929L263.809 14.2421C275.368 15.939 282.996 27.1298 280.353 38.5139L214.5 320.991C211.965 331.838 201.093 338.411 190.479 335.812L87.9071 310.036C78.5394 307.094 73.1251 297.364 75.5315 287.848Z" fill="#E0E0E0"/>
<path d="M75.5098 287.913L138.978 14.1777C141.213 5.41402 149.442 -0.363971 158.337 0.387813L263.723 14.2206C275.24 15.896 282.845 27.0654 280.203 38.3851L214.328 321.034C211.814 331.817 201.007 338.347 190.436 335.812L87.7996 310.015C78.5178 307.072 73.1035 297.385 75.5098 287.913Z" fill="#E1E1E1"/>
<path d="M75.4886 287.998L139 14.113C141.213 5.39232 149.399 -0.364193 158.229 0.36611L263.659 14.1989C275.111 15.8743 282.695 27.0007 280.074 38.2774L214.178 321.077C211.686 331.795 200.943 338.303 190.436 335.812L87.7569 309.993C78.4751 307.072 73.1038 297.428 75.4886 287.998Z" fill="#E2E2E2"/>
<path d="M75.4671 288.063L139.021 14.0488C141.213 5.37103 149.356 -0.342518 158.144 0.366305L263.638 14.2206C275.046 15.896 282.609 26.9579 279.988 38.1917L214.027 321.12C211.535 331.774 200.878 338.26 190.436 335.79L87.6924 309.951C78.4536 307.051 73.1037 297.449 75.4671 288.063Z" fill="#E3E3E3"/>
<path d="M75.4671 288.127L139.043 13.9843C141.213 5.37103 149.291 -0.342524 158.036 0.344821L263.573 14.1991C274.939 15.8745 282.459 26.8935 279.859 38.0843L213.877 321.163C211.406 331.752 200.814 338.217 190.436 335.79L87.6064 309.95C78.4106 307.051 73.0822 297.471 75.4671 288.127Z" fill="#E4E4E4"/>
<path d="M75.4455 288.213L139.064 13.9199C141.234 5.34959 149.248 -0.321006 157.929 0.344859L263.508 14.1991C274.831 15.8531 282.308 26.8291 279.709 37.977L213.726 321.227C211.277 331.774 200.749 338.196 190.415 335.812L87.5419 309.951C78.3891 307.029 73.0821 297.514 75.4455 288.213Z" fill="#E5E5E5"/>
<path d="M75.4241 288.278L139.064 13.8338C141.213 5.32794 149.184 -0.321176 157.821 0.323209L263.466 14.199C274.745 15.8529 282.201 26.786 279.601 37.8909L213.555 321.27C211.105 331.752 200.685 338.153 190.393 335.812L87.456 309.929C78.3676 307.029 73.0822 297.535 75.4241 288.278Z" fill="#E6E6E6"/>
<path d="M75.4025 288.364L139.086 13.7695C141.234 5.30654 149.141 -0.321095 157.714 0.301811L263.401 14.1991C274.638 15.853 282.05 26.7431 279.472 37.7836L213.383 321.313C210.955 331.731 200.599 338.089 190.372 335.79L87.3914 309.886C78.3245 307.029 73.0606 297.578 75.4025 288.364Z" fill="#E7E7E7"/>
<path d="M75.381 288.428L139.107 13.705C141.234 5.28506 149.098 -0.299611 157.606 0.301815L263.358 14.1776C274.531 15.81 281.943 26.6572 279.365 37.6762L213.254 321.356C210.847 331.709 200.556 338.046 190.372 335.79L87.327 309.865C78.303 307.008 73.0605 297.6 75.381 288.428Z" fill="#E8E8E8"/>
<path d="M75.3596 288.492L139.129 13.6405C141.256 5.28498 149.034 -0.27821 157.52 0.301737L263.294 14.1775C274.423 15.8099 281.793 26.6141 279.236 37.5687L213.103 321.399C210.697 331.709 200.491 338.003 190.372 335.79L87.2626 309.843C78.2602 307.008 73.0392 297.643 75.3596 288.492Z" fill="#E9E9E9"/>
<path d="M75.3381 288.578L139.15 13.5762C141.256 5.26359 148.991 -0.278128 157.413 0.28034L263.251 14.1776C274.337 15.81 281.664 26.5498 279.128 37.4614L212.953 321.442C210.568 331.688 200.427 337.96 190.372 335.79L87.1981 309.822C78.2386 306.986 73.0391 297.664 75.3381 288.578Z" fill="#EAEAEA"/>
<path d="M75.3381 288.643L139.172 13.4903C141.277 5.22067 148.948 -0.278086 157.305 0.258902L263.186 14.1776C274.23 15.7886 281.535 26.5069 279 37.3755L212.781 321.485C210.418 331.666 200.341 337.917 190.35 335.769L87.1121 309.779C78.1956 306.986 73.0391 297.707 75.3381 288.643Z" fill="#EBEBEB"/>
<path d="M75.3167 288.707L139.172 13.4259C141.256 5.22074 148.883 -0.256537 157.198 0.237492L263.143 14.1562C274.144 15.7672 281.406 26.4425 278.892 37.2467L212.631 321.528C210.267 331.645 200.277 337.874 190.329 335.769L87.0478 309.757C78.1743 306.965 73.0178 297.729 75.3167 288.707Z" fill="#ECECEC"/>
<path d="M75.2964 288.794L139.194 13.3619C141.257 5.19971 148.841 -0.256088 157.092 0.237941L263.08 14.1567C274.038 15.7676 281.278 26.3785 278.765 37.1612L212.482 321.571C210.14 331.624 200.213 337.81 190.33 335.769L86.9845 309.736C78.1325 306.965 73.0189 297.772 75.2964 288.794Z" fill="#EDEDED"/>
<path d="M75.2747 288.858L139.216 13.2974C141.278 5.17818 148.777 -0.234655 156.984 0.237894L263.037 14.1566C273.952 15.7461 281.149 26.3355 278.657 37.0538L212.331 321.614C209.989 331.624 200.149 337.767 190.33 335.769L86.8984 309.736C78.1108 306.944 73.0187 297.794 75.2747 288.858Z" fill="#EEEEEE"/>
<path d="M75.253 288.923L139.237 13.2117C141.278 5.15684 148.734 -0.234518 156.877 0.216551L262.972 14.1353C273.822 15.7248 280.999 26.2497 278.528 36.9465L212.159 321.679C209.838 331.624 200.063 337.746 190.287 335.77L86.8122 309.715C78.0891 306.944 72.997 297.837 75.253 288.923Z" fill="#EFEFEF"/>
<path d="M75.2317 289.008L139.259 13.147C141.3 5.13516 148.691 -0.213236 156.791 0.194874L262.929 14.1351C273.737 15.7246 280.891 26.2066 278.399 36.8389L212.009 321.7C209.71 331.581 199.998 337.681 190.287 335.748L86.7479 309.672C78.0463 306.922 72.9972 297.858 75.2317 289.008Z" fill="#F0F0F0"/>
<path d="M75.2103 289.073L139.259 13.0825C141.278 5.11363 148.626 -0.213293 156.662 0.173338L262.865 14.135C273.629 15.703 280.741 26.1421 278.27 36.753L211.858 321.765C209.559 331.581 199.934 337.659 190.287 335.769L86.705 309.672C78.0249 306.922 72.9758 297.901 75.2103 289.073Z" fill="#F1F1F1"/>
<path d="M75.2101 289.159L139.28 13.0181C141.278 5.11361 148.583 -0.191834 156.576 0.173318L262.822 14.135C273.543 15.703 280.633 26.0991 278.163 36.6455L211.708 321.807C209.43 331.581 199.869 337.595 190.287 335.769L86.6405 309.65C77.9818 306.901 72.9756 297.922 75.2101 289.159Z" fill="#F2F2F2"/>
<path d="M75.1887 289.223L139.302 12.9538C141.3 5.09232 148.519 -0.17016 156.469 0.173512L262.757 14.1352C273.436 15.7032 280.483 26.0563 278.034 36.5598L211.557 321.851C209.301 331.56 199.805 337.552 190.265 335.748L86.5546 309.607C77.9603 306.901 72.9757 297.966 75.1887 289.223Z" fill="#F3F3F3"/>
<path d="M75.1668 289.288L139.323 12.8676C141.299 5.04906 148.476 -0.191944 156.361 0.130249L262.714 14.1134C273.35 15.6599 280.375 25.9701 277.926 36.4306L211.407 321.893C209.151 331.538 199.74 337.509 190.265 335.748L86.4897 309.586C77.917 306.901 72.9538 297.987 75.1668 289.288Z" fill="#F4F4F4"/>
<path d="M75.1442 289.373L139.343 12.8024C141.32 5.04834 148.431 -0.171179 156.274 0.129534L262.67 14.1127C273.241 15.6592 280.245 25.9264 277.817 36.344L211.234 321.936C208.999 331.515 199.653 337.465 190.242 335.747L86.4026 309.563C77.8944 306.878 72.9527 298.029 75.1442 289.373Z" fill="#F5F5F5"/>
<path d="M75.1229 289.437L139.343 12.7382C141.298 5.02702 148.367 -0.149538 156.145 0.129695L262.584 14.1129C273.112 15.6594 280.074 25.8621 277.667 36.2367L211.083 321.979C208.87 331.494 199.589 337.422 190.221 335.725L86.3169 309.521C77.8516 306.879 72.9529 298.05 75.1229 289.437Z" fill="#F6F6F6"/>
<path d="M75.1016 289.502L139.365 12.6738C141.299 5.00557 148.324 -0.14951 156.038 0.108244L262.541 14.0914C273.026 15.6379 279.966 25.7977 277.56 36.1079L210.933 322.022C208.72 331.494 199.524 337.38 190.221 335.726L86.274 309.521C77.8302 306.857 72.9315 298.094 75.1016 289.502Z" fill="#F7F7F7"/>
<path d="M75.0802 289.588L139.386 12.5879C141.32 4.9842 148.26 -0.149406 155.93 0.0868687L262.477 14.0915C272.919 15.6166 279.816 25.7549 277.431 36.0221L210.783 322.086C208.591 331.494 199.46 337.337 190.221 335.747L86.2097 309.521C77.7874 306.857 72.9317 298.115 75.0802 289.588Z" fill="#F8F8F8"/>
<path d="M75.0803 289.652L139.408 12.5236C141.32 4.96277 148.217 -0.127874 155.844 0.0654414L262.434 14.0701C272.833 15.5951 279.709 25.669 277.324 35.8933L210.611 322.129C208.441 331.473 199.374 337.294 190.178 335.747L86.1024 309.499C77.766 306.836 72.9103 298.137 75.0803 289.652Z" fill="#F9F9F9"/>
<path d="M75.0588 289.738L139.429 12.459C141.342 4.9412 148.174 -0.106485 155.737 0.0653514L262.391 14.0915C272.747 15.6165 279.58 25.6474 277.216 35.8287L210.461 322.172C208.291 331.451 199.31 337.251 190.178 335.726L86.0379 309.456C77.7445 306.836 72.9102 298.179 75.0588 289.738Z" fill="#FAFAFA"/>
<path d="M75.0372 289.802L139.451 12.3946C141.342 4.9412 148.131 -0.106484 155.629 0.0653517L262.327 14.07C272.618 15.5736 279.429 25.5615 277.066 35.6999L210.31 322.215C208.162 331.451 199.245 337.208 190.178 335.726L85.9733 309.435C77.7014 306.814 72.9101 298.201 75.0372 289.802Z" fill="#FBFBFB"/>
<path d="M75.0168 289.868L139.452 12.3309C141.321 4.92042 148.068 -0.0843003 155.523 0.0445768L262.263 14.0707C272.512 15.5743 279.301 25.5193 276.938 35.6146L210.161 322.259C208.034 331.43 199.182 337.165 190.179 335.726L85.9314 309.414C77.681 306.815 72.8897 298.245 75.0168 289.868Z" fill="#FCFCFC"/>
<path d="M74.9949 289.954L139.473 12.2449C141.342 4.87744 148.003 -0.0843256 155.415 0.023072L262.22 14.0707C272.426 15.5742 279.172 25.4763 276.83 35.5072L209.989 322.302C207.862 331.409 199.095 337.123 190.136 335.726L85.8236 309.392C77.6376 306.793 72.8893 298.266 74.9949 289.954Z" fill="#FDFDFD"/>
<path d="M74.9741 290.017L139.495 12.18C141.343 4.87695 147.961 -0.0848195 155.309 0.0010985L262.156 14.0487C272.319 15.5308 279.044 25.3899 276.702 35.3993L209.839 322.344C207.733 331.387 199.032 337.058 190.137 335.704L85.7599 309.349C77.6168 306.793 72.89 298.309 74.9741 290.017Z" fill="#FEFEFE"/>
<path d="M74.973 290.082L139.516 12.1158C141.363 4.85573 147.916 -0.0630805 155.221 0.00135808L262.112 14.049C272.232 15.531 278.914 25.3472 276.593 35.2922L209.687 322.387C207.603 331.366 198.966 337.015 190.135 335.705L85.6942 309.328C77.5727 306.793 72.8674 298.33 74.973 290.082Z" fill="white"/>
<path d="M79.6351 284.841L141.922 16.1106C143.684 9.19421 149.936 4.4902 156.897 4.55464L258.975 17.8934C268.622 19.3111 275.003 28.6761 272.79 38.1701L208.076 315.32C206.078 323.891 197.827 329.282 189.405 328.036L89.8837 303.227C82.1274 300.757 77.637 292.702 79.6351 284.841Z" fill="#F1F2F2"/>
<path d="M260.63 127.74C261.296 128.212 262.241 127.869 262.413 127.074L267.892 103.554C267.999 103.103 267.827 102.63 267.441 102.372C266.775 101.9 265.829 102.244 265.657 103.038L260.178 126.537C260.071 126.988 260.243 127.46 260.63 127.74Z" fill="#F1F2F2"/>
<path d="M261.532 127.933C262.198 128.405 263.143 128.062 263.315 127.267L268.794 103.747C268.901 103.296 268.729 102.823 268.343 102.566C267.677 102.093 266.731 102.437 266.559 103.231L261.081 126.752C260.973 127.203 261.145 127.675 261.532 127.933Z" fill="#E1E1E1"/>
<path d="M267.247 99.0862C267.913 99.5587 268.859 99.2151 269.031 98.4203L274.509 74.9003C274.617 74.4492 274.445 73.9766 274.058 73.7189C273.392 73.2463 272.447 73.59 272.275 74.3847L266.796 97.9048C266.689 98.3559 266.861 98.8284 267.247 99.0862Z" fill="#F1F2F2"/>
<path d="M268.15 99.301C268.816 99.7735 269.761 99.4299 269.933 98.6351L275.412 75.115C275.519 74.664 275.347 74.1914 274.96 73.9337C274.294 73.4611 273.349 73.8048 273.177 74.5995L267.698 98.1196C267.591 98.5707 267.763 99.0217 268.15 99.301Z" fill="#E1E1E1"/>
<g clip-path="url(#clip0)">
<path d="M132.455 134.427L131.155 139.97L136.339 140.857L137.637 135.332L132.455 134.427Z" fill="#EA5616"/>
<path d="M148.713 108.674L145.415 122.72L159.004 125.087L162.303 111.024L148.713 108.674Z" fill="#EA5616"/>
<path d="M133.939 128.513L141.339 96.9438L174.379 102.683L166.377 136.817L165.719 136.701L133.338 131.078L133.939 128.513ZM162.62 130.833L168.222 106.924L145.08 102.909L139.478 126.818L162.62 130.833Z" fill="#EA5616"/>
<path d="M160.02 140.169L158.721 145.694L153.383 144.761L152.08 150.338L157.436 151.273L158.737 145.713L163.904 146.599L165.202 141.074L160.02 140.169Z" fill="#EA5616"/>
<path d="M123.423 184.043L122.124 189.585L134.137 191.667L135.435 186.142L123.423 184.043Z" fill="#EA5616"/>
<path d="M193.911 106.131L191.289 117.285L196.645 118.219L199.267 107.065L193.911 106.131Z" fill="#EA5616"/>
<path d="M212.764 119.784L209.465 133.847L223.056 136.197L226.354 122.151L212.764 119.784Z" fill="#EA5616"/>
<path d="M197.989 139.64L205.408 108.055L238.43 113.793L230.429 147.927L229.77 147.811L197.39 142.187L197.989 139.64ZM226.67 141.96L232.29 118.052L209.148 114.037L203.546 137.947L226.67 141.96Z" fill="#EA5616"/>
<path d="M181.898 104.049L179.293 115.204L177.994 120.729L190.007 122.811L187.432 133.793L172.646 131.219L171.346 136.762L186.133 139.318L185.163 143.414L170.393 140.859L169.094 146.385L166.542 157.298L161.342 156.392L160.068 161.814L158.818 167.133L156.216 178.253L151.31 177.402L152.59 171.893L153.89 166.351L156.163 156.677L150.807 155.743L152.08 150.338L145.424 149.173L148.271 137.073L142.897 136.137L140.068 148.239L138.768 153.781L150.781 155.864L148.533 165.434L133.782 162.863L135.06 157.389L129.86 156.483L128.56 162.025L133.742 162.93L132.465 168.404L147.234 170.959L145.937 176.467L131.202 173.914L132.499 168.424L127.298 167.518L125.999 173.061L131.165 173.947L129.869 179.437L136.733 180.634L135.436 186.125L140.791 187.077L142.09 181.551L149.734 182.891L160.186 184.706L158.961 189.939L158.437 192.16L153.671 191.319L152.365 196.949L142.259 195.192L140.959 200.735L151.066 202.474L151.758 202.61L154.741 203.116L156.422 203.408L174.866 206.605L176.165 201.08L162.488 198.706L164.267 191.08L173.991 192.775L175.265 187.353L180.309 188.23L181.609 182.688L176.304 181.775L177.601 176.284L182.783 177.189L184.083 171.646L178.883 170.74L177.586 176.248L172.421 175.345L171.124 180.835L161.572 179.187L164.125 168.274L173.849 169.968L175.123 164.546L180.167 165.424L185.334 166.31L186.611 160.836L187.911 155.293L182.711 154.387L181.432 159.879L171.899 158.215L174.45 147.319L189.22 149.874L187.924 155.364L192.742 156.209L191.446 161.699L196.611 162.602L195.334 168.077L200.517 168.964L201.816 163.439L196.651 162.535L197.925 157.113L201.704 157.762L203.386 158.055L211.152 159.403L208.549 170.523L213.907 171.44L216.508 160.337L221.778 161.248L220.499 166.74L225.699 167.646L226.981 162.102L221.832 161.217L223.109 155.76L228.274 156.664L229.574 151.121L224.374 150.215L223.095 155.707L204.686 152.512L206.008 146.901L200.652 145.967L199.33 151.578L189.24 149.84L190.495 144.434L191.489 140.253L192.789 134.71L195.389 123.625L190.033 122.69L191.306 117.286L184.65 116.121L187.254 104.983L181.898 104.049Z" fill="#EA5616"/>
<path d="M197.75 186.213L194.452 200.259L208.059 202.628L211.357 188.582L197.75 186.213Z" fill="#EA5616"/>
<path d="M182.438 205.962L189.839 174.393L222.861 180.131L214.86 214.265L214.201 214.149L181.82 208.526L182.438 205.962ZM211.12 208.283L216.722 184.373L193.58 180.358L187.978 204.268L211.12 208.283Z" fill="#EA5616"/>
</g>
<g clip-path="url(#clip1)">
<path d="M20.6644 38.0425L19.902 41.2932L22.9423 41.8136L23.7039 38.5731L20.6644 38.0425Z" fill="#EA5616"/>
<path d="M30.1995 22.9382L28.2652 31.1759L36.2354 32.5643L38.1704 24.3165L30.1995 22.9382Z" fill="#EA5616"/>
<path d="M21.5346 34.5736L25.8751 16.0586L45.2524 19.4247L40.5597 39.444L40.1735 39.3759L21.1825 36.0778L21.5346 34.5736ZM38.3561 35.9346L41.6416 21.9119L28.0692 19.5571L24.7837 33.5797L38.3561 35.9346Z" fill="#EA5616"/>
<path d="M36.8311 41.4099L36.0694 44.6504L32.9384 44.1031L32.1746 47.3742L35.3158 47.9222L36.0789 44.6613L39.109 45.181L39.8707 41.9405L36.8311 41.4099Z" fill="#EA5616"/>
<path d="M15.3676 67.1414L14.6052 70.3921L21.6508 71.6133L22.4125 68.3728L15.3676 67.1414Z" fill="#EA5616"/>
<path d="M56.7077 21.4468L55.1698 27.9883L58.3111 28.5363L59.849 21.9948L56.7077 21.4468Z" fill="#EA5616"/>
<path d="M67.7651 29.454L65.8301 37.7018L73.8011 39.0801L75.7354 30.8424L67.7651 29.454Z" fill="#EA5616"/>
<path d="M59.0998 41.0995L63.4513 22.5751L82.8183 25.9405L78.1256 45.9597L77.7394 45.8917L58.7484 42.5936L59.0998 41.0995ZM75.9213 42.4605L79.2171 28.4386L65.6446 26.0838L62.3591 40.1064L75.9213 42.4605Z" fill="#EA5616"/>
<path d="M49.6623 20.2256L48.1347 26.7679L47.373 30.0084L54.4186 31.2296L52.9083 37.6704L44.2365 36.1611L43.4741 39.4118L52.1466 40.9109L51.5773 43.3132L42.9151 41.8148L42.1534 45.0553L40.6563 51.456L37.6064 50.9246L36.8593 54.1046L36.1266 57.224L34.6004 63.7458L31.7233 63.247L32.474 60.016L33.2364 56.7653L34.5695 51.0919L31.4282 50.5439L32.1746 47.3742L28.2711 46.6908L29.9404 39.5941L26.7889 39.0454L25.1298 46.1428L24.3674 49.3935L31.413 50.6147L30.0944 56.2275L21.4431 54.7196L22.1924 51.509L19.1425 50.9777L18.3802 54.2284L21.4197 54.759L20.6705 57.9696L29.3327 59.468L28.5717 62.6983L19.93 61.2013L20.6902 57.9812L17.6404 57.4499L16.878 60.7006L19.9081 61.2203L19.1478 64.4404L23.1735 65.1426L22.4133 68.3626L25.5539 68.9209L26.3155 65.6804L30.7985 66.4658L36.9288 67.5307L36.21 70.5998L35.9029 71.9019L33.1076 71.4089L32.3417 74.7107L26.4147 73.6805L25.6523 76.9313L31.58 77.9511L31.986 78.0308L33.7351 78.3276L34.7213 78.4992L45.5387 80.374L46.3003 77.1335L38.2789 75.7415L39.3223 71.2689L45.0254 72.2628L45.7726 69.0829L48.7309 69.5976L49.4933 66.3469L46.3821 65.8112L47.1423 62.5911L50.1819 63.1218L50.9443 59.8711L47.8945 59.3397L47.1335 62.57L44.1042 62.0401L43.3439 65.2601L37.7417 64.2938L39.2389 57.8931L44.942 58.887L45.6892 55.7071L48.6476 56.2218L51.6776 56.7415L52.4269 53.5309L53.1893 50.2802L50.1395 49.7488L49.3895 52.9696L43.7982 51.9938L45.2947 45.6033L53.9569 47.1017L53.1967 50.3218L56.0227 50.8169L55.2624 54.037L58.2918 54.5669L57.5425 57.7775L60.5828 58.2979L61.3445 55.0574L58.3151 54.5275L59.0623 51.3476L61.2788 51.7283L62.265 51.8999L66.8196 52.6904L65.2934 59.2122L68.4354 59.75L69.9609 53.2384L73.0517 53.7726L72.3017 56.9934L75.3515 57.5247L76.1036 54.2733L73.0838 53.7543L73.8324 50.554L76.8617 51.0839L77.6241 47.8332L74.5743 47.3018L73.8243 50.5226L63.0274 48.6492L63.8029 45.3583L60.6616 44.8103L59.8861 48.1012L53.9686 47.082L54.7048 43.9115L55.2879 41.4589L56.0503 38.2082L57.5751 31.7068L54.4338 31.1588L55.1802 27.9891L51.2767 27.3057L52.8036 20.7736L49.6623 20.2256Z" fill="#EA5616"/>
<path d="M58.9595 68.4146L57.0252 76.6522L65.0057 78.0414L66.94 69.8037L58.9595 68.4146Z" fill="#EA5616"/>
<path d="M49.9794 79.997L54.3199 61.482L73.687 64.8475L68.9943 84.8667L68.608 84.7987L49.617 81.5006L49.9794 79.997ZM66.8009 81.358L70.0864 67.3353L56.514 64.9805L53.2285 79.0032L66.8009 81.358Z" fill="#EA5616"/>
</g>
<g clip-path="url(#clip2)">
<path d="M331.82 27.4717L331.319 29.6113L333.32 29.9538L333.821 27.821L331.82 27.4717Z" fill="#EA5616"/>
<path d="M338.097 17.5302L336.823 22.9521L342.069 23.866L343.343 18.4373L338.097 17.5302Z" fill="#EA5616"/>
<path d="M332.393 25.1885L335.25 13.002L348.004 15.2176L344.916 28.3941L344.661 28.3494L332.162 26.1786L332.393 25.1885ZM343.465 26.0843L345.628 16.8546L336.694 15.3047L334.532 24.5343L343.465 26.0843Z" fill="#EA5616"/>
<path d="M342.461 29.6881L341.96 31.821L339.899 31.4607L339.396 33.6138L341.464 33.9745L341.966 31.8282L343.961 32.1702L344.462 30.0374L342.461 29.6881Z" fill="#EA5616"/>
<path d="M328.334 46.6244L327.832 48.764L332.47 49.5678L332.971 47.4349L328.334 46.6244Z" fill="#EA5616"/>
<path d="M355.544 16.5485L354.532 20.8541L356.599 21.2148L357.612 16.9092L355.544 16.5485Z" fill="#EA5616"/>
<path d="M362.822 21.8188L361.548 27.2475L366.795 28.1546L368.068 22.7327L362.822 21.8188Z" fill="#EA5616"/>
<path d="M357.118 29.4838L359.982 17.2911L372.73 19.5062L369.641 32.6828L369.387 32.638L356.887 30.4672L357.118 29.4838ZM368.19 30.3796L370.359 21.1504L361.426 19.6005L359.264 28.8301L368.19 30.3796Z" fill="#EA5616"/>
<path d="M350.907 15.7448L349.901 20.0508L349.4 22.1837L354.037 22.9875L353.043 27.2268L347.335 26.2334L346.834 28.373L352.542 29.3597L352.167 30.9408L346.466 29.9546L345.964 32.0875L344.979 36.3004L342.972 35.9506L342.48 38.0437L341.998 40.0968L340.993 44.3895L339.099 44.0612L339.593 41.9346L340.095 39.795L340.973 36.0608L338.905 35.7001L339.396 33.6138L336.827 33.164L337.926 28.493L335.851 28.1318L334.759 32.8033L334.258 34.9429L338.895 35.7466L338.027 39.441L332.333 38.4485L332.826 36.3353L330.819 35.9856L330.317 38.1252L332.318 38.4744L331.824 40.5876L337.526 41.5739L337.025 43.7L331.337 42.7147L331.837 40.5953L329.83 40.2455L329.328 42.3851L331.323 42.7272L330.822 44.8466L333.472 45.3088L332.971 47.4282L335.039 47.7957L335.54 45.6628L338.491 46.1798L342.526 46.8807L342.052 48.9007L341.85 49.7578L340.01 49.4333L339.506 51.6065L335.605 50.9285L335.103 53.0681L339.005 53.7393L339.272 53.7918L340.423 53.9871L341.073 54.1L348.192 55.3341L348.694 53.2012L343.414 52.285L344.101 49.3411L347.855 49.9953L348.346 47.9023L350.294 48.2411L350.795 46.1015L348.748 45.7489L349.248 43.6295L351.249 43.9787L351.75 41.8391L349.743 41.4894L349.242 43.6156L347.248 43.2668L346.748 45.3862L343.061 44.7502L344.046 40.5372L347.8 41.1914L348.292 39.0984L350.239 39.4372L352.233 39.7793L352.726 37.6661L353.228 35.5265L351.221 35.1768L350.727 37.2967L347.047 36.6544L348.032 32.4482L353.733 33.4344L353.233 35.5538L355.093 35.8798L354.593 37.9992L356.586 38.348L356.093 40.4612L358.094 40.8037L358.596 38.6708L356.602 38.322L357.094 36.229L358.553 36.4796L359.202 36.5926L362.199 37.1128L361.195 41.4055L363.263 41.7595L364.267 37.4735L366.301 37.8252L365.808 39.9451L367.815 40.2948L368.31 38.1547L366.323 37.8131L366.815 35.7067L368.809 36.0555L369.311 33.9159L367.304 33.5661L366.81 35.686L359.703 34.453L360.214 32.287L358.146 31.9263L357.636 34.0923L353.741 33.4214L354.226 31.3347L354.609 29.7204L355.111 27.5808L356.115 23.3016L354.047 22.9409L354.538 20.8546L351.969 20.4048L352.974 16.1054L350.907 15.7448Z" fill="#EA5616"/>
<path d="M357.026 47.4624L355.753 52.8844L361.006 53.7987L362.279 48.3768L357.026 47.4624Z" fill="#EA5616"/>
<path d="M351.115 55.0859L353.972 42.8995L366.72 45.1146L363.631 58.2911L363.377 58.2463L350.877 56.0755L351.115 55.0859ZM362.187 55.9817L364.35 46.7521L355.417 45.2021L353.254 54.4318L362.187 55.9817Z" fill="#EA5616"/>
</g>
<defs>
<clipPath id="clip0">
<rect width="110.736" height="111.89" fill="white" transform="matrix(-0.997564 -0.0697565 -0.0697565 0.997564 239.13 103.782)"/>
</clipPath>
<clipPath id="clip1">
<rect width="64.9459" height="65.6224" fill="white" transform="matrix(-0.997564 -0.0697565 -0.0697565 0.997564 83.2288 20.0692)"/>
</clipPath>
<clipPath id="clip2">
<rect width="42.747" height="43.1923" fill="white" transform="matrix(-0.997564 -0.0697565 -0.0697565 0.997564 373 15.6418)"/>
</clipPath>
</defs>
</svg>
