<svg width="99" height="30" viewBox="0 0 99 30" fill="none" xmlns="http://www.w3.org/2000/svg">
<g clip-path="url(#clip0)">
<path d="M20 0L10 10H20V30L30 20.0209V0H20Z" fill="#EA5616"/>
<path d="M10 30L20 20H10V0L0 9.97906V30H10Z" fill="white"/>
<path d="M40 25.0052H45.2461V9.50786H53.2461V25.0052H58.4922V5.00525H40V25.0052ZM91.0053 12.4922H86.5236V9.49739H96.5131V4.99477H81.267V24.9948C81.267 24.9948 88.7539 24.9948 91.2566 24.9948C95.2566 24.9948 98.2618 22.9843 98.2618 18.7435C98.2513 14.4922 95.2566 12.4922 91.0053 12.4922ZM90.5026 20.7539H86.5131V16.7539H90.5026C91.7382 16.7539 92.9948 17.2461 92.9948 18.7435C92.9948 20.2513 91.7382 20.7539 90.5026 20.7539ZM71.3508 20.7435C67.8429 20.7435 65.8744 18.178 65.8744 14.9948C65.8744 12.4398 67.3089 9.24608 71.2461 9.24608C73.7068 9.24608 75.288 10.7539 75.8534 11.445L79.0576 8.25132C77.1309 5.94765 74.2409 4.49216 71.0052 4.49216C65.2042 4.49216 60.6283 8.78535 60.6283 14.9948C60.6283 20.7958 65.2042 25.4974 71.0052 25.4974C74.4817 25.4974 77.5498 23.8115 79.466 21.2147L76.2513 18C75.2356 19.5916 73.5812 20.7435 71.3508 20.7435Z" fill="white"/>
</g>
<defs>
<clipPath id="clip0">
<rect width="98.2513" height="30" fill="white"/>
</clipPath>
</defs>
</svg>
