<svg width="132" height="40" viewBox="0 0 132 40" fill="none" xmlns="http://www.w3.org/2000/svg">
<g clip-path="url(#clip0)">
<path d="M26.6667 0L13.3334 13.3333H26.6667V40L40 26.6946V0H26.6667Z" fill="#EA5616"/>
<path d="M13.3333 40L26.6667 26.6667H13.3333V0L0 13.3054V40H13.3333Z" fill="white"/>
<path d="M53.3334 33.3403H60.3281V12.6771H70.9948V33.3403H77.9896V6.67365H53.3334V33.3403ZM121.34 16.6562H115.365V12.6632H128.684V6.65969H108.356V33.3264C108.356 33.3264 118.339 33.3264 121.675 33.3264C127.009 33.3264 131.016 30.6457 131.016 24.9913C131.002 19.3229 127.009 16.6562 121.34 16.6562ZM120.67 27.6719H115.351V22.3386H120.67C122.318 22.3386 123.993 22.9948 123.993 24.9913C123.993 27.0018 122.318 27.6719 120.67 27.6719ZM95.1344 27.658C90.4573 27.658 87.8325 24.2374 87.8325 19.993C87.8325 16.5864 89.7453 12.3281 94.9948 12.3281C98.2758 12.3281 100.384 14.3386 101.138 15.26L105.41 11.0017C102.841 7.9302 98.9878 5.98953 94.6737 5.98953C86.939 5.98953 80.8378 11.7138 80.8378 19.993C80.8378 27.7278 86.939 33.9965 94.6737 33.9965C99.309 33.9965 103.4 31.7487 105.955 28.2862L101.668 24C100.314 26.1222 98.1083 27.658 95.1344 27.658Z" fill="white"/>
</g>
<defs>
<clipPath id="clip0">
<rect width="131.002" height="40" fill="white"/>
</clipPath>
</defs>
</svg>
