<svg width="469" height="410" viewBox="0 0 469 410" fill="none" xmlns="http://www.w3.org/2000/svg">
<ellipse cx="227.5" cy="221" rx="189" ry="143.5" transform="rotate(-90 227.5 221)" fill="#424FD3"/>
<g clip-path="url(#clip0)">
<path fill-rule="evenodd" clip-rule="evenodd" d="M146.035 222.136C145.419 215.361 145.855 209.024 147.469 202.941C152.532 182.038 152.719 196.179 137.325 185.012C126.803 177.177 124.815 166.353 127.349 153.774C133.302 124.899 150.089 132.636 135.284 102.408C119.225 69.5563 105.816 37.7334 84.5676 11.9548C73.0666 -1.87475 65.8724 1.04655 79.178 39.5917C70.2295 29.2585 63.3571 41.0746 76.0434 56.1868C65.8168 48.8745 60.8706 59.8306 68.7219 71.4739C60.3323 66.7991 55.3517 77.0852 65.6938 89.2725C57.2709 86.5697 49.2315 95.714 64.5872 113.107C57.4114 114.64 53.8704 118.941 67.8748 136.18C59.5996 133.738 55.3119 144.436 70.4146 154.275C61.2072 158.106 64.2957 166.814 80.199 172.178C72.6109 174.403 73.5681 182.594 84.4635 187.229C82.6311 195.16 84.2194 200.81 96.142 200.154C95.8877 207.422 98.974 210.846 107.345 208.178C107.859 215.585 111.8 216.457 118.842 211.439C120.128 218.18 123.142 221.07 129.926 215.394C131.764 220.673 134.997 221.717 139.814 217.842C140.555 224.432 143.136 224.12 146.035 222.136Z" fill="#EAEBEB"/>
<path fill-rule="evenodd" clip-rule="evenodd" d="M79.1783 39.5919C70.2299 29.2587 63.3574 41.0747 76.0437 56.1869C65.8172 48.8747 60.871 59.8307 68.7223 71.474C60.3326 66.7992 55.352 77.0853 65.6942 89.2726C57.2713 86.5699 49.2319 95.7141 64.5876 113.108C57.4118 114.64 53.8708 118.941 67.8752 136.18C59.6 133.738 55.3123 144.437 70.415 154.275C61.2076 158.106 64.296 166.814 80.1993 172.178C72.6112 174.403 73.5685 182.594 84.4638 187.23C82.6314 195.16 84.2197 200.81 96.1424 200.154C95.8881 207.422 98.9743 210.846 107.346 208.178C107.86 215.585 111.8 216.458 118.842 211.439C120.128 218.18 123.142 221.071 129.927 215.394C131.765 220.673 134.997 221.717 139.814 217.842C140.104 213.887 140.356 210.068 140.521 206.298C141.107 196.774 142.698 198.977 135.501 193.972C110.69 177.332 108.565 155.096 122.99 129.011C128.841 118.232 128.839 121.68 119.826 111.843C107.189 96.8177 89.6245 65.1631 79.1783 39.5919Z" fill="#D7D8D8"/>
</g>
<g clip-path="url(#clip1)">
<path fill-rule="evenodd" clip-rule="evenodd" d="M291.012 245.092C294.122 239.041 296.091 233.003 296.873 226.758C300.009 205.48 294.538 218.521 312.995 213.934C325.686 210.612 331.584 201.32 333.946 188.708C339.243 159.706 320.781 160.591 345.831 138.109C373.027 113.666 397.38 89.1833 426.739 73.2417C442.583 64.7275 448.159 70.1311 421.383 100.885C433.551 94.6566 435.496 108.187 418.073 117.446C430.294 114.497 430.776 126.508 419.134 134.363C428.664 133.171 429.429 144.574 415.275 152C424.097 152.649 428.125 164.139 407.372 174.514C413.451 178.622 415.123 183.937 395.681 194.674C404.268 195.51 404.236 207.036 386.547 210.501C393.649 217.501 387.523 224.418 370.769 223.435C376.971 228.34 373.015 235.576 361.176 235.792C359.904 243.832 356.315 248.476 345.506 243.401C343.02 250.235 338.876 252.254 332.113 246.644C328.862 253.319 324.881 252.652 320.232 245.361C316.514 251.129 312.637 252.68 308.473 244.875C304.792 249.082 301.403 248.838 298.388 243.442C295.233 249.274 292.956 248.018 291.012 245.092Z" fill="#EAEBEB"/>
<path fill-rule="evenodd" clip-rule="evenodd" d="M421.383 100.885C433.551 94.6564 435.496 108.187 418.073 117.446C430.294 114.497 430.776 126.508 419.134 134.363C428.664 133.171 429.429 144.574 415.275 152C424.097 152.649 428.125 164.139 407.372 174.513C413.451 178.622 415.123 183.937 395.681 194.674C404.268 195.51 404.236 207.036 386.547 210.5C393.649 217.501 387.523 224.418 370.769 223.435C376.971 228.34 373.015 235.576 361.176 235.792C359.905 243.832 356.315 248.476 345.506 243.401C343.02 250.235 338.876 252.253 332.113 246.644C328.862 253.319 324.881 252.652 320.232 245.361C316.515 251.129 312.637 252.68 308.473 244.875C304.792 249.082 301.403 248.838 298.389 243.442C299.602 239.666 300.799 236.03 302.058 232.473C305.082 223.423 302.782 224.869 311.33 222.925C340.568 216.791 350.868 196.97 347.265 167.38C345.877 155.195 344.588 158.393 356.629 152.648C373.975 143.451 402.118 120.681 421.383 100.885Z" fill="#D7D8D8"/>
</g>
<g clip-path="url(#clip2)">
<path d="M149.256 192.101L147.247 200.667L155.259 202.038L157.266 193.499L149.256 192.101Z" fill="white"/>
<path d="M174.381 152.3L169.284 174.007L190.287 177.665L195.386 155.931L174.381 152.3Z" fill="white"/>
<path d="M151.549 182.96L162.987 134.171L214.048 143.041L201.682 195.794L200.664 195.614L150.621 186.924L151.549 182.96ZM195.875 186.546L204.533 149.595L168.768 143.39L160.111 180.341L195.875 186.546Z" fill="white"/>
<path d="M191.856 200.974L189.849 209.513L181.599 208.071L179.586 216.691L187.864 218.135L189.874 209.542L197.859 210.912L199.866 202.373L191.856 200.974Z" fill="white"/>
<path d="M135.299 268.779L133.29 277.345L151.855 280.563L153.863 272.024L135.299 268.779Z" fill="white"/>
<path d="M244.234 148.37L240.182 165.607L248.459 167.051L252.512 149.814L244.234 148.37Z" fill="white"/>
<path d="M273.372 169.469L268.273 191.203L289.277 194.835L294.374 173.128L273.372 169.469Z" fill="white"/>
<path d="M250.536 200.156L262.003 151.343L313.037 160.211L300.671 212.964L299.654 212.784L249.61 204.093L250.536 200.156ZM294.863 203.743L303.547 166.794L267.783 160.588L259.125 197.539L294.863 203.743Z" fill="white"/>
<path d="M225.668 145.152L221.643 162.391L219.636 170.93L238.201 174.148L234.222 191.12L211.371 187.143L209.362 195.709L232.215 199.659L230.715 205.99L207.889 202.041L205.882 210.58L201.936 227.447L193.9 226.046L191.931 234.426L190 242.646L185.979 259.831L178.397 258.517L180.375 250.003L182.384 241.437L185.897 226.487L177.62 225.043L179.587 216.691L169.3 214.89L173.699 196.189L165.395 194.743L161.023 213.446L159.014 222.012L177.579 225.23L174.105 240.02L151.308 236.047L153.282 227.586L145.246 226.186L143.237 234.752L151.246 236.15L149.272 244.611L172.098 248.559L170.093 257.071L147.321 253.127L149.324 244.641L141.287 243.241L139.278 251.807L147.263 253.177L145.26 261.662L155.868 263.512L153.864 271.997L162.14 273.468L164.147 264.929L175.96 266.999L192.114 269.805L190.22 277.892L189.411 281.324L182.045 280.025L180.027 288.725L164.408 286.011L162.399 294.576L178.02 297.264L179.089 297.474L183.699 298.256L186.297 298.708L214.802 303.649L216.809 295.11L195.672 291.441L198.421 279.656L213.45 282.275L215.418 273.895L223.214 275.251L225.223 266.686L217.024 265.274L219.028 256.789L227.037 258.187L229.046 249.621L221.01 248.221L219.005 256.733L211.022 255.337L209.019 263.822L194.256 261.276L198.201 244.409L213.23 247.028L215.199 238.649L222.994 240.005L230.979 241.374L232.953 232.914L234.962 224.348L226.926 222.948L224.949 231.435L210.216 228.864L214.159 212.024L236.985 215.973L234.982 224.458L242.428 225.763L240.425 234.248L248.408 235.644L246.433 244.104L254.445 245.476L256.452 236.937L248.469 235.54L250.438 227.161L256.279 228.164L258.878 228.616L270.879 230.699L266.858 247.885L275.137 249.302L279.157 232.143L287.302 233.551L285.325 242.038L293.362 243.438L295.344 234.871L287.386 233.503L289.359 225.07L297.341 226.466L299.35 217.9L291.314 216.5L289.337 224.987L260.887 220.05L262.93 211.379L254.652 209.935L252.609 218.606L237.016 215.921L238.956 207.566L240.492 201.103L242.501 192.537L246.519 175.406L238.242 173.962L240.209 165.609L229.922 163.808L233.946 146.596L225.668 145.152Z" fill="white"/>
<path d="M250.167 272.134L245.07 293.841L266.1 297.502L271.197 275.795L250.167 272.134Z" fill="white"/>
<path d="M226.504 302.655L237.941 253.866L288.975 262.734L276.61 315.487L275.592 315.308L225.549 306.617L226.504 302.655ZM270.83 306.241L279.488 269.29L243.723 263.085L235.065 300.036L270.83 306.241Z" fill="white"/>
</g>
<defs>
<clipPath id="clip0">
<rect width="225" height="93.5" fill="white" transform="translate(81.4175 0.294434) rotate(60.5)"/>
</clipPath>
<clipPath id="clip1">
<rect width="225" height="93.5" fill="white" transform="matrix(-0.782608 0.622515 0.622515 0.782608 434.028 63.6104)"/>
</clipPath>
<clipPath id="clip2">
<rect width="171.139" height="172.922" fill="white" transform="matrix(-0.997564 -0.0697565 -0.0697565 0.997564 314.119 144.739)"/>
</clipPath>
</defs>
</svg>
