<svg width="389" height="324" viewBox="0 0 389 324" fill="none" xmlns="http://www.w3.org/2000/svg">
<ellipse cx="180.359" cy="174.537" rx="149.463" ry="113.481" transform="rotate(-90 180.359 174.537)" fill="#424FD3"/>
<g clip-path="url(#clip0)">
<path fill-rule="evenodd" clip-rule="evenodd" d="M115.936 175.436C115.449 170.078 115.794 165.067 117.07 160.257C121.074 143.726 121.223 154.909 109.048 146.078C100.728 139.882 99.1555 131.322 101.16 121.375C105.868 98.5401 119.142 104.659 107.435 80.7535C94.7351 54.7743 84.1314 29.6083 67.3276 9.22227C58.2324 -1.7143 52.5432 0.595906 63.0654 31.0779C55.9888 22.9063 50.554 32.2505 60.5865 44.2014C52.4992 38.4189 48.5877 47.083 54.7966 56.2907C48.162 52.5938 44.2233 60.7282 52.4019 70.366C45.741 68.2286 39.3834 75.4601 51.5269 89.215C45.8521 90.4267 43.0519 93.8282 54.1267 107.461C47.5826 105.53 44.1918 113.99 56.1352 121.771C48.8539 124.8 51.2963 131.687 63.8728 135.929C57.872 137.688 58.6291 144.165 67.2452 147.832C65.7961 154.103 67.0522 158.571 76.4808 158.053C76.2796 163.8 78.7203 166.508 85.3405 164.398C85.7471 170.255 88.8633 170.945 94.4321 166.977C95.4491 172.308 97.8327 174.593 103.198 170.104C104.651 174.279 107.208 175.104 111.017 172.041C111.603 177.252 113.644 177.005 115.936 175.436Z" fill="#EAEBEB"/>
<path fill-rule="evenodd" clip-rule="evenodd" d="M63.0645 31.0768C55.988 22.9051 50.5531 32.2494 60.5856 44.2003C52.4984 38.4177 48.5868 47.0819 54.7957 56.2895C48.1611 52.5926 44.2224 60.727 52.4011 70.3649C45.7401 68.2275 39.3825 75.4589 51.526 89.2139C45.8513 90.4255 43.051 93.8271 54.1258 107.46C47.5817 105.529 44.1909 113.989 56.1343 121.77C48.853 124.799 51.2954 131.685 63.8719 135.928C57.8711 137.687 58.6282 144.164 67.2443 147.83C65.7952 154.102 67.0513 158.57 76.4799 158.051C76.2788 163.799 78.7194 166.507 85.3396 164.396C85.7462 170.254 88.8625 170.944 94.4313 166.976C95.4482 172.306 97.8318 174.592 103.197 170.103C104.65 174.278 107.207 175.103 111.016 172.039C111.245 168.911 111.445 165.891 111.575 162.91C112.039 155.379 113.297 157.12 107.605 153.162C87.9844 140.003 86.3038 122.419 97.7114 101.79C102.338 93.2663 102.337 95.9932 95.2093 88.2137C85.2158 76.3316 71.3254 51.2988 63.0645 31.0768Z" fill="#D7D8D8"/>
</g>
<g clip-path="url(#clip1)">
<path fill-rule="evenodd" clip-rule="evenodd" d="M230.585 193.59C233.044 188.804 234.601 184.029 235.22 179.091C237.7 162.264 233.373 172.577 247.969 168.949C258.005 166.322 262.669 158.974 264.537 149C268.726 126.065 254.126 126.765 273.936 108.986C295.443 89.6561 314.702 70.2949 337.919 57.6881C350.449 50.955 354.858 55.2282 333.684 79.5489C343.306 74.6232 344.845 85.323 331.066 92.6455C340.73 90.3135 341.111 99.8121 331.905 106.023C339.442 105.081 340.046 114.099 328.853 119.971C335.829 120.484 339.015 129.571 322.603 137.775C327.411 141.024 328.733 145.227 313.358 153.718C320.149 154.38 320.123 163.494 306.135 166.234C311.751 171.77 306.907 177.24 293.657 176.462C298.562 180.342 295.434 186.064 286.071 186.235C285.066 192.593 282.227 196.265 273.679 192.252C271.713 197.656 268.436 199.253 263.088 194.816C260.517 200.095 257.369 199.568 253.692 193.802C250.752 198.364 247.686 199.59 244.393 193.418C241.482 196.745 238.802 196.552 236.418 192.284C233.923 196.896 232.122 195.903 230.585 193.59Z" fill="#EAEBEB"/>
<path fill-rule="evenodd" clip-rule="evenodd" d="M333.684 79.5481C343.307 74.6224 344.845 85.3222 331.066 92.6447C340.731 90.3127 341.112 99.8113 331.906 106.023C339.442 105.08 340.047 114.098 328.854 119.97C335.83 120.484 339.016 129.57 322.604 137.774C327.412 141.024 328.734 145.226 313.358 153.718C320.149 154.379 320.124 163.493 306.136 166.233C311.752 171.77 306.908 177.24 293.658 176.462C298.562 180.341 295.434 186.063 286.072 186.234C285.066 192.592 282.228 196.265 273.68 192.252C271.714 197.656 268.436 199.252 263.089 194.816C260.517 200.094 257.369 199.567 253.693 193.801C250.753 198.363 247.687 199.589 244.394 193.417C241.482 196.744 238.803 196.551 236.419 192.283C237.378 189.297 238.325 186.422 239.321 183.609C241.712 176.453 239.893 177.596 246.653 176.059C269.774 171.208 277.92 155.533 275.07 132.133C273.973 122.497 272.954 125.026 282.476 120.483C296.193 113.21 318.449 95.2031 333.684 79.5481Z" fill="#D7D8D8"/>
</g>
<g clip-path="url(#clip2)">
<path d="M118.484 151.683L116.895 158.457L123.23 159.541L124.818 152.789L118.484 151.683Z" fill="white"/>
<path d="M138.353 120.208L134.322 137.374L150.931 140.267L154.963 123.08L138.353 120.208Z" fill="white"/>
<path d="M120.297 144.454L129.342 105.871L169.722 112.885L159.943 154.603L159.138 154.461L119.563 147.588L120.297 144.454ZM155.351 147.29L162.197 118.068L133.914 113.161L127.068 142.383L155.351 147.29Z" fill="white"/>
<path d="M152.172 158.7L150.585 165.453L144.06 164.312L142.468 171.129L149.014 172.271L150.605 165.475L156.919 166.558L158.506 159.806L152.172 158.7Z" fill="white"/>
<path d="M107.446 212.321L105.857 219.095L120.539 221.64L122.126 214.887L107.446 212.321Z" fill="white"/>
<path d="M193.593 117.099L190.388 130.731L196.934 131.873L200.139 118.241L193.593 117.099Z" fill="white"/>
<path d="M216.635 133.785L212.603 150.973L229.213 153.845L233.244 136.679L216.635 133.785Z" fill="white"/>
<path d="M198.577 158.053L207.645 119.45L248.003 126.464L238.224 168.181L237.419 168.039L197.845 161.166L198.577 158.053ZM233.631 160.889L240.499 131.669L212.216 126.762L205.369 155.983L233.631 160.889Z" fill="white"/>
<path d="M178.911 114.555L175.728 128.188L174.14 134.94L188.822 137.485L185.675 150.907L167.604 147.762L166.016 154.536L184.088 157.66L182.902 162.666L164.851 159.543L163.263 166.296L160.143 179.634L153.788 178.527L152.231 185.154L150.704 191.654L147.524 205.245L141.528 204.205L143.093 197.472L144.681 190.698L147.459 178.876L140.913 177.734L142.469 171.129L134.334 169.704L137.813 154.916L131.246 153.772L127.788 168.562L126.2 175.336L140.882 177.881L138.134 189.578L120.106 186.435L121.667 179.745L115.312 178.638L113.723 185.412L120.057 186.518L118.496 193.208L136.547 196.33L134.961 203.062L116.953 199.942L118.537 193.232L112.181 192.125L110.593 198.899L116.907 199.982L115.323 206.692L123.712 208.155L122.128 214.866L128.672 216.029L130.259 209.276L139.601 210.913L152.376 213.132L150.878 219.528L150.238 222.241L144.413 221.214L142.817 228.094L130.466 225.947L128.877 232.722L141.23 234.847L142.076 235.013L145.721 235.631L147.776 235.989L170.318 239.896L171.905 233.143L155.189 230.242L157.364 220.922L169.248 222.993L170.805 216.367L176.97 217.439L178.559 210.665L172.075 209.549L173.66 202.839L179.994 203.944L181.582 197.17L175.227 196.063L173.641 202.795L167.328 201.69L165.744 208.4L154.07 206.387L157.19 193.048L169.074 195.12L170.631 188.493L176.796 189.566L183.111 190.649L184.672 183.958L186.261 177.184L179.905 176.077L178.342 182.789L166.691 180.755L169.809 167.438L187.86 170.561L186.276 177.271L192.165 178.303L190.581 185.013L196.894 186.117L195.332 192.808L201.668 193.892L203.255 187.139L196.942 186.035L198.499 179.409L203.118 180.202L205.173 180.559L214.664 182.207L211.484 195.797L218.031 196.918L221.21 183.349L227.651 184.462L226.088 191.174L232.444 192.281L234.011 185.505L227.718 184.424L229.278 177.755L235.591 178.859L237.18 172.085L230.824 170.978L229.261 177.689L206.762 173.785L208.378 166.928L201.832 165.786L200.216 172.643L187.885 170.52L189.419 163.913L190.634 158.802L192.223 152.028L195.4 138.48L188.854 137.338L190.41 130.732L182.275 129.308L185.457 115.696L178.911 114.555Z" fill="white"/>
<path d="M198.285 214.974L194.254 232.14L210.884 235.035L214.915 217.869L198.285 214.974Z" fill="white"/>
<path d="M179.572 239.11L188.617 200.528L228.975 207.541L219.196 249.258L218.391 249.116L178.816 242.244L179.572 239.11ZM214.625 241.947L221.472 212.725L193.189 207.818L186.342 237.039L214.625 241.947Z" fill="white"/>
</g>
<defs>
<clipPath id="clip0">
<rect width="177.933" height="73.9409" fill="white" transform="translate(64.8354) rotate(60.5)"/>
</clipPath>
<clipPath id="clip1">
<rect width="177.933" height="73.9409" fill="white" transform="matrix(-0.782608 0.622515 0.622515 0.782608 343.684 50.071)"/>
</clipPath>
<clipPath id="clip2">
<rect width="135.339" height="136.749" fill="white" transform="matrix(-0.997564 -0.0697565 -0.0697565 0.997564 248.859 114.229)"/>
</clipPath>
</defs>
</svg>
