<svg width="341" height="417" viewBox="0 0 341 417" fill="none" xmlns="http://www.w3.org/2000/svg">
<ellipse cx="157" cy="287.5" rx="129.5" ry="157" transform="rotate(-90 157 287.5)" fill="#424FD3"/>
<g clip-path="url(#clip0)">
<path d="M82.6228 323.042L141.746 304.02L129.343 288.917L68.8702 308.454L82.6228 323.042Z" fill="url(#paint0_linear)"/>
<path d="M228.503 182.303L141.746 304.02L129.343 288.918L214.365 169.707L228.503 182.303Z" fill="url(#paint1_linear)"/>
<path d="M68.9347 309.161L148.944 181.082L214.365 169.707L129.343 288.918L68.9347 309.161Z" fill="url(#paint2_linear)"/>
<path d="M165.717 196.12L228.503 182.303L214.237 169L148.88 180.375L165.717 196.12Z" fill="url(#paint3_linear)"/>
<path d="M165.717 196.119L82.6228 323.042L68.8702 308.454L148.879 180.375L165.717 196.119Z" fill="url(#paint4_linear)"/>
<path d="M226.511 184.166L165.717 197.533L84.2936 321.564L82.6227 322.977L165.717 196.119L228.567 182.238L157.362 284.29L156.398 284.419L226.511 184.166Z" fill="url(#paint5_linear)"/>
<path d="M340.13 294.252L214.108 291.81V188.858L340.13 191.236V294.252Z" fill="url(#paint6_linear)"/>
<path d="M214.108 315.138L153.507 323.299V202.225L214.108 188.858V315.138Z" fill="url(#paint7_linear)"/>
<path d="M214.236 190.143L163.724 201.261L286.277 205.824L331.776 192.392L214.236 190.143ZM214.108 188.858L340.13 191.236L286.47 207.173L153.571 202.225L214.108 188.858Z" fill="url(#paint8_linear)"/>
<path d="M286.47 340.715L153.507 328.183V202.225L286.47 207.109V340.715Z" fill="url(#paint9_linear)"/>
<path d="M286.47 340.715L340.13 316.809V191.236L286.47 207.109V340.715Z" fill="url(#paint10_linear)"/>
<path d="M286.47 342L154.149 329.468L153.507 328.183L286.47 340.715V342Z" fill="url(#paint11_linear)"/>
<path d="M340.13 316.809L339.488 318.094L286.47 342V340.715L340.13 316.809Z" fill="url(#paint12_linear)"/>
<g opacity="0.5">
<path opacity="0.1667" d="M153.506 202.032L166.809 202.61L153.506 222.275V202.032Z" fill="url(#paint13_linear)"/>
<path opacity="0.3333" d="M153.506 202.032L166.23 202.546L153.506 221.375V202.032Z" fill="url(#paint14_linear)"/>
<path opacity="0.5" d="M153.506 202.032L165.588 202.482L153.506 220.476V202.032Z" fill="url(#paint15_linear)"/>
<path opacity="0.6667" d="M153.506 201.968L164.945 202.418L153.506 219.512V201.968Z" fill="url(#paint16_linear)"/>
<path opacity="0.8333" d="M153.506 201.968L164.303 202.418L153.506 218.612V201.968Z" fill="url(#paint17_linear)"/>
<path opacity="0.5" d="M153.507 201.968L163.725 202.353L153.507 217.648V201.968Z" fill="black"/>
</g>
</g>
<path d="M273.697 150.211C270.664 153.257 266.839 154.779 262.223 154.779C257.606 154.779 253.749 153.257 250.649 150.211C247.55 147.099 246 143.326 246 138.89C246 134.454 247.55 130.713 250.649 127.668C253.749 124.556 257.606 123 262.223 123C266.839 123 270.664 124.523 273.697 127.568C276.796 130.614 278.346 134.388 278.346 138.89C278.346 143.326 276.796 147.099 273.697 150.211ZM262.124 146.04C264.234 146.04 265.948 145.345 267.267 143.954C268.586 142.564 269.246 140.876 269.246 138.89C269.246 136.837 268.586 135.116 267.267 133.726C265.948 132.335 264.234 131.64 262.124 131.64C260.079 131.64 258.398 132.335 257.079 133.726C255.76 135.116 255.1 136.837 255.1 138.89C255.1 140.876 255.76 142.564 257.079 143.954C258.398 145.345 260.079 146.04 262.124 146.04ZM251.836 183.579L297.437 132.633L302.779 135.712L257.178 186.757L251.836 183.579ZM293.876 195C289.26 195 285.402 193.477 282.303 190.432C279.204 187.32 277.654 183.546 277.654 179.11C277.654 174.674 279.204 170.934 282.303 167.888C285.402 164.777 289.26 163.221 293.876 163.221C298.427 163.221 302.251 164.777 305.351 167.888C308.45 170.934 310 174.674 310 179.11C310 183.546 308.45 187.32 305.351 190.432C302.251 193.477 298.427 195 293.876 195ZM293.777 186.261C295.888 186.261 297.602 185.566 298.921 184.175C300.24 182.785 300.9 181.097 300.9 179.11C300.9 177.058 300.24 175.337 298.921 173.946C297.602 172.556 295.888 171.861 293.777 171.861C291.733 171.861 290.052 172.556 288.733 173.946C287.414 175.337 286.754 177.058 286.754 179.11C286.754 181.097 287.414 182.785 288.733 184.175C290.052 185.566 291.733 186.261 293.777 186.261Z" fill="#EA5616"/>
<path d="M207.937 46.6759C205.425 49.2138 202.257 50.4828 198.434 50.4828C194.612 50.4828 191.417 49.2138 188.85 46.6759C186.283 44.0828 185 40.9379 185 37.2414C185 33.5448 186.283 30.4276 188.85 27.8897C191.417 25.2966 194.612 24 198.434 24C202.257 24 205.425 25.269 207.937 27.8069C210.503 30.3448 211.787 33.4897 211.787 37.2414C211.787 40.9379 210.503 44.0828 207.937 46.6759ZM198.352 43.2C200.1 43.2 201.52 42.6207 202.612 41.4621C203.704 40.3035 204.25 38.8966 204.25 37.2414C204.25 35.531 203.704 34.0966 202.612 32.9379C201.52 31.7793 200.1 31.2 198.352 31.2C196.659 31.2 195.267 31.7793 194.175 32.9379C193.082 34.0966 192.536 35.531 192.536 37.2414C192.536 38.8966 193.082 40.3035 194.175 41.4621C195.267 42.6207 196.659 43.2 198.352 43.2ZM189.833 74.4828L227.597 32.0276L232.02 34.5931L194.257 77.131L189.833 74.4828ZM224.648 84C220.825 84 217.63 82.731 215.063 80.1931C212.497 77.6 211.213 74.4552 211.213 70.7586C211.213 67.0621 212.497 63.9448 215.063 61.4069C217.63 58.8138 220.825 57.5172 224.648 57.5172C228.416 57.5172 231.583 58.8138 234.15 61.4069C236.717 63.9448 238 67.0621 238 70.7586C238 74.4552 236.717 77.6 234.15 80.1931C231.583 82.731 228.416 84 224.648 84ZM224.566 76.7173C226.313 76.7173 227.733 76.1379 228.825 74.9793C229.918 73.8207 230.464 72.4138 230.464 70.7586C230.464 69.0483 229.918 67.6138 228.825 66.4552C227.733 65.2966 226.313 64.7173 224.566 64.7173C222.873 64.7173 221.48 65.2966 220.388 66.4552C219.296 67.6138 218.75 69.0483 218.75 70.7586C218.75 72.4138 219.296 73.8207 220.388 74.9793C221.48 76.1379 222.873 76.7173 224.566 76.7173Z" fill="#EA5616"/>
<path d="M303.849 13.6055C302.332 15.1283 300.419 15.8897 298.111 15.8897C295.803 15.8897 293.874 15.1283 292.325 13.6055C290.775 12.0497 290 10.1628 290 7.94483C290 5.7269 290.775 3.85655 292.325 2.3338C293.874 0.777931 295.803 0 298.111 0C300.419 0 302.332 0.761379 303.849 2.28414C305.398 3.8069 306.173 5.69379 306.173 7.94483C306.173 10.1628 305.398 12.0497 303.849 13.6055ZM298.062 11.52C299.117 11.52 299.974 11.1724 300.634 10.4772C301.293 9.78207 301.623 8.93793 301.623 7.94483C301.623 6.91862 301.293 6.05793 300.634 5.36276C299.974 4.66759 299.117 4.32 298.062 4.32C297.04 4.32 296.199 4.66759 295.539 5.36276C294.88 6.05793 294.55 6.91862 294.55 7.94483C294.55 8.93793 294.88 9.78207 295.539 10.4772C296.199 11.1724 297.04 11.52 298.062 11.52ZM292.918 30.2897L315.719 4.81655L318.389 6.35586L295.589 31.8786L292.918 30.2897ZM313.938 36C311.63 36 309.701 35.2386 308.151 33.7159C306.602 32.16 305.827 30.2731 305.827 28.0552C305.827 25.8372 306.602 23.9669 308.151 22.4441C309.701 20.8883 311.63 20.1103 313.938 20.1103C316.213 20.1103 318.126 20.8883 319.675 22.4441C321.225 23.9669 322 25.8372 322 28.0552C322 30.2731 321.225 32.16 319.675 33.7159C318.126 35.2386 316.213 36 313.938 36ZM313.889 31.6303C314.944 31.6303 315.801 31.2828 316.461 30.5876C317.12 29.8924 317.45 29.0483 317.45 28.0552C317.45 27.029 317.12 26.1683 316.461 25.4731C315.801 24.7779 314.944 24.4303 313.889 24.4303C312.867 24.4303 312.026 24.7779 311.366 25.4731C310.707 26.1683 310.377 27.029 310.377 28.0552C310.377 29.0483 310.707 29.8924 311.366 30.5876C312.026 31.2828 312.867 31.6303 313.889 31.6303Z" fill="#EA5616"/>
<defs>
<linearGradient id="paint0_linear" x1="141.186" y1="300.484" x2="69.3527" y2="311.672" gradientUnits="userSpaceOnUse">
<stop stop-color="#ADADAD"/>
<stop offset="0.5714" stop-color="#D1D1D1"/>
<stop offset="1" stop-color="#E0E0E0"/>
</linearGradient>
<linearGradient id="paint1_linear" x1="235.635" y1="227.907" x2="122.614" y2="245.51" gradientUnits="userSpaceOnUse">
<stop stop-color="#8A8A8A"/>
<stop offset="1" stop-color="#ADADAD"/>
</linearGradient>
<linearGradient id="paint2_linear" x1="223.228" y1="226.74" x2="60.082" y2="252.151" gradientUnits="userSpaceOnUse">
<stop stop-color="#4F4F4F"/>
<stop offset="0.1464" stop-color="#666666"/>
<stop offset="1" stop-color="#B5B5B5"/>
</linearGradient>
<linearGradient id="paint3_linear" x1="227.66" y1="176.702" x2="150.163" y2="188.773" gradientUnits="userSpaceOnUse">
<stop stop-color="#DEDEDE"/>
<stop offset="1" stop-color="white"/>
</linearGradient>
<linearGradient id="paint4_linear" x1="172.96" y1="242.791" x2="61.3322" y2="260.177" gradientUnits="userSpaceOnUse">
<stop stop-color="#A3A3A3"/>
<stop offset="1" stop-color="#E0E0E0"/>
</linearGradient>
<linearGradient id="paint5_linear" x1="194.991" y1="246.52" x2="116.417" y2="258.758" gradientUnits="userSpaceOnUse">
<stop stop-color="#BABABA"/>
<stop offset="1" stop-color="white"/>
</linearGradient>
<linearGradient id="paint6_linear" x1="340.13" y1="241.531" x2="214.109" y2="241.531" gradientUnits="userSpaceOnUse">
<stop stop-color="#616161"/>
<stop offset="0.4429" stop-color="#9C9C9C"/>
<stop offset="1" stop-color="#B0B0B0"/>
</linearGradient>
<linearGradient id="paint7_linear" x1="214.109" y1="256.08" x2="153.517" y2="256.08" gradientUnits="userSpaceOnUse">
<stop stop-color="#C9C9C9"/>
<stop offset="0.3552" stop-color="#C1C1C1"/>
<stop offset="0.9241" stop-color="#A9A9A9"/>
<stop offset="1" stop-color="#A6A6A6"/>
</linearGradient>
<linearGradient id="paint8_linear" x1="248.837" y1="190.667" x2="244.277" y2="204.346" gradientUnits="userSpaceOnUse">
<stop stop-color="#DEDEDE"/>
<stop offset="1" stop-color="white"/>
</linearGradient>
<linearGradient id="paint9_linear" x1="281.58" y1="235.249" x2="157.065" y2="308.46" gradientUnits="userSpaceOnUse">
<stop stop-color="#ADADAD"/>
<stop offset="0.5714" stop-color="#D1D1D1"/>
<stop offset="1" stop-color="#E0E0E0"/>
</linearGradient>
<linearGradient id="paint10_linear" x1="337.82" y1="271.357" x2="292.548" y2="261.434" gradientUnits="userSpaceOnUse">
<stop stop-color="#DEDEDE"/>
<stop offset="1" stop-color="white"/>
</linearGradient>
<linearGradient id="paint11_linear" x1="308.608" y1="282.99" x2="184.726" y2="355.828" gradientUnits="userSpaceOnUse">
<stop stop-color="#4F4F4F"/>
<stop offset="1" stop-color="#CFCFCF"/>
</linearGradient>
<linearGradient id="paint12_linear" x1="324.619" y1="331.91" x2="279.608" y2="322.044" gradientUnits="userSpaceOnUse">
<stop stop-color="#C7C7C7"/>
<stop offset="1" stop-color="#BDBDBD"/>
</linearGradient>
<linearGradient id="paint13_linear" x1="166.827" y1="212.164" x2="141.238" y2="212.164" gradientUnits="userSpaceOnUse">
<stop stop-color="#999B9D"/>
<stop offset="1" stop-color="#BCBDBE"/>
</linearGradient>
<linearGradient id="paint14_linear" x1="166.2" y1="211.696" x2="141.816" y2="211.696" gradientUnits="userSpaceOnUse">
<stop stop-color="#7A7C7D"/>
<stop offset="1" stop-color="#979798"/>
</linearGradient>
<linearGradient id="paint15_linear" x1="165.574" y1="211.227" x2="142.393" y2="211.227" gradientUnits="userSpaceOnUse">
<stop stop-color="#5C5D5E"/>
<stop offset="1" stop-color="#717272"/>
</linearGradient>
<linearGradient id="paint16_linear" x1="164.948" y1="210.759" x2="142.971" y2="210.759" gradientUnits="userSpaceOnUse">
<stop stop-color="#3D3E3F"/>
<stop offset="1" stop-color="#4B4C4C"/>
</linearGradient>
<linearGradient id="paint17_linear" x1="164.321" y1="210.291" x2="143.549" y2="210.291" gradientUnits="userSpaceOnUse">
<stop stop-color="#1F1F1F"/>
<stop offset="1" stop-color="#262626"/>
</linearGradient>
<clipPath id="clip0">
<rect width="271.26" height="173" fill="white" transform="matrix(-1 0 0 1 340.13 169)"/>
</clipPath>
</defs>
</svg>
