<svg width="201" height="417" viewBox="0 0 201 417" fill="none" xmlns="http://www.w3.org/2000/svg">
<ellipse cx="17" cy="287.5" rx="129.5" ry="157" transform="rotate(-90 17 287.5)" fill="#424FD3"/>
<g clip-path="url(#clip0)">
<path d="M-57.3772 323.042L1.74609 304.02L-10.6569 288.917L-71.1298 308.454L-57.3772 323.042Z" fill="url(#paint0_linear)"/>
<path d="M88.5032 182.303L1.74609 304.02L-10.657 288.918L74.365 169.707L88.5032 182.303Z" fill="url(#paint1_linear)"/>
<path d="M-71.0655 309.161L8.94375 181.082L74.365 169.707L-10.6569 288.918L-71.0655 309.161Z" fill="url(#paint2_linear)"/>
<path d="M25.7172 196.12L88.5037 182.303L74.2369 169L8.87993 180.375L25.7172 196.12Z" fill="url(#paint3_linear)"/>
<path d="M25.7168 196.119L-57.3772 323.042L-71.1298 308.454L8.87949 180.375L25.7168 196.119Z" fill="url(#paint4_linear)"/>
<path d="M86.5109 184.166L25.7167 197.533L-55.7064 321.564L-57.3773 322.977L25.7167 196.119L88.5674 182.238L17.3623 284.29L16.3984 284.419L86.5109 184.166Z" fill="url(#paint5_linear)"/>
<path d="M200.13 294.252L74.1077 291.81V188.858L200.13 191.236V294.252Z" fill="url(#paint6_linear)"/>
<path d="M74.1077 315.138L13.5063 323.299V202.225L74.1077 188.858V315.138Z" fill="url(#paint7_linear)"/>
<path d="M74.2362 190.143L23.7243 201.261L146.277 205.824L191.776 192.392L74.2362 190.143ZM74.1077 188.858L200.13 191.236L146.47 207.173L13.5706 202.225L74.1077 188.858Z" fill="url(#paint8_linear)"/>
<path d="M146.469 340.715L13.5063 328.183V202.225L146.469 207.109V340.715Z" fill="url(#paint9_linear)"/>
<path d="M146.47 340.715L200.13 316.809V191.236L146.47 207.109V340.715Z" fill="url(#paint10_linear)"/>
<path d="M146.469 342L14.1489 329.468L13.5063 328.183L146.469 340.715V342Z" fill="url(#paint11_linear)"/>
<path d="M200.13 316.809L199.488 318.094L146.47 342V340.715L200.13 316.809Z" fill="url(#paint12_linear)"/>
<g opacity="0.5">
<path opacity="0.1667" d="M13.5063 202.032L26.8091 202.61L13.5063 222.275V202.032Z" fill="url(#paint13_linear)"/>
<path opacity="0.3333" d="M13.5064 202.032L26.2307 202.546L13.5064 221.375V202.032Z" fill="url(#paint14_linear)"/>
<path opacity="0.5" d="M13.5062 202.032L25.5879 202.482L13.5062 220.476V202.032Z" fill="url(#paint15_linear)"/>
<path opacity="0.6667" d="M13.5063 201.968L24.9453 202.418L13.5063 219.512V201.968Z" fill="url(#paint16_linear)"/>
<path opacity="0.8333" d="M13.5063 201.968L24.3027 202.418L13.5063 218.612V201.968Z" fill="url(#paint17_linear)"/>
<path opacity="0.5" d="M13.5063 201.968L23.7244 202.353L13.5063 217.648V201.968Z" fill="black"/>
</g>
</g>
<path d="M133.697 150.211C130.664 153.257 126.839 154.779 122.223 154.779C117.606 154.779 113.749 153.257 110.649 150.211C107.55 147.099 106 143.326 106 138.89C106 134.454 107.55 130.713 110.649 127.668C113.749 124.556 117.606 123 122.223 123C126.839 123 130.664 124.523 133.697 127.568C136.796 130.614 138.346 134.388 138.346 138.89C138.346 143.326 136.796 147.099 133.697 150.211ZM122.124 146.04C124.234 146.04 125.948 145.345 127.267 143.954C128.586 142.564 129.246 140.876 129.246 138.89C129.246 136.837 128.586 135.116 127.267 133.726C125.948 132.335 124.234 131.64 122.124 131.64C120.079 131.64 118.398 132.335 117.079 133.726C115.76 135.116 115.1 136.837 115.1 138.89C115.1 140.876 115.76 142.564 117.079 143.954C118.398 145.345 120.079 146.04 122.124 146.04ZM111.836 183.579L157.437 132.633L162.779 135.712L117.178 186.757L111.836 183.579ZM153.876 195C149.26 195 145.402 193.477 142.303 190.432C139.204 187.32 137.654 183.546 137.654 179.11C137.654 174.674 139.204 170.934 142.303 167.888C145.402 164.777 149.26 163.221 153.876 163.221C158.427 163.221 162.251 164.777 165.351 167.888C168.45 170.934 170 174.674 170 179.11C170 183.546 168.45 187.32 165.351 190.432C162.251 193.477 158.427 195 153.876 195ZM153.777 186.261C155.888 186.261 157.602 185.566 158.921 184.175C160.24 182.785 160.9 181.097 160.9 179.11C160.9 177.058 160.24 175.337 158.921 173.946C157.602 172.556 155.888 171.861 153.777 171.861C151.733 171.861 150.052 172.556 148.733 173.946C147.414 175.337 146.754 177.058 146.754 179.11C146.754 181.097 147.414 182.785 148.733 184.175C150.052 185.566 151.733 186.261 153.777 186.261Z" fill="#EA5616"/>
<path d="M67.9366 46.6759C65.4245 49.2138 62.2571 50.4828 58.4343 50.4828C54.6115 50.4828 51.4168 49.2138 48.8501 46.6759C46.2834 44.0828 45 40.9379 45 37.2414C45 33.5448 46.2834 30.4276 48.8501 27.8897C51.4168 25.2966 54.6115 24 58.4343 24C62.2571 24 65.4245 25.269 67.9366 27.8069C70.5033 30.3448 71.7867 33.4897 71.7867 37.2414C71.7867 40.9379 70.5033 44.0828 67.9366 46.6759ZM58.3524 43.2C60.0999 43.2 61.5198 42.6207 62.6121 41.4621C63.7043 40.3035 64.2504 38.8966 64.2504 37.2414C64.2504 35.531 63.7043 34.0966 62.6121 32.9379C61.5198 31.7793 60.0999 31.2 58.3524 31.2C56.6595 31.2 55.2669 31.7793 54.1747 32.9379C53.0824 34.0966 52.5363 35.531 52.5363 37.2414C52.5363 38.8966 53.0824 40.3035 54.1747 41.4621C55.2669 42.6207 56.6595 43.2 58.3524 43.2ZM49.8331 74.4828L87.5966 32.0276L92.0201 34.5931L54.2566 77.131L49.8331 74.4828ZM84.6476 84C80.8248 84 77.6301 82.731 75.0634 80.1931C72.4967 77.6 71.2133 74.4552 71.2133 70.7586C71.2133 67.0621 72.4967 63.9448 75.0634 61.4069C77.6301 58.8138 80.8248 57.5172 84.6476 57.5172C88.4158 57.5172 91.5832 58.8138 94.1499 61.4069C96.7166 63.9448 98 67.0621 98 70.7586C98 74.4552 96.7166 77.6 94.1499 80.1931C91.5832 82.731 88.4158 84 84.6476 84ZM84.5657 76.7173C86.3132 76.7173 87.7331 76.1379 88.8253 74.9793C89.9176 73.8207 90.4637 72.4138 90.4637 70.7586C90.4637 69.0483 89.9176 67.6138 88.8253 66.4552C87.7331 65.2966 86.3132 64.7173 84.5657 64.7173C82.8727 64.7173 81.4802 65.2966 80.3879 66.4552C79.2957 67.6138 78.7496 69.0483 78.7496 70.7586C78.7496 72.4138 79.2957 73.8207 80.3879 74.9793C81.4802 76.1379 82.8727 76.7173 84.5657 76.7173Z" fill="#EA5616"/>
<path d="M163.849 13.6055C162.332 15.1283 160.419 15.8897 158.111 15.8897C155.803 15.8897 153.874 15.1283 152.325 13.6055C150.775 12.0497 150 10.1628 150 7.94483C150 5.7269 150.775 3.85655 152.325 2.3338C153.874 0.777931 155.803 0 158.111 0C160.419 0 162.332 0.761379 163.849 2.28414C165.398 3.8069 166.173 5.69379 166.173 7.94483C166.173 10.1628 165.398 12.0497 163.849 13.6055ZM158.062 11.52C159.117 11.52 159.974 11.1724 160.634 10.4772C161.293 9.78207 161.623 8.93793 161.623 7.94483C161.623 6.91862 161.293 6.05793 160.634 5.36276C159.974 4.66759 159.117 4.32 158.062 4.32C157.04 4.32 156.199 4.66759 155.539 5.36276C154.88 6.05793 154.55 6.91862 154.55 7.94483C154.55 8.93793 154.88 9.78207 155.539 10.4772C156.199 11.1724 157.04 11.52 158.062 11.52ZM152.918 30.2897L175.719 4.81655L178.389 6.35586L155.589 31.8786L152.918 30.2897ZM173.938 36C171.63 36 169.701 35.2386 168.151 33.7159C166.602 32.16 165.827 30.2731 165.827 28.0552C165.827 25.8372 166.602 23.9669 168.151 22.4441C169.701 20.8883 171.63 20.1103 173.938 20.1103C176.213 20.1103 178.126 20.8883 179.675 22.4441C181.225 23.9669 182 25.8372 182 28.0552C182 30.2731 181.225 32.16 179.675 33.7159C178.126 35.2386 176.213 36 173.938 36ZM173.889 31.6303C174.944 31.6303 175.801 31.2828 176.461 30.5876C177.12 29.8924 177.45 29.0483 177.45 28.0552C177.45 27.029 177.12 26.1683 176.461 25.4731C175.801 24.7779 174.944 24.4303 173.889 24.4303C172.867 24.4303 172.026 24.7779 171.366 25.4731C170.707 26.1683 170.377 27.029 170.377 28.0552C170.377 29.0483 170.707 29.8924 171.366 30.5876C172.026 31.2828 172.867 31.6303 173.889 31.6303Z" fill="#EA5616"/>
<defs>
<linearGradient id="paint0_linear" x1="1.18573" y1="300.484" x2="-70.6473" y2="311.672" gradientUnits="userSpaceOnUse">
<stop stop-color="#ADADAD"/>
<stop offset="0.5714" stop-color="#D1D1D1"/>
<stop offset="1" stop-color="#E0E0E0"/>
</linearGradient>
<linearGradient id="paint1_linear" x1="95.6348" y1="227.907" x2="-17.3865" y2="245.51" gradientUnits="userSpaceOnUse">
<stop stop-color="#8A8A8A"/>
<stop offset="1" stop-color="#ADADAD"/>
</linearGradient>
<linearGradient id="paint2_linear" x1="83.2277" y1="226.74" x2="-79.9182" y2="252.151" gradientUnits="userSpaceOnUse">
<stop stop-color="#4F4F4F"/>
<stop offset="0.1464" stop-color="#666666"/>
<stop offset="1" stop-color="#B5B5B5"/>
</linearGradient>
<linearGradient id="paint3_linear" x1="87.66" y1="176.702" x2="10.1637" y2="188.773" gradientUnits="userSpaceOnUse">
<stop stop-color="#DEDEDE"/>
<stop offset="1" stop-color="white"/>
</linearGradient>
<linearGradient id="paint4_linear" x1="32.9599" y1="242.791" x2="-78.6678" y2="260.177" gradientUnits="userSpaceOnUse">
<stop stop-color="#A3A3A3"/>
<stop offset="1" stop-color="#E0E0E0"/>
</linearGradient>
<linearGradient id="paint5_linear" x1="54.9915" y1="246.52" x2="-23.5831" y2="258.758" gradientUnits="userSpaceOnUse">
<stop stop-color="#BABABA"/>
<stop offset="1" stop-color="white"/>
</linearGradient>
<linearGradient id="paint6_linear" x1="200.13" y1="241.531" x2="74.1089" y2="241.531" gradientUnits="userSpaceOnUse">
<stop stop-color="#616161"/>
<stop offset="0.4429" stop-color="#9C9C9C"/>
<stop offset="1" stop-color="#B0B0B0"/>
</linearGradient>
<linearGradient id="paint7_linear" x1="74.1089" y1="256.08" x2="13.517" y2="256.08" gradientUnits="userSpaceOnUse">
<stop stop-color="#C9C9C9"/>
<stop offset="0.3552" stop-color="#C1C1C1"/>
<stop offset="0.9241" stop-color="#A9A9A9"/>
<stop offset="1" stop-color="#A6A6A6"/>
</linearGradient>
<linearGradient id="paint8_linear" x1="108.837" y1="190.667" x2="104.277" y2="204.346" gradientUnits="userSpaceOnUse">
<stop stop-color="#DEDEDE"/>
<stop offset="1" stop-color="white"/>
</linearGradient>
<linearGradient id="paint9_linear" x1="141.58" y1="235.249" x2="17.0645" y2="308.46" gradientUnits="userSpaceOnUse">
<stop stop-color="#ADADAD"/>
<stop offset="0.5714" stop-color="#D1D1D1"/>
<stop offset="1" stop-color="#E0E0E0"/>
</linearGradient>
<linearGradient id="paint10_linear" x1="197.82" y1="271.357" x2="152.548" y2="261.434" gradientUnits="userSpaceOnUse">
<stop stop-color="#DEDEDE"/>
<stop offset="1" stop-color="white"/>
</linearGradient>
<linearGradient id="paint11_linear" x1="168.608" y1="282.99" x2="44.7259" y2="355.828" gradientUnits="userSpaceOnUse">
<stop stop-color="#4F4F4F"/>
<stop offset="1" stop-color="#CFCFCF"/>
</linearGradient>
<linearGradient id="paint12_linear" x1="184.619" y1="331.91" x2="139.608" y2="322.044" gradientUnits="userSpaceOnUse">
<stop stop-color="#C7C7C7"/>
<stop offset="1" stop-color="#BDBDBD"/>
</linearGradient>
<linearGradient id="paint13_linear" x1="26.8269" y1="212.164" x2="1.23821" y2="212.164" gradientUnits="userSpaceOnUse">
<stop stop-color="#999B9D"/>
<stop offset="1" stop-color="#BCBDBE"/>
</linearGradient>
<linearGradient id="paint14_linear" x1="26.2006" y1="211.696" x2="1.8159" y2="211.696" gradientUnits="userSpaceOnUse">
<stop stop-color="#7A7C7D"/>
<stop offset="1" stop-color="#979798"/>
</linearGradient>
<linearGradient id="paint15_linear" x1="25.5741" y1="211.227" x2="2.39338" y2="211.227" gradientUnits="userSpaceOnUse">
<stop stop-color="#5C5D5E"/>
<stop offset="1" stop-color="#717272"/>
</linearGradient>
<linearGradient id="paint16_linear" x1="24.9478" y1="210.759" x2="2.97127" y2="210.759" gradientUnits="userSpaceOnUse">
<stop stop-color="#3D3E3F"/>
<stop offset="1" stop-color="#4B4C4C"/>
</linearGradient>
<linearGradient id="paint17_linear" x1="24.3215" y1="210.291" x2="3.549" y2="210.291" gradientUnits="userSpaceOnUse">
<stop stop-color="#1F1F1F"/>
<stop offset="1" stop-color="#262626"/>
</linearGradient>
<clipPath id="clip0">
<rect width="271.26" height="173" fill="white" transform="matrix(-1 0 0 1 200.13 169)"/>
</clipPath>
</defs>
</svg>
