<svg width="397" height="334" viewBox="0 0 397 334" fill="none" xmlns="http://www.w3.org/2000/svg">
<ellipse cx="194.231" cy="176.945" rx="185.231" ry="140.945" fill="#424FD3"/>
<path d="M291.382 200.735C292.672 202.413 292.672 206.342 292.338 210.751C291.143 215.207 286.938 214.872 283.353 215.447C276.423 216.549 272.935 221.772 263.711 221.772C258.215 221.772 254.583 220.574 253.388 217.076C253.197 215.447 254.153 213.817 256.112 212.188C256.112 212.188 268.681 206.534 269.016 206.294C269.35 206.055 274.99 201.933 275.085 201.502C275.181 201.071 277.236 191.391 277.236 191.391H290.809L291.382 200.735Z" fill="black"/>
<path d="M273.938 202.604C280.963 206.821 291.191 210.511 292.242 205.336C292.576 203.754 292.911 202.221 293.246 200.64C296.256 185.832 297.642 171.648 294.918 159.189L301.8 135.661L303.712 129.143C303.855 114.001 297.212 109.017 285.742 111.317C285.264 111.413 284.834 111.509 284.356 111.605C283.687 111.749 283.018 111.94 282.349 112.132L281.011 120.422L275.228 156.074C273.508 169.923 276.28 190.624 273.938 202.604Z" fill="#323241"/>
<path d="M326.986 220.095C328.229 224.12 328.468 225.27 327.942 228.241C327.369 229.823 326.747 230.541 326.078 232.698C325.314 235.381 325.409 239.886 321.443 242.569C316.711 246.355 307.488 246.499 304.62 242.474C304.62 240.509 305.91 236.196 308.3 232.698L312.984 223.976L312.697 215.83L326.078 212.859L326.986 220.095Z" fill="black"/>
<path d="M282.301 102.836C282.349 104.082 282.492 105.327 282.779 106.525C285.647 118.218 299.506 127.754 300.988 130.054C301.179 130.389 302.182 136.331 302.326 136.667C302.612 138.44 302.947 140.261 303.282 142.082C305.432 153.966 302.708 164.987 305.91 178.357C309.686 194.314 311.31 209.409 311.693 224.024C317.619 226.756 324.74 225.51 327.464 221.485C327.798 221.005 328.037 220.526 328.228 219.999C328.181 213.482 328.133 206.869 327.989 200.688C327.655 187.845 326.795 176.728 323.927 171.84L330.092 129.335C332.53 117.403 332.53 106.765 328.945 98.0436H299.649C299.602 97.9957 282.301 102.836 282.301 102.836Z" fill="#323241"/>
<path opacity="0.5" d="M282.301 102.836C282.349 104.082 282.492 105.327 282.779 106.525C282.779 106.573 290.187 119.08 290.187 119.08C294.058 120.518 300.366 121.189 306.34 121.524C314.943 122.003 321.729 129.048 322.063 137.673L317.81 171.744C324.549 181.951 326.078 201.502 327.368 221.581C327.751 221.053 327.99 220.574 328.181 220.047C328.133 213.53 328.085 206.917 327.942 200.735C327.607 187.893 326.747 176.776 323.88 171.888L330.045 129.383C332.482 117.451 332.482 106.813 328.898 98.0916H299.649C299.602 97.9957 282.301 102.836 282.301 102.836Z" fill="#323241"/>
<path d="M253.962 97.4686L259.84 87.2138L266.196 76.0964L275.037 64.2603L277.045 61.5768L278.287 44.6132L274.082 29.231L254.487 64.0207L242.348 91.0474C240.293 97.6603 250.568 101.35 253.962 97.4686Z" fill="#E3F8FF"/>
<path opacity="0.5" d="M259.792 87.2137L266.148 76.1443L274.99 64.3082L273.938 43.7986L263.233 72.8858L259.792 87.2137Z" fill="#006FA6"/>
<path d="M278.526 83.0448C279.1 84.3386 282.541 101.829 282.35 102.836C282.875 103.554 283.449 104.177 284.022 104.848C299.411 121.86 326.461 115.343 330.188 98.3791C330.571 89.7535 328.659 70.0585 327.799 61.0017C327.751 60.4746 327.703 59.9954 327.655 59.5162C327.178 54.3409 326.317 49.9802 324.979 47.0571C316.759 34.9814 306.532 28.4643 296.878 23.1452L276.232 24.9661C271.883 29.806 273.365 36.5148 272.744 45.2362C272.696 45.2841 271.883 67.8542 278.526 83.0448Z" fill="#EA5616"/>
<path d="M285.647 41.3067C286.459 42.0735 286.746 42.361 287.654 42.4089C297.355 43.2235 301.991 30.8123 298.502 24.7745C295.635 19.5991 294.966 17.4907 294.966 17.4907L281.25 27.2184C281.25 27.2184 280.915 28.6559 281.632 30.7165C282.779 34.2625 283.161 39.1024 285.647 41.3067Z" fill="#FFB294"/>
<path opacity="0.5" d="M286.698 42.1693C291.19 43.1756 297.403 39.0545 294.345 24.5349L282.301 30.8123C283.496 34.3105 282.97 40.1087 286.698 42.1693Z" fill="#FFA175"/>
<path d="M294.823 20.6055C294.823 20.6055 295.778 27.8413 293.915 31.8666C292.099 35.8918 287.941 39.1504 286.22 39.965C284.452 40.7796 283.018 41.163 281.298 40.2525C279.625 39.342 273.986 27.0746 273.986 27.0746C272.122 22.1868 271.644 20.7013 271.166 17.7782C270.449 13.4654 269.876 3.49815 282.062 0.575051C287.941 -0.862539 293.007 1.86888 295.635 6.51709C297.738 10.2069 297.356 18.4012 297.356 18.4012L294.823 20.6055Z" fill="#FFB294"/>
<path d="M297.738 19.1199L293.389 24.1994L291.668 21.0847C291.095 19.5033 289.279 18.7366 287.75 19.5033C285.217 20.7492 281.107 22.1868 276.471 21.8034C272.074 21.4201 270.449 19.2158 270.449 19.2158C265.814 12.7945 273.03 3.59398 280.199 1.05424C288.897 -2.06054 294.679 2.39599 296.686 7.47547C298.55 12.0758 297.738 19.1199 297.738 19.1199Z" fill="black"/>
<path d="M294.775 15.1426C295.396 14.4718 296.447 14.0884 297.212 14.5676C297.642 14.8551 297.929 15.3343 298.024 15.8135C298.12 16.2927 298.12 16.8198 298.072 17.3469C297.977 18.2574 297.881 19.12 297.69 19.9825C297.547 20.7013 297.355 21.468 296.734 21.8993C296.113 22.3306 295.492 23.0973 294.918 22.666C294.345 22.2347 293.723 20.6055 293.628 19.8867C293.389 18.3532 293.675 16.3406 294.775 15.1426Z" fill="#FFB294"/>
<path d="M284.022 104.848C299.411 121.86 326.461 115.343 330.189 98.379C330.571 89.7535 328.659 70.0585 327.799 61.0017L315.134 58.8453C311.741 58.2703 308.444 60.4746 307.775 63.8769C306.054 72.3108 302.135 86.2554 302.135 86.2554L284.022 104.848Z" fill="#A82020"/>
<path d="M327.225 87.7888C326.174 93.9704 322.59 99.4333 317.285 102.788C310.116 108.059 301.418 112.803 291.478 118.649C286.316 121.572 278.574 110.838 281.011 108.25C288.18 101.542 296.878 94.8809 307.057 88.3159L308.348 63.0143C309.734 51.7053 309.638 39.2941 320.535 42.1693C331.144 48.1113 329.185 76.1922 327.225 87.7888Z" fill="#E3F8FF"/>
<path d="M315.182 150.947L314.895 248.943L252.576 285.266L252.862 187.27L315.182 150.947Z" fill="#C44B29"/>
<path d="M252.863 187.27L252.576 285.266L9.46289 144.526L9.74964 46.53L252.863 187.27Z" fill="#EA5616"/>
<path d="M315.182 150.947L252.862 187.27L9.74951 46.53L72.069 10.2069L315.182 150.947Z" fill="#E3F8FF"/>
<path d="M18.3042 46.53L169.037 133.792L222.802 102.452L72.0691 15.1905L18.3042 46.53Z" fill="#323241"/>
<path opacity="0.5" d="M9.74964 119.703L252.863 260.443L315.182 224.12L314.895 248.943L252.576 285.266L9.46289 144.526L9.74964 119.703Z" fill="#C42939"/>
<path d="M9.74964 101.877L252.863 242.617L315.182 206.294L314.895 216.118L252.576 252.441L9.46289 111.653L9.74964 101.877Z" fill="white"/>
<path d="M148.631 46.4821L154.27 50.2198L143.851 56.3056L133.385 50.2198L148.631 46.4821Z" fill="#B8EEFF"/>
<path d="M133.385 78.2528L143.851 84.2907V56.3056L133.385 50.2198V78.2528Z" fill="#04C5DB"/>
<path d="M138.212 40.4442L148.63 46.4821V44.9486L138.212 38.9108V40.4442Z" fill="#04C5DB"/>
<path d="M133.385 68.7168L143.851 74.7547V65.7937L133.385 59.7558V68.7168Z" fill="#E3F8FF"/>
<path d="M133.385 57.2161L143.851 63.3019V64.5478L133.385 58.5099V57.2161Z" fill="#E3F8FF"/>
<path d="M133.385 69.9627L143.851 76.0006V77.2944L133.385 71.2565V69.9627Z" fill="#E3F8FF"/>
<path d="M135.822 65.6499C135.822 66.8479 137.065 68.573 138.642 69.4835C140.171 70.394 141.462 70.1064 141.462 68.9085C141.462 67.7105 140.219 65.9854 138.642 65.0749C137.065 64.1644 135.822 64.404 135.822 65.6499Z" fill="#04C5DB"/>
<path d="M143.852 84.2907L154.27 78.2528V50.2198L143.852 56.3056V84.2907Z" fill="#00AFFF"/>
<path d="M143.852 74.7547L154.27 68.7168V59.7558L143.852 65.7937V74.7547Z" fill="#B8EEFF"/>
<path d="M143.852 63.3019L154.27 57.2161V58.5099L143.852 64.5478V63.3019Z" fill="#B8EEFF"/>
<path d="M143.852 76.0006L154.27 69.9627V71.2565L143.852 77.2944V76.0006Z" fill="#B8EEFF"/>
<path d="M146.241 68.8606C146.241 70.0586 147.484 70.3461 149.061 69.4356C150.59 68.5251 151.881 66.8 151.881 65.602C151.881 64.404 150.638 64.1165 149.061 65.027C147.484 65.9375 146.241 67.6626 146.241 68.8606Z" fill="#00AFFF"/>
<path d="M138.212 40.4442L148.63 46.4821L154.27 50.2198L141.414 47.2967L138.212 40.4442Z" fill="#00AFFF"/>
<path d="M138.212 40.4442L148.631 46.4821L143.851 56.3056L133.385 50.2198L138.212 40.4442Z" fill="#424FD3"/>
<path d="M165.166 56.066L170.805 59.8037L160.387 65.8895L149.968 59.8037L165.166 56.066Z" fill="#B8EEFF"/>
<path d="M149.968 87.8367L160.387 93.8746V65.8895L149.968 59.8037V87.8367Z" fill="#04C5DB"/>
<path d="M154.748 50.0281L165.166 56.066V54.5326L154.748 48.4947V50.0281Z" fill="#04C5DB"/>
<path d="M149.968 78.3007L160.387 84.3386V75.3776L149.968 69.3398V78.3007Z" fill="#E3F8FF"/>
<path d="M149.968 66.8L160.387 72.8379V74.1317L149.968 68.0939V66.8Z" fill="#E3F8FF"/>
<path d="M149.968 79.5466L160.387 85.5845V86.8784L149.968 80.8405V79.5466Z" fill="#E3F8FF"/>
<path d="M152.358 75.2339C152.358 76.4319 153.6 78.157 155.178 79.0674C156.707 79.9779 157.997 79.6904 157.997 78.4924C157.997 77.2944 156.755 75.5693 155.178 74.6588C153.6 73.7484 152.358 73.988 152.358 75.2339Z" fill="#04C5DB"/>
<path d="M160.387 93.8746L170.805 87.8367V59.8037L160.387 65.8895V93.8746Z" fill="#00AFFF"/>
<path d="M160.387 84.3386L170.805 78.3007V69.3398L160.387 75.3776V84.3386Z" fill="#B8EEFF"/>
<path d="M160.387 72.8379L170.805 66.8V68.0939L160.387 74.1317V72.8379Z" fill="#B8EEFF"/>
<path d="M160.387 85.5845L170.805 79.5466V80.8405L160.387 86.8784V85.5845Z" fill="#B8EEFF"/>
<path d="M162.776 78.4445C162.776 79.6425 164.019 79.93 165.596 79.0195C167.125 78.109 168.416 76.3839 168.416 75.186C168.416 73.988 167.173 73.7004 165.596 74.6109C164.067 75.5214 162.776 77.2465 162.776 78.4445Z" fill="#00AFFF"/>
<path d="M154.748 50.0281L165.166 56.066L170.805 59.8037L157.95 56.8806L154.748 50.0281Z" fill="#00AFFF"/>
<path d="M154.747 50.0281L165.166 56.066L160.387 65.8895L149.968 59.8037L154.747 50.0281Z" fill="#424FD3"/>
<path d="M184.139 73.7004H172.431L174.151 90.1848C174.199 90.4723 174.39 90.7598 174.725 90.9515L181.129 94.6892C181.893 95.1205 183.184 95.1205 183.948 94.6892C184.235 86.2075 183.805 82.1343 184.139 73.7004Z" fill="#EA5616"/>
<path d="M184.139 73.7004C183.805 82.1343 184.235 86.2075 184.044 94.6413L190.4 90.9515C190.782 90.7598 190.973 90.4723 190.973 90.1848L192.694 73.7004H184.139Z" fill="#EA5616"/>
<path d="M191.977 74.6109L184.235 79.0674C183.279 79.5946 181.75 79.5946 180.842 79.0674L173.1 74.6109C172.144 74.0838 172.144 73.1733 173.1 72.6462L180.842 68.1897C181.798 67.6626 183.327 67.6626 184.235 68.1897L191.977 72.6462C192.933 73.1733 192.933 74.0838 191.977 74.6109Z" fill="#333B1D"/>
<path d="M192.933 72.4066C192.79 72.2629 192.598 72.1191 192.359 71.9753L184.617 67.5188C183.47 66.8479 181.654 66.8479 180.459 67.5188L172.717 71.9753C172.526 72.1191 172.335 72.2629 172.144 72.4066H171.618V73.6046C171.618 74.2276 172 74.8505 172.67 75.2339L180.412 79.6904C180.985 80.0258 181.75 80.2175 182.467 80.2175C183.231 80.2175 183.948 80.0258 184.522 79.6904L192.264 75.2339C192.933 74.8505 193.315 74.2276 193.315 73.6046V72.4066H192.933ZM191.643 73.9401L183.9 78.3966C183.184 78.8279 181.941 78.8279 181.224 78.3966L173.482 73.9401C173.243 73.7963 173.147 73.6525 173.147 73.6046C173.147 73.5567 173.243 73.4129 173.482 73.2692L181.224 68.8126C181.559 68.621 182.084 68.5251 182.562 68.5251C183.04 68.5251 183.566 68.621 183.9 68.8126L191.643 73.2692C191.882 73.4129 191.977 73.5567 191.977 73.6046C191.977 73.6525 191.882 73.7963 191.643 73.9401Z" fill="#EA5616"/>
<path d="M192.933 70.969C192.79 70.8252 192.598 70.6815 192.359 70.5377L184.617 66.0812C183.47 65.4103 181.654 65.4103 180.459 66.0812L172.717 70.5377C172.526 70.6815 172.335 70.8252 172.144 70.969H171.618V72.167C171.618 72.79 172 73.4129 172.67 73.7963L180.412 78.2528C180.985 78.5882 181.75 78.7799 182.467 78.7799C183.231 78.7799 183.948 78.5882 184.522 78.2528L192.264 73.7963C192.933 73.4129 193.315 72.79 193.315 72.167V70.969H192.933Z" fill="#EA5616"/>
<path d="M182.562 77.5819C181.797 77.5819 181.08 77.3903 180.507 77.0548L172.765 72.5983C172.096 72.2149 171.713 71.592 171.713 70.969C171.713 70.3461 172.096 69.7231 172.765 69.3397L180.507 64.8832C181.654 64.2123 183.47 64.2123 184.665 64.8832L192.407 69.3397C193.076 69.7231 193.458 70.3461 193.458 70.969C193.458 71.592 193.076 72.2149 192.407 72.5983L184.665 77.0548C184.043 77.4382 183.327 77.5819 182.562 77.5819Z" fill="#EA5616"/>
<path d="M182.562 76.3839C183.136 76.3839 183.662 76.2402 184.044 76.0485L191.786 71.592C192.073 71.4003 192.264 71.2086 192.264 71.0169C192.264 70.8253 192.073 70.5857 191.786 70.4419L184.044 65.9854C183.662 65.7458 183.136 65.6499 182.562 65.6499C181.989 65.6499 181.463 65.7937 181.081 65.9854L173.339 70.4419C173.052 70.6336 172.861 70.8253 172.861 71.0169C172.861 71.2086 173.052 71.4482 173.339 71.592L181.081 76.0485C181.463 76.2402 181.989 76.3839 182.562 76.3839Z" fill="white"/>
<path d="M175.059 87.5013L181.702 91.5265L181.224 82.9968L174.581 78.9716L175.059 87.5013Z" fill="white"/>
<path d="M177.879 81.9905L180.46 83.5718V83.2364L177.831 81.703L177.879 81.9905Z" fill="#333B1D"/>
<path d="M177.927 82.9489L180.507 84.5303V84.2428L177.879 82.6614L177.927 82.9489Z" fill="#333B1D"/>
<path d="M177.974 83.9552L180.603 85.5366L180.555 85.2012L177.974 83.6198V83.9552Z" fill="#333B1D"/>
<path d="M178.022 84.9136L180.65 86.495L180.603 86.1596L178.022 84.6261V84.9136Z" fill="#333B1D"/>
<path d="M175.537 85.297L180.746 88.4597L180.698 88.1242L175.489 85.0095L175.537 85.297Z" fill="#333B1D"/>
<path d="M177.305 87.3096L180.794 89.4181V89.0826L177.257 86.9742L177.305 87.3096Z" fill="#333B1D"/>
<path d="M177.353 88.268L180.842 90.3764V90.0889L177.305 87.9805L177.353 88.268Z" fill="#333B1D"/>
<path d="M175.394 83.3323L177.497 84.6261L177.305 81.3676L175.25 80.1216L175.394 83.3323Z" fill="#EA5616"/>
<path d="M180.221 69.9148L183.47 71.7837L187.294 69.5794L184.044 67.6626L180.221 69.9148Z" fill="#EA5616"/>
<path d="M176.827 70.2023L183.422 73.988L184.139 73.5567L177.592 69.771L176.827 70.2023Z" fill="#333B1D"/>
<path d="M178.309 72.5504L182.084 74.7547L182.849 74.3234L179.025 72.1191L178.309 72.5504Z" fill="#333B1D"/>
<path d="M201.057 82.4218H189.348L191.069 98.9062C191.116 99.1937 191.308 99.4812 191.642 99.6729L198.046 103.411C198.811 103.842 200.101 103.842 200.866 103.411C201.153 94.9288 200.722 90.9036 201.057 82.4218Z" fill="#EA5616"/>
<path d="M201.057 82.4218C200.722 90.8557 201.152 94.9288 200.961 103.363L207.317 99.6729C207.7 99.4812 207.891 99.1937 207.891 98.9062L209.611 82.4218H201.057Z" fill="#EA5616"/>
<path d="M208.895 83.3802L201.152 87.8367C200.197 88.3638 198.667 88.3638 197.759 87.8367L190.017 83.3802C189.061 82.8531 189.061 81.9426 190.017 81.4155L197.759 76.959C198.715 76.4319 200.244 76.4319 201.152 76.959L208.895 81.4155C209.85 81.9426 209.85 82.8052 208.895 83.3802Z" fill="#333B1D"/>
<path d="M209.851 81.128C209.707 80.9842 209.516 80.8405 209.325 80.6967L201.583 76.2402C200.436 75.5693 198.62 75.5693 197.425 76.2402L189.683 80.6967C189.492 80.8405 189.3 80.9842 189.157 81.128H188.631V82.326C188.631 82.9489 189.014 83.5719 189.683 83.9552L197.425 88.4118C197.998 88.7472 198.763 88.9389 199.48 88.9389C200.245 88.9389 200.961 88.7472 201.535 88.4118L209.277 83.9552C209.946 83.5719 210.328 82.9489 210.328 82.326V81.128H209.851ZM208.56 82.7093L200.818 87.1659C200.101 87.5971 198.859 87.5971 198.142 87.1659L190.4 82.7093C190.161 82.5656 190.065 82.4218 190.065 82.3739C190.065 82.326 190.161 82.1822 190.4 82.0385L198.142 77.5819C198.476 77.3903 199.002 77.2944 199.48 77.2944C199.958 77.2944 200.484 77.3903 200.818 77.5819L208.56 82.0385C208.799 82.1822 208.895 82.326 208.895 82.3739C208.895 82.4218 208.799 82.5656 208.56 82.7093Z" fill="#EA5616"/>
<path d="M209.851 79.7383C209.707 79.5946 209.516 79.4508 209.325 79.307L201.583 74.8505C200.436 74.1796 198.62 74.1796 197.425 74.8505L189.683 79.307C189.492 79.4508 189.3 79.5946 189.157 79.7383H188.631V80.9363C188.631 81.5593 189.014 82.1822 189.683 82.5656L197.425 87.0221C197.998 87.3575 198.763 87.5492 199.48 87.5492C200.245 87.5492 200.961 87.3575 201.535 87.0221L209.277 82.5656C209.946 82.1822 210.328 81.5593 210.328 80.9363V79.7383H209.851Z" fill="#EA5616"/>
<path d="M199.48 86.3512C198.715 86.3512 197.998 86.1595 197.425 85.8241L189.683 81.3676C189.014 80.9842 188.631 80.3613 188.631 79.7383C188.631 79.1153 189.014 78.4924 189.683 78.109L197.425 73.6525C198.572 72.9816 200.388 72.9816 201.583 73.6525L209.325 78.109C209.994 78.4924 210.376 79.1153 210.376 79.7383C210.376 80.3613 209.994 80.9842 209.325 81.3676L201.583 85.8241C200.961 86.1595 200.245 86.3512 199.48 86.3512Z" fill="#EA5616"/>
<path d="M199.48 85.1532C200.053 85.1532 200.579 85.0095 200.961 84.8178L208.704 80.3613C208.99 80.1696 209.182 79.9779 209.182 79.7862C209.182 79.5945 208.99 79.3549 208.704 79.2112L200.961 74.7547C200.579 74.5151 200.053 74.4192 199.48 74.4192C198.906 74.4192 198.381 74.563 197.998 74.7547L190.256 79.2112C189.969 79.4029 189.778 79.5945 189.778 79.7862C189.778 79.9779 189.969 80.2175 190.256 80.3613L197.998 84.8178C198.381 85.0095 198.906 85.1532 199.48 85.1532Z" fill="white"/>
<path d="M191.977 96.2706L198.62 100.248L198.19 91.7182L191.499 87.7409L191.977 96.2706Z" fill="white"/>
<path d="M194.797 90.7598L197.378 92.2933V92.0058L194.749 90.4244L194.797 90.7598Z" fill="#333B1D"/>
<path d="M194.845 91.7182L197.425 93.2996V92.9641L194.797 91.3828L194.845 91.7182Z" fill="#333B1D"/>
<path d="M194.892 92.6766L197.521 94.258L197.473 93.9705L194.892 92.3891V92.6766Z" fill="#333B1D"/>
<path d="M194.94 93.6829L197.568 95.2164L197.521 94.9289L194.94 93.3475V93.6829Z" fill="#333B1D"/>
<path d="M192.455 94.0663L197.664 97.1811L197.616 96.8936L192.407 93.7309L192.455 94.0663Z" fill="#333B1D"/>
<path d="M194.223 96.0789L197.712 98.1395V97.8519L194.175 95.7435L194.223 96.0789Z" fill="#333B1D"/>
<path d="M194.271 97.0373L197.76 99.1458V98.8104L194.223 96.7019L194.271 97.0373Z" fill="#333B1D"/>
<path d="M192.312 92.1016L194.415 93.3475L194.223 90.1369L192.168 88.843L192.312 92.1016Z" fill="#EA5616"/>
<path d="M197.138 78.6362L200.388 80.505L204.211 78.3007L200.961 76.4319L197.138 78.6362Z" fill="#EA5616"/>
<path d="M193.745 78.9716L200.34 82.7572L201.057 82.326L194.509 78.5403L193.745 78.9716Z" fill="#333B1D"/>
<path d="M195.226 81.3197L199.002 83.524L199.766 83.0927L195.991 80.8884L195.226 81.3197Z" fill="#333B1D"/>
<path d="M188.679 110.359L182.658 113.857V79.5466L188.679 76.0485V110.359Z" fill="#C44B29"/>
<path d="M183.375 83.4281V94.0184L187.962 90.0889V79.4987L183.375 83.4281Z" fill="white"/>
<path d="M183.375 101.733V109.88L187.962 107.244V97.804L183.375 101.733Z" fill="#00AFFF"/>
<path d="M183.375 96.1747V99.2895L187.962 95.3601V92.2453L183.375 96.1747Z" fill="#EA5616"/>
<path d="M182.658 113.857L160.865 101.206V66.8958L182.658 79.5466V113.857Z" fill="#EA5616"/>
<path d="M182.037 84.4823L161.487 78.3007V88.843L182.037 95.0726V84.4823Z" fill="white"/>
<path d="M182.037 102.788L161.487 96.5581V98.0436L182.037 109.928V102.788Z" fill="#04C5DB"/>
<path d="M182.037 97.229L161.487 90.9994V94.1621L182.037 100.344V97.229Z" fill="#EA5616"/>
<path d="M168.847 86.3991C168.847 88.3159 167.508 89.0826 165.883 88.1242C164.259 87.1658 162.92 84.8657 162.92 82.9489C162.92 81.0321 164.259 80.2654 165.883 81.2238C167.508 82.1822 168.847 84.4823 168.847 86.3991Z" fill="#EA5616"/>
<path d="M166.887 63.3977L160.865 66.8958L182.658 79.5466L188.68 76.0485L166.887 63.3977Z" fill="#FFCF85"/>
<path d="M143.995 106.669C142.943 106.094 142.417 105.279 142.417 104.417C142.417 103.554 142.991 102.74 143.995 102.165C146.002 101.015 149.108 101.015 151.115 102.165C152.167 102.74 152.693 103.554 152.693 104.417C152.693 105.279 152.119 106.094 151.115 106.669C150.112 107.244 148.821 107.532 147.531 107.532C146.289 107.532 144.998 107.244 143.995 106.669ZM144.425 102.884C143.66 103.315 143.23 103.89 143.23 104.417C143.23 104.992 143.66 105.519 144.425 105.998C146.145 107.005 148.965 107.005 150.685 105.998C151.45 105.567 151.88 104.992 151.88 104.417C151.88 103.842 151.45 103.315 150.685 102.884C149.825 102.404 148.678 102.165 147.531 102.165C146.432 102.117 145.285 102.356 144.425 102.884Z" fill="#EA5616"/>
<path d="M152.884 85.0574C152.931 85.1053 152.979 85.2011 152.979 85.249C153.266 85.7762 153.409 86.2554 153.457 86.8783V90.4723V90.8077L153.505 102.74C153.505 102.931 153.505 103.075 153.457 103.267C153.314 104.034 152.931 104.8 152.167 105.423C151.689 105.807 151.354 105.998 150.876 106.19V83.4281C151.689 83.8115 152.406 84.3386 152.884 85.0574Z" fill="#EA5616"/>
<path d="M141.701 86.495C141.796 85.9199 141.988 85.4407 142.322 84.9615C142.657 84.5303 142.991 84.1948 143.326 83.9552C144.807 82.9489 146.48 82.6614 148.296 82.7572C149.156 82.8052 150.064 83.0448 150.877 83.4281V106.19C150.781 106.238 150.733 106.286 150.638 106.286C148.2 107.244 144.712 107.005 142.752 105.136C142.274 104.704 141.988 104.129 141.844 103.554C141.749 103.219 141.749 102.931 141.749 102.74V99.1457V98.8103L141.701 86.8783C141.653 86.7825 141.653 86.6387 141.701 86.495Z" fill="#EA5616"/>
<path d="M144.233 83.5719C142.369 84.6261 142.369 86.3512 144.233 87.4054C146.097 88.4597 149.108 88.4597 150.924 87.4054C152.788 86.3512 152.788 84.6261 150.924 83.5719C149.06 82.5176 146.097 82.5176 144.233 83.5719Z" fill="#EA5616"/>
<path d="M143.995 87.7409C142.943 87.1658 142.417 86.3512 142.417 85.4887C142.417 84.6261 142.991 83.8115 143.995 83.2364C146.002 82.0864 149.108 82.0864 151.115 83.2364C152.167 83.8115 152.693 84.6261 152.693 85.4887C152.693 86.3512 152.119 87.1658 151.115 87.7409C150.112 88.3159 148.821 88.6034 147.531 88.6034C146.289 88.6034 144.998 88.3159 143.995 87.7409ZM144.425 83.9073C143.66 84.3386 143.23 84.9136 143.23 85.4407C143.23 86.0158 143.66 86.5429 144.425 86.9742C146.145 87.9805 148.965 87.9805 150.685 86.9742C151.45 86.5429 151.88 85.9679 151.88 85.4407C151.88 84.8657 151.45 84.3386 150.685 83.9073C149.825 83.4281 148.678 83.1885 147.531 83.1885C146.432 83.1885 145.285 83.4281 144.425 83.9073Z" fill="#EA5616"/>
<path d="M144.76 84.8178L147.293 85.8241C147.627 85.9679 148.057 85.9199 148.344 85.7762C148.631 85.6324 148.678 85.3449 148.44 85.2011L146.671 83.7636C146.385 83.524 145.811 83.476 145.429 83.7156L144.664 84.1469C144.282 84.2907 144.329 84.6261 144.76 84.8178Z" fill="#EA5616"/>
<path d="M143.995 106.669C142.943 106.094 142.417 105.279 142.417 104.417C142.417 103.554 142.991 102.74 143.995 102.165C146.002 101.015 149.108 101.015 151.115 102.165C152.167 102.74 152.693 103.554 152.693 104.417C152.693 105.279 152.119 106.094 151.115 106.669C150.112 107.244 148.821 107.532 147.531 107.532C146.289 107.532 144.998 107.244 143.995 106.669ZM144.425 102.884C143.66 103.315 143.23 103.89 143.23 104.417C143.23 104.992 143.66 105.519 144.425 105.998C146.145 107.005 148.965 107.005 150.685 105.998C151.45 105.567 151.88 104.992 151.88 104.417C151.88 103.842 151.45 103.315 150.685 102.884C149.825 102.404 148.678 102.165 147.531 102.165C146.432 102.117 145.285 102.356 144.425 102.884Z" fill="#333333"/>
<path d="M152.884 85.0574C152.931 85.1053 152.979 85.2011 152.979 85.249C153.266 85.7762 153.409 86.2554 153.457 86.8783V90.4723V90.8077L153.505 102.74C153.505 102.931 153.505 103.075 153.457 103.267C153.314 104.034 152.931 104.8 152.167 105.423C151.689 105.807 151.354 105.998 150.876 106.19V83.4281C151.689 83.8115 152.406 84.3386 152.884 85.0574Z" fill="#C44B29"/>
<path d="M141.701 86.495C141.796 85.9199 141.988 85.4407 142.322 84.9615C142.657 84.5303 142.991 84.1948 143.326 83.9552C144.807 82.9489 146.48 82.6614 148.296 82.7572C149.156 82.8052 150.064 83.0448 150.877 83.4281V106.19C150.781 106.238 150.733 106.286 150.638 106.286C148.2 107.244 144.712 107.005 142.752 105.136C142.274 104.704 141.988 104.129 141.844 103.554C141.749 103.219 141.749 102.931 141.749 102.74V99.1457V98.8103L141.701 86.8783C141.653 86.7825 141.653 86.6387 141.701 86.495Z" fill="#EA5616"/>
<path d="M144.233 83.5719C142.369 84.6261 142.369 86.3512 144.233 87.4054C146.097 88.4597 149.108 88.4597 150.924 87.4054C152.788 86.3512 152.788 84.6261 150.924 83.5719C149.06 82.5176 146.097 82.5176 144.233 83.5719Z" fill="#CCCCCC"/>
<path d="M143.995 87.7409C142.943 87.1658 142.417 86.3512 142.417 85.4887C142.417 84.6261 142.991 83.8115 143.995 83.2364C146.002 82.0864 149.108 82.0864 151.115 83.2364C152.167 83.8115 152.693 84.6261 152.693 85.4887C152.693 86.3512 152.119 87.1658 151.115 87.7409C150.112 88.3159 148.821 88.6034 147.531 88.6034C146.289 88.6034 144.998 88.3159 143.995 87.7409ZM144.425 83.9073C143.66 84.3386 143.23 84.9136 143.23 85.4407C143.23 86.0158 143.66 86.5429 144.425 86.9742C146.145 87.9805 148.965 87.9805 150.685 86.9742C151.45 86.5429 151.88 85.9679 151.88 85.4407C151.88 84.8657 151.45 84.3386 150.685 83.9073C149.825 83.4281 148.678 83.1885 147.531 83.1885C146.432 83.1885 145.285 83.4281 144.425 83.9073Z" fill="#999999"/>
<path d="M144.76 84.8178L147.293 85.8241C147.627 85.9679 148.057 85.9199 148.344 85.7762C148.631 85.6324 148.678 85.3449 148.44 85.2011L146.671 83.7636C146.385 83.524 145.811 83.476 145.429 83.7156L144.664 84.1469C144.282 84.2907 144.329 84.6261 144.76 84.8178Z" fill="#999999"/>
<path d="M141.653 96.7977C141.844 98.427 148.057 98.9541 152.215 95.0726V91.9578C148.057 95.8393 141.844 95.2163 141.653 93.6829V96.7977Z" fill="white"/>
<path d="M141.653 99.4333C141.844 101.063 148.057 101.59 152.215 97.7082V96.1747C148.057 100.056 141.844 99.4333 141.653 97.8998V99.4333Z" fill="#EA5616"/>
<g opacity="0.5">
<g opacity="0.5">
<path opacity="0.5" d="M142.848 88.3159C142.561 89.3701 146.05 91.0473 147.914 89.9452C148.105 89.8493 148.439 89.5618 147.675 89.3701C146.767 89.1785 145.859 89.0826 144.95 88.7951C144.377 88.6034 143.851 88.3159 143.278 88.2201C143.182 88.1722 142.895 88.1242 142.848 88.3159Z" fill="white"/>
</g>
</g>
<path d="M157.329 114.432C156.277 113.857 155.751 113.042 155.751 112.18C155.751 111.317 156.325 110.503 157.329 109.928C159.336 108.778 162.442 108.778 164.449 109.928C165.501 110.503 166.027 111.317 166.027 112.18C166.027 113.042 165.453 113.857 164.449 114.432C163.446 115.007 162.155 115.295 160.865 115.295C159.575 115.295 158.332 115.007 157.329 114.432ZM157.759 110.599C156.994 111.03 156.564 111.605 156.564 112.132C156.564 112.707 156.994 113.234 157.759 113.665C159.479 114.672 162.299 114.672 164.019 113.665C164.784 113.234 165.214 112.659 165.214 112.132C165.214 111.557 164.784 111.03 164.019 110.599C163.159 110.119 162.012 109.88 160.865 109.88C159.766 109.88 158.619 110.119 157.759 110.599Z" fill="#EA5616"/>
<path d="M166.218 92.7725C166.266 92.8204 166.314 92.9162 166.314 92.9641C166.6 93.4913 166.744 93.9704 166.792 94.5934V98.1874V98.5228L166.839 110.455C166.839 110.646 166.839 110.79 166.792 110.982C166.648 111.749 166.266 112.515 165.501 113.138C165.023 113.522 164.689 113.713 164.211 113.905V91.1432C165.023 91.5745 165.74 92.1016 166.218 92.7725Z" fill="#EA5616"/>
<path d="M155.035 94.2101C155.13 93.635 155.322 93.1558 155.656 92.6766C155.991 92.2453 156.325 91.9099 156.66 91.6703C158.141 90.664 159.814 90.3765 161.63 90.4723C162.49 90.5202 163.398 90.7598 164.211 91.1432V113.905C164.115 113.953 164.067 114.001 163.972 114.001C161.534 114.959 158.046 114.72 156.086 112.851C155.608 112.42 155.322 111.844 155.178 111.269C155.083 110.934 155.083 110.646 155.083 110.455V106.861V106.525L155.035 94.5934C154.987 94.5455 154.987 94.4017 155.035 94.2101Z" fill="#EA5616"/>
<path d="M157.567 91.2869C155.703 92.3412 155.703 94.0663 157.567 95.1205C159.431 96.1747 162.442 96.1747 164.258 95.1205C166.122 94.0663 166.122 92.3412 164.258 91.2869C162.394 90.2327 159.383 90.2327 157.567 91.2869Z" fill="#EA5616"/>
<path d="M157.329 95.5039C156.277 94.9288 155.751 94.1142 155.751 93.2517C155.751 92.3891 156.325 91.5745 157.329 90.9994C159.336 89.8494 162.442 89.8494 164.449 90.9994C165.501 91.5745 166.027 92.3891 166.027 93.2517C166.027 94.1142 165.453 94.9288 164.449 95.5039C163.446 96.0789 162.155 96.3664 160.865 96.3664C159.575 96.3664 158.332 96.031 157.329 95.5039ZM157.759 91.6703C156.994 92.1016 156.564 92.6766 156.564 93.2037C156.564 93.7788 156.994 94.3059 157.759 94.7372C159.479 95.7435 162.299 95.7435 164.019 94.7372C164.784 94.3059 165.214 93.7308 165.214 93.2037C165.214 92.6287 164.784 92.1016 164.019 91.6703C163.159 91.1911 162.012 90.9515 160.865 90.9515C159.766 90.9036 158.619 91.1432 157.759 91.6703Z" fill="#EA5616"/>
<path d="M158.045 92.5329L160.578 93.5392C160.913 93.6829 161.343 93.635 161.63 93.4912C161.916 93.3475 161.964 93.06 161.725 92.9162L159.957 91.4786C159.67 91.239 159.097 91.1911 158.714 91.4307L157.95 91.862C157.615 92.0537 157.663 92.3891 158.045 92.5329Z" fill="#EA5616"/>
<path d="M157.329 114.432C156.277 113.857 155.751 113.042 155.751 112.18C155.751 111.317 156.325 110.503 157.329 109.928C159.336 108.778 162.442 108.778 164.449 109.928C165.501 110.503 166.027 111.317 166.027 112.18C166.027 113.042 165.453 113.857 164.449 114.432C163.446 115.007 162.155 115.295 160.865 115.295C159.575 115.295 158.332 115.007 157.329 114.432ZM157.759 110.599C156.994 111.03 156.564 111.605 156.564 112.132C156.564 112.707 156.994 113.234 157.759 113.665C159.479 114.672 162.299 114.672 164.019 113.665C164.784 113.234 165.214 112.659 165.214 112.132C165.214 111.557 164.784 111.03 164.019 110.599C163.159 110.119 162.012 109.88 160.865 109.88C159.766 109.88 158.619 110.119 157.759 110.599Z" fill="#333333"/>
<path d="M166.218 92.7725C166.266 92.8204 166.314 92.9162 166.314 92.9641C166.6 93.4913 166.744 93.9704 166.792 94.5934V98.1874V98.5228L166.839 110.455C166.839 110.646 166.839 110.79 166.792 110.982C166.648 111.749 166.266 112.515 165.501 113.138C165.023 113.522 164.689 113.713 164.211 113.905V91.1432C165.023 91.5745 165.74 92.1016 166.218 92.7725Z" fill="#C44B29"/>
<path d="M155.035 94.2101C155.13 93.635 155.322 93.1558 155.656 92.6766C155.991 92.2453 156.325 91.9099 156.66 91.6703C158.141 90.664 159.814 90.3765 161.63 90.4723C162.49 90.5202 163.398 90.7598 164.211 91.1432V113.905C164.115 113.953 164.067 114.001 163.972 114.001C161.534 114.959 158.046 114.72 156.086 112.851C155.608 112.42 155.322 111.844 155.178 111.269C155.083 110.934 155.083 110.646 155.083 110.455V106.861V106.525L155.035 94.5934C154.987 94.5455 154.987 94.4017 155.035 94.2101Z" fill="#EA5616"/>
<path d="M157.567 91.2869C155.703 92.3412 155.703 94.0663 157.567 95.1205C159.431 96.1747 162.442 96.1747 164.258 95.1205C166.122 94.0663 166.122 92.3412 164.258 91.2869C162.394 90.2327 159.383 90.2327 157.567 91.2869Z" fill="#CCCCCC"/>
<path d="M157.329 95.5039C156.277 94.9288 155.751 94.1142 155.751 93.2517C155.751 92.3891 156.325 91.5745 157.329 90.9994C159.336 89.8494 162.442 89.8494 164.449 90.9994C165.501 91.5745 166.027 92.3891 166.027 93.2517C166.027 94.1142 165.453 94.9288 164.449 95.5039C163.446 96.0789 162.155 96.3664 160.865 96.3664C159.575 96.3664 158.332 96.031 157.329 95.5039ZM157.759 91.6703C156.994 92.1016 156.564 92.6766 156.564 93.2037C156.564 93.7788 156.994 94.3059 157.759 94.7372C159.479 95.7435 162.299 95.7435 164.019 94.7372C164.784 94.3059 165.214 93.7308 165.214 93.2037C165.214 92.6287 164.784 92.1016 164.019 91.6703C163.159 91.1911 162.012 90.9515 160.865 90.9515C159.766 90.9036 158.619 91.1432 157.759 91.6703Z" fill="#999999"/>
<path d="M158.045 92.5329L160.578 93.5392C160.913 93.6829 161.343 93.635 161.63 93.4912C161.916 93.3475 161.964 93.06 161.725 92.9162L159.957 91.4786C159.67 91.239 159.097 91.1911 158.714 91.4307L157.95 91.862C157.615 92.0537 157.663 92.3891 158.045 92.5329Z" fill="#999999"/>
<path d="M154.987 104.561C155.178 106.19 161.391 106.717 165.549 102.836V99.7208C161.391 103.602 155.178 102.979 154.987 101.446V104.561Z" fill="white"/>
<path d="M154.987 107.148C155.178 108.778 161.391 109.305 165.549 105.423V103.89C161.391 107.771 155.178 107.148 154.987 105.615V107.148Z" fill="#EA5616"/>
<g opacity="0.5">
<g opacity="0.5">
<path opacity="0.5" d="M156.182 96.031C155.895 97.0852 159.384 98.7624 161.248 97.6603C161.439 97.5644 161.773 97.2769 161.009 97.0852C160.101 96.8936 159.193 96.7977 158.284 96.5102C157.711 96.3185 157.185 96.031 156.612 95.9352C156.468 95.9352 156.229 95.8393 156.182 96.031Z" fill="white"/>
</g>
</g>
<path d="M170.662 122.195C169.611 121.62 169.085 120.805 169.085 119.943C169.085 119.08 169.658 118.266 170.662 117.691C172.669 116.541 175.776 116.541 177.783 117.691C178.834 118.266 179.36 119.08 179.36 119.943C179.36 120.805 178.787 121.62 177.783 122.195C176.779 122.77 175.489 123.058 174.199 123.058C172.956 123.01 171.666 122.77 170.662 122.195ZM171.092 118.362C170.328 118.793 169.897 119.368 169.897 119.895C169.897 120.47 170.328 120.997 171.092 121.476C172.813 122.483 175.632 122.483 177.353 121.476C178.117 121.045 178.548 120.47 178.548 119.895C178.548 119.32 178.117 118.793 177.353 118.362C176.493 117.882 175.346 117.643 174.199 117.643C173.099 117.595 171.952 117.882 171.092 118.362Z" fill="#EA5616"/>
<path d="M179.551 100.535C179.599 100.583 179.647 100.679 179.647 100.727C179.933 101.254 180.077 101.733 180.125 102.356V105.95V106.286L180.172 118.218C180.172 118.409 180.172 118.553 180.125 118.745C179.981 119.512 179.599 120.278 178.834 120.901C178.356 121.285 178.022 121.476 177.544 121.668V98.9062C178.356 99.2895 179.073 99.8166 179.551 100.535Z" fill="#EA5616"/>
<path d="M168.32 101.973C168.416 101.398 168.607 100.919 168.942 100.44C169.276 100.008 169.611 99.6729 169.945 99.4333C171.427 98.427 173.099 98.1394 174.915 98.2353C175.776 98.2832 176.684 98.5228 177.496 98.9062V121.668C177.401 121.716 177.353 121.764 177.257 121.764C174.82 122.722 171.331 122.483 169.372 120.614C168.894 120.182 168.607 119.607 168.464 119.032C168.368 118.697 168.368 118.409 168.368 118.218V114.624V114.288L168.32 102.356C168.32 102.308 168.32 102.165 168.32 101.973Z" fill="#EA5616"/>
<path d="M170.853 99.0499C168.99 100.104 168.99 101.829 170.853 102.884C172.717 103.938 175.728 103.938 177.544 102.884C179.408 101.829 179.408 100.104 177.544 99.0499C175.728 97.9957 172.717 97.9957 170.853 99.0499Z" fill="#EA5616"/>
<path d="M170.662 103.219C169.611 102.644 169.085 101.829 169.085 100.967C169.085 100.104 169.658 99.2895 170.662 98.7145C172.669 97.5644 175.776 97.5644 177.783 98.7145C178.834 99.2895 179.36 100.104 179.36 100.967C179.36 101.829 178.787 102.644 177.783 103.219C176.779 103.794 175.489 104.081 174.199 104.081C172.956 104.081 171.666 103.794 170.662 103.219ZM171.092 99.3854C170.328 99.8166 169.897 100.392 169.897 100.919C169.897 101.494 170.328 102.021 171.092 102.452C172.813 103.459 175.632 103.459 177.353 102.452C178.117 102.021 178.548 101.446 178.548 100.919C178.548 100.344 178.117 99.8166 177.353 99.3854C176.493 98.9062 175.346 98.6666 174.199 98.6666C173.099 98.6666 171.952 98.9062 171.092 99.3854Z" fill="#EA5616"/>
<path d="M171.379 100.296L173.912 101.302C174.246 101.446 174.676 101.398 174.963 101.254C175.25 101.11 175.298 100.823 175.059 100.679L173.291 99.2416C173.004 99.002 172.43 98.9541 172.048 99.1937L171.283 99.625C170.949 99.7687 170.997 100.104 171.379 100.296Z" fill="#EA5616"/>
<path d="M170.662 122.195C169.611 121.62 169.085 120.805 169.085 119.943C169.085 119.08 169.658 118.266 170.662 117.691C172.669 116.541 175.776 116.541 177.783 117.691C178.834 118.266 179.36 119.08 179.36 119.943C179.36 120.805 178.787 121.62 177.783 122.195C176.779 122.77 175.489 123.058 174.199 123.058C172.956 123.01 171.666 122.77 170.662 122.195ZM171.092 118.362C170.328 118.793 169.897 119.368 169.897 119.895C169.897 120.47 170.328 120.997 171.092 121.476C172.813 122.483 175.632 122.483 177.353 121.476C178.117 121.045 178.548 120.47 178.548 119.895C178.548 119.32 178.117 118.793 177.353 118.362C176.493 117.882 175.346 117.643 174.199 117.643C173.099 117.595 171.952 117.882 171.092 118.362Z" fill="#333333"/>
<path d="M179.551 100.535C179.599 100.583 179.647 100.679 179.647 100.727C179.933 101.254 180.077 101.733 180.125 102.356V105.95V106.286L180.172 118.218C180.172 118.409 180.172 118.553 180.125 118.745C179.981 119.512 179.599 120.278 178.834 120.901C178.356 121.285 178.022 121.476 177.544 121.668V98.9062C178.356 99.2895 179.073 99.8166 179.551 100.535Z" fill="#C44B29"/>
<path d="M168.32 101.973C168.416 101.398 168.607 100.919 168.942 100.44C169.276 100.008 169.611 99.6729 169.945 99.4333C171.427 98.427 173.099 98.1394 174.915 98.2353C175.776 98.2832 176.684 98.5228 177.496 98.9062V121.668C177.401 121.716 177.353 121.764 177.257 121.764C174.82 122.722 171.331 122.483 169.372 120.614C168.894 120.182 168.607 119.607 168.464 119.032C168.368 118.697 168.368 118.409 168.368 118.218V114.624V114.288L168.32 102.356C168.32 102.308 168.32 102.165 168.32 101.973Z" fill="#EA5616"/>
<path d="M170.853 99.0499C168.99 100.104 168.99 101.829 170.853 102.884C172.717 103.938 175.728 103.938 177.544 102.884C179.408 101.829 179.408 100.104 177.544 99.0499C175.728 97.9957 172.717 97.9957 170.853 99.0499Z" fill="#CCCCCC"/>
<path d="M170.662 103.219C169.611 102.644 169.085 101.829 169.085 100.967C169.085 100.104 169.658 99.2895 170.662 98.7145C172.669 97.5644 175.776 97.5644 177.783 98.7145C178.834 99.2895 179.36 100.104 179.36 100.967C179.36 101.829 178.787 102.644 177.783 103.219C176.779 103.794 175.489 104.081 174.199 104.081C172.956 104.081 171.666 103.794 170.662 103.219ZM171.092 99.3854C170.328 99.8166 169.897 100.392 169.897 100.919C169.897 101.494 170.328 102.021 171.092 102.452C172.813 103.459 175.632 103.459 177.353 102.452C178.117 102.021 178.548 101.446 178.548 100.919C178.548 100.344 178.117 99.8166 177.353 99.3854C176.493 98.9062 175.346 98.6666 174.199 98.6666C173.099 98.6666 171.952 98.9062 171.092 99.3854Z" fill="#999999"/>
<path d="M171.379 100.296L173.912 101.302C174.246 101.446 174.676 101.398 174.963 101.254C175.25 101.11 175.298 100.823 175.059 100.679L173.291 99.2416C173.004 99.002 172.43 98.9541 172.048 99.1937L171.283 99.625C170.949 99.7687 170.997 100.104 171.379 100.296Z" fill="#999999"/>
<path d="M168.32 112.276C168.511 113.905 174.724 114.432 178.882 110.551V107.436C174.724 111.317 168.511 110.694 168.32 109.161V112.276Z" fill="white"/>
<path d="M168.32 114.911C168.511 116.541 174.724 117.068 178.882 113.186V111.653C174.724 115.534 168.511 114.911 168.32 113.378V114.911Z" fill="#EA5616"/>
<g opacity="0.5">
<g opacity="0.5">
<path opacity="0.5" d="M169.515 103.794C169.228 104.848 172.717 106.525 174.581 105.423C174.772 105.327 175.107 105.04 174.342 104.848C173.434 104.656 172.526 104.561 171.618 104.273C171.044 104.081 170.519 103.794 169.945 103.698C169.802 103.65 169.563 103.602 169.515 103.794Z" fill="white"/>
</g>
</g>
<path d="M387.107 214.632L386.821 290.585L324.549 326.908L324.788 250.907L387.107 214.632Z" fill="#C44B29"/>
<path d="M324.788 250.907L324.549 326.908L252.576 285.266L252.862 209.265L324.788 250.907Z" fill="#EA5616"/>
<path d="M387.107 214.632L324.788 250.907L252.862 209.265L315.182 172.99L387.107 214.632Z" fill="#E3F8FF"/>
<path opacity="0.5" d="M252.862 260.443L324.788 302.086L387.107 265.762L386.821 290.585L324.549 326.908L252.576 285.266L252.862 260.443Z" fill="#C42939"/>
<path d="M252.862 242.617L324.788 284.259L387.107 247.936L386.821 257.76L324.549 294.083L252.576 252.441L252.862 242.617Z" fill="white"/>
<path d="M251.142 95.8393L250.425 97.1332L250.664 103.411L248.753 107.819L247.749 110.551L245.312 113.234C244.069 114.336 242.922 112.851 243.639 111.03L245.216 108.203L245.121 105.279C243.448 104.465 241.775 104.657 240.102 105.759C240.102 105.759 239.003 109.401 238.955 109.544C238.908 109.736 238.191 113.042 238.191 113.042C237.761 115.918 235.562 115.678 235.61 113.378L236.184 109.113L236.518 105.807L233.937 109.88L232.647 113.378C231.835 115.391 229.923 115.199 230.258 113.33L231.166 110.119L232.313 107.005L229.732 109.976L228.967 112.659C228.728 113.474 228.155 114.24 227.342 114.288C226.578 114.288 226.243 113.474 226.578 112.803C226.1 112.515 226.195 111.509 226.434 110.982L228.585 106.861L235.467 99.5291L242.11 94.1621L243.926 91.3349C246.459 88.6514 252.385 93.06 251.142 95.8393Z" fill="#FFB294"/>
<path d="M287.177 117.212L283.784 118.937C280.008 121.764 276.663 122.339 273.413 122.339L269.924 124.639L267.296 128.329C265.432 130.629 264.62 129.143 265.48 127.275L266.914 124.879L269.877 121.333L268.777 120.614L266.292 121.333L262.708 123.297L261.752 124.352C261.226 124.927 260.414 125.07 259.697 124.735L259.506 124.639L259.124 124.831C258.55 125.118 257.881 124.927 257.594 124.352C257.26 123.776 257.26 123.058 257.594 122.483L259.219 119.847L262.134 117.451L259.793 117.834L257.881 119.176L256.638 120.71C255.3 122.195 254.44 120.853 255.014 119.368L256.495 117.116L260.414 114.193L266.579 112.324L277.475 111.557L281.49 109.928C285.074 107.819 289.853 115.103 287.177 117.212Z" fill="#FFB294"/>
<path d="M273.317 135.038L231.07 110.407C228.919 109.161 226.004 109.353 222.754 111.222L265.002 135.852C268.251 133.983 271.167 133.792 273.317 135.038Z" fill="#999999"/>
<path d="M265.002 135.852L222.754 111.221L214.152 116.205L256.399 140.788L265.002 135.852Z" fill="#999999"/>
<path d="M251.238 143.807L208.991 119.176L201.583 123.489L243.83 148.072L251.238 143.807Z" fill="#CCCCCC"/>
<path d="M243.83 148.072L201.583 123.489L201.631 136.954L243.878 161.537L243.83 148.072Z" fill="#999999"/>
<path d="M243.018 115.151L200.771 90.5202L208.991 119.176L251.238 143.807L243.018 115.151Z" fill="#999999"/>
<path d="M247.797 110.838L205.55 86.2554L200.771 90.5202L243.018 115.151L247.797 110.838Z" fill="#CCCCCC"/>
<path d="M247.797 110.838L243.018 115.151L251.238 143.807L243.83 148.072L243.878 161.537L276.71 142.513C276.71 135.085 271.453 132.067 265.001 135.804L256.447 140.788L247.797 110.838Z" fill="#333333"/>
<path d="M288.849 66.1291L298.312 71.8795V64.8832L288.849 59.1328V66.1291Z" fill="white"/>
<path opacity="0.5" d="M293.389 24.1994C293.389 24.1994 279.673 42.4568 273.938 27.0267L288.849 18.5449C289.996 18.5449 291.669 21.1326 293.389 24.1994Z" fill="#FFA175"/>
<path d="M298.121 13.13L290.379 19.5992C290.379 19.5992 284.93 30.429 272.648 29.231C260.366 28.033 269.159 16.2448 269.159 16.2448C269.159 16.2448 269.303 19.7908 274.942 20.7013C285.122 22.3785 297.452 10.2548 297.452 10.2548L298.121 13.13Z" fill="#EA5616"/>
<path d="M86.4068 215.782C86.5502 216.693 86.7413 217.412 86.9803 217.891C89.322 217.028 91.4249 217.268 93.0975 219.472L94.9614 222.395L86.9803 229.248H78.8558L75.2715 225.75L76.8008 218.082C79.955 218.13 83.0614 217.22 86.4068 215.782Z" fill="#FFB294"/>
<path d="M75.5584 224.12C76.7054 226.612 81.4367 228.241 86.168 227.379C90.4692 225.462 92.5242 223.881 93.5756 221.053C92.2852 219.328 89.7523 218.178 87.076 217.939L86.4069 216.405L89.8479 214.44C93.3844 212.859 95.7262 213.961 97.3989 216.645C98.6414 221.676 97.1121 225.031 93.6234 227.235L88.4142 231.26C86.4069 236.196 84.1608 238.784 80.0985 238.161C75.7017 237.538 74.1246 235.765 73.8379 232.027C74.1246 229.2 74.3158 226.133 75.5584 224.12Z" fill="#323241"/>
<path d="M96.2041 123.681L95.6784 128.473L93.0021 153.822C92.0941 162.783 90.8037 177.015 89.9435 190.049C89.131 202.317 88.7487 213.482 89.5133 218.082C89.6089 222.491 78.2825 226.564 72.9299 222.491C76.9921 201.838 62.4158 178.117 75.2238 154.733C74.268 145.676 73.2166 136.331 72.5953 127.945C72.2608 123.297 72.0696 118.984 72.1652 115.199C72.2608 110.407 72.7387 106.382 73.8379 103.65L96.2041 123.681Z" fill="#323241"/>
<path d="M59.7871 106.094L59.5959 109.64L62.0333 114.24L62.32 119.655L61.6987 122.483C60.9341 124.256 59.5004 123.297 59.7871 122.003L60.0738 120.614L59.0224 118.218L55.3425 123.106L54.4823 129.335C54.3867 130.341 55.008 132.546 54.0044 132.642C53.1919 132.737 52.3795 132.354 51.9494 131.683L49.512 128.041C48.9385 127.179 48.604 126.172 48.604 125.118L48.7952 117.834C48.7952 117.068 48.9863 116.301 49.3209 115.582L52.2361 109.017L54.1956 104.609L59.7871 106.094Z" fill="#FFB294"/>
<path d="M59.596 109.592C61.3164 100.488 68.3417 90.1369 73.8377 77.4861L86.1678 62.9664L92.3806 39.5817C84.2083 37.6169 74.3634 53.5742 63.8494 72.8858C57.7321 80.4571 55.6293 96.9894 51.7104 110.024C53.7177 111.94 55.9639 110.838 59.596 109.592Z" fill="white"/>
<path d="M131.76 230.637H136.874L140.506 233.944L136.874 240.413L110.015 238.304L109.298 232.123L111.067 227.331C114.794 227.139 118.474 226.948 122.202 225.845C123.444 229.104 126.933 230.446 131.76 230.637Z" fill="#FFB294"/>
<path d="M93.4798 134.798L111.688 167C103.516 184.826 108.343 224.36 106.527 229.391C109.012 232.65 126.073 230.925 124.926 227.81C123.588 220.574 123.588 216.453 124.209 209.744C125.022 200.735 126.981 187.318 128.176 156.074C124.401 138.296 120.338 121.956 115.559 109.736C114.412 106.765 113.217 104.034 111.927 101.59L76.8963 95.5039C60.4084 120.566 79.1425 131.252 93.4798 134.798Z" fill="#323241"/>
<path d="M140.267 230.637C145.715 230.781 145.619 234.471 144.807 237.154C143.373 240.748 138.881 243.719 134.962 243.767C130.422 243.863 119.287 244.917 119.287 244.917C115.224 246.547 112.261 246.02 108.629 245.013C107.148 240.365 106.813 236.148 109.298 232.123C111.831 238.975 123.014 239.598 133.194 238.209C135.536 237.873 137.734 235.286 136.348 233.369C135.392 232.075 133.958 231.117 131.808 230.589H140.267V230.637Z" fill="#323241"/>
<path d="M99.645 41.5943L106.479 36.7065L110.828 26.9308L123.588 36.8023L119.717 45.332L118.953 51.274L117.806 56.641L99.645 41.5943Z" fill="#FFB294"/>
<path d="M118.856 89.1785C118.856 89.1785 116.849 92.1495 114.985 96.0789C113.552 99.0979 113.408 102.596 114.46 105.807C117.279 114.432 106.861 115.678 96.0123 112.995C85.4983 110.359 74.5063 103.986 74.5063 97.0373C76.5614 94.6414 79.6678 87.7409 79.62 80.6009C79.4288 47.6801 84.0646 37.569 94.4352 39.2462L101.747 39.8213C104.232 40.7797 112.118 40.1088 126.264 56.6411C125.738 59.4683 125.786 62.3435 126.073 65.2666C127.22 76.336 131.617 86.7825 118.856 89.1785Z" fill="white"/>
<path d="M121.103 38.8629L128.367 36.1315C128.367 36.1315 136.014 30.8124 134.819 12.6029C134.819 12.6029 122.345 -0.862521 111.64 10.5903C102.512 20.318 108.677 31.8666 108.677 31.8666L121.103 38.8629Z" fill="#FFB294"/>
<path d="M126.599 31.8666L128.033 26.9309L129.228 25.8287L130.375 22.091C130.662 20.4617 131.665 19.072 133.051 18.1616C133.625 17.7782 134.246 17.2032 134.963 16.3406C138.212 12.3633 132.955 3.30647 119 4.69614C104.807 6.13373 103.803 14.7114 104.329 23.6244C105.189 39.4858 116.898 41.786 126.599 31.8666Z" fill="#722811"/>
<path d="M103.516 30.2853C101.557 31.5791 99.4061 32.6812 97.7335 34.3584C95.3917 36.7065 94.1969 40.1088 94.5315 43.3673C94.8182 46.3383 96.2519 49.0218 97.3989 51.7533C98.4981 54.4847 99.3106 57.6474 98.2592 60.4267C101.222 58.2224 104.281 55.8743 105.762 52.472C106.909 49.8365 106.957 46.8655 107.1 44.0382C107.244 41.163 107.531 38.192 109.012 35.7481C109.968 34.2147 111.402 32.9208 111.927 31.1957C112.357 29.8061 112.166 28.2726 111.402 27.0746C110.924 26.3079 110.159 25.5891 109.347 25.2058C108.343 24.7266 108.2 25.1579 107.722 25.9725C106.766 27.7934 105.237 29.1352 103.516 30.2853Z" fill="#722811"/>
<path d="M118.857 89.1785C118.857 89.1785 116.85 92.1495 114.986 96.0789C113.552 99.0979 113.409 102.596 114.46 105.807C117.28 114.432 106.861 115.678 96.0127 112.995L96.2039 112.324C96.2039 112.324 110.207 99.9604 113.456 88.3639C116.658 76.7673 116.85 68.0939 116.85 68.0939L126.169 65.2666C127.22 76.336 131.617 86.7825 118.857 89.1785Z" fill="#B8EEFF"/>
<path d="M214.964 267.631C214.964 270.075 213.243 271.081 211.141 269.836C209.038 268.59 207.317 265.619 207.317 263.175C207.317 260.731 209.038 259.725 211.141 260.97C213.243 262.216 214.964 265.187 214.964 267.631Z" fill="#333333"/>
<path d="M212.862 272.375C212.001 272.375 211.045 272.088 210.137 271.561C207.366 269.979 205.311 266.337 205.311 263.175C205.311 261.258 206.075 259.725 207.413 258.958C208.751 258.191 210.472 258.287 212.145 259.245C214.917 260.827 216.972 264.469 216.972 267.631C216.972 269.548 216.207 271.081 214.869 271.848C214.247 272.232 213.578 272.375 212.862 272.375ZM209.421 262.456C209.421 262.456 209.325 262.696 209.325 263.175C209.325 264.9 210.663 267.2 212.145 268.11C212.575 268.35 212.814 268.398 212.862 268.35C212.814 268.35 212.957 268.11 212.957 267.631C212.957 265.906 211.619 263.606 210.137 262.743C209.755 262.504 209.516 262.456 209.421 262.456Z" fill="#333333"/>
<path d="M211.332 268.398L210.089 267.679C209.181 267.152 208.656 266.194 208.656 265.187V254.597L216.302 261.45L213.626 267.631C213.244 268.542 212.145 268.877 211.332 268.398Z" fill="#808080"/>
<path d="M212.432 266.002C212.432 266.865 211.858 267.2 211.094 266.769C210.377 266.337 209.755 265.331 209.755 264.469C209.755 263.606 210.329 263.271 211.094 263.702C211.858 264.133 212.432 265.187 212.432 266.002Z" fill="#333333"/>
<path d="M255.443 305.536C255.443 307.98 253.722 308.986 251.62 307.74C249.517 306.494 247.796 303.523 247.796 301.079C247.796 298.635 249.517 297.629 251.62 298.875C253.722 300.121 255.443 303.092 255.443 305.536Z" fill="#333333"/>
<path d="M253.341 310.28C252.48 310.28 251.524 309.992 250.616 309.465C247.845 307.884 245.79 304.242 245.79 301.079C245.79 299.162 246.554 297.629 247.892 296.862C249.231 296.096 250.951 296.191 252.624 297.15C255.396 298.731 257.451 302.373 257.451 305.536C257.451 307.453 256.686 308.986 255.348 309.753C254.726 310.136 254.057 310.28 253.341 310.28ZM249.9 300.36C249.9 300.36 249.804 300.6 249.804 301.079C249.804 302.804 251.142 305.104 252.624 305.967C253.054 306.207 253.293 306.255 253.341 306.207C253.293 306.207 253.436 305.967 253.436 305.488C253.436 303.763 252.098 301.463 250.616 300.6C250.234 300.408 249.995 300.36 249.9 300.36Z" fill="#333333"/>
<path d="M251.811 306.302L250.569 305.584C249.66 305.057 249.135 304.098 249.135 303.092V292.502L257.594 297.389L254.057 305.536C253.723 306.446 252.671 306.782 251.811 306.302Z" fill="#808080"/>
<path d="M252.911 303.907C252.911 304.769 252.337 305.105 251.573 304.673C250.856 304.242 250.234 303.236 250.234 302.373C250.234 301.51 250.808 301.175 251.573 301.606C252.337 302.038 252.911 303.092 252.911 303.907Z" fill="#333333"/>
<path d="M236.184 314.353C235.993 314.353 235.802 314.305 235.611 314.257L154.509 282.247C153.744 281.959 153.362 281.049 153.649 280.282C153.936 279.515 154.844 279.132 155.608 279.419L236.088 311.142L256.065 299.594L204.212 252.489C203.591 251.914 203.543 250.955 204.116 250.38C204.69 249.757 205.646 249.709 206.219 250.284L259.602 298.779C259.936 299.114 260.127 299.594 260.08 300.073C260.032 300.552 259.745 300.983 259.315 301.223L236.949 314.161C236.71 314.257 236.471 314.353 236.184 314.353Z" fill="#666666"/>
<path d="M156.707 247.649C156.516 247.649 156.372 247.553 156.277 247.409C156.133 247.17 156.229 246.882 156.468 246.738L205.502 218.322C205.741 218.178 206.027 218.274 206.171 218.514C206.314 218.753 206.218 219.041 205.979 219.184L156.898 247.601C156.85 247.649 156.803 247.649 156.707 247.649Z" fill="#666666"/>
<path d="M155.178 236.34C154.987 236.34 154.843 236.244 154.748 236.1C154.604 235.861 154.7 235.573 154.939 235.429L204.02 207.013C204.259 206.869 204.546 206.965 204.689 207.205C204.833 207.444 204.737 207.732 204.498 207.875L155.417 236.292C155.369 236.34 155.273 236.34 155.178 236.34Z" fill="#666666"/>
<path d="M153.648 225.031C153.457 225.031 153.314 224.935 153.218 224.791C153.075 224.552 153.17 224.264 153.409 224.12L202.491 195.704C202.73 195.56 203.016 195.656 203.16 195.896C203.303 196.135 203.208 196.423 202.969 196.566L153.887 224.983C153.84 224.983 153.744 225.031 153.648 225.031Z" fill="#666666"/>
<path d="M152.119 213.722C151.928 213.722 151.785 213.626 151.689 213.482C151.546 213.242 151.641 212.955 151.88 212.811L200.961 184.395C201.2 184.251 201.487 184.347 201.631 184.587C201.774 184.826 201.678 185.114 201.439 185.257L152.358 213.674C152.31 213.674 152.215 213.722 152.119 213.722Z" fill="#666666"/>
<path d="M150.59 202.365C150.399 202.365 150.255 202.269 150.16 202.125C150.016 201.886 150.112 201.598 150.351 201.454L199.432 173.038C199.671 172.894 199.958 172.99 200.101 173.23C200.245 173.469 200.149 173.757 199.91 173.9L150.829 202.317C150.781 202.365 150.685 202.365 150.59 202.365Z" fill="#666666"/>
<path d="M149.108 191.056C148.917 191.056 148.774 190.96 148.678 190.816C148.535 190.576 148.63 190.289 148.869 190.145L197.951 161.729C198.19 161.585 198.476 161.681 198.62 161.921C198.763 162.16 198.668 162.448 198.429 162.591L149.347 191.008C149.252 191.056 149.156 191.056 149.108 191.056Z" fill="#666666"/>
<path d="M156.707 247.649C156.468 247.649 156.229 247.457 156.229 247.217L148.63 190.624C148.583 190.337 148.774 190.097 149.06 190.049C149.347 190.001 149.586 190.193 149.634 190.481L157.233 247.074C157.281 247.361 157.089 247.601 156.803 247.649C156.755 247.649 156.707 247.649 156.707 247.649Z" fill="#666666"/>
<path d="M164.879 242.953C164.64 242.953 164.401 242.761 164.401 242.521L156.755 185.88C156.707 185.593 156.898 185.353 157.185 185.305C157.472 185.257 157.711 185.449 157.758 185.737L165.357 242.378C165.405 242.665 165.214 242.905 164.927 242.953H164.879Z" fill="#666666"/>
<path d="M173.052 238.209C172.813 238.209 172.574 238.017 172.574 237.777L164.927 181.136C164.879 180.849 165.071 180.609 165.357 180.561C165.644 180.513 165.883 180.705 165.931 180.993L173.53 237.586C173.577 237.873 173.386 238.113 173.1 238.161C173.1 238.209 173.1 238.209 173.052 238.209Z" fill="#666666"/>
<path d="M181.224 233.465C180.985 233.465 180.746 233.273 180.746 233.033L173.147 176.44C173.1 176.153 173.291 175.913 173.578 175.865C173.864 175.817 174.103 176.009 174.151 176.296L181.75 232.89C181.798 233.177 181.606 233.417 181.32 233.465C181.272 233.465 181.272 233.465 181.224 233.465Z" fill="#666666"/>
<path d="M189.396 228.721C189.157 228.721 188.918 228.529 188.918 228.289L181.319 171.696C181.272 171.409 181.463 171.169 181.749 171.121C182.036 171.073 182.275 171.265 182.323 171.552L189.922 228.146C189.97 228.433 189.778 228.673 189.492 228.721C189.444 228.721 189.444 228.721 189.396 228.721Z" fill="#666666"/>
<path d="M197.568 223.976C197.329 223.976 197.09 223.785 197.09 223.545L189.492 166.952C189.444 166.665 189.635 166.425 189.922 166.377C190.209 166.329 190.448 166.521 190.495 166.808L198.094 223.401C198.142 223.689 197.951 223.929 197.664 223.976C197.616 223.976 197.616 223.976 197.568 223.976Z" fill="#666666"/>
<path d="M205.788 219.28C205.549 219.28 205.31 219.089 205.31 218.849L197.711 162.256C197.664 161.968 197.855 161.729 198.142 161.681C198.428 161.633 198.667 161.825 198.715 162.112L206.314 218.705C206.362 218.993 206.17 219.232 205.884 219.28C205.836 219.28 205.788 219.28 205.788 219.28Z" fill="#666666"/>
<path d="M149.108 192.062C148.583 192.062 148.105 191.774 147.818 191.295C147.388 190.576 147.627 189.666 148.391 189.235L197.473 160.818C198.19 160.387 199.098 160.627 199.528 161.393C199.958 162.112 199.719 163.023 198.954 163.454L149.873 191.87C149.586 192.014 149.347 192.062 149.108 192.062Z" fill="#666666"/>
<path d="M274.369 262.983C274.273 262.983 274.178 262.935 274.082 262.887L205.502 219.184C205.263 219.041 205.215 218.705 205.358 218.514C205.502 218.274 205.836 218.226 206.028 218.37L274.608 262.121C274.847 262.264 274.894 262.6 274.751 262.791C274.703 262.935 274.512 262.983 274.369 262.983Z" fill="#666666"/>
<path d="M274.512 256.37C274.417 256.37 274.321 256.322 274.225 256.274L203.973 207.828C203.734 207.684 203.686 207.348 203.829 207.109C203.973 206.869 204.307 206.821 204.546 206.965L274.799 255.412C275.038 255.556 275.086 255.891 274.942 256.131C274.799 256.274 274.655 256.37 274.512 256.37Z" fill="#666666"/>
<path d="M274.607 249.757C274.512 249.757 274.416 249.709 274.321 249.661L202.443 196.518C202.204 196.375 202.156 196.039 202.347 195.8C202.491 195.56 202.825 195.512 203.064 195.704L274.942 248.847C275.181 248.991 275.229 249.326 275.038 249.566C274.942 249.661 274.799 249.757 274.607 249.757Z" fill="#666666"/>
<path d="M274.751 243.096C274.655 243.096 274.56 243.048 274.464 243.001L200.914 185.209C200.675 185.018 200.675 184.73 200.818 184.491C201.009 184.251 201.296 184.251 201.535 184.395L275.085 242.234C275.324 242.426 275.324 242.713 275.181 242.953C275.038 243.048 274.894 243.096 274.751 243.096Z" fill="#666666"/>
<path d="M274.894 236.483C274.799 236.483 274.655 236.436 274.56 236.388L199.384 173.853C199.193 173.661 199.145 173.373 199.337 173.134C199.528 172.942 199.814 172.894 200.053 173.086L275.276 235.573C275.468 235.765 275.515 236.052 275.324 236.292C275.181 236.436 275.037 236.483 274.894 236.483Z" fill="#666666"/>
<path d="M274.99 229.871C274.894 229.871 274.751 229.823 274.655 229.727L197.807 162.543C197.616 162.352 197.568 162.064 197.759 161.825C197.951 161.633 198.237 161.585 198.476 161.777L275.324 228.96C275.515 229.152 275.563 229.439 275.372 229.679C275.276 229.775 275.133 229.871 274.99 229.871Z" fill="#666666"/>
<path d="M274.369 262.983C274.082 262.983 273.843 262.743 273.891 262.456L274.225 245.876L274.56 229.296C274.56 229.008 274.799 228.816 275.038 228.816C275.325 228.816 275.564 229.056 275.516 229.343L275.181 245.924L274.847 262.504C274.847 262.791 274.656 262.983 274.369 262.983Z" fill="#666666"/>
<path d="M266.483 221.389C266.769 221.389 266.961 221.628 266.961 221.916L267.104 239.79L267.247 257.616C267.247 257.712 267.2 257.856 267.152 257.951C267.056 258.095 266.913 258.191 266.769 258.191C266.435 258.143 266.244 257.951 266.244 257.664L266.1 239.79L265.957 221.964C265.957 221.868 266.005 221.724 266.053 221.628C266.148 221.485 266.292 221.389 266.483 221.389Z" fill="#666666"/>
<path d="M257.929 213.913C258.215 213.913 258.454 214.153 258.454 214.393L259.028 233.56L259.601 252.632C259.601 252.728 259.601 252.92 259.554 252.968C259.506 253.112 259.315 253.255 259.171 253.255C258.837 253.255 258.646 253.016 258.646 252.776L258.072 233.608L257.499 214.536C257.499 214.44 257.499 214.249 257.546 214.201C257.594 214.057 257.738 213.913 257.929 213.913Z" fill="#666666"/>
<path d="M249.374 206.438C249.661 206.438 249.9 206.63 249.9 206.917L250.951 227.379L252.002 247.697C252.002 247.793 252.002 247.984 251.955 248.08C251.907 248.272 251.764 248.368 251.572 248.415C251.238 248.415 251.047 248.176 251.047 247.936L249.995 227.475L248.944 207.157C248.944 207.061 248.944 206.869 248.992 206.773C248.992 206.582 249.183 206.486 249.374 206.438Z" fill="#666666"/>
<path d="M240.819 198.962C241.106 198.962 241.345 199.154 241.345 199.442L242.874 221.245L244.356 242.809C244.356 242.857 244.356 243.144 244.308 243.192C244.26 243.384 244.117 243.528 243.878 243.576C243.543 243.576 243.352 243.336 243.352 243.096L241.823 221.293L240.341 199.729C240.341 199.681 240.341 199.394 240.389 199.346C240.437 199.154 240.628 199.01 240.819 198.962Z" fill="#666666"/>
<path d="M232.265 191.535C232.552 191.535 232.791 191.727 232.791 192.014L234.75 215.111L236.662 237.921C236.662 237.969 236.662 238.304 236.662 238.352C236.662 238.544 236.471 238.736 236.232 238.736C235.897 238.736 235.706 238.544 235.706 238.257L233.747 215.159L231.835 192.349C231.835 192.302 231.835 191.966 231.835 191.918C231.883 191.727 232.074 191.535 232.265 191.535Z" fill="#666666"/>
<path d="M223.758 184.059C224.045 184.011 224.284 184.251 224.284 184.539L226.721 208.93L229.111 232.985C229.111 233.033 229.158 233.417 229.111 233.417C229.111 233.656 228.919 233.848 228.68 233.848C228.346 233.848 228.155 233.656 228.107 233.369L225.67 208.978L223.28 184.922C223.28 184.874 223.232 184.491 223.28 184.491C223.328 184.251 223.471 184.059 223.758 184.059C223.71 184.059 223.71 184.059 223.758 184.059Z" fill="#666666"/>
<path d="M215.203 176.584C215.49 176.536 215.729 176.776 215.729 177.015L218.597 202.7L221.416 228.002C221.416 228.05 221.464 228.433 221.464 228.481C221.464 228.721 221.273 228.912 221.034 228.96C220.699 228.96 220.508 228.768 220.46 228.529L217.593 202.844L214.773 177.542C214.773 177.494 214.726 177.111 214.726 177.063C214.773 176.824 214.917 176.632 215.203 176.584C215.156 176.584 215.203 176.584 215.203 176.584Z" fill="#666666"/>
<path d="M206.649 169.108C206.936 169.061 207.175 169.252 207.222 169.54L210.568 196.519L213.865 223.066L213.913 223.545C213.913 223.785 213.77 224.024 213.483 224.072C213.148 224.072 212.957 223.881 212.909 223.641L209.564 196.662L206.267 170.115L206.219 169.636C206.171 169.396 206.362 169.156 206.649 169.108Z" fill="#666666"/>
<path d="M205.789 219.28C205.55 219.28 205.311 219.089 205.311 218.849L201.487 190.529L197.664 162.208C197.616 161.921 197.807 161.681 198.094 161.633C198.381 161.585 198.62 161.777 198.668 162.064L202.491 190.385L206.314 218.705C206.362 218.993 206.171 219.232 205.884 219.28C205.836 219.28 205.789 219.28 205.789 219.28Z" fill="#666666"/>
<path d="M274.368 263.989C274.081 263.989 273.795 263.894 273.556 263.75L204.976 219.999C204.593 219.76 204.354 219.376 204.306 218.945L196.708 162.352C196.612 161.729 196.947 161.106 197.472 160.818C198.046 160.531 198.715 160.579 199.193 161.01L276.041 228.193C276.375 228.481 276.567 228.912 276.567 229.343L275.945 262.504C275.945 263.031 275.611 263.558 275.133 263.798C274.846 263.941 274.607 263.989 274.368 263.989ZM207.174 217.843L272.934 259.772L273.508 230.014L200.196 165.898L207.174 217.843Z" fill="#666666"/>
<path d="M258.597 301.367C258.215 301.367 257.88 301.223 257.594 300.983L204.163 252.489C203.829 252.201 203.638 251.77 203.685 251.339L204.259 218.705C204.259 217.891 204.976 217.22 205.788 217.22C206.601 217.22 207.27 217.939 207.27 218.753L206.696 250.716L259.601 298.731C260.222 299.306 260.27 300.265 259.697 300.84C259.41 301.223 258.98 301.367 258.597 301.367Z" fill="#666666"/>
<path d="M222.658 268.781C221.702 268.733 221.081 268.015 221.177 267.152L223.614 231.308C223.662 230.494 224.379 229.823 225.239 229.919C226.051 229.966 226.673 230.685 226.625 231.548L224.188 267.392C224.14 268.158 223.471 268.781 222.658 268.781Z" fill="#666666"/>
<path d="M200.627 182.047C199.862 182.047 199.241 181.52 199.145 180.753L196.708 162.639L190.065 150.707L176.253 137.002C175.68 136.427 175.68 135.469 176.253 134.846C176.827 134.271 177.783 134.271 178.404 134.846L192.359 148.695C192.455 148.791 192.55 148.886 192.598 149.03L199.48 161.393C199.575 161.537 199.623 161.729 199.671 161.921L202.156 180.322C202.252 181.136 201.678 181.903 200.866 181.999C200.77 182.047 200.675 182.047 200.627 182.047Z" fill="#666666"/>
<path d="M235.61 285.409C235.514 285.409 235.466 285.409 235.371 285.362L156.42 247.601C156.181 247.457 156.086 247.17 156.181 246.93C156.277 246.69 156.611 246.595 156.85 246.69L235.801 284.451C236.04 284.547 236.135 284.882 236.04 285.122C235.992 285.314 235.801 285.409 235.61 285.409Z" fill="#666666"/>
<path d="M243.4 280.953C243.304 280.953 243.256 280.953 243.161 280.905L166.313 241.946C166.074 241.803 165.978 241.515 166.074 241.275C166.217 241.036 166.504 240.94 166.743 241.036L243.591 279.995C243.83 280.138 243.925 280.426 243.83 280.665C243.734 280.857 243.543 280.953 243.4 280.953Z" fill="#666666"/>
<path d="M251.142 276.448C251.046 276.448 250.999 276.448 250.903 276.401L176.11 236.244C175.871 236.1 175.776 235.813 175.919 235.573C176.062 235.333 176.349 235.238 176.588 235.381L251.381 275.49C251.62 275.634 251.716 275.921 251.572 276.161C251.477 276.353 251.285 276.448 251.142 276.448Z" fill="#666666"/>
<path d="M258.884 271.992C258.788 271.992 258.693 271.992 258.645 271.944L185.907 230.541C185.668 230.398 185.572 230.11 185.716 229.871C185.859 229.631 186.146 229.535 186.385 229.679L259.123 271.034C259.362 271.177 259.457 271.465 259.314 271.704C259.218 271.896 259.027 271.992 258.884 271.992Z" fill="#666666"/>
<path d="M266.626 267.488C266.531 267.488 266.435 267.487 266.387 267.392L195.704 224.839C195.465 224.695 195.37 224.408 195.513 224.168C195.657 223.929 195.943 223.833 196.182 223.976L266.865 266.529C267.104 266.673 267.2 266.96 267.056 267.2C266.961 267.392 266.77 267.488 266.626 267.488Z" fill="#666666"/>
<path d="M274.368 262.983C274.273 262.983 274.177 262.935 274.081 262.887L205.501 219.184C205.262 219.041 205.215 218.705 205.358 218.514C205.501 218.274 205.836 218.226 206.027 218.37L274.607 262.12C274.846 262.264 274.894 262.6 274.751 262.791C274.703 262.935 274.512 262.983 274.368 262.983Z" fill="#666666"/>
<path d="M235.61 285.409C235.419 285.409 235.276 285.314 235.18 285.17C235.037 284.93 235.132 284.643 235.371 284.499L274.13 262.073C274.369 261.929 274.656 262.025 274.799 262.264C274.942 262.504 274.847 262.791 274.608 262.935L235.849 285.361C235.801 285.409 235.706 285.409 235.61 285.409Z" fill="#666666"/>
<path d="M226.865 281.24C226.674 281.24 226.53 281.145 226.435 281.001C226.291 280.761 226.387 280.474 226.626 280.33L266.531 257.233C266.77 257.089 267.057 257.185 267.2 257.424C267.344 257.664 267.248 257.952 267.009 258.095L227.104 281.193C227.008 281.193 226.96 281.24 226.865 281.24Z" fill="#666666"/>
<path d="M218.071 277.024C217.88 277.024 217.737 276.928 217.641 276.784C217.498 276.544 217.593 276.257 217.832 276.113L258.885 252.345C259.124 252.201 259.41 252.297 259.554 252.537C259.697 252.776 259.602 253.064 259.363 253.207L218.358 276.976C218.262 277.024 218.167 277.024 218.071 277.024Z" fill="#666666"/>
<path d="M209.326 272.855C209.134 272.855 208.991 272.759 208.895 272.615C208.752 272.375 208.848 272.088 209.087 271.944L251.286 247.505C251.525 247.361 251.812 247.457 251.955 247.697C252.099 247.936 252.003 248.224 251.764 248.368L209.565 272.807C209.469 272.807 209.421 272.855 209.326 272.855Z" fill="#666666"/>
<path d="M200.532 268.638C200.34 268.638 200.197 268.542 200.102 268.398C199.958 268.158 200.054 267.871 200.293 267.727L243.639 242.617C243.878 242.473 244.165 242.569 244.308 242.809C244.452 243.048 244.356 243.336 244.117 243.48L200.771 268.542C200.723 268.638 200.627 268.638 200.532 268.638Z" fill="#666666"/>
<path d="M191.786 264.469C191.595 264.469 191.452 264.373 191.356 264.229C191.213 263.989 191.308 263.702 191.547 263.558L236.041 237.825C236.279 237.681 236.566 237.777 236.71 238.017C236.853 238.257 236.757 238.544 236.518 238.688L192.025 264.421C191.929 264.421 191.882 264.469 191.786 264.469Z" fill="#666666"/>
<path d="M182.993 260.252C182.801 260.252 182.658 260.156 182.562 260.012C182.419 259.772 182.515 259.485 182.754 259.341L228.394 232.937C228.633 232.794 228.92 232.89 229.063 233.129C229.207 233.369 229.111 233.656 228.872 233.8L183.279 260.204C183.184 260.252 183.088 260.252 182.993 260.252Z" fill="#666666"/>
<path d="M174.247 256.083C174.055 256.083 173.912 255.987 173.816 255.843C173.673 255.603 173.769 255.316 174.008 255.172L220.795 228.098C221.034 227.954 221.321 228.05 221.464 228.289C221.607 228.529 221.512 228.816 221.273 228.96L174.485 256.035C174.39 256.035 174.342 256.083 174.247 256.083Z" fill="#666666"/>
<path d="M165.454 251.866C165.262 251.866 165.119 251.77 165.023 251.626C164.88 251.387 164.976 251.099 165.215 250.955L213.149 223.162C213.388 223.018 213.675 223.114 213.818 223.354C213.961 223.593 213.866 223.881 213.627 224.024L165.693 251.77C165.645 251.866 165.549 251.866 165.454 251.866Z" fill="#666666"/>
<path d="M156.707 247.649C156.516 247.649 156.373 247.553 156.277 247.409C156.134 247.17 156.23 246.882 156.468 246.738L205.502 218.322C205.741 218.178 206.028 218.274 206.171 218.514C206.315 218.753 206.219 219.041 205.98 219.184L156.899 247.601C156.851 247.649 156.803 247.649 156.707 247.649Z" fill="#666666"/>
<path d="M235.61 286.416C235.371 286.416 235.18 286.368 234.941 286.272L155.99 248.511C155.464 248.272 155.178 247.793 155.13 247.217C155.13 246.642 155.417 246.115 155.895 245.876L205.024 217.459C205.502 217.172 206.123 217.172 206.601 217.507L275.181 261.258C275.611 261.545 275.898 262.025 275.898 262.552C275.898 263.079 275.611 263.558 275.133 263.846L236.375 286.272C236.136 286.368 235.897 286.416 235.61 286.416ZM159.909 247.026L235.562 283.205L271.453 262.408L205.741 220.478L159.909 247.026Z" fill="#666666"/>
<path d="M129.658 166.042C128.798 166.042 127.937 165.61 127.507 164.796C126.838 163.598 127.22 162.064 128.415 161.345L174.677 134.558C175.872 133.84 177.401 134.271 178.118 135.469C178.787 136.667 178.405 138.2 177.21 138.919L130.948 165.706C130.518 165.946 130.088 166.042 129.658 166.042Z" fill="#EA5616"/>
<path d="M235.61 285.409C235.323 285.409 235.084 285.17 235.132 284.882L235.753 251.722C235.753 251.434 235.992 251.243 236.231 251.243C236.518 251.243 236.757 251.482 236.709 251.77L236.088 284.93C236.136 285.218 235.897 285.409 235.61 285.409Z" fill="#999999"/>
<path d="M242.062 281.672C241.775 281.672 241.536 281.432 241.584 281.145L242.205 247.984C242.205 247.697 242.444 247.505 242.683 247.505C242.97 247.505 243.209 247.745 243.161 248.032L242.54 281.193C242.587 281.48 242.348 281.672 242.062 281.672Z" fill="#999999"/>
<path d="M248.561 277.934C248.274 277.934 248.035 277.694 248.083 277.407L248.752 244.246C248.752 243.959 248.991 243.767 249.23 243.767C249.517 243.767 249.756 244.007 249.708 244.294L249.087 277.455C249.039 277.742 248.8 277.934 248.561 277.934Z" fill="#999999"/>
<path d="M255.013 274.196C254.726 274.196 254.487 273.957 254.535 273.669L255.156 240.509C255.156 240.221 255.395 240.03 255.634 240.03C255.921 240.03 256.16 240.269 256.112 240.557L255.491 273.717C255.491 274.005 255.252 274.196 255.013 274.196Z" fill="#999999"/>
<path d="M261.465 270.459C261.178 270.459 260.939 270.219 260.987 269.931L261.608 236.771C261.608 236.483 261.847 236.292 262.086 236.292C262.373 236.292 262.612 236.531 262.564 236.819L261.895 269.979C261.943 270.267 261.704 270.459 261.465 270.459Z" fill="#999999"/>
<path d="M267.917 266.721C267.63 266.721 267.391 266.481 267.439 266.194L268.06 233.033C268.06 232.746 268.299 232.554 268.538 232.554C268.825 232.554 269.064 232.794 269.016 233.081L268.395 266.242C268.395 266.529 268.203 266.721 267.917 266.721Z" fill="#999999"/>
<path d="M274.368 262.983C274.082 262.983 273.843 262.743 273.89 262.456L274.512 229.296C274.512 229.008 274.751 228.816 274.99 228.816C275.276 228.816 275.515 229.056 275.467 229.343L274.846 262.504C274.846 262.791 274.655 262.983 274.368 262.983Z" fill="#999999"/>
<path d="M235.61 285.409C235.419 285.409 235.276 285.314 235.18 285.17C235.037 284.93 235.132 284.643 235.371 284.499L274.13 262.073C274.369 261.929 274.656 262.025 274.799 262.264C274.942 262.504 274.847 262.791 274.608 262.935L235.849 285.361C235.801 285.409 235.706 285.409 235.61 285.409Z" fill="#999999"/>
<path d="M235.754 278.797C235.563 278.797 235.419 278.701 235.324 278.557C235.18 278.317 235.276 278.03 235.515 277.886L274.273 255.46C274.512 255.316 274.799 255.412 274.942 255.651C275.086 255.891 274.99 256.178 274.751 256.322L235.993 278.749C235.945 278.797 235.849 278.797 235.754 278.797Z" fill="#999999"/>
<path d="M235.897 272.184C235.706 272.184 235.562 272.088 235.467 271.944C235.323 271.704 235.419 271.417 235.658 271.273L274.416 248.847C274.655 248.703 274.942 248.799 275.086 249.038C275.229 249.278 275.133 249.566 274.894 249.709L236.136 272.136C236.04 272.136 235.992 272.184 235.897 272.184Z" fill="#999999"/>
<path d="M236.04 265.523C235.849 265.523 235.706 265.427 235.61 265.283C235.467 265.044 235.563 264.756 235.801 264.612L274.56 242.186C274.799 242.042 275.086 242.138 275.229 242.378C275.372 242.617 275.277 242.905 275.038 243.048L236.279 265.475C236.184 265.523 236.088 265.523 236.04 265.523Z" fill="#999999"/>
<path d="M236.136 258.91C235.945 258.91 235.802 258.814 235.706 258.67C235.563 258.431 235.658 258.143 235.897 257.999L274.656 235.573C274.895 235.429 275.181 235.525 275.325 235.765C275.468 236.004 275.373 236.292 275.134 236.436L236.375 258.862C236.327 258.862 236.232 258.91 236.136 258.91Z" fill="#999999"/>
<path d="M236.28 252.297C236.089 252.297 235.945 252.201 235.85 252.057C235.706 251.818 235.802 251.53 236.041 251.386L274.799 228.96C275.038 228.816 275.325 228.912 275.468 229.152C275.612 229.391 275.516 229.679 275.277 229.823L236.519 252.249C236.423 252.249 236.375 252.297 236.28 252.297Z" fill="#999999"/>
<path d="M236.279 253.303C235.753 253.303 235.276 253.016 234.989 252.537C234.559 251.818 234.798 250.907 235.562 250.476L274.321 228.05C275.038 227.618 275.946 227.858 276.376 228.625C276.806 229.343 276.567 230.254 275.802 230.685L237.044 253.064C236.805 253.207 236.518 253.303 236.279 253.303Z" fill="#666666"/>
<path d="M235.61 286.416C235.084 286.416 234.607 286.128 234.32 285.649C233.89 284.93 234.129 284.02 234.893 283.588L273.652 261.162C274.369 260.731 275.277 260.97 275.707 261.737C276.137 262.456 275.898 263.366 275.133 263.798L236.375 286.224C236.136 286.368 235.897 286.416 235.61 286.416Z" fill="#666666"/>
<path d="M166.36 294.802C166.36 297.246 164.64 298.252 162.537 297.006C160.434 295.76 158.714 292.789 158.714 290.345C158.714 287.901 160.434 286.895 162.537 288.141C164.64 289.387 166.36 292.358 166.36 294.802Z" fill="#333333"/>
<path d="M164.258 299.546C163.398 299.546 162.442 299.258 161.534 298.731C158.762 297.15 156.707 293.508 156.707 290.345C156.707 288.428 157.472 286.895 158.81 286.128C160.148 285.362 161.868 285.457 163.541 286.416C166.313 287.997 168.368 291.639 168.368 294.802C168.368 296.719 167.603 298.252 166.265 299.019C165.644 299.402 164.975 299.546 164.258 299.546ZM160.817 289.626C160.817 289.626 160.721 289.866 160.721 290.345C160.721 292.07 162.06 294.37 163.541 295.281C163.971 295.521 164.21 295.568 164.258 295.521C164.21 295.521 164.354 295.281 164.354 294.802C164.354 293.077 163.015 290.776 161.534 289.866C161.152 289.674 160.913 289.626 160.817 289.626Z" fill="#333333"/>
<path d="M162.729 295.568L161.486 294.85C160.578 294.323 160.052 293.364 160.052 292.358V281.768L168.511 286.655L164.975 294.802C164.64 295.712 163.589 296.048 162.729 295.568Z" fill="#808080"/>
<path d="M163.876 293.172C163.876 294.035 163.302 294.37 162.537 293.939C161.821 293.508 161.199 292.502 161.199 291.639C161.199 290.776 161.773 290.441 162.537 290.872C163.254 291.304 163.876 292.358 163.876 293.172Z" fill="#333333"/>
<path d="M231.548 320.343C231.548 322.787 229.827 323.793 227.725 322.547C225.622 321.301 223.901 318.33 223.901 315.886C223.901 313.442 225.622 312.436 227.725 313.682C229.827 314.928 231.548 317.899 231.548 320.343Z" fill="#333333"/>
<path d="M229.445 325.135C228.585 325.135 227.629 324.847 226.721 324.32C223.949 322.739 221.894 319.097 221.894 315.934C221.894 314.018 222.659 312.484 223.997 311.717C225.335 310.951 227.055 311.046 228.728 312.005C231.5 313.586 233.555 317.228 233.555 320.391C233.555 322.308 232.79 323.841 231.452 324.608C230.831 324.943 230.162 325.135 229.445 325.135ZM226.004 315.215C226.004 315.215 225.909 315.455 225.909 315.934C225.909 317.659 227.247 319.96 228.728 320.822C229.158 321.062 229.397 321.11 229.445 321.062C229.397 321.062 229.541 320.822 229.541 320.343C229.541 318.618 228.202 316.318 226.721 315.455C226.339 315.215 226.1 315.215 226.004 315.215Z" fill="#333333"/>
<path d="M227.916 321.11L226.673 320.391C225.765 319.864 225.239 318.905 225.239 317.899V307.309L233.698 312.197L230.162 320.343C229.827 321.253 228.776 321.637 227.916 321.11Z" fill="#808080"/>
<path d="M229.063 318.762C229.063 319.624 228.489 319.96 227.724 319.528C227.008 319.097 226.386 318.091 226.386 317.228C226.386 316.366 226.96 316.03 227.724 316.461C228.441 316.893 229.063 317.899 229.063 318.762Z" fill="#333333"/>
<path d="M235.61 285.409C235.515 285.409 235.467 285.409 235.371 285.361L156.421 247.601C156.182 247.457 156.086 247.17 156.182 246.93C156.277 246.69 156.612 246.595 156.851 246.69L235.801 284.451C236.04 284.547 236.136 284.882 236.04 285.122C235.993 285.314 235.801 285.409 235.61 285.409Z" fill="#999999"/>
<path d="M235.753 278.796C235.658 278.796 235.61 278.797 235.514 278.749L154.939 236.292C154.7 236.148 154.604 235.861 154.748 235.621C154.891 235.381 155.178 235.285 155.417 235.429L235.992 277.886C236.231 278.03 236.327 278.317 236.183 278.557C236.136 278.701 235.944 278.796 235.753 278.796Z" fill="#999999"/>
<path d="M235.897 272.184C235.801 272.184 235.706 272.184 235.658 272.136L153.409 224.983C153.17 224.839 153.075 224.551 153.218 224.312C153.362 224.072 153.648 223.976 153.887 224.12L236.136 271.225C236.375 271.369 236.47 271.657 236.327 271.896C236.231 272.088 236.04 272.184 235.897 272.184Z" fill="#999999"/>
<path d="M235.992 265.523C235.897 265.523 235.801 265.475 235.753 265.427L151.88 213.626C151.641 213.482 151.546 213.195 151.689 212.955C151.832 212.715 152.119 212.619 152.358 212.763L236.231 264.612C236.47 264.756 236.518 265.044 236.422 265.283C236.327 265.427 236.183 265.523 235.992 265.523Z" fill="#999999"/>
<path d="M236.136 258.91C236.04 258.91 235.945 258.862 235.849 258.814L150.303 202.269C150.064 202.125 150.016 201.79 150.16 201.598C150.303 201.358 150.638 201.31 150.829 201.454L236.375 257.999C236.614 258.143 236.661 258.479 236.518 258.67C236.47 258.814 236.327 258.91 236.136 258.91Z" fill="#999999"/>
<path d="M236.279 252.297C236.184 252.297 236.088 252.249 235.992 252.201L148.774 190.96C148.535 190.816 148.487 190.481 148.63 190.241C148.774 190.001 149.108 189.953 149.347 190.097L236.566 251.339C236.805 251.482 236.853 251.818 236.709 252.057C236.566 252.201 236.423 252.297 236.279 252.297Z" fill="#999999"/>
<path d="M235.61 285.409C235.323 285.409 235.084 285.17 235.132 284.882L235.467 268.302L235.801 251.722C235.801 251.434 236.04 251.243 236.279 251.243C236.566 251.243 236.805 251.482 236.757 251.77L236.422 268.35L236.088 284.93C236.136 285.218 235.897 285.409 235.61 285.409Z" fill="#999999"/>
<path d="M226.577 244.438C226.864 244.438 227.055 244.678 227.055 244.965L227.199 262.839L227.342 280.665C227.342 280.761 227.294 280.905 227.247 281.001C227.151 281.145 227.008 281.24 226.864 281.24C226.53 281.193 226.339 281.001 226.339 280.713L226.195 262.839L226.052 245.013C226.052 244.917 226.1 244.774 226.147 244.678C226.243 244.534 226.386 244.438 226.577 244.438Z" fill="#999999"/>
<path d="M216.876 237.634C217.163 237.634 217.402 237.873 217.402 238.113L217.975 257.281L218.549 276.353C218.549 276.448 218.549 276.64 218.501 276.688C218.453 276.832 218.262 276.976 218.118 276.976C217.784 276.976 217.593 276.736 217.593 276.496L217.019 257.329L216.446 238.257C216.446 238.161 216.446 237.969 216.494 237.921C216.541 237.777 216.685 237.634 216.876 237.634Z" fill="#999999"/>
<path d="M207.174 230.829C207.461 230.829 207.7 231.021 207.7 231.308L208.751 251.77L209.803 272.088C209.803 272.184 209.803 272.375 209.755 272.471C209.707 272.663 209.564 272.759 209.373 272.807C209.038 272.807 208.847 272.567 208.847 272.327L207.796 251.866L206.744 231.548C206.744 231.452 206.744 231.26 206.792 231.164C206.84 230.973 206.983 230.829 207.174 230.829Z" fill="#999999"/>
<path d="M197.52 223.976C197.807 223.976 198.046 224.168 198.046 224.456L199.575 246.259L201.057 267.823C201.057 267.871 201.057 268.158 201.009 268.206C200.961 268.398 200.818 268.542 200.579 268.59C200.244 268.59 200.053 268.35 200.053 268.11L198.524 246.307L197.042 224.743C197.042 224.695 197.042 224.408 197.09 224.36C197.09 224.168 197.281 224.024 197.52 223.976C197.473 223.976 197.473 223.976 197.52 223.976Z" fill="#999999"/>
<path d="M187.819 217.172C188.106 217.124 188.344 217.364 188.344 217.651L190.304 240.748L192.216 263.558C192.216 263.606 192.216 263.941 192.216 263.989C192.216 264.181 192.024 264.373 191.785 264.373C191.451 264.373 191.26 264.181 191.26 263.894L189.3 240.796L187.389 217.987C187.389 217.939 187.389 217.603 187.389 217.555C187.389 217.364 187.58 217.172 187.819 217.172C187.771 217.172 187.819 217.172 187.819 217.172Z" fill="#999999"/>
<path d="M178.117 210.367C178.404 210.319 178.643 210.559 178.643 210.846L181.08 235.238L183.47 259.293C183.47 259.341 183.518 259.724 183.47 259.724C183.47 259.964 183.279 260.156 183.04 260.156C182.705 260.156 182.514 259.964 182.466 259.677L180.029 235.285L177.639 211.23C177.639 211.182 177.592 210.799 177.639 210.799C177.687 210.559 177.878 210.367 178.117 210.367Z" fill="#999999"/>
<path d="M168.416 203.515C168.703 203.467 168.942 203.706 168.942 203.946L171.809 229.631L174.629 254.933C174.629 254.98 174.677 255.364 174.677 255.412C174.677 255.651 174.485 255.843 174.246 255.891C173.912 255.891 173.721 255.699 173.673 255.46L170.805 229.775L167.986 204.473C167.986 204.425 167.938 204.042 167.938 203.994C167.986 203.754 168.129 203.563 168.416 203.515Z" fill="#999999"/>
<path d="M158.714 196.71C159.001 196.662 159.24 196.854 159.288 197.141L162.633 224.12L165.931 250.668L165.979 251.147C165.979 251.386 165.835 251.626 165.548 251.674C165.214 251.674 165.023 251.482 164.975 251.243L161.63 224.264L158.332 197.716L158.284 197.237C158.284 196.998 158.428 196.758 158.714 196.71Z" fill="#999999"/>
<path d="M156.707 247.505C156.468 247.505 156.229 247.313 156.229 247.074L152.406 218.753L148.583 190.433C148.535 190.145 148.726 189.906 149.013 189.858C149.299 189.81 149.538 190.001 149.586 190.289L153.409 218.609L157.233 246.93C157.28 247.217 157.089 247.457 156.803 247.505C156.755 247.505 156.707 247.505 156.707 247.505Z" fill="#999999"/>
<path d="M235.61 286.416C235.371 286.416 235.18 286.368 234.941 286.272L155.99 248.511C155.512 248.272 155.226 247.84 155.13 247.361L147.531 190.768C147.436 190.193 147.723 189.57 148.248 189.283C148.774 188.947 149.395 188.995 149.873 189.331L237.044 250.524C237.474 250.811 237.713 251.291 237.665 251.77L237.044 284.93C237.044 285.457 236.757 285.937 236.327 286.176C236.184 286.368 235.897 286.416 235.61 286.416ZM158.093 246.163L234.177 282.582L234.75 252.584L151.02 193.787L158.093 246.163Z" fill="#666666"/>
<path d="M236.184 314.353C235.992 314.353 235.801 314.305 235.61 314.257L154.509 282.247C153.887 282.007 153.505 281.432 153.553 280.761L155.13 247.122C155.178 246.307 155.847 245.636 156.707 245.684C157.52 245.732 158.189 246.451 158.141 247.265L156.611 279.851L236.709 311.478C237.474 311.765 237.856 312.676 237.569 313.442C237.378 313.97 236.805 314.353 236.184 314.353Z" fill="#666666"/>
<path d="M175.442 290.01C174.534 289.962 173.912 289.243 173.96 288.428L175.537 258.862C175.585 258.047 176.302 257.424 177.114 257.424C177.927 257.472 178.596 258.191 178.548 259.006L176.971 288.572C176.875 289.387 176.206 290.01 175.442 290.01Z" fill="#666666"/>
<path d="M151.546 210.463C150.781 210.463 150.16 209.936 150.064 209.169L147.627 191.056L140.984 179.124L127.172 165.419C126.599 164.844 126.599 163.885 127.172 163.262C127.746 162.687 128.702 162.687 129.323 163.262L143.278 177.111C143.373 177.207 143.469 177.303 143.517 177.446L150.399 189.81C150.494 189.954 150.542 190.145 150.59 190.337L153.075 208.738C153.171 209.553 152.597 210.319 151.785 210.415C151.689 210.463 151.641 210.463 151.546 210.463Z" fill="#666666"/>
<path d="M303.76 173.277H291.812L293.581 190.097C293.629 190.385 293.82 190.672 294.154 190.864L300.702 194.65C301.514 195.129 302.804 195.129 303.569 194.65C303.904 186.024 303.474 181.903 303.76 173.277Z" fill="#EA5616"/>
<path d="M303.76 173.277C303.426 181.903 303.856 186.024 303.665 194.602L310.165 190.864C310.547 190.624 310.738 190.385 310.738 190.097L312.506 173.277H303.76Z" fill="#EA5616"/>
<path d="M311.789 174.236L303.904 178.788C302.948 179.363 301.371 179.363 300.415 178.788L292.529 174.236C291.574 173.661 291.574 172.798 292.529 172.223L300.415 167.671C301.371 167.096 302.948 167.096 303.904 167.671L311.789 172.223C312.745 172.75 312.745 173.661 311.789 174.236Z" fill="#333B1D"/>
<path d="M312.745 171.936C312.602 171.792 312.41 171.648 312.172 171.504L304.286 166.952C303.091 166.281 301.227 166.281 300.08 166.952L292.195 171.504C291.956 171.648 291.813 171.792 291.621 171.936H291.096V173.182C291.096 173.852 291.478 174.428 292.195 174.859L300.08 179.411C300.654 179.747 301.419 179.938 302.183 179.938C302.948 179.938 303.713 179.747 304.286 179.411L312.172 174.859C312.888 174.475 313.271 173.852 313.271 173.182V171.936H312.745ZM311.407 173.517L303.521 178.069C302.804 178.501 301.514 178.501 300.797 178.069L292.912 173.517C292.673 173.373 292.577 173.23 292.577 173.182C292.577 173.134 292.673 172.99 292.912 172.846L300.797 168.294C301.18 168.102 301.658 167.958 302.183 167.958C302.661 167.958 303.187 168.054 303.569 168.294L311.455 172.846C311.694 172.99 311.789 173.134 311.789 173.182C311.789 173.23 311.694 173.373 311.407 173.517Z" fill="#EA5616"/>
<path d="M312.745 170.498C312.602 170.354 312.41 170.211 312.172 170.067L304.286 165.514C303.091 164.844 301.227 164.844 300.08 165.514L292.195 170.067C291.956 170.211 291.813 170.354 291.621 170.498H291.096V171.744C291.096 172.415 291.478 172.99 292.195 173.421L300.08 177.974C300.654 178.309 301.419 178.501 302.183 178.501C302.948 178.501 303.713 178.309 304.286 177.974L312.172 173.421C312.888 173.038 313.271 172.415 313.271 171.744V170.498H312.745Z" fill="#EA5616"/>
<path d="M302.183 177.255C301.419 177.255 300.654 177.063 300.08 176.728L292.195 172.175C291.478 171.792 291.096 171.169 291.096 170.498C291.096 169.827 291.478 169.252 292.195 168.821L300.08 164.269C301.275 163.598 303.139 163.598 304.286 164.269L312.172 168.821C312.888 169.204 313.271 169.827 313.271 170.498C313.271 171.169 312.888 171.744 312.172 172.175L304.286 176.728C303.713 177.063 302.948 177.255 302.183 177.255Z" fill="#EA5616"/>
<path d="M302.183 176.009C302.757 176.009 303.283 175.865 303.665 175.673L311.55 171.121C311.837 170.929 312.028 170.738 312.028 170.546C312.028 170.354 311.837 170.115 311.55 169.971L303.665 165.419C303.283 165.179 302.709 165.083 302.183 165.083C301.61 165.083 301.084 165.227 300.702 165.419L292.816 169.971C292.53 170.163 292.338 170.354 292.338 170.546C292.338 170.738 292.53 170.977 292.816 171.121L300.702 175.673C301.036 175.913 301.61 176.009 302.183 176.009Z" fill="white"/>
<path d="M294.489 187.366L301.323 191.439L300.845 182.766L294.059 178.644L294.489 187.366Z" fill="white"/>
<path d="M297.404 181.759L300.033 183.341V183.005L297.356 181.424L297.404 181.759Z" fill="#333B1D"/>
<path d="M297.452 182.718L300.08 184.347V184.012L297.404 182.43L297.452 182.718Z" fill="#333B1D"/>
<path d="M297.5 183.724L300.176 185.353L300.128 185.018L297.5 183.436V183.724Z" fill="#333B1D"/>
<path d="M297.547 184.73L300.224 186.312L300.176 186.024L297.547 184.395V184.73Z" fill="#333B1D"/>
<path d="M295.015 185.114L300.319 188.324V187.989L294.967 184.778L295.015 185.114Z" fill="#333B1D"/>
<path d="M296.783 187.174L300.367 189.331V188.995L296.783 186.839V187.174Z" fill="#333B1D"/>
<path d="M296.831 188.133L300.415 190.289V190.001L296.831 187.845V188.133Z" fill="#333B1D"/>
<path d="M294.871 183.149L297.022 184.395L296.831 181.088L294.728 179.842L294.871 183.149Z" fill="#EA5616"/>
<path d="M299.793 169.396L303.091 171.313L307.01 169.061L303.712 167.144L299.793 169.396Z" fill="#EA5616"/>
<path d="M296.353 169.731L303.043 173.613L303.76 173.182L297.069 169.3L296.353 169.731Z" fill="#333B1D"/>
<path d="M297.834 172.127L301.705 174.38L302.47 173.948L298.599 171.696L297.834 172.127Z" fill="#333B1D"/>
<path d="M288.419 183.053H276.471L278.239 199.873C278.287 200.16 278.478 200.448 278.813 200.64L285.36 204.425C286.173 204.904 287.463 204.904 288.228 204.425C288.515 195.8 288.084 191.679 288.419 183.053Z" fill="#EA5616"/>
<path d="M288.419 183.053C288.084 191.679 288.514 195.8 288.323 204.377L294.823 200.64C295.205 200.4 295.396 200.16 295.396 199.873L297.164 183.053H288.419Z" fill="#EA5616"/>
<path d="M296.4 184.011L288.515 188.564C287.559 189.139 285.982 189.139 285.026 188.564L277.188 184.011C276.232 183.436 276.232 182.574 277.188 181.999L285.074 177.446C286.029 176.871 287.606 176.871 288.562 177.446L296.448 181.999C297.404 182.574 297.404 183.436 296.4 184.011Z" fill="#333B1D"/>
<path d="M297.356 181.759C297.212 181.616 297.021 181.472 296.782 181.328L288.897 176.776C287.702 176.105 285.838 176.105 284.643 176.776L276.758 181.328C276.519 181.472 276.376 181.616 276.184 181.759H275.659V183.005C275.659 183.676 276.041 184.251 276.758 184.682L284.643 189.235C285.217 189.57 285.982 189.762 286.746 189.762C287.511 189.762 288.276 189.57 288.849 189.235L296.735 184.682C297.451 184.299 297.834 183.676 297.834 183.005V181.759H297.356ZM296.065 183.293L288.18 187.845C287.463 188.276 286.173 188.276 285.456 187.845L277.57 183.293C277.331 183.149 277.236 183.005 277.236 182.957C277.236 182.909 277.331 182.766 277.57 182.622L285.456 178.069C285.838 177.878 286.316 177.734 286.842 177.734C287.32 177.734 287.845 177.83 288.228 178.069L296.113 182.622C296.352 182.766 296.448 182.909 296.448 182.957C296.4 183.005 296.304 183.149 296.065 183.293Z" fill="#EA5616"/>
<path d="M297.356 180.322C297.212 180.178 297.021 180.034 296.782 179.89L288.897 175.338C287.702 174.667 285.838 174.667 284.643 175.338L276.758 179.89C276.519 180.034 276.376 180.178 276.184 180.322H275.659V181.568C275.659 182.238 276.041 182.813 276.758 183.245L284.643 187.797C285.217 188.133 285.982 188.324 286.746 188.324C287.511 188.324 288.276 188.133 288.849 187.797L296.735 183.245C297.451 182.861 297.834 182.238 297.834 181.568V180.322H297.356Z" fill="#EA5616"/>
<path d="M286.795 187.03C286.03 187.03 285.265 186.839 284.692 186.503L276.806 181.951C276.089 181.568 275.707 180.945 275.707 180.274C275.707 179.603 276.089 179.028 276.806 178.597L284.692 174.044C285.887 173.373 287.75 173.373 288.945 174.044L296.831 178.597C297.547 178.98 297.93 179.603 297.93 180.274C297.93 180.945 297.547 181.52 296.831 181.951L288.945 186.503C288.324 186.887 287.559 187.03 286.795 187.03Z" fill="#EA5616"/>
<path d="M286.794 185.832C287.367 185.832 287.893 185.689 288.275 185.497L296.161 180.945C296.447 180.753 296.639 180.561 296.639 180.37C296.639 180.178 296.447 179.938 296.161 179.795L288.275 175.242C287.893 175.003 287.319 174.907 286.794 174.907C286.22 174.907 285.694 175.051 285.312 175.242L277.427 179.795C277.14 179.986 276.949 180.178 276.949 180.37C276.949 180.561 277.14 180.801 277.427 180.945L285.312 185.449C285.694 185.689 286.22 185.832 286.794 185.832Z" fill="white"/>
<path d="M279.147 197.141L285.934 201.215L285.456 192.541L278.669 188.468L279.147 197.141Z" fill="white"/>
<path d="M282.015 191.535L284.691 193.116L284.643 192.829L282.015 191.199V191.535Z" fill="#333B1D"/>
<path d="M282.062 192.541L284.739 194.123L284.691 193.787L282.062 192.206V192.541Z" fill="#333B1D"/>
<path d="M282.11 193.5L284.787 195.129V194.793L282.11 193.212V193.5Z" fill="#333B1D"/>
<path d="M282.159 194.506L284.835 196.135V195.8L282.159 194.17V194.506Z" fill="#333B1D"/>
<path d="M279.625 194.889L284.93 198.1V197.764L279.625 194.602V194.889Z" fill="#333B1D"/>
<path d="M281.441 196.95L284.978 199.106V198.771L281.394 196.614L281.441 196.95Z" fill="#333B1D"/>
<path d="M281.489 197.956L285.074 200.113L285.026 199.777L281.441 197.621L281.489 197.956Z" fill="#333B1D"/>
<path d="M279.53 192.925L281.633 194.17L281.489 190.912L279.339 189.618L279.53 192.925Z" fill="#EA5616"/>
<path d="M284.405 179.172L287.75 181.088L291.621 178.836L288.324 176.919L284.405 179.172Z" fill="#EA5616"/>
<path d="M280.963 179.507L287.654 183.389L288.419 182.957L281.728 179.076L280.963 179.507Z" fill="#333B1D"/>
<path d="M282.493 181.903L286.316 184.155L287.081 183.724L283.21 181.472L282.493 181.903Z" fill="#333B1D"/>
<path d="M319.292 182.718H307.344L309.113 199.537C309.16 199.825 309.351 200.112 309.686 200.304L316.233 204.09C317.046 204.569 318.336 204.569 319.101 204.09C319.388 195.464 318.957 191.343 319.292 182.718Z" fill="#424FD3"/>
<path d="M319.292 182.718C318.957 191.343 319.387 195.464 319.196 204.042L325.696 200.304C326.078 200.065 326.269 199.825 326.269 199.537L328.038 182.718H319.292Z" fill="#00AFFF"/>
<path d="M327.321 183.676L319.435 188.228C318.48 188.803 316.902 188.803 315.947 188.228L308.061 183.676C307.105 183.101 307.105 182.238 308.061 181.663L315.947 177.111C316.902 176.536 318.48 176.536 319.435 177.111L327.321 181.663C328.277 182.238 328.277 183.101 327.321 183.676Z" fill="#333B1D"/>
<path d="M328.229 181.424C328.086 181.28 327.894 181.136 327.655 180.993L319.77 176.44C318.575 175.769 316.711 175.769 315.564 176.44L307.679 180.993C307.44 181.136 307.296 181.28 307.105 181.424H306.58V182.67C306.58 183.341 306.962 183.916 307.679 184.347L315.564 188.899C316.138 189.235 316.902 189.426 317.667 189.426C318.432 189.426 319.196 189.235 319.77 188.899L327.655 184.347C328.372 183.964 328.755 183.341 328.755 182.67V181.424H328.229ZM326.939 183.005L319.053 187.558C318.336 187.989 317.046 187.989 316.329 187.558L308.443 183.005C308.204 182.861 308.109 182.718 308.109 182.67C308.109 182.622 308.204 182.478 308.443 182.334L316.329 177.782C316.711 177.59 317.189 177.447 317.715 177.447C318.193 177.447 318.719 177.542 319.101 177.782L326.986 182.334C327.225 182.478 327.321 182.622 327.321 182.67C327.273 182.67 327.177 182.813 326.939 183.005Z" fill="#00AFFF"/>
<path d="M328.229 179.986C328.086 179.842 327.894 179.699 327.655 179.555L319.77 175.003C318.575 174.332 316.711 174.332 315.564 175.003L307.679 179.555C307.44 179.699 307.296 179.842 307.105 179.986H306.58V181.232C306.58 181.903 306.962 182.478 307.679 182.909L315.564 187.462C316.138 187.797 316.902 187.989 317.667 187.989C318.432 187.989 319.196 187.797 319.77 187.462L327.655 182.909C328.372 182.526 328.755 181.903 328.755 181.232V179.986H328.229Z" fill="#00AFFF"/>
<path d="M317.667 186.695C316.902 186.695 316.138 186.503 315.564 186.168L307.679 181.615C306.962 181.232 306.58 180.609 306.58 179.938C306.58 179.267 306.962 178.692 307.679 178.261L315.564 173.709C316.759 173.038 318.623 173.038 319.77 173.709L327.655 178.261C328.372 178.644 328.755 179.267 328.755 179.938C328.755 180.609 328.372 181.184 327.655 181.615L319.77 186.168C319.196 186.551 318.432 186.695 317.667 186.695Z" fill="#EA5616"/>
<path d="M317.667 185.497C318.241 185.497 318.766 185.353 319.149 185.162L327.034 180.609C327.321 180.417 327.512 180.226 327.512 180.034C327.512 179.842 327.321 179.603 327.034 179.459L319.149 174.907C318.766 174.667 318.193 174.571 317.667 174.571C317.094 174.571 316.568 174.715 316.186 174.907L308.3 179.459C308.013 179.651 307.822 179.842 307.822 180.034C307.822 180.226 308.013 180.465 308.3 180.609L316.186 185.162C316.568 185.353 317.142 185.497 317.667 185.497Z" fill="white"/>
<path d="M310.02 196.806L316.807 200.927L316.329 192.206L309.542 188.133L310.02 196.806Z" fill="white"/>
<path d="M312.888 191.199L315.564 192.781V192.493L312.888 190.864V191.199Z" fill="#333B1D"/>
<path d="M312.936 192.206L315.612 193.787V193.452L312.936 191.87V192.206Z" fill="#333B1D"/>
<path d="M312.983 193.164L315.66 194.793V194.458L312.983 192.877V193.164Z" fill="#333B1D"/>
<path d="M313.079 194.17L315.708 195.8V195.464L313.031 193.883L313.079 194.17Z" fill="#333B1D"/>
<path d="M310.499 194.554L315.851 197.764L315.803 197.429L310.499 194.266V194.554Z" fill="#333B1D"/>
<path d="M312.314 196.614L315.899 198.771L315.851 198.435L312.314 196.279V196.614Z" fill="#333B1D"/>
<path d="M312.362 197.621L315.947 199.777L315.899 199.442L312.362 197.285V197.621Z" fill="#333B1D"/>
<path d="M310.403 192.589L312.506 193.883L312.362 190.577L310.212 189.283L310.403 192.589Z" fill="#EA5616"/>
<path d="M315.326 178.836L318.623 180.753L322.494 178.501L319.197 176.584L315.326 178.836Z" fill="#00AFFF"/>
<path d="M311.836 179.172L318.527 183.053L319.292 182.622L312.601 178.74L311.836 179.172Z" fill="#333B1D"/>
<path d="M313.366 181.568L317.237 183.82L317.954 183.388L314.083 181.136L313.366 181.568Z" fill="#333B1D"/>
<path d="M303.903 192.541H291.956L293.724 209.361C293.772 209.648 293.963 209.936 294.297 210.128L300.845 213.913C301.657 214.393 302.947 214.393 303.712 213.913C304.047 205.24 303.617 201.119 303.903 192.541Z" fill="#424FD3"/>
<path d="M303.904 192.541C303.569 201.167 303.999 205.288 303.808 213.865L310.308 210.128C310.69 209.888 310.881 209.649 310.881 209.361L312.649 192.541H303.904Z" fill="#00AFFF"/>
<path d="M311.932 193.452L304.047 198.004C303.091 198.579 301.514 198.579 300.558 198.004L292.672 193.452C291.717 192.877 291.717 192.014 292.672 191.439L300.558 186.887C301.514 186.312 303.091 186.312 304.047 186.887L311.932 191.439C312.888 192.014 312.888 192.925 311.932 193.452Z" fill="#333B1D"/>
<path d="M312.888 191.199C312.745 191.056 312.554 190.912 312.315 190.768L304.429 186.216C303.234 185.545 301.37 185.545 300.223 186.216L292.338 190.768C292.099 190.912 291.956 191.056 291.764 191.199H291.239V192.445C291.239 193.116 291.621 193.691 292.338 194.123L300.223 198.675C300.797 199.01 301.562 199.202 302.326 199.202C303.091 199.202 303.856 199.01 304.429 198.675L312.315 194.123C313.031 193.739 313.414 193.116 313.414 192.445V191.199H312.888ZM311.55 192.781L303.664 197.333C302.948 197.764 301.657 197.764 300.94 197.333L293.055 192.781C292.816 192.637 292.72 192.493 292.72 192.445C292.72 192.397 292.816 192.254 293.055 192.11L300.94 187.558C301.323 187.366 301.801 187.222 302.326 187.222C302.804 187.222 303.33 187.318 303.712 187.558L311.598 192.11C311.837 192.254 311.932 192.397 311.932 192.445C311.884 192.493 311.789 192.637 311.55 192.781Z" fill="#00AFFF"/>
<path d="M312.888 189.762C312.745 189.618 312.554 189.474 312.315 189.331L304.429 184.778C303.234 184.107 301.37 184.107 300.223 184.778L292.338 189.331C292.099 189.474 291.956 189.618 291.764 189.762H291.239V191.008C291.239 191.679 291.621 192.254 292.338 192.685L300.223 197.237C300.797 197.573 301.562 197.764 302.326 197.764C303.091 197.764 303.856 197.573 304.429 197.237L312.315 192.685C313.031 192.302 313.414 191.679 313.414 191.008V189.762H312.888Z" fill="#00AFFF"/>
<path d="M302.326 196.471C301.562 196.471 300.797 196.279 300.223 195.943L292.338 191.391C291.621 191.008 291.239 190.385 291.239 189.714C291.239 189.043 291.621 188.468 292.338 188.037L300.223 183.484C301.418 182.813 303.282 182.813 304.429 183.484L312.315 188.037C313.031 188.42 313.414 189.043 313.414 189.714C313.414 190.385 313.031 190.96 312.315 191.391L304.429 195.991C303.856 196.327 303.091 196.471 302.326 196.471Z" fill="#EA5616"/>
<path d="M302.326 195.273C302.9 195.273 303.426 195.129 303.808 194.937L311.693 190.385C311.98 190.193 312.171 190.001 312.171 189.81C312.171 189.618 311.98 189.378 311.693 189.235L303.808 184.682C303.426 184.443 302.852 184.347 302.326 184.347C301.753 184.347 301.227 184.491 300.845 184.682L292.959 189.235C292.673 189.426 292.481 189.618 292.481 189.81C292.481 190.001 292.673 190.241 292.959 190.385L300.845 194.937C301.179 195.129 301.753 195.273 302.326 195.273Z" fill="white"/>
<path d="M294.632 206.582L301.466 210.703L300.988 201.981L294.154 197.908L294.632 206.582Z" fill="white"/>
<path d="M297.547 200.975L300.175 202.604V202.269L297.499 200.688L297.547 200.975Z" fill="#333B1D"/>
<path d="M297.595 201.981L300.223 203.563V203.275L297.547 201.646L297.595 201.981Z" fill="#333B1D"/>
<path d="M297.643 202.988L300.271 204.569V204.234L297.595 202.652L297.643 202.988Z" fill="#333B1D"/>
<path d="M297.69 203.946L300.367 205.575L300.319 205.24L297.69 203.659V203.946Z" fill="#333B1D"/>
<path d="M295.11 204.377L300.462 207.54L300.415 207.253L295.11 204.042V204.377Z" fill="#333B1D"/>
<path d="M296.926 206.39L300.51 208.546V208.211L296.926 206.102V206.39Z" fill="#333B1D"/>
<path d="M296.974 207.396L300.558 209.553V209.217L296.974 207.061V207.396Z" fill="#333B1D"/>
<path d="M295.014 202.365L297.165 203.659L296.974 200.352L294.823 199.058L295.014 202.365Z" fill="#00AFFF"/>
<path d="M299.937 188.66L303.235 190.576L307.153 188.324L303.808 186.407L299.937 188.66Z" fill="#00AFFF"/>
<path d="M296.496 188.947L303.186 192.829L303.903 192.397L297.212 188.516L296.496 188.947Z" fill="#333B1D"/>
<path d="M297.977 191.343L301.848 193.595L302.613 193.164L298.742 190.912L297.977 191.343Z" fill="#333B1D"/>
<path d="M170.853 85.9199C171.092 86.0158 172.813 86.0158 173.004 86.1116C174.724 86.5908 177.114 85.6803 177.401 83.9073C177.592 82.7093 178.309 81.8468 179.838 81.5113L181.128 82.2301L180.507 79.4987L177.544 77.1506L174.533 75.8568L171.188 76.6235C170.088 77.6778 169.658 79.2591 168.559 80.3133L166.695 82.7093L167.699 85.4407L170.853 85.9199Z" fill="#FFB294"/>
<path d="M127.985 57.8869C133.194 63.5414 141.223 70.2502 145.906 77.534C153.362 77.9173 161.964 80.7446 168.177 80.8884C171.761 81.3676 170.806 86.9742 169.515 87.7409C160.339 88.7951 155.369 89.0347 144.234 90.1848C136.492 86.495 127.794 80.1696 118.14 73.4129C105.666 63.206 120.004 49.1656 127.985 57.8869Z" fill="white"/>
</svg>
