<svg width="219" height="40" viewBox="0 0 219 40" fill="none" xmlns="http://www.w3.org/2000/svg">
<g clip-path="url(#clip0)">
<path d="M60.0475 27.1886C60.8581 27.2415 61.671 27.1287 62.4366 26.8571C62.9154 26.6199 63.1943 26.108 63.1339 25.5771C63.092 25.0138 62.7456 24.5185 62.2308 24.2857C61.3407 23.7839 60.4072 23.3632 59.4416 23.0286C58.4814 22.6629 57.6012 22.2971 56.8239 21.8857C56.1085 21.551 55.4491 21.1077 54.8692 20.5714C54.3089 20.0312 53.8722 19.3763 53.5889 18.6514C53.2625 17.7986 53.1072 16.8899 53.1317 15.9771C53.062 14.0899 53.9147 12.2866 55.4179 11.1429C57.2219 9.86188 59.4032 9.22212 61.6135 9.32571C62.8871 9.31977 64.1582 9.43843 65.4087 9.68C66.3925 9.84841 67.36 10.1008 68.3007 10.4343L67.2262 15.2229C66.476 14.9661 65.7129 14.7486 64.94 14.5714C64.0093 14.3653 63.0583 14.2656 62.1051 14.2743C60.1847 14.2743 59.2245 14.8114 59.2245 15.8857C59.2166 16.1133 59.2595 16.3397 59.3502 16.5486C59.4592 16.777 59.6293 16.9708 59.8417 17.1086C60.1628 17.3231 60.499 17.514 60.8477 17.68C61.3789 17.9397 61.9247 18.1687 62.4823 18.3657C63.6303 18.7773 64.746 19.274 65.8202 19.8514C66.5986 20.2552 67.3053 20.7842 67.9121 21.4171C68.4049 21.9545 68.7719 22.5947 68.9866 23.2914C69.2043 24.0685 69.3083 24.8731 69.2952 25.68C69.3967 27.6122 68.4768 29.456 66.8718 30.5371C64.8018 31.7594 62.4126 32.3327 60.0132 32.1828C58.3949 32.2184 56.7784 32.0534 55.2007 31.6914C54.3105 31.4719 53.436 31.1932 52.583 30.8571L53.6232 25.8629C54.666 26.2726 55.7402 26.5974 56.8354 26.8343C57.8915 27.0596 58.9676 27.1783 60.0475 27.1886Z" fill="white"/>
<path d="M86.8761 15.3486C86.3274 15.2114 85.733 15.0628 84.9443 14.9143C84.1536 14.7592 83.3495 14.6827 82.5437 14.6857C82.081 14.6915 81.6191 14.7259 81.1606 14.7886C80.7515 14.8344 80.3465 14.9108 79.9489 15.0171V31.6114H73.7761V11.04C75.0527 10.5854 76.3542 10.2039 77.6741 9.89713C79.3223 9.53824 81.0056 9.36573 82.6923 9.38284C83.0238 9.38284 83.4125 9.38284 83.8355 9.43998C84.2584 9.49713 84.7728 9.54284 85.2415 9.61141C85.7101 9.67998 86.1788 9.75999 86.6475 9.85141C87.0376 9.9378 87.42 10.0563 87.7906 10.2057L86.8761 15.3486Z" fill="white"/>
<path d="M98.5815 9.32569C100.129 9.282 101.673 9.49044 103.154 9.94284C104.253 10.2855 105.25 10.894 106.057 11.7143C106.798 12.5103 107.331 13.4756 107.612 14.5257C107.926 15.723 108.08 16.9566 108.069 18.1943V30.9828C107.189 31.1771 105.955 31.4057 104.389 31.6686C102.497 31.9535 100.586 32.0835 98.673 32.0571C97.3985 32.0713 96.1262 31.9487 94.8779 31.6914C93.824 31.4813 92.8219 31.0658 91.9287 30.4686C91.1084 29.9183 90.4526 29.1561 90.0311 28.2628C89.558 27.2157 89.3312 26.0741 89.3681 24.9257C89.3221 23.8092 89.5747 22.7007 90.0997 21.7143C90.5909 20.85 91.2953 20.1261 92.1459 19.6114C93.0466 19.0616 94.0372 18.6747 95.0722 18.4686C96.1992 18.2273 97.349 18.1086 98.5015 18.1143C99.2078 18.1101 99.9137 18.1444 100.616 18.2171C101.125 18.2662 101.63 18.3541 102.125 18.48V17.9086C102.174 16.9748 101.83 16.0632 101.176 15.3943C100.24 14.6606 99.0555 14.3203 97.8728 14.4457C96.8396 14.4413 95.8077 14.5178 94.7864 14.6743C93.887 14.7925 93.0021 15.0031 92.1459 15.3028L91.3571 10.3543C91.7115 10.2514 92.1573 10.1257 92.6946 10.0114C93.2318 9.89712 93.8377 9.77141 94.4549 9.67998C95.0722 9.58855 95.7466 9.49712 96.4554 9.42855C97.1641 9.35998 97.8614 9.32569 98.5815 9.32569ZM99.0731 27.3143C99.6789 27.3143 100.216 27.3143 100.811 27.3143C101.251 27.2943 101.689 27.2524 102.125 27.1886V22.4914C101.748 22.4136 101.366 22.3563 100.982 22.32C100.531 22.2675 100.076 22.2408 99.6218 22.24C99.0752 22.2379 98.5291 22.2722 97.9871 22.3428C97.5234 22.4002 97.0719 22.5314 96.6497 22.7314C96.2797 22.9076 95.9638 23.1799 95.7352 23.52C95.5053 23.8897 95.39 24.3191 95.4037 24.7543C95.3198 25.5516 95.6966 26.3273 96.3753 26.7543C97.2095 27.1753 98.1402 27.3685 99.0731 27.3143Z" fill="white"/>
<path d="M118.997 31.6114C117.595 28.861 116.166 25.6419 114.711 21.9543C113.255 18.2667 111.88 14.2514 110.584 9.90857H117.111C117.386 10.9714 117.717 12.1371 118.083 13.3943C118.449 14.6514 118.849 15.9086 119.226 17.1886C119.603 18.4686 120.026 19.7143 120.426 20.9257C120.826 22.1371 121.215 23.2114 121.569 24.2171C121.935 23.2343 122.312 22.1257 122.713 20.9257C123.113 19.7257 123.536 18.4686 123.936 17.1886C124.336 15.9086 124.724 14.64 125.079 13.3943C125.433 12.1486 125.776 10.9714 126.05 9.90857H132.418C131.114 14.2514 129.739 18.2667 128.291 21.9543C126.843 25.6419 125.418 28.861 124.016 31.6114H118.997Z" fill="white"/>
<path d="M135.767 10.6514C137.096 10.2806 138.448 9.99428 139.813 9.79429C141.535 9.53352 143.273 9.40362 145.015 9.40571C146.57 9.36287 148.12 9.60694 149.587 10.1257C150.717 10.5475 151.721 11.2518 152.502 12.1714C153.232 13.091 153.751 14.1601 154.022 15.3029C154.342 16.6272 154.496 17.9863 154.479 19.3486V31.6114H148.33V20.0914C148.442 18.6445 148.17 17.1937 147.541 15.8857C146.854 14.9834 145.74 14.5135 144.614 14.6514C144.18 14.6514 143.711 14.6514 143.208 14.6514C142.705 14.6514 142.271 14.7429 141.894 14.8V31.6114H135.744L135.767 10.6514Z" fill="white"/>
<path d="M166.802 3.63428C166.833 4.64718 166.415 5.62203 165.659 6.29714C164.178 7.57557 161.984 7.57557 160.504 6.29714C159.748 5.62203 159.329 4.64718 159.36 3.63428C159.319 2.61956 159.74 1.64072 160.504 0.971423C161.979 -0.321895 164.184 -0.321895 165.659 0.971423C166.423 1.64072 166.843 2.61956 166.802 3.63428ZM166.219 31.6114H160.035V9.89713H166.185L166.219 31.6114Z" fill="white"/>
<path d="M178.027 28.3429C178.112 29.4145 177.689 30.4638 176.884 31.1771C175.345 32.4717 173.097 32.4717 171.557 31.1771C170.76 30.4586 170.339 29.4132 170.414 28.3429C170.334 27.2751 170.756 26.2308 171.557 25.52C173.097 24.2255 175.345 24.2255 176.884 25.52C177.685 26.2308 178.108 27.2751 178.027 28.3429Z" fill="white"/>
<path d="M195.231 15.3486C194.682 15.2114 194.088 15.0628 193.299 14.9143C192.509 14.7592 191.705 14.6827 190.899 14.6857C190.436 14.6915 189.974 14.7259 189.516 14.7886C189.107 14.8344 188.702 14.9108 188.304 15.0171V31.6114H182.154V11.04C183.431 10.5854 184.732 10.2039 186.052 9.89713C187.7 9.53824 189.384 9.36573 191.07 9.38284C191.402 9.38284 191.79 9.38284 192.213 9.43998C192.636 9.49713 193.151 9.54284 193.619 9.61141C194.088 9.67998 194.557 9.75999 195.025 9.85141C195.416 9.9378 195.798 10.0563 196.168 10.2057L195.231 15.3486Z" fill="white"/>
<path d="M218.105 30.8571C216.773 31.2156 215.422 31.4979 214.058 31.7028C212.337 31.9632 210.598 32.0931 208.857 32.0914C207.3 32.1317 205.749 31.8798 204.285 31.3486C203.15 30.9238 202.148 30.2061 201.381 29.2686C200.645 28.3255 200.122 27.2336 199.849 26.0686C199.537 24.7273 199.384 23.3541 199.392 21.9771V9.90857H205.542V21.2457C205.437 22.7217 205.709 24.2001 206.331 25.5428C206.977 26.464 208.069 26.9662 209.189 26.8571C209.634 26.8571 210.103 26.8571 210.595 26.8C211.086 26.7428 211.532 26.7086 211.921 26.6514V9.90857H218.07L218.105 30.8571Z" fill="white"/>
<path d="M13.4544 24.4686C11.6845 21.5187 12.1497 17.7431 14.5826 15.3107C17.0155 12.8784 20.7919 12.4133 23.7424 14.1828L31.8127 6.11426C24.3531 -0.0651703 13.4151 0.446332 6.56503 7.29494C-0.285072 14.1436 -0.796686 25.0791 5.38409 32.5371L13.4544 24.4686Z" fill="#00AFFF"/>
<path d="M34.4532 8.77713L26.3829 16.8457C28.1527 19.7956 27.6876 23.5712 25.2547 26.0035C22.8218 28.4359 19.0454 28.9009 16.0949 27.1314L8.00171 35.1886C15.4557 41.401 26.4174 40.9084 33.2839 34.0523C40.1503 27.1963 40.6573 16.2376 34.4532 8.77713Z" fill="#0DD149"/>
</g>
<defs>
<clipPath id="clip0">
<rect width="218.333" height="40" fill="white"/>
</clipPath>
</defs>
</svg>
