<svg width="164" height="30" viewBox="0 0 164 30" fill="none" xmlns="http://www.w3.org/2000/svg">
<g clip-path="url(#clip0)">
<path d="M45.0356 20.3914C45.6436 20.4311 46.2533 20.3466 46.8274 20.1429C47.1866 19.9649 47.3957 19.581 47.3504 19.1829C47.319 18.7604 47.0592 18.3889 46.6731 18.2143C46.0055 17.8379 45.3054 17.5224 44.5812 17.2714C43.8611 16.9971 43.2009 16.7229 42.6179 16.4143C42.0814 16.1633 41.5868 15.8308 41.1519 15.4286C40.7317 15.0234 40.4041 14.5322 40.1917 13.9886C39.9469 13.349 39.8304 12.6675 39.8488 11.9829C39.7965 10.5674 40.4361 9.21496 41.5634 8.35715C42.9165 7.39642 44.5524 6.9166 46.2102 6.99429C47.1653 6.98984 48.1187 7.07883 49.0565 7.26001C49.7943 7.38631 50.52 7.57558 51.2255 7.82572L50.4196 11.4171C49.857 11.2246 49.2847 11.0615 48.705 10.9286C48.007 10.774 47.2937 10.6992 46.5788 10.7057C45.1385 10.7057 44.4183 11.1086 44.4183 11.9143C44.4124 12.085 44.4446 12.2548 44.5126 12.4114C44.5944 12.5828 44.722 12.7281 44.8813 12.8314C45.1221 12.9923 45.3743 13.1355 45.6357 13.26C46.0342 13.4548 46.4435 13.6265 46.8617 13.7743C47.7227 14.083 48.5595 14.4555 49.3651 14.8886C49.9489 15.1914 50.479 15.5881 50.934 16.0629C51.3036 16.4659 51.5789 16.946 51.7399 17.4686C51.9032 18.0514 51.9812 18.6548 51.9714 19.26C52.0475 20.7092 51.3576 22.092 50.1539 22.9029C48.6014 23.8196 46.8095 24.2495 45.0099 24.1371C43.7962 24.1638 42.5838 24.04 41.4005 23.7686C40.7329 23.604 40.077 23.3949 39.4373 23.1429L40.2174 19.3971C40.9995 19.7044 41.8052 19.9481 42.6265 20.1257C43.4186 20.2947 44.2257 20.3837 45.0356 20.3914Z" fill="white"/>
<path d="M65.157 11.5114C64.7455 11.4086 64.2997 11.2971 63.7081 11.1857C63.1151 11.0694 62.5121 11.012 61.9077 11.0143C61.5607 11.0186 61.2143 11.0444 60.8704 11.0914C60.5636 11.1258 60.2598 11.1831 59.9616 11.2628V23.7086H55.332V8.27998C56.2895 7.93906 57.2656 7.65288 58.2555 7.42284C59.4917 7.15367 60.7541 7.02429 62.0192 7.03712C62.2678 7.03712 62.5593 7.03712 62.8765 7.07998C63.1937 7.12284 63.5795 7.15712 63.931 7.20855C64.2825 7.25998 64.6341 7.31998 64.9856 7.38855C65.2782 7.45334 65.5649 7.54222 65.8429 7.65427L65.157 11.5114Z" fill="white"/>
<path d="M73.936 6.99428C75.0967 6.96151 76.2549 7.11784 77.3653 7.45714C78.1895 7.71415 78.9375 8.17049 79.543 8.78571C80.0981 9.38277 80.4984 10.1067 80.7089 10.8943C80.9443 11.7923 81.0596 12.7175 81.0518 13.6457V23.2371C80.3917 23.3829 79.4658 23.5543 78.2913 23.7514C76.8727 23.9652 75.4391 24.0626 74.0046 24.0429C73.0488 24.0535 72.0945 23.9615 71.1583 23.7686C70.3679 23.611 69.6163 23.2994 68.9464 22.8514C68.3311 22.4388 67.8393 21.8671 67.5232 21.1971C67.1684 20.4118 66.9983 19.5556 67.026 18.6943C66.9915 17.8569 67.1809 17.0255 67.5747 16.2857C67.943 15.6376 68.4714 15.0946 69.1093 14.7086C69.7848 14.2962 70.5278 14.0061 71.304 13.8514C72.1493 13.6705 73.0116 13.5814 73.876 13.5857C74.4057 13.5826 74.9352 13.6083 75.4621 13.6629C75.8438 13.6997 76.2221 13.7656 76.5937 13.86V13.4314C76.6303 12.7311 76.3723 12.0474 75.8822 11.5457C75.1802 10.9954 74.2915 10.7402 73.4045 10.8343C72.6296 10.831 71.8556 10.8883 71.0897 11.0057C70.4151 11.0944 69.7514 11.2523 69.1093 11.4771L68.5177 7.76571C68.7835 7.68857 69.1178 7.59428 69.5208 7.50857C69.9237 7.42286 70.3781 7.32857 70.8411 7.26C71.304 7.19143 71.8099 7.12286 72.3414 7.07143C72.8729 7.02 73.3959 6.99428 73.936 6.99428ZM74.3047 20.4857C74.7591 20.4857 75.162 20.4857 75.6078 20.4857C75.9378 20.4708 76.2669 20.4393 76.5937 20.3914V16.8686C76.3105 16.8102 76.0243 16.7673 75.7364 16.74C75.3978 16.7006 75.0571 16.6806 74.7162 16.68C74.3063 16.6784 73.8967 16.7042 73.4902 16.7571C73.1424 16.8002 72.8038 16.8985 72.4871 17.0486C72.2096 17.1807 71.9728 17.385 71.8013 17.64C71.6289 17.9173 71.5423 18.2394 71.5527 18.5657C71.4897 19.1637 71.7723 19.7455 72.2814 20.0657C72.907 20.3815 73.605 20.5264 74.3047 20.4857Z" fill="white"/>
<path d="M89.2482 23.7085C88.1965 21.6457 87.1249 19.2314 86.0332 16.4657C84.9415 13.7 83.9099 10.6885 82.9382 7.4314H87.8336C88.0393 8.22854 88.288 9.10283 88.5623 10.0457C88.8367 10.9885 89.1367 11.9314 89.4196 12.8914C89.7026 13.8514 90.0198 14.7857 90.3198 15.6943C90.6199 16.6028 90.9114 17.4085 91.1772 18.1628C91.4515 17.4257 91.7344 16.5943 92.0345 15.6943C92.3346 14.7943 92.6518 13.8514 92.9518 12.8914C93.2519 11.9314 93.5434 10.98 93.8092 10.0457C94.0749 9.1114 94.3321 8.22854 94.5379 7.4314H99.3132C98.3359 10.6885 97.3042 13.7 96.2183 16.4657C95.1323 19.2314 94.0635 21.6457 93.0118 23.7085H89.2482Z" fill="white"/>
<path d="M101.825 7.98858C102.822 7.71044 103.836 7.49572 104.86 7.34572C106.151 7.15015 107.455 7.05272 108.761 7.05429C109.927 7.02216 111.09 7.20521 112.19 7.59429C113.038 7.91067 113.791 8.43888 114.376 9.12858C114.924 9.81827 115.314 10.6201 115.517 11.4772C115.756 12.4704 115.872 13.4897 115.86 14.5114V23.7086H111.247V15.0686C111.331 13.9834 111.127 12.8953 110.656 11.9143C110.141 11.2376 109.305 10.8851 108.461 10.9886C108.135 10.9886 107.783 10.9886 107.406 10.9886C107.029 10.9886 106.703 11.0572 106.42 11.1V23.7086H101.808L101.825 7.98858Z" fill="white"/>
<path d="M125.102 2.7257C125.125 3.48537 124.811 4.21652 124.244 4.72284C123.134 5.68167 121.488 5.68167 120.378 4.72284C119.811 4.21652 119.497 3.48537 119.52 2.7257C119.49 1.96466 119.805 1.23053 120.378 0.72856C121.484 -0.241429 123.138 -0.241429 124.244 0.72856C124.817 1.23053 125.132 1.96466 125.102 2.7257ZM124.664 23.7086H120.026V7.42284H124.639L124.664 23.7086Z" fill="white"/>
<path d="M133.521 21.2571C133.584 22.0609 133.267 22.8478 132.663 23.3828C131.509 24.3537 129.823 24.3537 128.668 23.3828C128.07 22.8439 127.754 22.0598 127.811 21.2571C127.75 20.4563 128.067 19.6731 128.668 19.14C129.823 18.1691 131.509 18.1691 132.663 19.14C133.264 19.6731 133.581 20.4563 133.521 21.2571Z" fill="white"/>
<path d="M146.423 11.5114C146.012 11.4086 145.566 11.2971 144.974 11.1857C144.381 11.0694 143.778 11.012 143.174 11.0143C142.827 11.0186 142.481 11.0444 142.137 11.0914C141.83 11.1258 141.526 11.1831 141.228 11.2628V23.7086H136.615V8.27998C137.573 7.93906 138.549 7.65288 139.539 7.42284C140.775 7.15367 142.038 7.02429 143.303 7.03712C143.551 7.03712 143.843 7.03712 144.16 7.07998C144.477 7.12284 144.863 7.15712 145.214 7.20855C145.566 7.25998 145.917 7.31998 146.269 7.38855C146.562 7.45334 146.848 7.54222 147.126 7.65427L146.423 11.5114Z" fill="white"/>
<path d="M163.578 23.1428C162.58 23.4116 161.566 23.6234 160.543 23.7771C159.252 23.9723 157.948 24.0698 156.643 24.0685C155.475 24.0988 154.312 23.9098 153.213 23.5114C152.362 23.1928 151.611 22.6545 151.036 21.9514C150.483 21.2441 150.091 20.4252 149.887 19.5514C149.653 18.5455 149.538 17.5156 149.544 16.4828V7.4314H154.156V15.9342C154.078 17.0413 154.281 18.1501 154.748 19.1571C155.232 19.848 156.051 20.2246 156.891 20.1428C157.226 20.1428 157.577 20.1428 157.946 20.1C158.314 20.0571 158.649 20.0314 158.94 19.9885V7.4314H163.553L163.578 23.1428Z" fill="white"/>
<path d="M10.0908 18.3514C8.76341 16.139 9.11224 13.3073 10.9369 11.4831C12.7616 9.65877 15.5939 9.31002 17.8068 10.6371L23.8595 4.5857C18.2648 -0.0488702 10.0614 0.334756 4.92377 5.47122C-0.213804 10.6077 -0.597515 18.8094 4.03807 24.4029L10.0908 18.3514Z" fill="#00AFFF"/>
<path d="M25.8401 6.58286L19.7873 12.6343C21.1147 14.8467 20.7659 17.6784 18.9412 19.5027C17.1166 21.3269 14.2842 21.6757 12.0714 20.3486L6.00146 26.3914C11.592 31.0508 19.8133 30.6813 24.9631 25.5392C30.1129 20.3972 30.4932 12.1782 25.8401 6.58286Z" fill="#0DD149"/>
</g>
<defs>
<clipPath id="clip0">
<rect width="163.75" height="30" fill="white"/>
</clipPath>
</defs>
</svg>
