<svg width="149" height="167" viewBox="0 0 149 167" fill="none" xmlns="http://www.w3.org/2000/svg">
<ellipse cx="74.5" cy="83.5" rx="83.5" ry="74.5" transform="rotate(-90 74.5 83.5)" fill="#424FD3"/>
<g clip-path="url(#clip0)">
<mask id="mask0" mask-type="alpha" maskUnits="userSpaceOnUse" x="-43" y="-34" width="587" height="235">
<path d="M543.12 -33.7066H-42.7067V200.707H543.12V-33.7066Z" fill="white"/>
</mask>
<g mask="url(#mask0)">
<path d="M74.7067 25C42.0459 25 16 51.0459 16 83.7067C16 115.954 42.0459 142 74.7067 142C106.954 142 133.413 115.954 133.413 83.2933C133 51.0459 106.954 25 74.7067 25ZM74.7067 137.452C44.9399 137.452 20.5477 113.06 20.5477 83.2933C20.5477 53.5265 44.5265 29.5477 74.7067 29.5477C104.474 29.5477 128.866 53.9399 128.866 83.7067C128.866 113.474 104.474 137.452 74.7067 137.452Z" fill="white"/>
</g>
<mask id="mask1" mask-type="alpha" maskUnits="userSpaceOnUse" x="-43" y="-34" width="587" height="235">
<path d="M543.12 -33.7066H-42.7067V200.707H543.12V-33.7066Z" fill="white"/>
</mask>
<g mask="url(#mask1)">
<path fill-rule="evenodd" clip-rule="evenodd" d="M74.7067 127.53C76.7739 127.53 78.0142 126.29 78.0142 124.223C78.4276 125.049 78.841 125.463 80.0813 125.876C80.9082 125.876 81.735 125.876 82.5619 125.463C83.3887 125.049 83.8022 124.636 84.2156 123.809C84.629 122.982 84.629 122.155 84.2156 121.329C85.0424 122.569 86.6961 122.982 88.3499 122.569C90.417 121.742 90.8304 120.088 90.417 118.021C87.9364 112.233 85.4559 106.859 83.3887 101.071C82.5619 100.244 82.1484 99.8304 82.1484 99.417C81.735 99.0035 81.735 98.5901 81.735 98.1767L81.3216 97.7633C85.0424 98.1767 86.6961 99.8304 87.9364 100.244C88.3499 100.244 88.3499 100.244 89.1767 100.244C89.5901 100.244 90.0036 100.244 90.417 100.244C90.8304 100.657 91.2438 100.657 91.6573 101.071C92.8976 102.311 94.5513 103.138 95.7915 104.378C96.205 104.792 97.0318 105.618 97.0318 106.445C97.0318 107.272 94.9647 108.926 94.5513 109.339C93.311 110.58 95.3781 113.06 97.8587 112.647C97.0318 111.82 97.0318 111.406 97.0318 110.58C97.4453 110.58 97.8587 110.58 98.2721 110.166C98.6855 109.753 98.6855 108.099 99.099 107.686C99.9258 106.859 103.233 106.859 104.887 106.445C105.714 106.445 106.541 106.032 106.541 105.205C107.781 105.205 107.781 106.032 107.781 106.859C108.608 106.445 109.435 103.551 106.127 103.138C106.541 102.724 107.781 102.311 108.194 103.138C108.608 102.311 107.368 100.244 104.474 101.484C104.474 101.484 103.233 99.8304 99.5124 103.965C99.099 103.551 98.6855 103.138 98.2721 102.724C97.0318 101.484 93.311 97.7633 93.311 97.7633C93.311 95.6961 92.8976 91.9753 90.417 89.9081C89.1767 89.0813 88.3499 88.2544 85.8693 87.841C85.8693 87.841 87.1096 86.1873 87.1096 85.3604C89.1767 87.4276 93.311 87.841 93.311 84.5336C96.6184 87.841 99.9258 86.1873 99.9258 84.1202C99.9258 84.947 100.339 86.1873 100.753 87.4276C101.166 88.6679 102.82 92.8021 106.541 92.8021C106.541 94.4558 106.541 99.417 111.502 100.244C111.502 100.244 111.915 100.244 111.915 100.657C113.982 103.138 121.837 105.618 122.664 104.792C122.251 104.378 121.011 103.965 121.011 101.071C121.011 99.417 120.597 89.9081 120.597 76.265C120.597 71.7173 120.184 56.0071 104.887 53.9399C102.406 53.5265 100.339 53.9399 98.2721 55.1802C95.7915 57.2474 94.1378 60.5548 95.7915 64.2756V64.6891C96.205 65.5159 96.205 66.3428 95.3781 67.1696C94.1378 68.4099 92.4841 69.2368 90.8304 69.6502C89.5901 69.6502 88.7633 69.2368 87.9364 68.4099C86.2827 66.7562 85.0424 64.6891 84.629 62.2085C83.8022 57.6608 85.0424 55.1802 85.0424 55.1802C86.2827 52.6997 88.7633 51.0459 92.0707 50.6325C93.311 48.1519 97.4453 48.9788 97.4453 48.9788C98.6855 49.3922 99.099 49.8057 99.099 50.2191C99.099 50.2191 100.753 47.7385 99.099 46.4982C97.4453 45.258 93.7244 44.8445 93.7244 44.8445C93.7244 43.1908 90.8304 41.9505 85.4559 42.7774C79.6679 44.0177 78.4276 41.5371 78.4276 41.5371C78.0142 44.4311 80.4947 46.0848 81.3216 46.4982C78.841 48.9788 75.5336 54.3534 74.7067 61.7951C73.8799 54.3534 70.5725 49.3922 68.0919 46.4982C68.9188 46.0848 70.9859 44.4311 70.9859 41.5371C70.9859 41.5371 69.7456 44.0177 63.5442 42.7774C58.1696 41.9505 55.2757 43.1908 55.2757 44.8445C55.2757 44.8445 51.5548 45.258 49.9011 46.4982C48.2474 47.7385 49.9011 50.2191 49.9011 50.2191C50.3145 49.8057 50.3145 49.3922 51.5548 49.3922C51.5548 49.3922 55.6891 48.5654 56.9294 51.0459C59.8234 51.4594 62.7173 53.1131 63.9576 55.5936C63.9576 55.5936 65.1979 58.0742 64.3711 62.6219C63.9576 65.1025 62.7173 67.1696 61.0636 68.8233C60.2368 69.6502 59.4099 70.0636 58.1696 70.0636C56.5159 70.0636 54.8622 68.8233 53.6219 67.583C52.7951 66.7562 52.7951 65.9293 53.2085 65.1025V64.6891C54.8622 60.9682 53.6219 57.6608 50.7279 55.5936C49.0742 53.9399 47.0071 53.9399 44.5265 54.3534C29.2297 56.4205 28.8163 71.7173 28.8163 76.6785C28.8163 89.9081 28.8163 99.417 28.4029 101.484C28.4029 104.378 27.1626 104.792 26.7491 105.205C27.576 106.032 35.4311 103.551 37.4983 101.071L37.9117 100.657C42.4594 99.417 42.4594 94.4558 42.8728 93.2156C47.0071 93.2156 48.2474 89.0813 48.6608 87.841C49.0742 87.0141 49.0742 85.7739 49.4877 84.5336C49.4877 86.6007 52.3817 88.2544 56.1025 84.947C56.1025 88.2544 60.2368 87.841 62.3039 85.7739C62.3039 86.6007 63.5442 88.2544 63.5442 88.2544C61.0636 88.6679 60.2368 89.0813 58.9965 90.3216C56.5159 92.8021 56.1025 96.523 56.1025 98.1767C56.1025 98.1767 52.3817 101.484 51.1414 103.138C50.7279 103.551 50.3145 103.965 49.9011 104.378C46.1802 100.244 44.94 101.898 44.94 101.898C42.046 100.657 40.8057 102.724 41.2191 103.551C42.046 102.724 42.8728 103.138 43.2862 103.551C39.5654 103.965 40.3923 106.859 41.6325 107.272C41.6325 106.445 42.046 105.618 42.8728 105.618C42.8728 106.859 43.6997 106.859 44.5265 106.859C46.1802 106.859 49.4877 106.859 50.3145 108.099C50.7279 108.512 50.7279 110.166 51.1414 110.58C51.5548 110.993 51.9682 110.993 52.3817 110.993C52.3817 111.406 52.3817 112.233 51.5548 113.06C54.0354 113.474 56.1025 110.993 54.8622 109.753C54.4488 109.339 52.3817 107.686 52.3817 106.859C52.3817 106.032 53.2085 105.205 53.6219 104.792C54.8622 103.551 56.1025 102.724 57.7562 101.484C58.1696 101.071 58.5831 101.071 58.9965 100.657C59.4099 100.657 59.8234 100.244 60.2368 100.657C61.0636 101.071 61.0636 101.071 61.4771 100.657C62.3039 99.8304 64.3711 98.5901 68.0919 98.1767C67.6785 98.1767 67.6785 98.5901 67.6785 98.5901C67.6785 99.0035 67.265 99.0035 67.265 99.8304C66.8516 100.244 66.8516 101.071 66.4382 101.484C63.9576 107.272 61.4771 112.647 59.4099 118.435C58.5831 120.502 59.4099 122.155 61.4771 122.982C62.7173 123.809 64.3711 123.396 65.6113 121.742C65.1979 122.569 65.1979 123.396 65.6113 124.223C66.0248 125.049 66.4382 125.463 67.265 125.876C68.0919 126.29 68.9188 126.29 69.7456 126.29C70.5725 126.29 70.9859 125.463 71.8128 124.636C71.3993 126.29 72.6396 127.53 74.7067 127.53Z" fill="white"/>
</g>
</g>
<defs>
<clipPath id="clip0">
<rect width="117" height="117" fill="white" transform="translate(16 25)"/>
</clipPath>
</defs>
</svg>
