<svg width="96" height="107" viewBox="0 0 96 107" fill="none" xmlns="http://www.w3.org/2000/svg">
<ellipse cx="47.7335" cy="53.5" rx="53.5" ry="47.7335" transform="rotate(-90 47.7335 53.5)" fill="#424FD3"/>
<g clip-path="url(#clip0)">
<mask id="mask0" mask-type="alpha" maskUnits="userSpaceOnUse" x="-28" y="-21" width="377" height="151">
<path d="M348.065 -20.5964H-27.2852V129.597H348.065V-20.5964Z" fill="white"/>
</mask>
<g mask="url(#mask0)">
<path d="M47.9438 17.0179C27.0175 17.0179 10.3293 33.7061 10.3293 54.6324C10.3293 75.2939 27.0175 91.982 47.9438 91.982C68.6053 91.982 85.5583 75.2939 85.5583 54.3675C85.2934 33.7061 68.6053 17.0179 47.9438 17.0179ZM47.9438 89.0682C28.8717 89.0682 13.2431 73.4397 13.2431 54.3675C13.2431 35.2954 28.6068 19.9317 47.9438 19.9317C67.0159 19.9317 82.6445 35.5603 82.6445 54.6324C82.6445 73.7046 67.0159 89.0682 47.9438 89.0682Z" fill="white"/>
</g>
<mask id="mask1" mask-type="alpha" maskUnits="userSpaceOnUse" x="-28" y="-21" width="377" height="151">
<path d="M348.065 -20.5964H-27.2852V129.597H348.065V-20.5964Z" fill="white"/>
</mask>
<g mask="url(#mask1)">
<path fill-rule="evenodd" clip-rule="evenodd" d="M47.9439 82.7108C49.2683 82.7108 50.063 81.9162 50.063 80.5917C50.3279 81.1215 50.5928 81.3864 51.3875 81.6513C51.9172 81.6513 52.447 81.6513 52.9768 81.3864C53.5066 81.1215 53.7715 80.8566 54.0364 80.3268C54.3013 79.797 54.3013 79.2673 54.0364 78.7375C54.5661 79.5321 55.6257 79.797 56.6853 79.5321C58.0097 79.0024 58.2746 77.9428 58.0097 76.6183C56.4204 72.9099 54.831 69.4663 53.5066 65.7578C52.9768 65.228 52.7119 64.9632 52.7119 64.6983C52.447 64.4334 52.447 64.1685 52.447 63.9036L52.1821 63.6387C54.5661 63.9036 55.6257 64.9632 56.4204 65.228C56.6853 65.228 56.6853 65.228 57.2151 65.228C57.4799 65.228 57.7448 65.228 58.0097 65.228C58.2746 65.4929 58.5395 65.4929 58.8044 65.7578C59.5991 66.5525 60.6586 67.0823 61.4533 67.8769C61.7182 68.1418 62.248 68.6716 62.248 69.2014C62.248 69.7312 60.9235 70.7907 60.6586 71.0556C59.864 71.8503 61.1884 73.4397 62.7778 73.1748C62.248 72.645 62.248 72.3801 62.248 71.8503C62.5129 71.8503 62.7778 71.8503 63.0426 71.5854C63.3075 71.3205 63.3075 70.261 63.5724 69.9961C64.1022 69.4663 66.2213 69.4663 67.2809 69.2014C67.8107 69.2014 68.3405 68.9365 68.3405 68.4067C69.1351 68.4067 69.1351 68.9365 69.1351 69.4663C69.6649 69.2014 70.1947 67.3472 68.0756 67.0823C68.3405 66.8174 69.1351 66.5525 69.4 67.0823C69.6649 66.5525 68.8702 65.228 67.016 66.0227C67.016 66.0227 66.2213 64.9632 63.8373 67.6121C63.5724 67.3472 63.3075 67.0823 63.0426 66.8174C62.248 66.0227 59.864 63.6387 59.864 63.6387C59.864 62.3142 59.5991 59.9302 58.0097 58.6058C57.215 58.076 56.6853 57.5462 55.0959 57.2813C55.0959 57.2813 55.8906 56.2218 55.8906 55.692C57.2151 57.0164 59.864 57.2813 59.864 55.1622C61.9831 57.2813 64.1022 56.2218 64.1022 54.8973C64.1022 55.4271 64.3671 56.2218 64.632 57.0164C64.8969 57.8111 65.9564 60.46 68.3405 60.46C68.3405 61.5196 68.3405 64.6983 71.5191 65.228C71.5191 65.228 71.784 65.228 71.784 65.4929C73.1085 67.0823 78.1414 68.6716 78.6712 68.1418C78.4063 67.8769 77.6116 67.6121 77.6116 65.7578C77.6116 64.6983 77.3467 58.6058 77.3467 49.8644C77.3467 46.9506 77.0819 36.8847 67.2809 35.5603C65.6916 35.2954 64.3671 35.5603 63.0426 36.355C61.4533 37.6794 60.3937 39.7985 61.4533 42.1825V42.4474C61.7182 42.9772 61.7182 43.507 61.1884 44.0368C60.3937 44.8315 59.3342 45.3612 58.2746 45.6261C57.4799 45.6261 56.9502 45.3612 56.4204 44.8315C55.3608 43.7719 54.5661 42.4474 54.3013 40.8581C53.7715 37.9443 54.5661 36.355 54.5661 36.355C55.3608 34.7656 56.9502 33.706 59.0693 33.4412C59.864 31.8518 62.5129 32.3816 62.5129 32.3816C63.3075 32.6465 63.5724 32.9114 63.5724 33.1763C63.5724 33.1763 64.632 31.5869 63.5724 30.7922C62.5129 29.9976 60.1288 29.7327 60.1288 29.7327C60.1288 28.6731 58.2746 27.8784 54.831 28.4082C51.1226 29.2029 50.3279 27.6136 50.3279 27.6136C50.063 29.4678 51.6523 30.5274 52.1821 30.7922C50.5928 32.3816 48.4737 35.8252 47.9439 40.5932C47.4141 35.8252 45.295 32.6465 43.7056 30.7922C44.2354 30.5274 45.5599 29.4678 45.5599 27.6136C45.5599 27.6136 44.7652 29.2029 40.7918 28.4082C37.3482 27.8784 35.494 28.6731 35.494 29.7327C35.494 29.7327 33.11 29.9976 32.0504 30.7922C30.9909 31.5869 32.0504 33.1763 32.0504 33.1763C32.3153 32.9114 32.3153 32.6465 33.11 32.6465C33.11 32.6465 35.7589 32.1167 36.5536 33.706C38.4078 33.9709 40.262 35.0305 41.0567 36.6198C41.0567 36.6198 41.8514 38.2092 41.3216 41.123C41.0567 42.7123 40.262 44.0368 39.2025 45.0963C38.6727 45.6261 38.1429 45.891 37.3482 45.891C36.2887 45.891 35.2291 45.0963 34.4345 44.3017C33.9047 43.7719 33.9047 43.2421 34.1696 42.7123V42.4474C35.2291 40.0634 34.4344 37.9443 32.5802 36.6198C31.5207 35.5603 30.1962 35.5603 28.6069 35.8252C18.8059 37.1496 18.541 46.9506 18.541 50.1293C18.541 58.6058 18.541 64.6983 18.2761 66.0227C18.2761 67.8769 17.4814 68.1418 17.2166 68.4067C17.7463 68.9365 22.7793 67.3472 24.1037 65.7578L24.3686 65.4929C27.2824 64.6983 27.2824 61.5196 27.5473 60.7249C30.1962 60.7249 30.9909 58.076 31.2558 57.2813C31.5207 56.7515 31.5207 55.9569 31.7855 55.1622C31.7855 56.4866 33.6398 57.5462 36.0238 55.4271C36.0238 57.5462 38.6727 57.2813 39.9972 55.9569C39.9972 56.4866 40.7918 57.5462 40.7918 57.5462C39.2025 57.8111 38.6727 58.076 37.878 58.8707C36.2887 60.46 36.0238 62.844 36.0238 63.9036C36.0238 63.9036 33.6398 66.0227 32.8451 67.0823C32.5802 67.3472 32.3153 67.6121 32.0504 67.8769C29.6664 65.228 28.8717 66.2876 28.8717 66.2876C27.0175 65.4929 26.2228 66.8174 26.4877 67.3472C27.0175 66.8174 27.5473 67.0823 27.8122 67.3472C25.4282 67.6121 25.9579 69.4663 26.7526 69.7312C26.7526 69.2014 27.0175 68.6716 27.5473 68.6716C27.5473 69.4663 28.0771 69.4663 28.6069 69.4663C29.6664 69.4663 31.7855 69.4663 32.3153 70.261C32.5802 70.5259 32.5802 71.5854 32.8451 71.8503C33.11 72.1152 33.3749 72.1152 33.6398 72.1152C33.6398 72.3801 33.6398 72.9099 33.11 73.4397C34.6993 73.7045 36.0238 72.1152 35.2291 71.3205C34.9642 71.0556 33.6398 69.9961 33.6398 69.4663C33.6398 68.9365 34.1696 68.4067 34.4345 68.1418C35.2291 67.3472 36.0238 66.8174 37.0834 66.0227C37.3482 65.7578 37.6131 65.7578 37.878 65.4929C38.1429 65.4929 38.4078 65.228 38.6727 65.4929C39.2025 65.7578 39.2025 65.7578 39.4674 65.4929C39.9972 64.9632 41.3216 64.1685 43.7056 63.9036C43.4407 63.9036 43.4407 64.1685 43.4407 64.1685C43.4407 64.4334 43.1758 64.4334 43.1758 64.9632C42.9109 65.228 42.911 65.7578 42.6461 66.0227C41.0567 69.7312 39.4674 73.1748 38.1429 76.8832C37.6131 78.2077 38.1429 79.2673 39.4674 79.797C40.262 80.3268 41.3216 80.0619 42.1163 79.0024C41.8514 79.5321 41.8514 80.0619 42.1163 80.5917C42.3812 81.1215 42.6461 81.3864 43.1758 81.6513C43.7056 81.9162 44.2354 81.9162 44.7652 81.9162C45.295 81.9162 45.5599 81.3864 46.0896 80.8566C45.8247 81.9162 46.6194 82.7108 47.9439 82.7108Z" fill="white"/>
</g>
</g>
<defs>
<clipPath id="clip0">
<rect width="74.9641" height="74.9641" fill="white" transform="translate(10.3293 17.0179)"/>
</clipPath>
</defs>
</svg>
