<svg width="65" height="64" viewBox="0 0 65 64" fill="none" xmlns="http://www.w3.org/2000/svg">
<path d="M32.9984 63.9998C50.6714 63.9998 64.9983 49.6729 64.9983 31.9999C64.9983 14.3269 50.6714 0 32.9984 0C15.3254 0 0.998535 14.3269 0.998535 31.9999C0.998535 49.6729 15.3254 63.9998 32.9984 63.9998Z" fill="url(#paint0_linear)"/>
<path d="M12.916 33.5651C16.6568 31.5046 20.8325 29.7849 24.7341 28.0563C31.4463 25.2251 38.1852 22.443 44.9922 19.8529C46.3165 19.4116 48.6961 18.98 48.9295 20.9426C48.8017 23.7207 48.2761 26.4826 47.9156 29.2445C47.0005 35.318 45.943 41.3708 44.9116 47.4244C44.5563 49.4408 42.0303 50.4847 40.414 49.1943C36.5298 46.5705 32.6157 43.9724 28.781 41.2879C27.5249 40.0115 28.6897 38.1786 29.8115 37.2671C33.0107 34.1143 36.4035 31.4357 39.4355 28.1199C40.2534 26.1449 37.8368 27.8094 37.0398 28.3194C32.6601 31.3375 28.3876 34.5399 23.77 37.1924C21.4113 38.4908 18.6623 37.3812 16.3047 36.6567C14.1908 35.7815 11.0932 34.8998 12.9158 33.5652L12.916 33.5651Z" fill="white"/>
<defs>
<linearGradient id="paint0_linear" x1="25.0022" y1="2.66879" x2="9.00224" y2="39.9999" gradientUnits="userSpaceOnUse">
<stop stop-color="#37AEE2"/>
<stop offset="1" stop-color="#1E96C8"/>
</linearGradient>
</defs>
</svg>
