<svg width="65" height="64" viewBox="0 0 65 64" fill="none" xmlns="http://www.w3.org/2000/svg">
<path d="M0.33252 31.9999C0.33252 14.3268 14.6594 0 32.3324 0C50.0055 0 64.3323 14.3268 64.3323 31.9999C64.3323 49.6729 50.0055 63.9998 32.3324 63.9998C14.6594 63.9998 0.33252 49.6729 0.33252 31.9999Z" fill="#55ACEE"/>
<path d="M31.3741 26.0097L31.4412 27.117L30.3221 26.9814C26.2483 26.4616 22.6894 24.699 19.6676 21.7388L18.1903 20.27L17.8098 21.3546C17.004 23.7726 17.5188 26.326 19.1976 28.0434C20.0929 28.9925 19.8915 29.1281 18.347 28.5632C17.8098 28.3824 17.3398 28.2468 17.295 28.3146C17.1383 28.4728 17.6755 30.5291 18.1008 31.3427C18.6828 32.4725 19.8691 33.5798 21.1673 34.2351L22.2641 34.7548L20.9659 34.7774C19.7124 34.7774 19.6676 34.8 19.8019 35.2746C20.2496 36.7434 22.0179 38.3026 23.9876 38.9805L25.3754 39.4551L24.1667 40.1782C22.376 41.2177 20.272 41.8052 18.1679 41.8504C17.1607 41.873 16.3325 41.9634 16.3325 42.0312C16.3325 42.2572 19.0633 43.5226 20.6525 44.0197C25.4201 45.4886 31.0831 44.8558 35.3359 42.3475C38.3576 40.5624 41.3794 37.0146 42.7895 33.5798C43.5506 31.7494 44.3116 28.405 44.3116 26.8006C44.3116 25.7611 44.3787 25.6255 45.6322 24.3827C46.3709 23.6596 47.0647 22.8687 47.199 22.6427C47.4229 22.2133 47.4005 22.2133 46.2589 22.5975C44.3564 23.2754 44.0878 23.185 45.0279 22.1681C45.7217 21.445 46.5499 20.1344 46.5499 19.7502C46.5499 19.6824 46.2142 19.7954 45.8337 19.9988C45.4308 20.2248 44.5354 20.5637 43.8639 20.7671L42.6552 21.1513L41.5585 20.4056C40.9541 19.9988 40.1035 19.5469 39.6559 19.4113C38.5143 19.0949 36.7684 19.1401 35.7388 19.5017C32.9409 20.5185 31.1726 23.1398 31.3741 26.0097Z" fill="white"/>
</svg>
