<svg width="402" height="210" viewBox="0 0 402 210" fill="none" xmlns="http://www.w3.org/2000/svg">
<ellipse cx="201" cy="115.5" rx="65.5" ry="201" transform="rotate(-90 201 115.5)" fill="#424FD3"/>
<path d="M279.08 201.259H282C282 201.332 282 201.478 282 201.55L279.08 201.478C279.08 201.405 279.08 201.332 279.08 201.259Z" fill="white"/>
<path d="M279.08 201.478L282 201.55C282 201.696 282 201.769 282 201.915L279.08 201.696C279.08 201.623 279.08 201.55 279.08 201.478Z" fill="white"/>
<path d="M279.08 201.696L282 201.915C282 202.06 282 202.133 282 202.279L279.08 201.915C279.08 201.842 279.08 201.769 279.08 201.696Z" fill="white"/>
<path d="M279.007 201.915L281.927 202.279C281.927 202.424 281.927 202.497 281.854 202.643L278.934 202.206C279.007 202.06 279.007 201.987 279.007 201.915Z" fill="white"/>
<path d="M279.006 202.133L281.927 202.57C281.927 202.716 281.854 202.789 281.854 202.934L279.006 202.352C279.006 202.279 279.006 202.206 279.006 202.133Z" fill="white"/>
<path d="M278.933 202.425L281.781 203.007C281.781 203.153 281.708 203.226 281.708 203.371L278.86 202.643C278.933 202.57 278.933 202.497 278.933 202.425Z" fill="white"/>
<path d="M278.934 202.643L281.781 203.371C281.781 203.517 281.708 203.663 281.708 203.736L278.934 202.934C278.861 202.789 278.861 202.716 278.934 202.643Z" fill="white"/>
<path d="M278.86 202.862L281.635 203.663C281.562 203.809 281.562 203.954 281.489 204.027L278.714 203.08C278.787 203.08 278.787 203.007 278.86 202.862Z" fill="white"/>
<path d="M278.787 203.153L281.562 204.1C281.489 204.245 281.489 204.391 281.416 204.537L278.714 203.444C278.714 203.299 278.714 203.226 278.787 203.153Z" fill="white"/>
<path d="M278.642 203.444L281.343 204.537C281.27 204.683 281.197 204.828 281.124 204.974L278.496 203.736C278.569 203.59 278.642 203.517 278.642 203.444Z" fill="#FAFAFA"/>
<path d="M278.568 203.736L281.197 204.974C281.124 205.12 281.051 205.265 280.978 205.411L278.422 204.027C278.422 203.881 278.495 203.808 278.568 203.736Z" fill="#F5F5F5"/>
<path d="M278.349 204.027L280.905 205.411C280.832 205.557 280.759 205.702 280.613 205.848L278.13 204.318C278.276 204.173 278.349 204.1 278.349 204.027Z" fill="#F0F0F0"/>
<path d="M278.203 204.318L280.686 205.848C280.613 205.994 280.467 206.139 280.394 206.358L277.984 204.683C278.057 204.537 278.13 204.391 278.203 204.318Z" fill="#EBEBEB"/>
<path d="M277.984 204.61L280.393 206.285C280.247 206.431 280.174 206.649 280.028 206.795L277.765 204.974C277.838 204.828 277.911 204.755 277.984 204.61Z" fill="#E6E6E6"/>
<path d="M277.765 204.974L280.028 206.795C279.882 206.941 279.736 207.159 279.59 207.305L277.473 205.265C277.546 205.192 277.619 205.047 277.765 204.974Z" fill="#E0E0E0"/>
<path d="M277.4 205.265L279.517 207.305C279.371 207.451 279.152 207.669 278.933 207.815L277.035 205.63C277.181 205.557 277.327 205.411 277.4 205.265Z" fill="#DBDBDB"/>
<path d="M277.035 205.629L278.933 207.815C278.714 208.033 278.495 208.179 278.276 208.325L276.597 205.921C276.743 205.921 276.889 205.775 277.035 205.629Z" fill="#D6D6D6"/>
<path d="M276.597 205.994L278.276 208.397C277.984 208.543 277.765 208.762 277.473 208.907L276.013 206.358C276.305 206.212 276.451 206.139 276.597 205.994Z" fill="#D1D1D1"/>
<path d="M276.086 206.358L277.546 208.907C277.254 209.053 276.889 209.199 276.597 209.344L275.502 206.649C275.648 206.576 275.867 206.431 276.086 206.358Z" fill="#CCCCCC"/>
<path d="M275.429 206.649L276.524 209.344C276.159 209.49 275.794 209.636 275.356 209.708L274.626 206.868C274.991 206.795 275.21 206.722 275.429 206.649Z" fill="#C7C7C7"/>
<path d="M274.699 206.868L275.429 209.709C274.991 209.854 274.553 209.927 274.042 209.927L273.75 207.014C274.115 207.014 274.407 206.941 274.699 206.868Z" fill="#C2C2C2"/>
<path d="M273.75 207.013L274.042 209.927C273.75 209.927 273.531 210 273.239 210V207.086C273.458 207.086 273.604 207.086 273.75 207.013Z" fill="#BDBDBD"/>
<path d="M273.239 207.086H125.761V210H273.239V207.086Z" fill="#C6C6C6"/>
<path d="M125.761 207.086V210C125.469 210 125.104 210 124.812 209.927L125.104 207.013C125.323 207.086 125.542 207.086 125.761 207.086Z" fill="#BDBDBD"/>
<path d="M125.104 207.013L124.812 209.927C124.009 209.854 123.206 209.636 122.476 209.344L123.571 206.649C124.082 206.868 124.593 207.013 125.104 207.013Z" fill="#B8B8B8"/>
<path d="M123.571 206.649L122.476 209.344C119.774 208.252 117.803 205.921 117.146 203.08L119.993 202.425C120.431 204.391 121.819 205.921 123.571 206.649Z" fill="#B3B3B3"/>
<path d="M120.066 202.497L117.219 203.153C117.073 202.497 117 201.915 117 201.259H119.92C119.92 201.696 119.993 202.06 120.066 202.497Z" fill="#B8B8B8"/>
<path d="M119.92 105.036H117V201.186H119.92V105.036Z" fill="#C3C3C3"/>
<path d="M282 105.036H279.08V201.186H282V105.036Z" fill="#EEEEEE"/>
<path d="M125.761 99.2093V96.2957H131.967L134.887 99.2093H125.761Z" fill="#EAEAEA"/>
<path d="M134.887 99.2091L131.967 96.2955V67.3777H134.887V99.2091Z" fill="#C3C3C3"/>
<path d="M134.887 67.3777H131.967C131.967 65.9938 132.04 64.6098 132.113 63.2258L135.033 63.3715C134.96 64.7555 134.887 66.0666 134.887 67.3777Z" fill="#B8B8B8"/>
<path d="M135.033 63.4444L132.113 63.2988C132.405 58.7826 133.062 54.4122 134.23 50.2603L137.077 50.9887C135.982 54.9949 135.252 59.1468 135.033 63.4444Z" fill="#BDBDBD"/>
<path d="M137.005 50.9158L134.157 50.1874C135.106 46.691 136.274 43.2675 137.735 40.0625L140.436 41.228C139.049 44.3601 137.881 47.5651 137.005 50.9158Z" fill="#C2C2C2"/>
<path d="M140.436 41.228L137.734 40.0626C138.976 37.2218 140.436 34.4538 142.115 31.8315L144.597 33.3612C143.064 35.9106 141.604 38.5329 140.436 41.228Z" fill="#C7C7C7"/>
<path d="M144.598 33.3611L142.115 31.8314C143.575 29.5005 145.109 27.3153 146.861 25.2029L149.124 27.0239C147.518 29.0634 145.985 31.1758 144.598 33.3611Z" fill="#CCCCCC"/>
<path d="M149.124 27.0238L146.861 25.2028C148.394 23.3089 150 21.4879 151.752 19.7397L153.797 21.7793C152.117 23.4546 150.584 25.2028 149.124 27.0238Z" fill="#D1D1D1"/>
<path d="M153.796 21.7794L151.752 19.7398C153.285 18.2102 154.891 16.7534 156.571 15.3694L158.396 17.6274C156.79 18.9386 155.256 20.3226 153.796 21.7794Z" fill="#D6D6D6"/>
<path d="M158.396 17.6275L156.571 15.3694C158.104 14.1311 159.637 12.9657 161.243 11.873L162.923 14.2768C161.316 15.3694 159.856 16.462 158.396 17.6275Z" fill="#DBDBDB"/>
<path d="M162.85 14.2768L161.17 11.873C162.631 10.8532 164.091 9.90632 165.624 9.03223L167.084 11.5817C165.697 12.3829 164.237 13.3298 162.85 14.2768Z" fill="#E0E0E0"/>
<path d="M167.157 11.5817L165.697 9.03223C167.084 8.23099 168.471 7.50258 169.931 6.77417L171.245 9.39644C169.785 10.052 168.471 10.7804 167.157 11.5817Z" fill="#E6E6E6"/>
<path d="M171.173 9.39641L169.858 6.77414C171.173 6.11858 172.56 5.53585 173.874 4.95312L174.969 7.64823C173.728 8.23096 172.487 8.81369 171.173 9.39641Z" fill="#EBEBEB"/>
<path d="M175.042 7.64826L173.947 4.95315C175.188 4.44327 176.502 3.93338 177.743 3.49634L178.692 6.26429C177.524 6.70133 176.283 7.21122 175.042 7.64826Z" fill="#F0F0F0"/>
<path d="M178.692 6.33712L177.743 3.56917C178.911 3.20497 180.152 2.76793 181.321 2.47656L182.124 5.31735C181.029 5.60872 179.86 5.90008 178.692 6.33712Z" fill="#F5F5F5"/>
<path d="M182.197 5.24442L181.394 2.40363C182.562 2.11227 183.657 1.8209 184.825 1.52954L185.482 4.37033C184.387 4.6617 183.292 4.95306 182.197 5.24442Z" fill="#FAFAFA"/>
<path d="M185.482 4.44338L184.825 1.60259C185.92 1.38407 187.015 1.16554 188.184 0.947021L188.695 3.78781C187.6 4.00633 186.504 4.22486 185.482 4.44338Z" fill="white"/>
<path d="M188.695 3.78785L188.184 0.947055C189.206 0.801373 190.301 0.655691 191.323 0.51001L191.688 3.42364C190.666 3.49648 189.644 3.64216 188.695 3.78785Z" fill="white"/>
<path d="M191.688 3.35075L191.323 0.437115C192.345 0.291434 193.367 0.218593 194.462 0.145752L194.681 3.05938C193.659 3.13222 192.637 3.27791 191.688 3.35075Z" fill="white"/>
<path d="M194.681 3.05931L194.462 0.145682C195.412 0.0728408 196.434 0 197.383 0L197.456 2.91363C196.507 2.98647 195.558 3.05931 194.681 3.05931Z" fill="white"/>
<path d="M197.456 2.91363L197.383 0C198.113 0 198.843 0 199.5 0C199.792 0 200.011 0 200.303 0V2.91363C200.084 2.91363 199.792 2.91363 199.573 2.91363C198.843 2.91363 198.113 2.91363 197.456 2.91363Z" fill="white"/>
<path d="M200.23 2.91363V0C201.179 0 202.128 0.0728408 203.004 0.0728408L202.858 2.98647C202.055 2.98647 201.106 2.91363 200.23 2.91363Z" fill="white"/>
<path d="M202.932 2.98639L203.078 0.0727539C204.027 0.145595 204.903 0.218435 205.852 0.291276L205.56 3.20491C204.684 3.13207 203.808 3.05923 202.932 2.98639Z" fill="white"/>
<path d="M205.56 3.20514L205.852 0.291504C206.728 0.364345 207.604 0.437185 208.48 0.582867L208.115 3.4965C207.239 3.35082 206.363 3.27798 205.56 3.20514Z" fill="white"/>
<path d="M208.042 3.4964L208.407 0.582764C209.283 0.728445 210.159 0.801286 211.035 0.946968L210.524 3.78776C209.721 3.71492 208.918 3.56924 208.042 3.4964Z" fill="white"/>
<path d="M210.524 3.86057L211.035 1.01978C211.912 1.16546 212.715 1.31114 213.591 1.52966L213.007 4.37045C212.204 4.15193 211.401 4.00625 210.524 3.86057Z" fill="white"/>
<path d="M213.007 4.29758L213.591 1.45679C214.467 1.60247 215.27 1.82099 216.073 2.03951L215.343 4.8803C214.613 4.66178 213.81 4.5161 213.007 4.29758Z" fill="white"/>
<path d="M215.416 4.88034L216.146 2.03955C216.949 2.25807 217.825 2.4766 218.628 2.69512L217.752 5.53591C217.022 5.31739 216.219 5.09886 215.416 4.88034Z" fill="white"/>
<path d="M217.752 5.53577L218.555 2.76782C219.358 2.98634 220.234 3.27771 221.037 3.56907L220.088 6.33702C219.358 5.97282 218.555 5.75429 217.752 5.53577Z" fill="white"/>
<path d="M220.162 6.26429L221.111 3.49634C221.987 3.7877 222.79 4.07906 223.666 4.44327L222.644 7.13838C221.768 6.84701 220.965 6.55565 220.162 6.26429Z" fill="white"/>
<path d="M222.571 7.13847L223.593 4.44336C224.469 4.73472 225.272 5.09893 226.148 5.46313L224.98 8.15824C224.177 7.79404 223.374 7.42983 222.571 7.13847Z" fill="white"/>
<path d="M224.98 8.08525L226.148 5.39014C227.024 5.75434 227.973 6.19139 228.849 6.62843L227.608 9.2507C226.732 8.88649 225.856 8.52229 224.98 8.08525Z" fill="white"/>
<path d="M227.536 9.32368L228.777 6.70142C229.726 7.13846 230.602 7.57551 231.478 8.08539L230.091 10.6348C229.288 10.1249 228.412 9.68789 227.536 9.32368Z" fill="white"/>
<path d="M230.164 10.6346L231.551 8.08521C232.5 8.59509 233.449 9.17782 234.398 9.6877L232.865 12.1643C231.989 11.6544 231.04 11.1445 230.164 10.6346Z" fill="white"/>
<path d="M232.865 12.1643L234.398 9.68774C235.494 10.3433 236.589 10.9989 237.611 11.7273L235.932 14.131C234.909 13.4755 233.887 12.8199 232.865 12.1643Z" fill="white"/>
<path d="M235.932 14.131L237.611 11.7273C238.852 12.6014 240.093 13.4755 241.334 14.4224L239.509 16.6805C238.341 15.8064 237.173 14.9323 235.932 14.131Z" fill="white"/>
<path d="M239.509 16.7534L241.334 14.4954C243.159 15.9522 244.911 17.4818 246.591 19.1572L244.546 21.2696C242.94 19.5942 241.261 18.1374 239.509 16.7534Z" fill="white"/>
<path d="M244.546 21.1239L246.591 19.0115C249.73 21.9979 252.504 25.3486 254.987 28.9178L252.577 30.5932C250.241 27.2425 247.54 24.0375 244.546 21.1239Z" fill="white"/>
<path d="M252.578 30.5931L254.987 28.9177C256.301 30.8116 257.542 32.8511 258.71 34.8907L256.155 36.2746C255.06 34.3808 253.892 32.4869 252.578 30.5931Z" fill="white"/>
<path d="M256.155 36.3476L258.71 34.9636C259.44 36.2748 260.097 37.6587 260.754 38.9699L258.126 40.2082C257.542 38.897 256.885 37.6587 256.155 36.3476Z" fill="white"/>
<path d="M258.126 40.208L260.754 38.9697C261.265 40.1352 261.776 41.2278 262.214 42.3932L259.513 43.4859C259.075 42.3932 258.637 41.3006 258.126 40.208Z" fill="white"/>
<path d="M259.513 43.5587L262.215 42.4661C262.653 43.4858 263.018 44.5784 263.383 45.6711L260.608 46.618C260.316 45.5254 259.951 44.5056 259.513 43.5587Z" fill="white"/>
<path d="M260.682 46.6181L263.456 45.6711C263.748 46.6181 264.113 47.565 264.332 48.5119L261.558 49.3132C261.266 48.4391 260.974 47.4922 260.682 46.6181Z" fill="white"/>
<path d="M261.558 49.3132L264.332 48.512C264.624 49.4589 264.843 50.4058 265.062 51.3528L262.215 52.0812C262.069 51.1342 261.777 50.2601 261.558 49.3132Z" fill="white"/>
<path d="M262.288 52.0812L265.135 51.3528C265.354 52.2269 265.573 53.101 265.719 53.975L262.872 54.5578C262.653 53.7565 262.507 52.8824 262.288 52.0812Z" fill="white"/>
<path d="M262.872 54.6306L265.719 54.0479C265.865 54.9219 266.084 55.796 266.23 56.743L263.383 57.18C263.164 56.3059 263.018 55.4318 262.872 54.6306Z" fill="white"/>
<path d="M263.31 57.18L266.157 56.7429C266.303 57.617 266.449 58.4183 266.522 59.2923L263.602 59.6566C263.529 58.7825 263.456 57.9812 263.31 57.18Z" fill="white"/>
<path d="M263.675 59.5837L266.595 59.2195C266.668 60.0936 266.814 60.9677 266.887 61.8418L263.967 62.0603C263.821 61.259 263.748 60.4578 263.675 59.5837Z" fill="white"/>
<path d="M263.894 62.1331L266.814 61.9146C266.887 62.7886 266.96 63.6627 266.96 64.5368L264.04 64.6825C264.04 63.7356 263.967 62.9343 263.894 62.1331Z" fill="white"/>
<path d="M264.04 64.6098L266.96 64.4641C267.033 65.3382 267.033 66.2123 267.033 67.0864H264.113C264.113 66.2851 264.113 65.411 264.04 64.6098Z" fill="white"/>
<path d="M264.113 67.1592H267.033C267.033 67.232 267.033 67.3049 267.033 67.4505H264.113C264.113 67.3049 264.113 67.232 264.113 67.1592Z" fill="white"/>
<path d="M264.113 67.3777H267.033V96.2955L264.113 99.2091V67.3777Z" fill="#EEEEEE"/>
<path d="M264.113 99.2093L267.033 96.2957H273.239V99.2093H264.113Z" fill="#EAEAEA"/>
<path d="M273.239 99.2093V96.2957H273.312L273.239 99.2093C273.312 99.2093 273.239 99.2093 273.239 99.2093Z" fill="white"/>
<path d="M273.312 99.2093V96.2957C273.458 96.2957 273.531 96.2957 273.677 96.2957L273.531 99.2093C273.458 99.2093 273.385 99.2093 273.312 99.2093Z" fill="white"/>
<path d="M273.531 99.2093L273.677 96.2957C273.823 96.2957 273.896 96.2957 274.042 96.2957L273.75 99.2093C273.677 99.2821 273.604 99.2093 273.531 99.2093Z" fill="white"/>
<path d="M273.75 99.282L274.042 96.3684C274.188 96.3684 274.261 96.3684 274.407 96.4412L274.042 99.3549C273.969 99.282 273.896 99.282 273.75 99.282Z" fill="white"/>
<path d="M274.042 99.282L274.407 96.3684C274.553 96.3684 274.626 96.3684 274.772 96.4412L274.261 99.282C274.188 99.282 274.115 99.282 274.042 99.282Z" fill="white"/>
<path d="M274.261 99.2822L274.772 96.4414C274.845 96.4414 274.991 96.5143 275.064 96.5143L274.48 99.355C274.407 99.355 274.334 99.355 274.261 99.2822Z" fill="white"/>
<path d="M274.48 99.355L275.064 96.5142C275.137 96.5142 275.283 96.587 275.356 96.587L274.626 99.4278C274.626 99.355 274.553 99.355 274.48 99.355Z" fill="white"/>
<path d="M274.699 99.4279L275.429 96.5872C275.575 96.5872 275.648 96.66 275.794 96.66L274.991 99.4279C274.845 99.4279 274.772 99.4279 274.699 99.4279Z" fill="white"/>
<path d="M274.918 99.4279L275.721 96.6599C275.794 96.6599 275.94 96.7328 276.013 96.7328L275.064 99.5007C275.064 99.5007 274.991 99.5007 274.918 99.4279Z" fill="white"/>
<path d="M275.137 99.5006L276.086 96.7327C276.232 96.8055 276.305 96.8055 276.451 96.8783L275.429 99.5734C275.283 99.5734 275.21 99.5735 275.137 99.5006Z" fill="white"/>
<path d="M275.356 99.6463L276.378 96.9512C276.524 97.024 276.597 97.024 276.67 97.0969L275.502 99.792C275.502 99.6463 275.429 99.6463 275.356 99.6463Z" fill="white"/>
<path d="M275.575 99.7193L276.743 97.0242C276.889 97.097 276.962 97.097 277.108 97.1698L275.867 99.7921C275.721 99.7921 275.648 99.7193 275.575 99.7193Z" fill="white"/>
<path d="M275.794 99.792L277.035 97.1697C277.181 97.2425 277.254 97.3154 277.4 97.3154L276.013 99.8648C275.94 99.8648 275.867 99.8648 275.794 99.792Z" fill="white"/>
<path d="M276.013 99.9376L277.4 97.3882C277.546 97.461 277.619 97.5339 277.765 97.6067L276.232 100.083C276.159 100.01 276.086 99.9376 276.013 99.9376Z" fill="white"/>
<path d="M276.232 100.083L277.765 97.6067C277.911 97.6795 278.057 97.7524 278.203 97.898L276.524 100.302C276.451 100.156 276.378 100.156 276.232 100.083Z" fill="white"/>
<path d="M276.524 100.229L278.204 97.8252C278.35 97.9709 278.496 98.0437 278.715 98.1894L276.889 100.447C276.743 100.375 276.67 100.302 276.524 100.229Z" fill="white"/>
<path d="M276.816 100.448L278.642 98.1895C278.861 98.408 279.08 98.5537 279.299 98.7722L277.254 100.885C277.181 100.739 277.035 100.593 276.816 100.448Z" fill="white"/>
<path d="M277.327 100.885L279.371 98.7722C279.809 99.1364 280.174 99.5735 280.467 100.083L278.057 101.759C277.838 101.394 277.546 101.176 277.327 100.885Z" fill="white"/>
<path d="M278.057 101.759L280.466 100.083C280.612 100.302 280.831 100.593 280.977 100.885L278.422 102.269C278.276 102.05 278.13 101.905 278.057 101.759Z" fill="white"/>
<path d="M278.35 102.268L280.905 100.885C280.978 101.03 281.051 101.249 281.197 101.394L278.569 102.633C278.496 102.487 278.423 102.341 278.35 102.268Z" fill="white"/>
<path d="M278.568 102.633L281.197 101.395C281.27 101.54 281.343 101.686 281.416 101.832L278.714 102.924C278.641 102.779 278.568 102.706 278.568 102.633Z" fill="white"/>
<path d="M278.642 102.924L281.343 101.832C281.416 101.977 281.416 102.123 281.489 102.269L278.715 103.216C278.715 103.07 278.715 102.997 278.642 102.924Z" fill="white"/>
<path d="M278.788 103.215L281.562 102.269C281.635 102.414 281.635 102.487 281.708 102.633L278.934 103.434C278.788 103.361 278.788 103.288 278.788 103.215Z" fill="white"/>
<path d="M278.86 103.434L281.635 102.633C281.635 102.778 281.708 102.851 281.708 102.997L278.86 103.725C278.86 103.58 278.86 103.507 278.86 103.434Z" fill="white"/>
<path d="M278.934 103.652L281.781 102.924C281.781 103.07 281.854 103.143 281.854 103.288L279.007 103.871C278.934 103.798 278.934 103.725 278.934 103.652Z" fill="white"/>
<path d="M278.934 103.871L281.781 103.288C281.781 103.434 281.854 103.507 281.854 103.653L279.007 104.09C279.007 104.09 279.007 104.017 278.934 103.871Z" fill="white"/>
<path d="M279.006 104.162L281.854 103.725C281.854 103.871 281.854 103.944 281.927 104.09L279.006 104.454C279.006 104.308 279.006 104.235 279.006 104.162Z" fill="white"/>
<path d="M279.006 104.381L281.927 104.017C281.927 104.163 281.927 104.235 281.927 104.381L279.006 104.6C279.079 104.527 279.079 104.454 279.006 104.381Z" fill="white"/>
<path d="M279.08 104.599L282 104.381C282 104.527 282 104.599 282 104.745L279.08 104.891C279.08 104.745 279.08 104.672 279.08 104.599Z" fill="white"/>
<path d="M279.08 104.818L282 104.672C282 104.818 282 104.891 282 105.037H279.08C279.08 104.964 279.08 104.891 279.08 104.818Z" fill="white"/>
<path d="M119.92 105.036H117C117 104.891 117 104.672 117 104.527L119.92 104.672C119.92 104.818 119.92 104.964 119.92 105.036Z" fill="#B8B8B8"/>
<path d="M119.92 104.672L117 104.527C117 103.944 117.146 103.361 117.292 102.851L120.139 103.58C119.993 103.944 119.92 104.308 119.92 104.672Z" fill="#BDBDBD"/>
<path d="M120.139 103.58L117.292 102.851C117.438 102.414 117.584 101.977 117.73 101.54L120.431 102.706C120.285 102.997 120.212 103.288 120.139 103.58Z" fill="#C2C2C2"/>
<path d="M120.431 102.706L117.73 101.54C117.876 101.176 118.095 100.812 118.314 100.448L120.796 101.977C120.65 102.196 120.504 102.414 120.431 102.706Z" fill="#C7C7C7"/>
<path d="M120.796 101.977L118.314 100.448C118.533 100.156 118.679 99.8648 118.898 99.5735L121.161 101.395C121.088 101.613 120.942 101.759 120.796 101.977Z" fill="#CCCCCC"/>
<path d="M121.234 101.394L118.971 99.5734C119.19 99.3549 119.409 99.0635 119.628 98.845L121.673 100.885C121.453 101.103 121.307 101.249 121.234 101.394Z" fill="#D1D1D1"/>
<path d="M121.599 100.957L119.555 98.9179C119.774 98.6994 119.993 98.5537 120.212 98.3352L122.037 100.593C121.891 100.666 121.745 100.812 121.599 100.957Z" fill="#D6D6D6"/>
<path d="M122.038 100.593L120.212 98.3352C120.431 98.1896 120.577 98.0439 120.796 97.8982L122.476 100.302C122.33 100.375 122.184 100.448 122.038 100.593Z" fill="#DBDBDB"/>
<path d="M122.476 100.229L120.796 97.8254C121.015 97.6797 121.161 97.6069 121.38 97.4612L122.841 100.011C122.695 100.083 122.549 100.156 122.476 100.229Z" fill="#E0E0E0"/>
<path d="M122.841 100.01L121.38 97.461C121.526 97.3882 121.745 97.2425 121.964 97.1697L123.279 99.792C123.06 99.8648 122.987 99.9376 122.841 100.01Z" fill="#E6E6E6"/>
<path d="M123.206 99.792L121.892 97.1697C122.038 97.0968 122.257 97.024 122.403 96.9512L123.498 99.6463C123.425 99.7191 123.352 99.792 123.206 99.792Z" fill="#EBEBEB"/>
<path d="M123.571 99.6463L122.476 96.9512C122.622 96.8783 122.841 96.8055 122.987 96.7327L123.936 99.5006C123.79 99.5735 123.644 99.6463 123.571 99.6463Z" fill="#F0F0F0"/>
<path d="M123.863 99.5008L122.914 96.7328C123.06 96.66 123.206 96.66 123.352 96.5872L124.155 99.4279C124.082 99.5008 124.009 99.5008 123.863 99.5008Z" fill="#F5F5F5"/>
<path d="M124.228 99.4279L123.425 96.5871C123.571 96.5143 123.717 96.5142 123.863 96.4414L124.52 99.2822C124.374 99.355 124.301 99.4279 124.228 99.4279Z" fill="#FAFAFA"/>
<path d="M124.52 99.355L123.863 96.5143C124.009 96.5143 124.155 96.4414 124.301 96.4414L124.812 99.2822C124.666 99.355 124.593 99.355 124.52 99.355Z" fill="white"/>
<path d="M124.812 99.282L124.301 96.4412C124.447 96.4412 124.593 96.3684 124.739 96.3684L125.104 99.282C124.958 99.282 124.885 99.282 124.812 99.282Z" fill="white"/>
<path d="M125.031 99.2821L124.666 96.3685C124.812 96.3685 124.958 96.3685 125.104 96.2957L125.323 99.2093C125.25 99.2821 125.177 99.2821 125.031 99.2821Z" fill="white"/>
<path d="M125.323 99.2093L125.104 96.2957C125.25 96.2957 125.323 96.2957 125.469 96.2957L125.542 99.2093C125.469 99.2093 125.396 99.2093 125.323 99.2093Z" fill="white"/>
<path d="M125.542 99.2093L125.469 96.2957C125.542 96.2957 125.688 96.2957 125.761 96.2957V99.2093C125.688 99.2093 125.615 99.2093 125.542 99.2093Z" fill="white"/>
<path d="M256.447 99.2091L253.526 96.2955V67.3777H256.447V99.2091Z" fill="#C3C3C3"/>
<path d="M256.447 67.3779H253.527C253.527 63.4445 253.089 59.584 252.286 55.9419L255.133 55.2864C256.009 59.2198 256.447 63.226 256.447 67.3779Z" fill="#B8B8B8"/>
<path d="M255.133 55.2863L252.285 55.9419C248.489 38.3144 236.004 23.8919 219.504 17.3362L220.6 14.6411C237.976 21.4881 251.117 36.7119 255.133 55.2863Z" fill="#B3B3B3"/>
<path d="M220.6 14.5684L219.505 17.2635C215.051 15.5153 210.233 14.277 205.268 13.7671L205.56 10.8535C210.817 11.4362 215.854 12.6745 220.6 14.5684Z" fill="#B8B8B8"/>
<path d="M205.633 10.8534L205.341 13.767C203.443 13.5485 201.471 13.4756 199.573 13.4756C197.894 13.4756 196.215 13.5485 194.608 13.6942L194.316 10.7805C196.069 10.6349 197.821 10.562 199.573 10.562C201.544 10.562 203.589 10.6349 205.633 10.8534Z" fill="#BDBDBD"/>
<path d="M194.243 10.7805L194.535 13.6941C191.615 13.9855 188.768 14.4226 185.993 15.151L185.263 12.3102C188.184 11.5818 191.177 11.0719 194.243 10.7805Z" fill="#C2C2C2"/>
<path d="M185.264 12.3831L185.994 15.2238C183.584 15.8066 181.248 16.6078 178.985 17.5548L177.89 14.8596C180.226 13.8399 182.708 12.9658 185.264 12.3831Z" fill="#C7C7C7"/>
<path d="M177.889 14.7869L178.984 17.482C176.94 18.2832 175.042 19.2302 173.144 20.3228L171.684 17.7733C173.655 16.6807 175.772 15.661 177.889 14.7869Z" fill="#CCCCCC"/>
<path d="M171.684 17.7732L173.144 20.3226C171.465 21.2696 169.786 22.2893 168.252 23.4548L166.573 21.051C168.179 19.8856 169.932 18.793 171.684 17.7732Z" fill="#D1D1D1"/>
<path d="M166.5 21.051L168.18 23.4548C166.792 24.4745 165.405 25.5672 164.091 26.6598L162.193 24.4745C163.58 23.2362 165.04 22.1436 166.5 21.051Z" fill="#D6D6D6"/>
<path d="M162.193 24.4746L164.091 26.6598C162.923 27.6796 161.755 28.7722 160.659 29.8648L158.615 27.8253C159.71 26.6598 160.952 25.4944 162.193 24.4746Z" fill="#DBDBDB"/>
<path d="M158.615 27.8252L160.733 29.8647C159.784 30.8845 158.834 31.9043 157.885 32.9969L155.622 31.103C156.571 30.0104 157.52 28.9178 158.615 27.8252Z" fill="#E0E0E0"/>
<path d="M155.622 31.176L157.885 33.0699C157.082 34.0897 156.279 35.1094 155.476 36.1292L153.066 34.4539C153.87 33.2884 154.746 32.1958 155.622 31.176Z" fill="#E6E6E6"/>
<path d="M153.139 34.3809L155.549 36.0562C154.892 37.0031 154.235 38.0229 153.578 39.0427L151.095 37.513C151.679 36.4932 152.409 35.4006 153.139 34.3809Z" fill="#EBEBEB"/>
<path d="M151.022 37.5132L153.505 39.0428C152.921 39.9898 152.41 40.8639 151.899 41.8108L149.343 40.4268C149.854 39.4799 150.438 38.533 151.022 37.5132Z" fill="#F0F0F0"/>
<path d="M149.343 40.4995L151.898 41.8835C151.387 42.7576 150.949 43.7045 150.511 44.5786L147.883 43.3403C148.321 42.3934 148.832 41.4464 149.343 40.4995Z" fill="#F5F5F5"/>
<path d="M147.883 43.3403L150.511 44.5786C150.073 45.4527 149.708 46.3268 149.343 47.2009L146.642 46.1083C147.08 45.1614 147.445 44.2144 147.883 43.3403Z" fill="#FAFAFA"/>
<path d="M146.642 46.1084L149.343 47.201C148.978 48.0023 148.686 48.8763 148.394 49.6776L145.62 48.7307C145.985 47.8566 146.35 46.9825 146.642 46.1084Z" fill="white"/>
<path d="M145.693 48.7307L148.467 49.6776C148.175 50.4789 147.956 51.2801 147.664 52.0814L144.89 51.2801C145.109 50.4061 145.401 49.6048 145.693 48.7307Z" fill="white"/>
<path d="M144.89 51.28L147.664 52.0813C147.445 52.8825 147.226 53.6838 147.007 54.485L144.16 53.7566C144.379 52.9554 144.598 52.0813 144.89 51.28Z" fill="white"/>
<path d="M144.16 53.7566L147.007 54.485C146.861 55.2134 146.642 55.9418 146.496 56.7431L143.648 56.1603C143.794 55.3591 144.013 54.5578 144.16 53.7566Z" fill="white"/>
<path d="M143.648 56.1604L146.496 56.7431C146.35 57.4715 146.204 58.2728 146.058 59.0012L143.137 58.5641C143.356 57.7629 143.502 56.9616 143.648 56.1604Z" fill="white"/>
<path d="M143.21 58.4912L146.131 58.9283C145.985 59.6567 145.912 60.3851 145.839 61.1135L142.918 60.7493C142.991 60.0209 143.137 59.2925 143.21 58.4912Z" fill="white"/>
<path d="M142.918 60.8223L145.839 61.1865C145.766 61.9149 145.693 62.6433 145.62 63.3717L142.699 63.1532C142.772 62.3519 142.845 61.5507 142.918 60.8223Z" fill="white"/>
<path d="M142.699 63.0801L145.62 63.2986C145.547 64.027 145.547 64.6826 145.474 65.411L142.553 65.3381C142.626 64.6097 142.626 63.8085 142.699 63.0801Z" fill="white"/>
<path d="M142.553 65.3384L145.474 65.4112C145.474 66.0668 145.474 66.7224 145.474 67.3779H142.553C142.553 66.7224 142.553 65.9939 142.553 65.3384Z" fill="white"/>
<path d="M142.553 67.3777H145.474V96.2955L142.553 99.2091V67.3777Z" fill="#EEEEEE"/>
<path d="M142.553 99.2093L145.474 96.2957H253.527L256.447 99.2093H142.553Z" fill="#EAEAEA"/>
<path d="M207.75 155.078L204.83 153.184C204.976 153.112 205.195 153.039 205.341 152.966L208.188 154.86C208.042 155.005 207.896 155.078 207.75 155.078Z" fill="#EBEBEB"/>
<path d="M208.188 154.932L205.341 152.966C205.706 152.82 205.998 152.601 206.29 152.456L208.991 154.423C208.772 154.568 208.48 154.787 208.188 154.932Z" fill="#E6E6E6"/>
<path d="M209.064 154.422L206.363 152.456C206.655 152.237 207.02 152.092 207.312 151.873L209.94 153.84C209.575 153.985 209.356 154.204 209.064 154.422Z" fill="#E0E0E0"/>
<path d="M209.867 153.767L207.239 151.8C207.531 151.582 207.823 151.363 208.115 151.072L210.743 152.966C210.451 153.257 210.159 153.548 209.867 153.767Z" fill="#DBDBDB"/>
<path d="M210.743 153.039L208.115 151.145C208.407 150.853 208.699 150.562 208.991 150.271L211.619 152.092C211.327 152.383 211.035 152.674 210.743 153.039Z" fill="#D6D6D6"/>
<path d="M211.62 152.019L208.991 150.198C209.283 149.834 209.575 149.542 209.867 149.178L212.496 150.853C212.277 151.29 211.912 151.655 211.62 152.019Z" fill="#D1D1D1"/>
<path d="M212.569 150.853L209.94 149.178C210.232 148.814 210.524 148.377 210.817 147.94L213.518 149.397C213.153 149.906 212.861 150.416 212.569 150.853Z" fill="#CCCCCC"/>
<path d="M213.444 149.397L210.743 147.94C211.035 147.43 211.327 146.92 211.546 146.41L214.321 147.576C214.029 148.231 213.737 148.814 213.444 149.397Z" fill="#C7C7C7"/>
<path d="M214.321 147.648L211.546 146.483C211.838 145.9 212.057 145.245 212.203 144.589L215.051 145.318C214.832 146.119 214.613 146.847 214.321 147.648Z" fill="#C2C2C2"/>
<path d="M215.051 145.317L212.204 144.589C212.423 143.788 212.569 142.914 212.642 142.04L215.562 142.185C215.489 143.278 215.27 144.298 215.051 145.317Z" fill="#BDBDBD"/>
<path d="M215.562 142.258L212.642 142.112C212.642 141.821 212.642 141.603 212.642 141.311C212.642 140.364 212.569 139.417 212.35 138.543L215.197 137.888C215.416 138.98 215.562 140.146 215.562 141.311C215.562 141.603 215.562 141.894 215.562 142.258Z" fill="#B8B8B8"/>
<path d="M215.197 137.815L212.35 138.47C211.4 134.173 208.407 130.677 204.392 129.074L205.487 126.379C210.378 128.273 214.029 132.57 215.197 137.815Z" fill="#B3B3B3"/>
<path d="M205.414 126.379L204.319 129.074C203.223 128.637 202.055 128.345 200.887 128.2L201.179 125.286C202.712 125.432 204.1 125.796 205.414 126.379Z" fill="#B8B8B8"/>
<path d="M201.252 125.286L200.96 128.2C200.522 128.127 200.011 128.127 199.573 128.127C199.135 128.127 198.77 128.127 198.332 128.2L198.04 125.286C198.551 125.213 198.989 125.213 199.5 125.213C200.084 125.213 200.668 125.213 201.252 125.286Z" fill="#BDBDBD"/>
<path d="M198.04 125.286L198.332 128.2C197.602 128.273 196.945 128.418 196.288 128.564L195.558 125.723C196.288 125.505 197.164 125.359 198.04 125.286Z" fill="#C2C2C2"/>
<path d="M195.485 125.723L196.215 128.564C195.631 128.71 195.047 128.928 194.536 129.147L193.44 126.452C194.098 126.16 194.755 125.942 195.485 125.723Z" fill="#C7C7C7"/>
<path d="M193.367 126.379L194.463 129.074C193.952 129.293 193.513 129.511 193.075 129.73L191.615 127.18C192.199 126.962 192.783 126.67 193.367 126.379Z" fill="#CCCCCC"/>
<path d="M191.688 127.253L193.148 129.802C192.71 130.021 192.345 130.312 191.98 130.531L190.301 128.127C190.666 127.836 191.177 127.544 191.688 127.253Z" fill="#D1D1D1"/>
<path d="M190.228 128.2L191.907 130.604C191.542 130.822 191.25 131.114 190.885 131.405L188.987 129.22C189.352 128.783 189.79 128.491 190.228 128.2Z" fill="#D6D6D6"/>
<path d="M188.986 129.147L190.885 131.332C190.593 131.55 190.301 131.842 190.082 132.133L187.964 130.094C188.256 129.729 188.621 129.438 188.986 129.147Z" fill="#DBDBDB"/>
<path d="M187.965 130.094L190.082 132.133C189.863 132.352 189.644 132.643 189.425 132.935L187.162 131.041C187.381 130.676 187.673 130.385 187.965 130.094Z" fill="#E0E0E0"/>
<path d="M187.088 131.041L189.352 132.934C189.133 133.153 188.987 133.444 188.768 133.663L186.358 131.987C186.65 131.623 186.869 131.332 187.088 131.041Z" fill="#E6E6E6"/>
<path d="M186.431 131.915L188.841 133.59C188.695 133.809 188.475 134.1 188.329 134.319L185.847 132.789C185.993 132.498 186.212 132.206 186.431 131.915Z" fill="#EBEBEB"/>
<path d="M185.847 132.862L188.33 134.391C188.184 134.61 188.037 134.828 187.964 135.047L185.409 133.663C185.482 133.371 185.628 133.08 185.847 132.862Z" fill="#F0F0F0"/>
<path d="M185.336 133.663L187.891 135.047C187.745 135.265 187.672 135.484 187.526 135.702L184.898 134.464C185.044 134.173 185.19 133.954 185.336 133.663Z" fill="#F5F5F5"/>
<path d="M184.971 134.464L187.599 135.702C187.526 135.921 187.38 136.139 187.307 136.358L184.606 135.265C184.679 134.974 184.825 134.755 184.971 134.464Z" fill="#FAFAFA"/>
<path d="M184.606 135.265L187.307 136.358C187.234 136.577 187.161 136.795 187.088 136.941L184.314 135.994C184.387 135.775 184.533 135.484 184.606 135.265Z" fill="white"/>
<path d="M184.314 135.994L187.089 136.941C187.016 137.159 186.943 137.305 186.87 137.524L184.095 136.722C184.168 136.504 184.241 136.212 184.314 135.994Z" fill="white"/>
<path d="M184.095 136.722L186.869 137.523C186.796 137.742 186.796 137.888 186.723 138.106L183.876 137.378C183.949 137.159 184.022 136.941 184.095 136.722Z" fill="white"/>
<path d="M183.876 137.378L186.723 138.106C186.65 138.252 186.65 138.471 186.577 138.616L183.73 138.033C183.803 137.888 183.876 137.596 183.876 137.378Z" fill="white"/>
<path d="M183.73 138.106L186.577 138.689C186.577 138.835 186.504 139.053 186.504 139.272L183.584 138.835C183.657 138.543 183.73 138.325 183.73 138.106Z" fill="white"/>
<path d="M183.657 138.762L186.577 139.199C186.577 139.344 186.504 139.563 186.504 139.709L183.584 139.344C183.584 139.199 183.584 138.98 183.657 138.762Z" fill="white"/>
<path d="M183.511 139.417L186.431 139.781C186.431 139.927 186.358 140.146 186.358 140.291L183.438 140.073C183.511 139.854 183.511 139.636 183.511 139.417Z" fill="white"/>
<path d="M183.511 140.073L186.431 140.292C186.431 140.437 186.431 140.656 186.431 140.801L183.511 140.729C183.438 140.437 183.438 140.292 183.511 140.073Z" fill="white"/>
<path d="M183.438 140.656L186.358 140.729C186.358 140.874 186.358 141.02 186.358 141.166C186.358 141.166 186.358 141.166 186.358 141.238H183.438V141.166C183.438 141.02 183.438 140.874 183.438 140.656Z" fill="white"/>
<path d="M183.438 141.311H186.358C186.358 141.457 186.358 141.675 186.358 141.821L183.438 141.967C183.438 141.748 183.438 141.53 183.438 141.311Z" fill="white"/>
<path d="M183.438 141.967L186.358 141.821C186.358 141.967 186.358 142.185 186.358 142.331L183.438 142.549C183.438 142.331 183.438 142.112 183.438 141.967Z" fill="white"/>
<path d="M183.511 142.55L186.431 142.331C186.431 142.477 186.431 142.695 186.504 142.841L183.584 143.205C183.511 142.987 183.511 142.768 183.511 142.55Z" fill="white"/>
<path d="M183.584 143.205L186.504 142.841C186.504 142.987 186.577 143.205 186.577 143.351L183.657 143.788C183.584 143.642 183.584 143.424 183.584 143.205Z" fill="white"/>
<path d="M183.657 143.861L186.578 143.424C186.578 143.569 186.651 143.788 186.651 143.933L183.803 144.516C183.73 144.225 183.657 144.006 183.657 143.861Z" fill="white"/>
<path d="M183.73 144.443L186.577 143.861C186.577 144.006 186.65 144.225 186.723 144.37L183.876 145.099C183.876 144.88 183.803 144.662 183.73 144.443Z" fill="white"/>
<path d="M183.876 145.099L186.723 144.371C186.796 144.516 186.796 144.735 186.869 144.88L184.022 145.682C184.022 145.536 183.949 145.318 183.876 145.099Z" fill="white"/>
<path d="M184.022 145.754L186.869 144.953C186.942 145.172 187.015 145.317 187.015 145.536L184.241 146.483C184.168 146.191 184.095 145.973 184.022 145.754Z" fill="white"/>
<path d="M184.241 146.41L187.016 145.463C187.089 145.682 187.162 145.827 187.235 146.046L184.46 147.066C184.387 146.92 184.314 146.701 184.241 146.41Z" fill="white"/>
<path d="M184.533 147.138L187.308 146.119C187.381 146.337 187.454 146.556 187.6 146.701L184.825 147.867C184.679 147.648 184.606 147.357 184.533 147.138Z" fill="white"/>
<path d="M184.825 147.867L187.6 146.701C187.673 146.92 187.819 147.138 187.965 147.357L185.263 148.668C185.044 148.45 184.898 148.158 184.825 147.867Z" fill="white"/>
<path d="M185.19 148.668L187.892 147.357C188.038 147.648 188.184 147.94 188.403 148.158L185.774 149.615C185.555 149.324 185.336 149.032 185.19 148.668Z" fill="white"/>
<path d="M185.701 149.688L188.329 148.231C188.622 148.668 188.914 149.105 189.206 149.469L186.577 151.145C186.285 150.708 185.993 150.198 185.701 149.688Z" fill="white"/>
<path d="M186.65 151.145L189.279 149.469C189.717 149.979 190.155 150.416 190.593 150.853L187.965 152.747C187.526 152.237 187.088 151.727 186.65 151.145Z" fill="white"/>
<path d="M187.964 152.747L190.593 150.853C190.958 151.145 191.323 151.436 191.688 151.727L189.059 153.694C188.621 153.403 188.329 153.038 187.964 152.747Z" fill="white"/>
<path d="M188.987 153.694L191.615 151.728C191.834 151.873 192.053 152.019 192.272 152.165L189.571 154.131C189.425 153.986 189.206 153.84 188.987 153.694Z" fill="white"/>
<path d="M189.571 154.131L192.272 152.165C192.418 152.31 192.637 152.383 192.783 152.456L190.009 154.423C189.936 154.35 189.79 154.277 189.571 154.131Z" fill="white"/>
<path d="M190.082 154.496L192.856 152.529C193.002 152.602 193.148 152.674 193.294 152.747L190.52 154.714C190.301 154.641 190.228 154.568 190.082 154.496Z" fill="white"/>
<path d="M190.447 154.714L193.221 152.747C193.367 152.82 193.44 152.893 193.586 152.966L190.739 154.859C190.666 154.859 190.52 154.787 190.447 154.714Z" fill="white"/>
<path d="M190.739 154.86L193.586 152.966C193.659 153.039 193.805 153.039 193.878 153.112L190.958 155.005C190.958 155.005 190.885 154.933 190.739 154.86Z" fill="white"/>
<path d="M191.031 155.005L193.951 153.111C194.024 153.111 194.097 153.184 194.17 153.184L191.25 155.078C191.177 155.078 191.104 155.078 191.031 155.005Z" fill="white"/>
<path d="M191.25 155.078L194.17 153.184V178.314L191.25 181.228V155.078Z" fill="#EEEEEE"/>
<path d="M191.25 181.228L194.17 178.314H204.83L207.75 181.228H191.25Z" fill="#EAEAEA"/>
<path d="M207.75 181.228L204.83 178.314V153.184L207.75 155.078V181.228Z" fill="#C3C3C3"/>
<path d="M273.239 99.2091C276.451 99.2091 279.08 101.831 279.08 105.036V201.186C279.08 204.391 276.451 207.013 273.239 207.013H125.761C122.549 207.013 119.92 204.391 119.92 201.186V105.036C119.92 101.831 122.549 99.2091 125.761 99.2091H134.887V67.3777C134.887 31.7585 163.799 2.91357 199.5 2.91357C235.201 2.91357 264.113 31.7585 264.113 67.3777V99.2091H273.239ZM256.447 99.2091V67.3777C256.447 35.9833 230.967 10.5619 199.5 10.5619C168.033 10.5619 142.553 35.9833 142.553 67.3777V99.2091H256.447ZM207.75 155.078C211.62 153.33 215.562 147.721 215.562 141.238C215.562 132.424 208.407 125.213 199.5 125.213C190.666 125.213 183.438 132.424 183.438 141.238C183.438 147.794 187.381 153.403 191.25 155.078V181.228H207.75V155.078Z" fill="url(#paint0_radial)"/>
<defs>
<radialGradient id="paint0_radial" cx="0" cy="0" r="1" gradientUnits="userSpaceOnUse" gradientTransform="translate(241.844 80.3216) scale(172.042 171.646)">
<stop stop-color="white"/>
<stop offset="1" stop-color="#9E9E9E"/>
</radialGradient>
</defs>
</svg>
