<svg width="64" height="64" viewBox="0 0 64 64" fill="none" xmlns="http://www.w3.org/2000/svg">
<path fill-rule="evenodd" clip-rule="evenodd" d="M22.1763 0.000488281H41.8235C59.7542 0.000488281 63.9998 4.24606 63.9998 22.1768V41.8239C63.9998 59.7547 59.7542 64.0003 41.8235 64.0003H22.1763C4.24557 64.0003 0 59.7547 0 41.8239V22.1768C0 4.24606 4.24557 0.000488281 22.1763 0.000488281Z" fill="#4680C2"/>
<path fill-rule="evenodd" clip-rule="evenodd" d="M52.3098 20.4285C52.6259 19.4349 52.3098 18.7122 50.9097 18.7122H46.2575C45.0833 18.7122 44.5413 19.3445 44.2251 20.0221C44.2251 20.0221 41.8313 25.8032 38.489 29.5519C37.405 30.6359 36.9082 30.9972 36.3212 30.9972C36.0049 30.9972 35.5985 30.6359 35.5985 29.6423V20.3833C35.5985 19.209 35.2372 18.667 34.2434 18.667H26.9267C26.204 18.667 25.7524 19.209 25.7524 19.751C25.7524 20.8802 27.4235 21.1511 27.6041 24.3127V31.1779C27.6041 32.6684 27.3332 32.9393 26.746 32.9393C25.1652 32.9393 21.3261 27.113 19.0227 20.4737C18.571 19.1638 18.1194 18.667 16.9451 18.667H12.2478C10.8928 18.667 10.667 19.2994 10.667 19.9769C10.667 21.1963 12.2478 27.3388 18.029 35.4687C21.8681 41.024 27.3332 44.0049 32.2562 44.0049C35.2372 44.0049 35.5985 43.3274 35.5985 42.1984V37.998C35.5985 36.6429 35.8694 36.4172 36.818 36.4172C37.4954 36.4172 38.7149 36.7784 41.4699 39.4432C44.6315 42.6048 45.1735 44.0501 46.935 44.0501H51.5871C52.942 44.0501 53.5744 43.3726 53.2131 42.0628C52.8066 40.753 51.271 38.8561 49.2837 36.5977C48.1997 35.3332 46.5737 33.9331 46.0769 33.2555C45.3994 32.3523 45.5801 31.9909 46.0769 31.1779C46.0318 31.1779 51.7226 23.1384 52.3098 20.4285Z" fill="white"/>
</svg>
