<svg width="65" height="64" viewBox="0 0 65 64" fill="none" xmlns="http://www.w3.org/2000/svg">
<path d="M32.3314 63.9998C50.0045 63.9998 64.3313 49.6729 64.3313 31.9999C64.3313 14.3268 50.0045 0 32.3314 0C14.6584 0 0.331543 14.3268 0.331543 31.9999C0.331543 49.6729 14.6584 63.9998 32.3314 63.9998Z" fill="#25D366"/>
<path fill-rule="evenodd" clip-rule="evenodd" d="M33.3863 49.8033H33.3784C30.1938 49.8022 27.0646 49.0032 24.2853 47.4872L14.1982 50.1333L16.8977 40.2731C15.2325 37.3873 14.3563 34.114 14.3578 30.7603C14.3619 20.269 22.898 11.7334 33.3861 11.7334C38.4763 11.7356 43.2539 13.7172 46.8464 17.3139C50.4389 20.9105 52.4163 25.6911 52.4143 30.7753C52.4101 41.2643 43.8775 49.799 33.3863 49.8033ZM24.7527 44.0425L25.3302 44.3853C27.7584 45.8263 30.5419 46.5887 33.3798 46.5898H33.3862C42.1032 46.5898 49.198 39.4949 49.2015 30.7743C49.2031 26.5484 47.5596 22.5749 44.5737 19.5854C41.5877 16.596 37.6168 14.9488 33.3925 14.9474C24.6687 14.9474 17.5739 22.0416 17.5704 30.7615C17.5692 33.7499 18.4054 36.6602 19.9885 39.1782L20.3645 39.7766L18.7668 45.6127L24.7527 44.0425ZM42.3213 34.8721C42.6529 35.0324 42.8768 35.1406 42.9725 35.3002C43.0913 35.4985 43.0913 36.4504 42.6953 37.5612C42.2989 38.6718 40.3995 39.6854 39.486 39.8218C38.6669 39.9443 37.6303 39.9954 36.4914 39.6334C35.8008 39.4143 34.9153 39.1218 33.7809 38.6319C29.3237 36.7073 26.3115 32.3873 25.7422 31.5708C25.7023 31.5136 25.6745 31.4736 25.6589 31.4528L25.6551 31.4477C25.4034 31.112 23.7175 28.8625 23.7175 26.5345C23.7175 24.3444 24.7933 23.1965 25.2885 22.6681C25.3224 22.6319 25.3536 22.5986 25.3815 22.5681C25.8173 22.0921 26.3325 21.9731 26.6494 21.9731C26.9663 21.9731 27.2836 21.976 27.5607 21.99C27.5948 21.9917 27.6304 21.9915 27.6671 21.9913C27.9442 21.9896 28.2896 21.9876 28.6304 22.8061C28.7615 23.1211 28.9533 23.5881 29.1556 24.0806C29.5647 25.0766 30.0167 26.1771 30.0963 26.3364C30.2152 26.5744 30.2944 26.8519 30.1359 27.1694C30.1121 27.217 30.0901 27.2619 30.0691 27.3048C29.9501 27.5478 29.8625 27.7266 29.6605 27.9625C29.581 28.0552 29.4989 28.1552 29.4168 28.2552C29.2533 28.4544 29.0897 28.6536 28.9473 28.7955C28.7093 29.0325 28.4615 29.2898 28.7388 29.7658C29.0162 30.2418 29.9704 31.7986 31.3838 33.0594C32.9032 34.4146 34.2237 34.9874 34.893 35.2777C35.0237 35.3344 35.1296 35.3803 35.2073 35.4192C35.6826 35.6573 35.9599 35.6175 36.2373 35.3002C36.5146 34.9829 37.4258 33.9119 37.7427 33.436C38.0596 32.9602 38.3767 33.0394 38.8124 33.198C39.2483 33.3568 41.5858 34.5069 42.0613 34.7449C42.1541 34.7913 42.2409 34.8333 42.3213 34.8721Z" fill="#FDFDFD"/>
</svg>
